0
SECTION
2
HEADER
9
$ANGDIR
70
1
9
$AUNITS
70
0
9
$PROJECTNAME
1
RFID UNIT
9
$TDCREATE
40
2459116.72209077
9
$INSUNITS
70
4
0
ENDSEC
0
SECTION
2
ENTITIES
0
POLYLINE
66
1
8
outline
10
0.0
20
0.0
30
0.0
70
1
0
VERTEX
8
0
10
21.59
20
10.16
30
0
0
VERTEX
8
0
10
85.07000000000001
20
10.16
30
0
0
VERTEX
8
0
10
85.07000000000001
20
56.82
30
0
0
VERTEX
8
0
10
21.59
20
56.82
30
0
0
VERTEX
8
0
10
21.59
20
10.16
30
0
0
SEQEND
0
POLYLINE
66
1
8
holes
10
0.0
20
0.0
30
0.0
70
1
0
VERTEX
8
0
10
25.130000000000003
20
12.656337500000001
30
0
0
VERTEX
8
0
10
25.122390625
20
12.56935
30
0
0
VERTEX
8
0
10
25.107225
20
12.483353125
30
0
0
VERTEX
8
0
10
25.084625000000003
20
12.399006250000001
30
0
0
VERTEX
8
0
10
25.054759375
20
12.316953125000001
30
0
0
VERTEX
8
0
10
25.01785625
20
12.2378125
30
0
0
VERTEX
8
0
10
24.97419375
20
12.1621875
30
0
0
VERTEX
8
0
10
24.924109375
20
12.090659375000001
30
0
0
VERTEX
8
0
10
24.86798125
20
12.023765625000001
30
0
0
VERTEX
8
0
10
24.806234375000003
20
11.96201875
30
0
0
VERTEX
8
0
10
24.739340625
20
11.905890625000001
30
0
0
VERTEX
8
0
10
24.6678125
20
11.85580625
30
0
0
VERTEX
8
0
10
24.5921875
20
11.81214375
30
0
0
VERTEX
8
0
10
24.513046875
20
11.775240625
30
0
0
VERTEX
8
0
10
24.430993750000003
20
11.745375000000001
30
0
0
VERTEX
8
0
10
24.346646875
20
11.722775
30
0
0
VERTEX
8
0
10
24.260650000000002
20
11.707609375
30
0
0
VERTEX
8
0
10
24.173662500000002
20
11.700000000000001
30
0
0
VERTEX
8
0
10
24.086337500000003
20
11.700000000000001
30
0
0
VERTEX
8
0
10
23.99935
20
11.707609375
30
0
0
VERTEX
8
0
10
23.913353125
20
11.722775
30
0
0
VERTEX
8
0
10
23.829006250000003
20
11.745375000000001
30
0
0
VERTEX
8
0
10
23.746953125
20
11.775240625
30
0
0
VERTEX
8
0
10
23.6678125
20
11.81214375
30
0
0
VERTEX
8
0
10
23.5921875
20
11.85580625
30
0
0
VERTEX
8
0
10
23.520659375
20
11.905890625000001
30
0
0
VERTEX
8
0
10
23.453765625000003
20
11.96201875
30
0
0
VERTEX
8
0
10
23.392018750000002
20
12.023765625000001
30
0
0
VERTEX
8
0
10
23.335890625
20
12.090659375000001
30
0
0
VERTEX
8
0
10
23.28580625
20
12.1621875
30
0
0
VERTEX
8
0
10
23.24214375
20
12.2378125
30
0
0
VERTEX
8
0
10
23.205240625000002
20
12.316953125000001
30
0
0
VERTEX
8
0
10
23.175375000000003
20
12.399006250000001
30
0
0
VERTEX
8
0
10
23.152775000000002
20
12.483353125
30
0
0
VERTEX
8
0
10
23.137609375
20
12.56935
30
0
0
VERTEX
8
0
10
23.130000000000003
20
12.656337500000001
30
0
0
VERTEX
8
0
10
23.130000000000003
20
12.743662500000001
30
0
0
VERTEX
8
0
10
23.137609375
20
12.83065
30
0
0
VERTEX
8
0
10
23.152775000000002
20
12.916646875000001
30
0
0
VERTEX
8
0
10
23.175375000000003
20
13.000993750000001
30
0
0
VERTEX
8
0
10
23.205240625000002
20
13.083046875
30
0
0
VERTEX
8
0
10
23.24214375
20
13.1621875
30
0
0
VERTEX
8
0
10
23.28580625
20
13.2378125
30
0
0
VERTEX
8
0
10
23.335890625
20
13.309340625
30
0
0
VERTEX
8
0
10
23.392018750000002
20
13.376234375000001
30
0
0
VERTEX
8
0
10
23.453765625000003
20
13.43798125
30
0
0
VERTEX
8
0
10
23.520659375
20
13.494109375
30
0
0
VERTEX
8
0
10
23.5921875
20
13.54419375
30
0
0
VERTEX
8
0
10
23.6678125
20
13.587856250000002
30
0
0
VERTEX
8
0
10
23.746953125
20
13.624759375
30
0
0
VERTEX
8
0
10
23.829006250000003
20
13.654625000000001
30
0
0
VERTEX
8
0
10
23.913353125
20
13.677225
30
0
0
VERTEX
8
0
10
23.99935
20
13.692390625
30
0
0
VERTEX
8
0
10
24.086337500000003
20
13.700000000000001
30
0
0
VERTEX
8
0
10
24.173662500000002
20
13.700000000000001
30
0
0
VERTEX
8
0
10
24.260650000000002
20
13.692390625
30
0
0
VERTEX
8
0
10
24.346646875
20
13.677225
30
0
0
VERTEX
8
0
10
24.430993750000003
20
13.654625000000001
30
0
0
VERTEX
8
0
10
24.513046875
20
13.624759375
30
0
0
VERTEX
8
0
10
24.5921875
20
13.587856250000002
30
0
0
VERTEX
8
0
10
24.6678125
20
13.54419375
30
0
0
VERTEX
8
0
10
24.739340625
20
13.494109375
30
0
0
VERTEX
8
0
10
24.806234375000003
20
13.43798125
30
0
0
VERTEX
8
0
10
24.86798125
20
13.376234375000001
30
0
0
VERTEX
8
0
10
24.924109375
20
13.309340625
30
0
0
VERTEX
8
0
10
24.97419375
20
13.2378125
30
0
0
VERTEX
8
0
10
25.01785625
20
13.1621875
30
0
0
VERTEX
8
0
10
25.054759375
20
13.083046875
30
0
0
VERTEX
8
0
10
25.084625000000003
20
13.000993750000001
30
0
0
VERTEX
8
0
10
25.107225
20
12.916646875000001
30
0
0
VERTEX
8
0
10
25.122390625
20
12.83065
30
0
0
VERTEX
8
0
10
25.130000000000003
20
12.743662500000001
30
0
0
VERTEX
8
0
10
25.130000000000003
20
12.656337500000001
30
0
0
SEQEND
0
POLYLINE
66
1
8
holes
10
0.0
20
0.0
30
0.0
70
1
0
VERTEX
8
0
10
83.55
20
12.656337500000001
30
0
0
VERTEX
8
0
10
83.54239062500001
20
12.56935
30
0
0
VERTEX
8
0
10
83.527225
20
12.483353125
30
0
0
VERTEX
8
0
10
83.504625
20
12.399006250000001
30
0
0
VERTEX
8
0
10
83.474759375
20
12.316953125000001
30
0
0
VERTEX
8
0
10
83.43785625000001
20
12.2378125
30
0
0
VERTEX
8
0
10
83.39419375
20
12.1621875
30
0
0
VERTEX
8
0
10
83.344109375
20
12.090659375000001
30
0
0
VERTEX
8
0
10
83.28798125
20
12.023765625000001
30
0
0
VERTEX
8
0
10
83.226234375
20
11.96201875
30
0
0
VERTEX
8
0
10
83.159340625
20
11.905890625000001
30
0
0
VERTEX
8
0
10
83.0878125
20
11.85580625
30
0
0
VERTEX
8
0
10
83.01218750000001
20
11.81214375
30
0
0
VERTEX
8
0
10
82.933046875
20
11.775240625
30
0
0
VERTEX
8
0
10
82.85099375
20
11.745375000000001
30
0
0
VERTEX
8
0
10
82.766646875
20
11.722775
30
0
0
VERTEX
8
0
10
82.68065
20
11.707609375
30
0
0
VERTEX
8
0
10
82.59366250000001
20
11.700000000000001
30
0
0
VERTEX
8
0
10
82.5063375
20
11.700000000000001
30
0
0
VERTEX
8
0
10
82.41935000000001
20
11.707609375
30
0
0
VERTEX
8
0
10
82.333353125
20
11.722775
30
0
0
VERTEX
8
0
10
82.24900625000001
20
11.745375000000001
30
0
0
VERTEX
8
0
10
82.166953125
20
11.775240625
30
0
0
VERTEX
8
0
10
82.0878125
20
11.81214375
30
0
0
VERTEX
8
0
10
82.01218750000001
20
11.85580625
30
0
0
VERTEX
8
0
10
81.94065937500001
20
11.905890625000001
30
0
0
VERTEX
8
0
10
81.873765625
20
11.96201875
30
0
0
VERTEX
8
0
10
81.81201875000001
20
12.023765625000001
30
0
0
VERTEX
8
0
10
81.755890625
20
12.090659375000001
30
0
0
VERTEX
8
0
10
81.70580625000001
20
12.1621875
30
0
0
VERTEX
8
0
10
81.66214375
20
12.2378125
30
0
0
VERTEX
8
0
10
81.625240625
20
12.316953125000001
30
0
0
VERTEX
8
0
10
81.595375
20
12.399006250000001
30
0
0
VERTEX
8
0
10
81.57277500000001
20
12.483353125
30
0
0
VERTEX
8
0
10
81.557609375
20
12.56935
30
0
0
VERTEX
8
0
10
81.55
20
12.656337500000001
30
0
0
VERTEX
8
0
10
81.55
20
12.743662500000001
30
0
0
VERTEX
8
0
10
81.557609375
20
12.83065
30
0
0
VERTEX
8
0
10
81.57277500000001
20
12.916646875000001
30
0
0
VERTEX
8
0
10
81.595375
20
13.000993750000001
30
0
0
VERTEX
8
0
10
81.625240625
20
13.083046875
30
0
0
VERTEX
8
0
10
81.66214375
20
13.1621875
30
0
0
VERTEX
8
0
10
81.70580625000001
20
13.2378125
30
0
0
VERTEX
8
0
10
81.755890625
20
13.309340625
30
0
0
VERTEX
8
0
10
81.81201875000001
20
13.376234375000001
30
0
0
VERTEX
8
0
10
81.873765625
20
13.43798125
30
0
0
VERTEX
8
0
10
81.94065937500001
20
13.494109375
30
0
0
VERTEX
8
0
10
82.01218750000001
20
13.54419375
30
0
0
VERTEX
8
0
10
82.0878125
20
13.587856250000002
30
0
0
VERTEX
8
0
10
82.166953125
20
13.624759375
30
0
0
VERTEX
8
0
10
82.24900625000001
20
13.654625000000001
30
0
0
VERTEX
8
0
10
82.333353125
20
13.677225
30
0
0
VERTEX
8
0
10
82.41935000000001
20
13.692390625
30
0
0
VERTEX
8
0
10
82.5063375
20
13.700000000000001
30
0
0
VERTEX
8
0
10
82.59366250000001
20
13.700000000000001
30
0
0
VERTEX
8
0
10
82.68065
20
13.692390625
30
0
0
VERTEX
8
0
10
82.766646875
20
13.677225
30
0
0
VERTEX
8
0
10
82.85099375
20
13.654625000000001
30
0
0
VERTEX
8
0
10
82.933046875
20
13.624759375
30
0
0
VERTEX
8
0
10
83.01218750000001
20
13.587856250000002
30
0
0
VERTEX
8
0
10
83.0878125
20
13.54419375
30
0
0
VERTEX
8
0
10
83.159340625
20
13.494109375
30
0
0
VERTEX
8
0
10
83.226234375
20
13.43798125
30
0
0
VERTEX
8
0
10
83.28798125
20
13.376234375000001
30
0
0
VERTEX
8
0
10
83.344109375
20
13.309340625
30
0
0
VERTEX
8
0
10
83.39419375
20
13.2378125
30
0
0
VERTEX
8
0
10
83.43785625000001
20
13.1621875
30
0
0
VERTEX
8
0
10
83.474759375
20
13.083046875
30
0
0
VERTEX
8
0
10
83.504625
20
13.000993750000001
30
0
0
VERTEX
8
0
10
83.527225
20
12.916646875000001
30
0
0
VERTEX
8
0
10
83.54239062500001
20
12.83065
30
0
0
VERTEX
8
0
10
83.55
20
12.743662500000001
30
0
0
VERTEX
8
0
10
83.55
20
12.656337500000001
30
0
0
SEQEND
0
POLYLINE
66
1
8
holes
10
0.0
20
0.0
30
0.0
70
1
0
VERTEX
8
0
10
83.55
20
54.5663375
30
0
0
VERTEX
8
0
10
83.54239062500001
20
54.479350000000004
30
0
0
VERTEX
8
0
10
83.527225
20
54.393353125000004
30
0
0
VERTEX
8
0
10
83.504625
20
54.30900625
30
0
0
VERTEX
8
0
10
83.474759375
20
54.226953125
30
0
0
VERTEX
8
0
10
83.43785625000001
20
54.1478125
30
0
0
VERTEX
8
0
10
83.39419375
20
54.072187500000005
30
0
0
VERTEX
8
0
10
83.344109375
20
54.000659375000005
30
0
0
VERTEX
8
0
10
83.28798125
20
53.933765625
30
0
0
VERTEX
8
0
10
83.226234375
20
53.87201875
30
0
0
VERTEX
8
0
10
83.159340625
20
53.815890625
30
0
0
VERTEX
8
0
10
83.0878125
20
53.765806250000004
30
0
0
VERTEX
8
0
10
83.01218750000001
20
53.72214375
30
0
0
VERTEX
8
0
10
82.933046875
20
53.685240625000006
30
0
0
VERTEX
8
0
10
82.85099375
20
53.655375
30
0
0
VERTEX
8
0
10
82.766646875
20
53.632775
30
0
0
VERTEX
8
0
10
82.68065
20
53.617609375
30
0
0
VERTEX
8
0
10
82.59366250000001
20
53.61
30
0
0
VERTEX
8
0
10
82.5063375
20
53.61
30
0
0
VERTEX
8
0
10
82.41935000000001
20
53.617609375
30
0
0
VERTEX
8
0
10
82.333353125
20
53.632775
30
0
0
VERTEX
8
0
10
82.24900625000001
20
53.655375
30
0
0
VERTEX
8
0
10
82.166953125
20
53.685240625000006
30
0
0
VERTEX
8
0
10
82.0878125
20
53.72214375
30
0
0
VERTEX
8
0
10
82.01218750000001
20
53.765806250000004
30
0
0
VERTEX
8
0
10
81.94065937500001
20
53.815890625
30
0
0
VERTEX
8
0
10
81.873765625
20
53.87201875
30
0
0
VERTEX
8
0
10
81.81201875000001
20
53.933765625
30
0
0
VERTEX
8
0
10
81.755890625
20
54.000659375000005
30
0
0
VERTEX
8
0
10
81.70580625000001
20
54.072187500000005
30
0
0
VERTEX
8
0
10
81.66214375
20
54.1478125
30
0
0
VERTEX
8
0
10
81.625240625
20
54.226953125
30
0
0
VERTEX
8
0
10
81.595375
20
54.30900625
30
0
0
VERTEX
8
0
10
81.57277500000001
20
54.393353125000004
30
0
0
VERTEX
8
0
10
81.557609375
20
54.479350000000004
30
0
0
VERTEX
8
0
10
81.55
20
54.5663375
30
0
0
VERTEX
8
0
10
81.55
20
54.6536625
30
0
0
VERTEX
8
0
10
81.557609375
20
54.74065
30
0
0
VERTEX
8
0
10
81.57277500000001
20
54.826646875
30
0
0
VERTEX
8
0
10
81.595375
20
54.91099375
30
0
0
VERTEX
8
0
10
81.625240625
20
54.993046875000005
30
0
0
VERTEX
8
0
10
81.66214375
20
55.072187500000005
30
0
0
VERTEX
8
0
10
81.70580625000001
20
55.1478125
30
0
0
VERTEX
8
0
10
81.755890625
20
55.219340625
30
0
0
VERTEX
8
0
10
81.81201875000001
20
55.286234375
30
0
0
VERTEX
8
0
10
81.873765625
20
55.347981250000004
30
0
0
VERTEX
8
0
10
81.94065937500001
20
55.404109375000004
30
0
0
VERTEX
8
0
10
82.01218750000001
20
55.45419375
30
0
0
VERTEX
8
0
10
82.0878125
20
55.497856250000005
30
0
0
VERTEX
8
0
10
82.166953125
20
55.534759375
30
0
0
VERTEX
8
0
10
82.24900625000001
20
55.564625
30
0
0
VERTEX
8
0
10
82.333353125
20
55.587225000000004
30
0
0
VERTEX
8
0
10
82.41935000000001
20
55.602390625000005
30
0
0
VERTEX
8
0
10
82.5063375
20
55.61
30
0
0
VERTEX
8
0
10
82.59366250000001
20
55.61
30
0
0
VERTEX
8
0
10
82.68065
20
55.602390625000005
30
0
0
VERTEX
8
0
10
82.766646875
20
55.587225000000004
30
0
0
VERTEX
8
0
10
82.85099375
20
55.564625
30
0
0
VERTEX
8
0
10
82.933046875
20
55.534759375
30
0
0
VERTEX
8
0
10
83.01218750000001
20
55.497856250000005
30
0
0
VERTEX
8
0
10
83.0878125
20
55.45419375
30
0
0
VERTEX
8
0
10
83.159340625
20
55.404109375000004
30
0
0
VERTEX
8
0
10
83.226234375
20
55.347981250000004
30
0
0
VERTEX
8
0
10
83.28798125
20
55.286234375
30
0
0
VERTEX
8
0
10
83.344109375
20
55.219340625
30
0
0
VERTEX
8
0
10
83.39419375
20
55.1478125
30
0
0
VERTEX
8
0
10
83.43785625000001
20
55.072187500000005
30
0
0
VERTEX
8
0
10
83.474759375
20
54.993046875000005
30
0
0
VERTEX
8
0
10
83.504625
20
54.91099375
30
0
0
VERTEX
8
0
10
83.527225
20
54.826646875
30
0
0
VERTEX
8
0
10
83.54239062500001
20
54.74065
30
0
0
VERTEX
8
0
10
83.55
20
54.6536625
30
0
0
VERTEX
8
0
10
83.55
20
54.5663375
30
0
0
SEQEND
0
POLYLINE
66
1
8
holes
10
0.0
20
0.0
30
0.0
70
1
0
VERTEX
8
0
10
25.130000000000003
20
54.5663375
30
0
0
VERTEX
8
0
10
25.122390625
20
54.479350000000004
30
0
0
VERTEX
8
0
10
25.107225
20
54.393353125000004
30
0
0
VERTEX
8
0
10
25.084625000000003
20
54.30900625
30
0
0
VERTEX
8
0
10
25.054759375
20
54.226953125
30
0
0
VERTEX
8
0
10
25.01785625
20
54.1478125
30
0
0
VERTEX
8
0
10
24.97419375
20
54.072187500000005
30
0
0
VERTEX
8
0
10
24.924109375
20
54.000659375000005
30
0
0
VERTEX
8
0
10
24.86798125
20
53.933765625
30
0
0
VERTEX
8
0
10
24.806234375000003
20
53.87201875
30
0
0
VERTEX
8
0
10
24.739340625
20
53.815890625
30
0
0
VERTEX
8
0
10
24.6678125
20
53.765806250000004
30
0
0
VERTEX
8
0
10
24.5921875
20
53.72214375
30
0
0
VERTEX
8
0
10
24.513046875
20
53.685240625000006
30
0
0
VERTEX
8
0
10
24.430993750000003
20
53.655375
30
0
0
VERTEX
8
0
10
24.346646875
20
53.632775
30
0
0
VERTEX
8
0
10
24.260650000000002
20
53.617609375
30
0
0
VERTEX
8
0
10
24.173662500000002
20
53.61
30
0
0
VERTEX
8
0
10
24.086337500000003
20
53.61
30
0
0
VERTEX
8
0
10
23.99935
20
53.617609375
30
0
0
VERTEX
8
0
10
23.913353125
20
53.632775
30
0
0
VERTEX
8
0
10
23.829006250000003
20
53.655375
30
0
0
VERTEX
8
0
10
23.746953125
20
53.685240625000006
30
0
0
VERTEX
8
0
10
23.6678125
20
53.72214375
30
0
0
VERTEX
8
0
10
23.5921875
20
53.765806250000004
30
0
0
VERTEX
8
0
10
23.520659375
20
53.815890625
30
0
0
VERTEX
8
0
10
23.453765625000003
20
53.87201875
30
0
0
VERTEX
8
0
10
23.392018750000002
20
53.933765625
30
0
0
VERTEX
8
0
10
23.335890625
20
54.000659375000005
30
0
0
VERTEX
8
0
10
23.28580625
20
54.072187500000005
30
0
0
VERTEX
8
0
10
23.24214375
20
54.1478125
30
0
0
VERTEX
8
0
10
23.205240625000002
20
54.226953125
30
0
0
VERTEX
8
0
10
23.175375000000003
20
54.30900625
30
0
0
VERTEX
8
0
10
23.152775000000002
20
54.393353125000004
30
0
0
VERTEX
8
0
10
23.137609375
20
54.479350000000004
30
0
0
VERTEX
8
0
10
23.130000000000003
20
54.5663375
30
0
0
VERTEX
8
0
10
23.130000000000003
20
54.6536625
30
0
0
VERTEX
8
0
10
23.137609375
20
54.74065
30
0
0
VERTEX
8
0
10
23.152775000000002
20
54.826646875
30
0
0
VERTEX
8
0
10
23.175375000000003
20
54.91099375
30
0
0
VERTEX
8
0
10
23.205240625000002
20
54.993046875000005
30
0
0
VERTEX
8
0
10
23.24214375
20
55.072187500000005
30
0
0
VERTEX
8
0
10
23.28580625
20
55.1478125
30
0
0
VERTEX
8
0
10
23.335890625
20
55.219340625
30
0
0
VERTEX
8
0
10
23.392018750000002
20
55.286234375
30
0
0
VERTEX
8
0
10
23.453765625000003
20
55.347981250000004
30
0
0
VERTEX
8
0
10
23.520659375
20
55.404109375000004
30
0
0
VERTEX
8
0
10
23.5921875
20
55.45419375
30
0
0
VERTEX
8
0
10
23.6678125
20
55.497856250000005
30
0
0
VERTEX
8
0
10
23.746953125
20
55.534759375
30
0
0
VERTEX
8
0
10
23.829006250000003
20
55.564625
30
0
0
VERTEX
8
0
10
23.913353125
20
55.587225000000004
30
0
0
VERTEX
8
0
10
23.99935
20
55.602390625000005
30
0
0
VERTEX
8
0
10
24.086337500000003
20
55.61
30
0
0
VERTEX
8
0
10
24.173662500000002
20
55.61
30
0
0
VERTEX
8
0
10
24.260650000000002
20
55.602390625000005
30
0
0
VERTEX
8
0
10
24.346646875
20
55.587225000000004
30
0
0
VERTEX
8
0
10
24.430993750000003
20
55.564625
30
0
0
VERTEX
8
0
10
24.513046875
20
55.534759375
30
0
0
VERTEX
8
0
10
24.5921875
20
55.497856250000005
30
0
0
VERTEX
8
0
10
24.6678125
20
55.45419375
30
0
0
VERTEX
8
0
10
24.739340625
20
55.404109375000004
30
0
0
VERTEX
8
0
10
24.806234375000003
20
55.347981250000004
30
0
0
VERTEX
8
0
10
24.86798125
20
55.286234375
30
0
0
VERTEX
8
0
10
24.924109375
20
55.219340625
30
0
0
VERTEX
8
0
10
24.97419375
20
55.1478125
30
0
0
VERTEX
8
0
10
25.01785625
20
55.072187500000005
30
0
0
VERTEX
8
0
10
25.054759375
20
54.993046875000005
30
0
0
VERTEX
8
0
10
25.084625000000003
20
54.91099375
30
0
0
VERTEX
8
0
10
25.107225
20
54.826646875
30
0
0
VERTEX
8
0
10
25.122390625
20
54.74065
30
0
0
VERTEX
8
0
10
25.130000000000003
20
54.6536625
30
0
0
VERTEX
8
0
10
25.130000000000003
20
54.5663375
30
0
0
SEQEND
0
POLYLINE
66
1
8
holes
10
0.0
20
0.0
30
0.0
70
1
0
VERTEX
8
0
10
55.61
20
32.9763375
30
0
0
VERTEX
8
0
10
55.602390625000005
20
32.88935
30
0
0
VERTEX
8
0
10
55.587225000000004
20
32.803353125
30
0
0
VERTEX
8
0
10
55.564625
20
32.71900625
30
0
0
VERTEX
8
0
10
55.534759375
20
32.636953125000005
30
0
0
VERTEX
8
0
10
55.497856250000005
20
32.557812500000004
30
0
0
VERTEX
8
0
10
55.45419375
20
32.4821875
30
0
0
VERTEX
8
0
10
55.404109375000004
20
32.410659375
30
0
0
VERTEX
8
0
10
55.347981250000004
20
32.343765625
30
0
0
VERTEX
8
0
10
55.286234375
20
32.28201875
30
0
0
VERTEX
8
0
10
55.219340625
20
32.225890625
30
0
0
VERTEX
8
0
10
55.1478125
20
32.17580625
30
0
0
VERTEX
8
0
10
55.072187500000005
20
32.132143750000004
30
0
0
VERTEX
8
0
10
54.993046875000005
20
32.095240625
30
0
0
VERTEX
8
0
10
54.91099375
20
32.065375
30
0
0
VERTEX
8
0
10
54.826646875
20
32.042775
30
0
0
VERTEX
8
0
10
54.74065
20
32.027609375000004
30
0
0
VERTEX
8
0
10
54.6536625
20
32.02
30
0
0
VERTEX
8
0
10
54.5663375
20
32.02
30
0
0
VERTEX
8
0
10
54.479350000000004
20
32.027609375000004
30
0
0
VERTEX
8
0
10
54.393353125000004
20
32.042775
30
0
0
VERTEX
8
0
10
54.30900625
20
32.065375
30
0
0
VERTEX
8
0
10
54.226953125
20
32.095240625
30
0
0
VERTEX
8
0
10
54.1478125
20
32.132143750000004
30
0
0
VERTEX
8
0
10
54.072187500000005
20
32.17580625
30
0
0
VERTEX
8
0
10
54.000659375000005
20
32.225890625
30
0
0
VERTEX
8
0
10
53.933765625
20
32.28201875
30
0
0
VERTEX
8
0
10
53.87201875
20
32.343765625
30
0
0
VERTEX
8
0
10
53.815890625
20
32.410659375
30
0
0
VERTEX
8
0
10
53.765806250000004
20
32.4821875
30
0
0
VERTEX
8
0
10
53.72214375
20
32.557812500000004
30
0
0
VERTEX
8
0
10
53.685240625000006
20
32.636953125000005
30
0
0
VERTEX
8
0
10
53.655375
20
32.71900625
30
0
0
VERTEX
8
0
10
53.632775
20
32.803353125
30
0
0
VERTEX
8
0
10
53.617609375
20
32.88935
30
0
0
VERTEX
8
0
10
53.61
20
32.9763375
30
0
0
VERTEX
8
0
10
53.61
20
33.0636625
30
0
0
VERTEX
8
0
10
53.617609375
20
33.15065
30
0
0
VERTEX
8
0
10
53.632775
20
33.236646875
30
0
0
VERTEX
8
0
10
53.655375
20
33.32099375
30
0
0
VERTEX
8
0
10
53.685240625000006
20
33.403046875
30
0
0
VERTEX
8
0
10
53.72214375
20
33.4821875
30
0
0
VERTEX
8
0
10
53.765806250000004
20
33.557812500000004
30
0
0
VERTEX
8
0
10
53.815890625
20
33.629340625000005
30
0
0
VERTEX
8
0
10
53.87201875
20
33.696234375
30
0
0
VERTEX
8
0
10
53.933765625
20
33.75798125
30
0
0
VERTEX
8
0
10
54.000659375000005
20
33.814109375
30
0
0
VERTEX
8
0
10
54.072187500000005
20
33.86419375
30
0
0
VERTEX
8
0
10
54.1478125
20
33.90785625
30
0
0
VERTEX
8
0
10
54.226953125
20
33.944759375000004
30
0
0
VERTEX
8
0
10
54.30900625
20
33.974625
30
0
0
VERTEX
8
0
10
54.393353125000004
20
33.997225
30
0
0
VERTEX
8
0
10
54.479350000000004
20
34.012390625
30
0
0
VERTEX
8
0
10
54.5663375
20
34.02
30
0
0
VERTEX
8
0
10
54.6536625
20
34.02
30
0
0
VERTEX
8
0
10
54.74065
20
34.012390625
30
0
0
VERTEX
8
0
10
54.826646875
20
33.997225
30
0
0
VERTEX
8
0
10
54.91099375
20
33.974625
30
0
0
VERTEX
8
0
10
54.993046875000005
20
33.944759375000004
30
0
0
VERTEX
8
0
10
55.072187500000005
20
33.90785625
30
0
0
VERTEX
8
0
10
55.1478125
20
33.86419375
30
0
0
VERTEX
8
0
10
55.219340625
20
33.814109375
30
0
0
VERTEX
8
0
10
55.286234375
20
33.75798125
30
0
0
VERTEX
8
0
10
55.347981250000004
20
33.696234375
30
0
0
VERTEX
8
0
10
55.404109375000004
20
33.629340625000005
30
0
0
VERTEX
8
0
10
55.45419375
20
33.557812500000004
30
0
0
VERTEX
8
0
10
55.497856250000005
20
33.4821875
30
0
0
VERTEX
8
0
10
55.534759375
20
33.403046875
30
0
0
VERTEX
8
0
10
55.564625
20
33.32099375
30
0
0
VERTEX
8
0
10
55.587225000000004
20
33.236646875
30
0
0
VERTEX
8
0
10
55.602390625000005
20
33.15065
30
0
0
VERTEX
8
0
10
55.61
20
33.0636625
30
0
0
VERTEX
8
0
10
55.61
20
32.9763375
30
0
0
SEQEND
0
POLYLINE
66
1
8
1_copper
10
0.0
20
0.0
30
0.0
70
1
0
VERTEX
8
0
10
40.429671875000004
20
45.376696875
30
0
0
VERTEX
8
0
10
40.452078125
20
45.38963125
30
0
0
VERTEX
8
0
10
40.47036875
20
45.407921875
30
0
0
VERTEX
8
0
10
40.483303125
20
45.430328125
30
0
0
VERTEX
8
0
10
40.49
20
45.455315625000004
30
0
0
VERTEX
8
0
10
40.49
20
48.524684375
30
0
0
VERTEX
8
0
10
40.483303125
20
48.549671875
30
0
0
VERTEX
8
0
10
40.47036875
20
48.572078125000004
30
0
0
VERTEX
8
0
10
40.452078125
20
48.59036875
30
0
0
VERTEX
8
0
10
40.429671875000004
20
48.603303125000004
30
0
0
VERTEX
8
0
10
40.404684375
20
48.61
30
0
0
VERTEX
8
0
10
39.265315625
20
48.61
30
0
0
VERTEX
8
0
10
39.240328125000005
20
48.603303125000004
30
0
0
VERTEX
8
0
10
39.217921875
20
48.59036875
30
0
0
VERTEX
8
0
10
39.19963125
20
48.572078125000004
30
0
0
VERTEX
8
0
10
39.186696875
20
48.549671875
30
0
0
VERTEX
8
0
10
39.18
20
48.524684375
30
0
0
VERTEX
8
0
10
39.18
20
45.455315625000004
30
0
0
VERTEX
8
0
10
39.186696875
20
45.430328125
30
0
0
VERTEX
8
0
10
39.19963125
20
45.407921875
30
0
0
VERTEX
8
0
10
39.217921875
20
45.38963125
30
0
0
VERTEX
8
0
10
39.240328125000005
20
45.376696875
30
0
0
VERTEX
8
0
10
39.265315625
20
45.370000000000005
30
0
0
VERTEX
8
0
10
40.404684375
20
45.370000000000005
30
0
0
SEQEND
0
POLYLINE
66
1
8
1_copper
10
0.0
20
0.0
30
0.0
70
1
0
VERTEX
8
0
10
76.95741875
20
48.875959375
30
0
42
0.9063462356499619
0
VERTEX
8
0
10
76.89284375
20
50.190400000000004
30
0
0
VERTEX
8
0
10
75.50715625000001
20
50.190400000000004
30
0
42
0.9520786018124834
0
VERTEX
8
0
10
75.50715625000001
20
48.869600000000005
30
0
0
VERTEX
8
0
10
76.89284375
20
48.869600000000005
30
0
0
SEQEND
0
POLYLINE
66
1
8
1_copper
10
0.0
20
0.0
30
0.0
70
1
0
VERTEX
8
0
10
66.64
20
48.64
30
0
0
VERTEX
8
0
10
66.1162
20
48.64
30
0
0
VERTEX
8
0
10
66.1162
20
49.158878125
30
0
42
0.9969241442347151
0
VERTEX
8
0
10
65.966059375
20
49.901728125000005
30
0
0
VERTEX
8
0
10
65.918171875
20
49.888896875
30
0
42
0.7648843201253167
0
VERTEX
8
0
10
65.9638
20
49.158878125
30
0
0
VERTEX
8
0
10
65.9638
20
48.64
30
0
0
VERTEX
8
0
10
65.44
20
48.64
30
0
0
VERTEX
8
0
10
65.44
20
47.440000000000005
30
0
0
VERTEX
8
0
10
66.64
20
47.440000000000005
30
0
0
SEQEND
0
POLYLINE
66
1
8
1_copper
10
0.0
20
0.0
30
0.0
70
1
0
VERTEX
8
0
10
60.3504
20
47.98645625
30
0
0
VERTEX
8
0
10
60.3504
20
48.53354375
30
0
0
VERTEX
8
0
10
59.96354375
20
48.9204
30
0
0
VERTEX
8
0
10
59.41645625
20
48.9204
30
0
0
VERTEX
8
0
10
59.0296
20
48.53354375
30
0
0
VERTEX
8
0
10
59.0296
20
47.98645625
30
0
0
VERTEX
8
0
10
59.41645625
20
47.5996
30
0
0
VERTEX
8
0
10
59.96354375
20
47.5996
30
0
0
SEQEND
0
POLYLINE
66
1
8
1_copper
10
0.0
20
0.0
30
0.0
70
1
0
VERTEX
8
0
10
47.137171875
20
46.529753125
30
0
0
VERTEX
8
0
10
47.153078125
20
46.5389375
30
0
0
VERTEX
8
0
10
47.1660625
20
46.551921875000005
30
0
0
VERTEX
8
0
10
47.175246875
20
46.567828125000005
30
0
0
VERTEX
8
0
10
47.18
20
46.58556875
30
0
0
VERTEX
8
0
10
47.18
20
47.394431250000004
30
0
0
VERTEX
8
0
10
47.175246875
20
47.412171875000006
30
0
0
VERTEX
8
0
10
47.1660625
20
47.428078125
30
0
0
VERTEX
8
0
10
47.153078125
20
47.4410625
30
0
0
VERTEX
8
0
10
47.137171875
20
47.450246875000005
30
0
0
VERTEX
8
0
10
47.119431250000005
20
47.455000000000005
30
0
0
VERTEX
8
0
10
47.0662
20
47.455000000000005
30
0
0
VERTEX
8
0
10
47.0662
20
47.888878125000005
30
0
42
0.9969241442347151
0
VERTEX
8
0
10
46.916059375
20
48.631728125
30
0
0
VERTEX
8
0
10
46.868171875
20
48.618896875000004
30
0
42
0.7648843201253167
0
VERTEX
8
0
10
46.9138
20
47.888878125000005
30
0
0
VERTEX
8
0
10
46.9138
20
47.486562500000005
30
0
0
VERTEX
8
0
10
46.8822375
20
47.455000000000005
30
0
0
VERTEX
8
0
10
45.93056875
20
47.455000000000005
30
0
0
VERTEX
8
0
10
45.912828125000004
20
47.450246875000005
30
0
0
VERTEX
8
0
10
45.896921875000004
20
47.4410625
30
0
0
VERTEX
8
0
10
45.8839375
20
47.428078125
30
0
0
VERTEX
8
0
10
45.874753125000005
20
47.412171875000006
30
0
0
VERTEX
8
0
10
45.870000000000005
20
47.394431250000004
30
0
0
VERTEX
8
0
10
45.870000000000005
20
46.58556875
30
0
0
VERTEX
8
0
10
45.874753125000005
20
46.567828125000005
30
0
0
VERTEX
8
0
10
45.8839375
20
46.551921875000005
30
0
0
VERTEX
8
0
10
45.896921875000004
20
46.5389375
30
0
0
VERTEX
8
0
10
45.912828125000004
20
46.529753125
30
0
0
VERTEX
8
0
10
45.93056875
20
46.525000000000006
30
0
0
VERTEX
8
0
10
47.119431250000005
20
46.525000000000006
30
0
0
SEQEND
0
POLYLINE
66
1
8
16_copper
10
0.0
20
0.0
30
0.0
70
1
0
VERTEX
8
0
10
60.3504
20
47.98645625
30
0
0
VERTEX
8
0
10
60.3504
20
48.183800000000005
30
0
0
VERTEX
8
0
10
64.77
20
48.183800000000005
30
0
42
0.41421356237309503
0
VERTEX
8
0
10
64.8462
20
48.260000000000005
30
0
0
VERTEX
8
0
10
64.8462
20
49.4538
30
0
0
VERTEX
8
0
10
65.668878125
20
49.4538
30
0
42
0.8155378645187369
0
VERTEX
8
0
10
66.411121875
20
49.4538
30
0
0
VERTEX
8
0
10
74.883509375
20
49.4538
30
0
42
0.36675309512609283
0
VERTEX
8
0
10
75.50715625000001
20
48.869600000000005
30
0
0
VERTEX
8
0
10
76.89284375
20
48.869600000000005
30
0
42
0.9520786018124834
0
VERTEX
8
0
10
76.89284375
20
50.190400000000004
30
0
0
VERTEX
8
0
10
75.50715625000001
20
50.190400000000004
30
0
42
0.36675309512609283
0
VERTEX
8
0
10
74.883509375
20
49.6062
30
0
0
VERTEX
8
0
10
66.411121875
20
49.6062
30
0
42
0.8155378645187369
0
VERTEX
8
0
10
65.668878125
20
49.6062
30
0
0
VERTEX
8
0
10
64.77
20
49.6062
30
0
42
0.41421356237309503
0
VERTEX
8
0
10
64.69380000000001
20
49.53
30
0
0
VERTEX
8
0
10
64.69380000000001
20
48.336200000000005
30
0
0
VERTEX
8
0
10
60.3504
20
48.336200000000005
30
0
0
VERTEX
8
0
10
60.3504
20
48.53354375
30
0
0
VERTEX
8
0
10
59.96354375
20
48.9204
30
0
0
VERTEX
8
0
10
59.41645625
20
48.9204
30
0
0
VERTEX
8
0
10
59.0296
20
48.53354375
30
0
0
VERTEX
8
0
10
59.0296
20
48.336200000000005
30
0
0
VERTEX
8
0
10
47.361121875
20
48.336200000000005
30
0
42
0.9969241442347151
0
VERTEX
8
0
10
46.618271875000005
20
48.186059375
30
0
0
VERTEX
8
0
10
46.631103125
20
48.138171875000005
30
0
42
0.7648843201253167
0
VERTEX
8
0
10
47.361121875
20
48.183800000000005
30
0
0
VERTEX
8
0
10
59.0296
20
48.183800000000005
30
0
0
VERTEX
8
0
10
59.0296
20
47.98645625
30
0
0
VERTEX
8
0
10
59.41645625
20
47.5996
30
0
0
VERTEX
8
0
10
59.96354375
20
47.5996
30
0
0
SEQEND
0
POLYLINE
66
1
8
1_copper
10
0.0
20
0.0
30
0.0
70
1
0
VERTEX
8
0
10
47.137171875
20
48.819753125000005
30
0
0
VERTEX
8
0
10
47.153078125
20
48.8289375
30
0
0
VERTEX
8
0
10
47.1660625
20
48.841921875000004
30
0
0
VERTEX
8
0
10
47.175246875
20
48.857828125000005
30
0
0
VERTEX
8
0
10
47.18
20
48.87556875
30
0
0
VERTEX
8
0
10
47.18
20
49.68443125
30
0
0
VERTEX
8
0
10
47.175246875
20
49.702171875000005
30
0
0
VERTEX
8
0
10
47.1660625
20
49.718078125000005
30
0
0
VERTEX
8
0
10
47.153078125
20
49.7310625
30
0
0
VERTEX
8
0
10
47.137171875
20
49.740246875000004
30
0
0
VERTEX
8
0
10
47.119431250000005
20
49.745000000000005
30
0
0
VERTEX
8
0
10
47.0662
20
49.745000000000005
30
0
0
VERTEX
8
0
10
47.0662
20
50.428878125000004
30
0
42
0.9969241442347151
0
VERTEX
8
0
10
46.916059375
20
51.171728125
30
0
0
VERTEX
8
0
10
46.868171875
20
51.158896875
30
0
42
0.7648843201253167
0
VERTEX
8
0
10
46.9138
20
50.428878125000004
30
0
0
VERTEX
8
0
10
46.9138
20
49.745000000000005
30
0
0
VERTEX
8
0
10
45.93056875
20
49.745000000000005
30
0
0
VERTEX
8
0
10
45.912828125000004
20
49.740246875000004
30
0
0
VERTEX
8
0
10
45.896921875000004
20
49.7310625
30
0
0
VERTEX
8
0
10
45.8839375
20
49.718078125000005
30
0
0
VERTEX
8
0
10
45.874753125000005
20
49.702171875000005
30
0
0
VERTEX
8
0
10
45.870000000000005
20
49.68443125
30
0
0
VERTEX
8
0
10
45.870000000000005
20
48.87556875
30
0
0
VERTEX
8
0
10
45.874753125000005
20
48.857828125000005
30
0
0
VERTEX
8
0
10
45.8839375
20
48.841921875000004
30
0
0
VERTEX
8
0
10
45.896921875000004
20
48.8289375
30
0
0
VERTEX
8
0
10
45.912828125000004
20
48.819753125000005
30
0
0
VERTEX
8
0
10
45.93056875
20
48.815000000000005
30
0
0
VERTEX
8
0
10
47.119431250000005
20
48.815000000000005
30
0
0
SEQEND
0
POLYLINE
66
1
8
1_copper
10
0.0
20
0.0
30
0.0
70
1
0
VERTEX
8
0
10
32.50741875
20
48.875959375
30
0
42
0.9063462356499619
0
VERTEX
8
0
10
32.44284375
20
50.190400000000004
30
0
0
VERTEX
8
0
10
31.057156250000002
20
50.190400000000004
30
0
42
0.9520786018124834
0
VERTEX
8
0
10
31.057156250000002
20
48.869600000000005
30
0
0
VERTEX
8
0
10
32.44284375
20
48.869600000000005
30
0
0
SEQEND
0
POLYLINE
66
1
8
16_copper
10
0.0
20
0.0
30
0.0
70
1
0
VERTEX
8
0
10
32.50741875
20
48.875959375
30
0
42
0.33915074785084687
0
VERTEX
8
0
10
33.066490625
20
49.4538
30
0
0
VERTEX
8
0
10
44.45
20
49.4538
30
0
42
0.41421356237309503
0
VERTEX
8
0
10
44.5262
20
49.53
30
0
0
VERTEX
8
0
10
44.5262
20
50.723800000000004
30
0
0
VERTEX
8
0
10
46.618878125
20
50.723800000000004
30
0
42
0.9969241442347151
0
VERTEX
8
0
10
47.361728125
20
50.873940625
30
0
0
VERTEX
8
0
10
47.348896875
20
50.921828125000005
30
0
42
0.7648843201253167
0
VERTEX
8
0
10
46.618878125
20
50.876200000000004
30
0
0
VERTEX
8
0
10
44.45
20
50.876200000000004
30
0
42
0.41421356237309503
0
VERTEX
8
0
10
44.3738
20
50.800000000000004
30
0
0
VERTEX
8
0
10
44.3738
20
49.6062
30
0
0
VERTEX
8
0
10
33.066490625
20
49.6062
30
0
42
0.36675309512609283
0
VERTEX
8
0
10
32.44284375
20
50.190400000000004
30
0
0
VERTEX
8
0
10
31.057156250000002
20
50.190400000000004
30
0
42
0.9520786018124834
0
VERTEX
8
0
10
31.057156250000002
20
48.869600000000005
30
0
0
VERTEX
8
0
10
32.44284375
20
48.869600000000005
30
0
0
SEQEND
0
POLYLINE
66
1
8
1_copper
10
0.0
20
0.0
30
0.0
70
1
0
VERTEX
8
0
10
32.50741875
20
46.335959375
30
0
42
0.9063462356499619
0
VERTEX
8
0
10
32.44284375
20
47.650400000000005
30
0
0
VERTEX
8
0
10
31.057156250000002
20
47.650400000000005
30
0
42
0.9520786018124834
0
VERTEX
8
0
10
31.057156250000002
20
46.3296
30
0
0
VERTEX
8
0
10
32.44284375
20
46.3296
30
0
0
SEQEND
0
POLYLINE
66
1
8
1_copper
10
0.0
20
0.0
30
0.0
70
1
0
VERTEX
8
0
10
76.95741875
20
46.335959375
30
0
42
0.9063462356499619
0
VERTEX
8
0
10
76.89284375
20
47.650400000000005
30
0
0
VERTEX
8
0
10
75.50715625000001
20
47.650400000000005
30
0
42
0.9520786018124834
0
VERTEX
8
0
10
75.50715625000001
20
46.3296
30
0
0
VERTEX
8
0
10
76.89284375
20
46.3296
30
0
0
SEQEND
0
POLYLINE
66
1
8
16_copper
10
0.0
20
0.0
30
0.0
70
1
0
VERTEX
8
0
10
32.50741875
20
46.335959375
30
0
42
0.33915074785084687
0
VERTEX
8
0
10
33.066490625
20
46.9138
30
0
0
VERTEX
8
0
10
74.883509375
20
46.9138
30
0
42
0.36675309512609283
0
VERTEX
8
0
10
75.50715625000001
20
46.3296
30
0
0
VERTEX
8
0
10
76.89284375
20
46.3296
30
0
42
0.9520786018124834
0
VERTEX
8
0
10
76.89284375
20
47.650400000000005
30
0
0
VERTEX
8
0
10
75.50715625000001
20
47.650400000000005
30
0
42
0.36675309512609283
0
VERTEX
8
0
10
74.883509375
20
47.0662
30
0
0
VERTEX
8
0
10
33.066490625
20
47.0662
30
0
42
0.36675309512609283
0
VERTEX
8
0
10
32.44284375
20
47.650400000000005
30
0
0
VERTEX
8
0
10
31.057156250000002
20
47.650400000000005
30
0
42
0.9520786018124834
0
VERTEX
8
0
10
31.057156250000002
20
46.3296
30
0
0
VERTEX
8
0
10
32.44284375
20
46.3296
30
0
0
SEQEND
0
POLYLINE
66
1
8
1_copper
10
0.0
20
0.0
30
0.0
70
1
0
VERTEX
8
0
10
32.50741875
20
41.255959375
30
0
42
0.9063462356499619
0
VERTEX
8
0
10
32.44284375
20
42.5704
30
0
0
VERTEX
8
0
10
31.057156250000002
20
42.5704
30
0
42
0.9520786018124834
0
VERTEX
8
0
10
31.057156250000002
20
41.2496
30
0
0
VERTEX
8
0
10
32.44284375
20
41.2496
30
0
0
SEQEND
0
POLYLINE
66
1
8
1_copper
10
0.0
20
0.0
30
0.0
70
1
0
VERTEX
8
0
10
76.95741875
20
41.255959375
30
0
42
0.9063462356499619
0
VERTEX
8
0
10
76.89284375
20
42.5704
30
0
0
VERTEX
8
0
10
75.50715625000001
20
42.5704
30
0
42
0.9520786018124834
0
VERTEX
8
0
10
75.50715625000001
20
41.2496
30
0
0
VERTEX
8
0
10
76.89284375
20
41.2496
30
0
0
SEQEND
0
POLYLINE
66
1
8
16_copper
10
0.0
20
0.0
30
0.0
70
1
0
VERTEX
8
0
10
68.58561875000001
20
40.5646125
30
0
42
0.39258815634569955
0
VERTEX
8
0
10
68.6562
20
40.64
30
0
0
VERTEX
8
0
10
68.6562
20
41.833800000000004
30
0
0
VERTEX
8
0
10
74.883509375
20
41.833800000000004
30
0
42
0.36675309512609283
0
VERTEX
8
0
10
75.50715625000001
20
41.2496
30
0
0
VERTEX
8
0
10
76.89284375
20
41.2496
30
0
42
0.9520786018124834
0
VERTEX
8
0
10
76.89284375
20
42.5704
30
0
0
VERTEX
8
0
10
75.50715625000001
20
42.5704
30
0
42
0.36675309512609283
0
VERTEX
8
0
10
74.883509375
20
41.986200000000004
30
0
0
VERTEX
8
0
10
68.58
20
41.986200000000004
30
0
42
0.41421356237309503
0
VERTEX
8
0
10
68.5038
20
41.910000000000004
30
0
0
VERTEX
8
0
10
68.5038
20
40.7162
30
0
0
VERTEX
8
0
10
50.876200000000004
20
40.7162
30
0
0
VERTEX
8
0
10
50.876200000000004
20
41.910000000000004
30
0
42
0.41421356237309503
0
VERTEX
8
0
10
50.800000000000004
20
41.986200000000004
30
0
0
VERTEX
8
0
10
33.066490625
20
41.986200000000004
30
0
42
0.36675309512609283
0
VERTEX
8
0
10
32.44284375
20
42.5704
30
0
0
VERTEX
8
0
10
31.057156250000002
20
42.5704
30
0
42
0.9520786018124834
0
VERTEX
8
0
10
31.057156250000002
20
41.2496
30
0
0
VERTEX
8
0
10
32.44284375
20
41.2496
30
0
42
0.36675309512609283
0
VERTEX
8
0
10
33.066490625
20
41.833800000000004
30
0
0
VERTEX
8
0
10
50.723800000000004
20
41.833800000000004
30
0
0
VERTEX
8
0
10
50.723800000000004
20
40.64
30
0
42
0.41421356237309503
0
VERTEX
8
0
10
50.800000000000004
20
40.5638
30
0
0
VERTEX
8
0
10
68.58
20
40.5638
30
0
0
SEQEND
0
POLYLINE
66
1
8
1_copper
10
0.0
20
0.0
30
0.0
70
1
0
VERTEX
8
0
10
32.50741875
20
38.715959375000004
30
0
42
0.9063462356499619
0
VERTEX
8
0
10
32.44284375
20
40.0304
30
0
0
VERTEX
8
0
10
31.057156250000002
20
40.0304
30
0
42
0.9520786018124834
0
VERTEX
8
0
10
31.057156250000002
20
38.7096
30
0
0
VERTEX
8
0
10
32.44284375
20
38.7096
30
0
0
SEQEND
0
POLYLINE
66
1
8
1_copper
10
0.0
20
0.0
30
0.0
70
1
0
VERTEX
8
0
10
76.95741875
20
38.715959375000004
30
0
42
0.9063462356499619
0
VERTEX
8
0
10
76.89284375
20
40.0304
30
0
0
VERTEX
8
0
10
75.50715625000001
20
40.0304
30
0
42
0.9520786018124834
0
VERTEX
8
0
10
75.50715625000001
20
38.7096
30
0
0
VERTEX
8
0
10
76.89284375
20
38.7096
30
0
0
SEQEND
0
POLYLINE
66
1
8
16_copper
10
0.0
20
0.0
30
0.0
70
1
0
VERTEX
8
0
10
32.50741875
20
38.715959375000004
30
0
42
0.33915074785084687
0
VERTEX
8
0
10
33.066490625
20
39.293800000000005
30
0
0
VERTEX
8
0
10
74.883509375
20
39.293800000000005
30
0
42
0.36675309512609283
0
VERTEX
8
0
10
75.50715625000001
20
38.7096
30
0
0
VERTEX
8
0
10
76.89284375
20
38.7096
30
0
42
0.9520786018124834
0
VERTEX
8
0
10
76.89284375
20
40.0304
30
0
0
VERTEX
8
0
10
75.50715625000001
20
40.0304
30
0
42
0.36675309512609283
0
VERTEX
8
0
10
74.883509375
20
39.446200000000005
30
0
0
VERTEX
8
0
10
33.066490625
20
39.446200000000005
30
0
42
0.36675309512609283
0
VERTEX
8
0
10
32.44284375
20
40.0304
30
0
0
VERTEX
8
0
10
31.057156250000002
20
40.0304
30
0
42
0.9520786018124834
0
VERTEX
8
0
10
31.057156250000002
20
38.7096
30
0
0
VERTEX
8
0
10
32.44284375
20
38.7096
30
0
0
SEQEND
0
POLYLINE
66
1
8
1_copper
10
0.0
20
0.0
30
0.0
70
1
0
VERTEX
8
0
10
32.50741875
20
36.175959375000005
30
0
42
0.9063462356499619
0
VERTEX
8
0
10
32.44284375
20
37.4904
30
0
0
VERTEX
8
0
10
31.057156250000002
20
37.4904
30
0
42
0.9520786018124834
0
VERTEX
8
0
10
31.057156250000002
20
36.1696
30
0
0
VERTEX
8
0
10
32.44284375
20
36.1696
30
0
0
SEQEND
0
POLYLINE
66
1
8
1_copper
10
0.0
20
0.0
30
0.0
70
1
0
VERTEX
8
0
10
76.95741875
20
36.175959375000005
30
0
42
0.9063462356499619
0
VERTEX
8
0
10
76.89284375
20
37.4904
30
0
0
VERTEX
8
0
10
75.50715625000001
20
37.4904
30
0
42
0.9520786018124834
0
VERTEX
8
0
10
75.50715625000001
20
36.1696
30
0
0
VERTEX
8
0
10
76.89284375
20
36.1696
30
0
0
SEQEND
0
POLYLINE
66
1
8
16_copper
10
0.0
20
0.0
30
0.0
70
1
0
VERTEX
8
0
10
32.50741875
20
36.175959375000005
30
0
42
0.33915074785084687
0
VERTEX
8
0
10
33.066490625
20
36.7538
30
0
0
VERTEX
8
0
10
74.883509375
20
36.7538
30
0
42
0.36675309512609283
0
VERTEX
8
0
10
75.50715625000001
20
36.1696
30
0
0
VERTEX
8
0
10
76.89284375
20
36.1696
30
0
42
0.9520786018124834
0
VERTEX
8
0
10
76.89284375
20
37.4904
30
0
0
VERTEX
8
0
10
75.50715625000001
20
37.4904
30
0
42
0.36675309512609283
0
VERTEX
8
0
10
74.883509375
20
36.9062
30
0
0
VERTEX
8
0
10
33.066490625
20
36.9062
30
0
42
0.36675309512609283
0
VERTEX
8
0
10
32.44284375
20
37.4904
30
0
0
VERTEX
8
0
10
31.057156250000002
20
37.4904
30
0
42
0.9520786018124834
0
VERTEX
8
0
10
31.057156250000002
20
36.1696
30
0
0
VERTEX
8
0
10
32.44284375
20
36.1696
30
0
0
SEQEND
0
POLYLINE
66
1
8
1_copper
10
0.0
20
0.0
30
0.0
70
1
0
VERTEX
8
0
10
32.50741875
20
33.635959375
30
0
42
0.9063462356499619
0
VERTEX
8
0
10
32.44284375
20
34.9504
30
0
0
VERTEX
8
0
10
31.057156250000002
20
34.9504
30
0
42
0.9520786018124834
0
VERTEX
8
0
10
31.057156250000002
20
33.6296
30
0
0
VERTEX
8
0
10
32.44284375
20
33.6296
30
0
0
SEQEND
0
POLYLINE
66
1
8
1_copper
10
0.0
20
0.0
30
0.0
70
1
0
VERTEX
8
0
10
76.95741875
20
33.635959375
30
0
42
0.9063462356499619
0
VERTEX
8
0
10
76.89284375
20
34.9504
30
0
0
VERTEX
8
0
10
75.50715625000001
20
34.9504
30
0
42
0.9520786018124834
0
VERTEX
8
0
10
75.50715625000001
20
33.6296
30
0
0
VERTEX
8
0
10
76.89284375
20
33.6296
30
0
0
SEQEND
0
POLYLINE
66
1
8
16_copper
10
0.0
20
0.0
30
0.0
70
1
0
VERTEX
8
0
10
32.50741875
20
33.635959375
30
0
42
0.33915074785084687
0
VERTEX
8
0
10
33.066490625
20
34.2138
30
0
0
VERTEX
8
0
10
52.07
20
34.2138
30
0
42
0.41421356237309503
0
VERTEX
8
0
10
52.1462
20
34.29
30
0
0
VERTEX
8
0
10
52.1462
20
35.4838
30
0
0
VERTEX
8
0
10
57.073800000000006
20
35.4838
30
0
0
VERTEX
8
0
10
57.073800000000006
20
34.29
30
0
42
0.41421356237309503
0
VERTEX
8
0
10
57.150000000000006
20
34.2138
30
0
0
VERTEX
8
0
10
74.883509375
20
34.2138
30
0
42
0.36675309512609283
0
VERTEX
8
0
10
75.50715625000001
20
33.6296
30
0
0
VERTEX
8
0
10
76.89284375
20
33.6296
30
0
42
0.9520786018124834
0
VERTEX
8
0
10
76.89284375
20
34.9504
30
0
0
VERTEX
8
0
10
75.50715625000001
20
34.9504
30
0
42
0.36675309512609283
0
VERTEX
8
0
10
74.883509375
20
34.3662
30
0
0
VERTEX
8
0
10
57.226200000000006
20
34.3662
30
0
0
VERTEX
8
0
10
57.226200000000006
20
35.56
30
0
42
0.41421356237309503
0
VERTEX
8
0
10
57.150000000000006
20
35.6362
30
0
0
VERTEX
8
0
10
52.07
20
35.6362
30
0
42
0.41421356237309503
0
VERTEX
8
0
10
51.9938
20
35.56
30
0
0
VERTEX
8
0
10
51.9938
20
34.3662
30
0
0
VERTEX
8
0
10
33.066490625
20
34.3662
30
0
42
0.36675309512609283
0
VERTEX
8
0
10
32.44284375
20
34.9504
30
0
0
VERTEX
8
0
10
31.057156250000002
20
34.9504
30
0
42
0.9520786018124834
0
VERTEX
8
0
10
31.057156250000002
20
33.6296
30
0
0
VERTEX
8
0
10
32.44284375
20
33.6296
30
0
0
SEQEND
0
POLYLINE
66
1
8
1_copper
10
0.0
20
0.0
30
0.0
70
1
0
VERTEX
8
0
10
32.50741875
20
31.095959375000003
30
0
42
0.9063462356499619
0
VERTEX
8
0
10
32.44284375
20
32.4104
30
0
0
VERTEX
8
0
10
31.057156250000002
20
32.4104
30
0
42
0.9520786018124834
0
VERTEX
8
0
10
31.057156250000002
20
31.0896
30
0
0
VERTEX
8
0
10
32.44284375
20
31.0896
30
0
0
SEQEND
0
POLYLINE
66
1
8
1_copper
10
0.0
20
0.0
30
0.0
70
1
0
VERTEX
8
0
10
76.95741875
20
31.095959375000003
30
0
42
0.9063462356499619
0
VERTEX
8
0
10
76.89284375
20
32.4104
30
0
0
VERTEX
8
0
10
75.50715625000001
20
32.4104
30
0
42
0.9520786018124834
0
VERTEX
8
0
10
75.50715625000001
20
31.0896
30
0
0
VERTEX
8
0
10
76.89284375
20
31.0896
30
0
0
SEQEND
0
POLYLINE
66
1
8
16_copper
10
0.0
20
0.0
30
0.0
70
1
0
VERTEX
8
0
10
74.885559375
20
31.65298125
30
0
42
0.3578051432831595
0
VERTEX
8
0
10
75.50715625000001
20
31.0896
30
0
0
VERTEX
8
0
10
76.89284375
20
31.0896
30
0
42
0.9520786018124834
0
VERTEX
8
0
10
76.89284375
20
32.4104
30
0
0
VERTEX
8
0
10
75.50715625000001
20
32.4104
30
0
42
0.36675309512609283
0
VERTEX
8
0
10
74.883509375
20
31.8262
30
0
0
VERTEX
8
0
10
57.150000000000006
20
31.8262
30
0
42
0.41421356237309503
0
VERTEX
8
0
10
57.073800000000006
20
31.75
30
0
0
VERTEX
8
0
10
57.073800000000006
20
30.5562
30
0
0
VERTEX
8
0
10
52.1462
20
30.5562
30
0
0
VERTEX
8
0
10
52.1462
20
31.75
30
0
42
0.41421356237309503
0
VERTEX
8
0
10
52.07
20
31.8262
30
0
0
VERTEX
8
0
10
33.066490625
20
31.8262
30
0
42
0.36675309512609283
0
VERTEX
8
0
10
32.44284375
20
32.4104
30
0
0
VERTEX
8
0
10
31.057156250000002
20
32.4104
30
0
42
0.9520786018124834
0
VERTEX
8
0
10
31.057156250000002
20
31.0896
30
0
0
VERTEX
8
0
10
32.44284375
20
31.0896
30
0
42
0.36675309512609283
0
VERTEX
8
0
10
33.066490625
20
31.6738
30
0
0
VERTEX
8
0
10
51.9938
20
31.6738
30
0
0
VERTEX
8
0
10
51.9938
20
30.48
30
0
42
0.41421356237309503
0
VERTEX
8
0
10
52.07
20
30.4038
30
0
0
VERTEX
8
0
10
57.150000000000006
20
30.4038
30
0
42
0.41421356237309503
0
VERTEX
8
0
10
57.226200000000006
20
30.48
30
0
0
VERTEX
8
0
10
57.226200000000006
20
31.6738
30
0
0
VERTEX
8
0
10
74.883509375
20
31.6738
30
0
0
SEQEND
0
POLYLINE
66
1
8
1_copper
10
0.0
20
0.0
30
0.0
70
1
0
VERTEX
8
0
10
56.540400000000005
20
16.23645625
30
0
0
VERTEX
8
0
10
56.540400000000005
20
16.78354375
30
0
0
VERTEX
8
0
10
56.153543750000004
20
17.1704
30
0
0
VERTEX
8
0
10
55.60645625
20
17.1704
30
0
0
VERTEX
8
0
10
55.2196
20
16.78354375
30
0
0
VERTEX
8
0
10
55.2196
20
16.23645625
30
0
0
VERTEX
8
0
10
55.60645625
20
15.8496
30
0
0
VERTEX
8
0
10
56.153543750000004
20
15.8496
30
0
0
SEQEND
0
POLYLINE
66
1
8
1_copper
10
0.0
20
0.0
30
0.0
70
1
0
VERTEX
8
0
10
66.7004
20
16.23645625
30
0
0
VERTEX
8
0
10
66.7004
20
16.78354375
30
0
0
VERTEX
8
0
10
66.31354375000001
20
17.1704
30
0
0
VERTEX
8
0
10
65.76645625
20
17.1704
30
0
0
VERTEX
8
0
10
65.3796
20
16.78354375
30
0
0
VERTEX
8
0
10
65.3796
20
16.23645625
30
0
0
VERTEX
8
0
10
65.76645625
20
15.8496
30
0
0
VERTEX
8
0
10
66.31354375000001
20
15.8496
30
0
0
SEQEND
0
POLYLINE
66
1
8
16_copper
10
0.0
20
0.0
30
0.0
70
1
0
VERTEX
8
0
10
56.540400000000005
20
16.23645625
30
0
0
VERTEX
8
0
10
56.540400000000005
20
16.4338
30
0
0
VERTEX
8
0
10
65.3796
20
16.4338
30
0
0
VERTEX
8
0
10
65.3796
20
16.23645625
30
0
0
VERTEX
8
0
10
65.76645625
20
15.8496
30
0
0
VERTEX
8
0
10
66.31354375000001
20
15.8496
30
0
0
VERTEX
8
0
10
66.7004
20
16.23645625
30
0
0
VERTEX
8
0
10
66.7004
20
16.78354375
30
0
0
VERTEX
8
0
10
66.31354375000001
20
17.1704
30
0
0
VERTEX
8
0
10
65.76645625
20
17.1704
30
0
0
VERTEX
8
0
10
65.3796
20
16.78354375
30
0
0
VERTEX
8
0
10
65.3796
20
16.5862
30
0
0
VERTEX
8
0
10
56.540400000000005
20
16.5862
30
0
0
VERTEX
8
0
10
56.540400000000005
20
16.78354375
30
0
0
VERTEX
8
0
10
56.153543750000004
20
17.1704
30
0
0
VERTEX
8
0
10
55.60645625
20
17.1704
30
0
0
VERTEX
8
0
10
55.2196
20
16.78354375
30
0
0
VERTEX
8
0
10
55.2196
20
16.23645625
30
0
0
VERTEX
8
0
10
55.60645625
20
15.8496
30
0
0
VERTEX
8
0
10
56.153543750000004
20
15.8496
30
0
0
SEQEND
0
POLYLINE
66
1
8
1_copper
10
0.0
20
0.0
30
0.0
70
1
0
VERTEX
8
0
10
62.8904
20
21.31645625
30
0
0
VERTEX
8
0
10
62.8904
20
21.86354375
30
0
0
VERTEX
8
0
10
62.503543750000006
20
22.250400000000003
30
0
0
VERTEX
8
0
10
61.95645625
20
22.250400000000003
30
0
0
VERTEX
8
0
10
61.5696
20
21.86354375
30
0
0
VERTEX
8
0
10
61.5696
20
21.31645625
30
0
0
VERTEX
8
0
10
61.95645625
20
20.9296
30
0
0
VERTEX
8
0
10
62.503543750000006
20
20.9296
30
0
0
SEQEND
0
POLYLINE
66
1
8
1_copper
10
0.0
20
0.0
30
0.0
70
1
0
VERTEX
8
0
10
66.7004
20
21.31645625
30
0
0
VERTEX
8
0
10
66.7004
20
21.86354375
30
0
0
VERTEX
8
0
10
66.31354375000001
20
22.250400000000003
30
0
0
VERTEX
8
0
10
65.76645625
20
22.250400000000003
30
0
0
VERTEX
8
0
10
65.3796
20
21.86354375
30
0
0
VERTEX
8
0
10
65.3796
20
21.31645625
30
0
0
VERTEX
8
0
10
65.76645625
20
20.9296
30
0
0
VERTEX
8
0
10
66.31354375000001
20
20.9296
30
0
0
SEQEND
0
POLYLINE
66
1
8
16_copper
10
0.0
20
0.0
30
0.0
70
1
0
VERTEX
8
0
10
62.8904
20
21.31645625
30
0
0
VERTEX
8
0
10
62.8904
20
21.5138
30
0
0
VERTEX
8
0
10
65.3796
20
21.5138
30
0
0
VERTEX
8
0
10
65.3796
20
21.31645625
30
0
0
VERTEX
8
0
10
65.76645625
20
20.9296
30
0
0
VERTEX
8
0
10
66.31354375000001
20
20.9296
30
0
0
VERTEX
8
0
10
66.7004
20
21.31645625
30
0
0
VERTEX
8
0
10
66.7004
20
21.86354375
30
0
0
VERTEX
8
0
10
66.31354375000001
20
22.250400000000003
30
0
0
VERTEX
8
0
10
65.76645625
20
22.250400000000003
30
0
0
VERTEX
8
0
10
65.3796
20
21.86354375
30
0
0
VERTEX
8
0
10
65.3796
20
21.6662
30
0
0
VERTEX
8
0
10
62.8904
20
21.6662
30
0
0
VERTEX
8
0
10
62.8904
20
21.86354375
30
0
0
VERTEX
8
0
10
62.503543750000006
20
22.250400000000003
30
0
0
VERTEX
8
0
10
61.95645625
20
22.250400000000003
30
0
0
VERTEX
8
0
10
61.5696
20
21.86354375
30
0
0
VERTEX
8
0
10
61.5696
20
21.31645625
30
0
0
VERTEX
8
0
10
61.95645625
20
20.9296
30
0
0
VERTEX
8
0
10
62.503543750000006
20
20.9296
30
0
0
SEQEND
0
POLYLINE
66
1
8
1_copper
10
0.0
20
0.0
30
0.0
70
1
0
VERTEX
8
0
10
60.3504
20
45.446456250000004
30
0
0
VERTEX
8
0
10
60.3504
20
45.99354375
30
0
0
VERTEX
8
0
10
59.96354375
20
46.3804
30
0
0
VERTEX
8
0
10
59.41645625
20
46.3804
30
0
0
VERTEX
8
0
10
59.0296
20
45.99354375
30
0
0
VERTEX
8
0
10
59.0296
20
45.446456250000004
30
0
0
VERTEX
8
0
10
59.41645625
20
45.0596
30
0
0
VERTEX
8
0
10
59.96354375
20
45.0596
30
0
0
SEQEND
0
POLYLINE
66
1
8
1_copper
10
0.0
20
0.0
30
0.0
70
1
0
VERTEX
8
0
10
47.063940625
20
42.808271875
30
0
42
0.818105841543916
0
VERTEX
8
0
10
47.0662
20
43.551121875
30
0
0
VERTEX
8
0
10
47.0662
20
44.235
30
0
0
VERTEX
8
0
10
47.119431250000005
20
44.235
30
0
0
VERTEX
8
0
10
47.137171875
20
44.239753125
30
0
0
VERTEX
8
0
10
47.153078125
20
44.248937500000004
30
0
0
VERTEX
8
0
10
47.1660625
20
44.261921875
30
0
0
VERTEX
8
0
10
47.175246875
20
44.277828125
30
0
0
VERTEX
8
0
10
47.18
20
44.29556875
30
0
0
VERTEX
8
0
10
47.18
20
45.104431250000005
30
0
0
VERTEX
8
0
10
47.175246875
20
45.122171875
30
0
0
VERTEX
8
0
10
47.1660625
20
45.138078125
30
0
0
VERTEX
8
0
10
47.153078125
20
45.1510625
30
0
0
VERTEX
8
0
10
47.137171875
20
45.160246875000006
30
0
0
VERTEX
8
0
10
47.119431250000005
20
45.165
30
0
0
VERTEX
8
0
10
45.93056875
20
45.165
30
0
0
VERTEX
8
0
10
45.912828125000004
20
45.160246875000006
30
0
0
VERTEX
8
0
10
45.896921875000004
20
45.1510625
30
0
0
VERTEX
8
0
10
45.8839375
20
45.138078125
30
0
0
VERTEX
8
0
10
45.874753125000005
20
45.122171875
30
0
0
VERTEX
8
0
10
45.870000000000005
20
45.104431250000005
30
0
0
VERTEX
8
0
10
45.870000000000005
20
44.29556875
30
0
0
VERTEX
8
0
10
45.874753125000005
20
44.277828125
30
0
0
VERTEX
8
0
10
45.8839375
20
44.261921875
30
0
0
VERTEX
8
0
10
45.896921875000004
20
44.248937500000004
30
0
0
VERTEX
8
0
10
45.912828125000004
20
44.239753125
30
0
0
VERTEX
8
0
10
45.93056875
20
44.235
30
0
0
VERTEX
8
0
10
46.9138
20
44.235
30
0
0
VERTEX
8
0
10
46.9138
20
43.551121875
30
0
0
VERTEX
8
0
10
46.868171875
20
43.538896875
30
0
0
VERTEX
8
0
10
46.82236875
20
43.519925
30
0
0
VERTEX
8
0
10
46.77943125
20
43.495137500000006
30
0
0
VERTEX
8
0
10
46.740100000000005
20
43.46495625
30
0
0
VERTEX
8
0
10
46.70504375
20
43.4299
30
0
0
VERTEX
8
0
10
46.6748625
20
43.39056875
30
0
0
VERTEX
8
0
10
46.650075
20
43.34763125
30
0
0
VERTEX
8
0
10
46.631103125
20
43.301828125
30
0
0
VERTEX
8
0
10
46.618271875000005
20
43.253940625000006
30
0
0
VERTEX
8
0
10
46.6118
20
43.2047875
30
0
0
VERTEX
8
0
10
46.6118
20
43.155212500000005
30
0
0
VERTEX
8
0
10
46.618271875000005
20
43.106059375
30
0
0
VERTEX
8
0
10
46.631103125
20
43.058171875
30
0
0
VERTEX
8
0
10
46.650075
20
43.01236875
30
0
0
VERTEX
8
0
10
46.6748625
20
42.96943125
30
0
0
VERTEX
8
0
10
46.70504375
20
42.9301
30
0
0
VERTEX
8
0
10
46.740100000000005
20
42.89504375
30
0
0
VERTEX
8
0
10
46.77943125
20
42.8648625
30
0
0
VERTEX
8
0
10
46.82236875
20
42.840075
30
0
0
VERTEX
8
0
10
46.868171875
20
42.821103125
30
0
0
VERTEX
8
0
10
46.916059375
20
42.808271875
30
0
0
VERTEX
8
0
10
46.9652125
20
42.8018
30
0
0
VERTEX
8
0
10
47.014787500000004
20
42.8018
30
0
0
SEQEND
0
POLYLINE
66
1
8
1_copper
10
0.0
20
0.0
30
0.0
70
1
0
VERTEX
8
0
10
32.50741875
20
43.795959375
30
0
42
0.9063462356499619
0
VERTEX
8
0
10
32.44284375
20
45.110400000000006
30
0
0
VERTEX
8
0
10
31.057156250000002
20
45.110400000000006
30
0
42
0.9520786018124834
0
VERTEX
8
0
10
31.057156250000002
20
43.7896
30
0
0
VERTEX
8
0
10
32.44284375
20
43.7896
30
0
0
SEQEND
0
POLYLINE
66
1
8
1_copper
10
0.0
20
0.0
30
0.0
70
1
0
VERTEX
8
0
10
76.95741875
20
43.795959375
30
0
42
0.9063462356499619
0
VERTEX
8
0
10
76.89284375
20
45.110400000000006
30
0
0
VERTEX
8
0
10
75.50715625000001
20
45.110400000000006
30
0
42
0.9520786018124834
0
VERTEX
8
0
10
75.50715625000001
20
43.7896
30
0
0
VERTEX
8
0
10
76.89284375
20
43.7896
30
0
0
SEQEND
0
POLYLINE
66
1
8
1_copper
10
0.0
20
0.0
30
0.0
70
1
0
VERTEX
8
0
10
64.843940625
20
42.808271875
30
0
42
0.3016664185260731
0
VERTEX
8
0
10
65.141121875
20
43.1038
30
0
0
VERTEX
8
0
10
66.938878125
20
43.1038
30
0
42
0.9969241442347151
0
VERTEX
8
0
10
67.681728125
20
43.253940625000006
30
0
0
VERTEX
8
0
10
67.668896875
20
43.301828125
30
0
42
0.7648843201253167
0
VERTEX
8
0
10
66.938878125
20
43.2562
30
0
0
VERTEX
8
0
10
65.141121875
20
43.2562
30
0
0
VERTEX
8
0
10
65.12889687500001
20
43.301828125
30
0
0
VERTEX
8
0
10
65.109925
20
43.34763125
30
0
0
VERTEX
8
0
10
65.0851375
20
43.39056875
30
0
0
VERTEX
8
0
10
65.05495625
20
43.4299
30
0
0
VERTEX
8
0
10
65.0199
20
43.46495625
30
0
0
VERTEX
8
0
10
64.98056875
20
43.495137500000006
30
0
0
VERTEX
8
0
10
64.93763125000001
20
43.519925
30
0
0
VERTEX
8
0
10
64.891828125
20
43.538896875
30
0
0
VERTEX
8
0
10
64.843940625
20
43.551728125000004
30
0
0
VERTEX
8
0
10
64.7947875
20
43.5582
30
0
0
VERTEX
8
0
10
64.74521250000001
20
43.5582
30
0
0
VERTEX
8
0
10
64.696059375
20
43.551728125000004
30
0
0
VERTEX
8
0
10
64.648171875
20
43.538896875
30
0
0
VERTEX
8
0
10
64.60236875
20
43.519925
30
0
0
VERTEX
8
0
10
64.55943125
20
43.495137500000006
30
0
0
VERTEX
8
0
10
64.5201
20
43.46495625
30
0
0
VERTEX
8
0
10
64.48504375
20
43.4299
30
0
0
VERTEX
8
0
10
64.4548625
20
43.39056875
30
0
0
VERTEX
8
0
10
64.430075
20
43.34763125
30
0
0
VERTEX
8
0
10
64.411103125
20
43.301828125
30
0
0
VERTEX
8
0
10
64.398271875
20
43.253940625000006
30
0
0
VERTEX
8
0
10
64.3918
20
43.2047875
30
0
0
VERTEX
8
0
10
64.3918
20
43.155212500000005
30
0
0
VERTEX
8
0
10
64.398271875
20
43.106059375
30
0
0
VERTEX
8
0
10
64.411103125
20
43.058171875
30
0
0
VERTEX
8
0
10
64.430075
20
43.01236875
30
0
0
VERTEX
8
0
10
64.4548625
20
42.96943125
30
0
0
VERTEX
8
0
10
64.48504375
20
42.9301
30
0
0
VERTEX
8
0
10
64.5201
20
42.89504375
30
0
0
VERTEX
8
0
10
64.55943125
20
42.8648625
30
0
0
VERTEX
8
0
10
64.60236875
20
42.840075
30
0
0
VERTEX
8
0
10
64.648171875
20
42.821103125
30
0
0
VERTEX
8
0
10
64.696059375
20
42.808271875
30
0
0
VERTEX
8
0
10
64.74521250000001
20
42.8018
30
0
0
VERTEX
8
0
10
64.7947875
20
42.8018
30
0
0
SEQEND
0
POLYLINE
66
1
8
1_copper
10
0.0
20
0.0
30
0.0
70
1
0
VERTEX
8
0
10
59.080400000000004
20
41.63645625
30
0
0
VERTEX
8
0
10
59.080400000000004
20
42.183543750000005
30
0
0
VERTEX
8
0
10
58.69354375
20
42.5704
30
0
0
VERTEX
8
0
10
58.14645625
20
42.5704
30
0
0
VERTEX
8
0
10
57.759600000000006
20
42.183543750000005
30
0
0
VERTEX
8
0
10
57.759600000000006
20
41.63645625
30
0
0
VERTEX
8
0
10
58.14645625
20
41.2496
30
0
0
VERTEX
8
0
10
58.69354375
20
41.2496
30
0
0
SEQEND
0
POLYLINE
66
1
8
16_copper
10
0.0
20
0.0
30
0.0
70
1
0
VERTEX
8
0
10
49.6062
20
45.6438
30
0
0
VERTEX
8
0
10
59.0296
20
45.6438
30
0
0
VERTEX
8
0
10
59.0296
20
45.446456250000004
30
0
0
VERTEX
8
0
10
59.41645625
20
45.0596
30
0
0
VERTEX
8
0
10
59.96354375
20
45.0596
30
0
0
VERTEX
8
0
10
60.3504
20
45.446456250000004
30
0
0
VERTEX
8
0
10
60.3504
20
45.99354375
30
0
0
VERTEX
8
0
10
59.96354375
20
46.3804
30
0
0
VERTEX
8
0
10
59.41645625
20
46.3804
30
0
0
VERTEX
8
0
10
59.0296
20
45.99354375
30
0
0
VERTEX
8
0
10
59.0296
20
45.7962
30
0
0
VERTEX
8
0
10
49.53
20
45.7962
30
0
42
0.41421356237309503
0
VERTEX
8
0
10
49.4538
20
45.72
30
0
0
VERTEX
8
0
10
49.4538
20
43.2562
30
0
0
VERTEX
8
0
10
47.361121875
20
43.2562
30
0
42
0.8155378645187369
0
VERTEX
8
0
10
46.618878125
20
43.2562
30
0
0
VERTEX
8
0
10
44.5262
20
43.2562
30
0
0
VERTEX
8
0
10
44.5262
20
44.45
30
0
42
0.41421356237309503
0
VERTEX
8
0
10
44.45
20
44.5262
30
0
0
VERTEX
8
0
10
33.066490625
20
44.5262
30
0
42
0.36675309512609283
0
VERTEX
8
0
10
32.44284375
20
45.110400000000006
30
0
0
VERTEX
8
0
10
31.057156250000002
20
45.110400000000006
30
0
42
0.9520786018124834
0
VERTEX
8
0
10
31.057156250000002
20
43.7896
30
0
0
VERTEX
8
0
10
32.44284375
20
43.7896
30
0
42
0.36675309512609283
0
VERTEX
8
0
10
33.066490625
20
44.3738
30
0
0
VERTEX
8
0
10
44.3738
20
44.3738
30
0
0
VERTEX
8
0
10
44.3738
20
43.18
30
0
42
0.41421356237309503
0
VERTEX
8
0
10
44.45
20
43.1038
30
0
0
VERTEX
8
0
10
46.618878125
20
43.1038
30
0
42
0.8155378645187369
0
VERTEX
8
0
10
47.361121875
20
43.1038
30
0
0
VERTEX
8
0
10
51.9938
20
43.1038
30
0
0
VERTEX
8
0
10
51.9938
20
41.910000000000004
30
0
42
0.41421356237309503
0
VERTEX
8
0
10
52.07
20
41.833800000000004
30
0
0
VERTEX
8
0
10
57.759600000000006
20
41.833800000000004
30
0
0
VERTEX
8
0
10
57.759600000000006
20
41.63645625
30
0
0
VERTEX
8
0
10
58.14645625
20
41.2496
30
0
0
VERTEX
8
0
10
58.69354375
20
41.2496
30
0
0
VERTEX
8
0
10
59.080400000000004
20
41.63645625
30
0
0
VERTEX
8
0
10
59.080400000000004
20
42.183543750000005
30
0
0
VERTEX
8
0
10
58.69354375
20
42.5704
30
0
0
VERTEX
8
0
10
58.14645625
20
42.5704
30
0
0
VERTEX
8
0
10
57.759600000000006
20
42.183543750000005
30
0
0
VERTEX
8
0
10
57.759600000000006
20
41.986200000000004
30
0
0
VERTEX
8
0
10
52.1462
20
41.986200000000004
30
0
0
VERTEX
8
0
10
52.1462
20
43.1038
30
0
0
VERTEX
8
0
10
64.39887812500001
20
43.1038
30
0
42
0.9969241442347151
0
VERTEX
8
0
10
65.141728125
20
43.253940625000006
30
0
0
VERTEX
8
0
10
65.12889687500001
20
43.301828125
30
0
42
0.7648843201253167
0
VERTEX
8
0
10
64.39887812500001
20
43.2562
30
0
0
VERTEX
8
0
10
49.6062
20
43.2562
30
0
0
SEQEND
0
POLYLINE
66
1
8
16_copper
10
0.0
20
0.0
30
0.0
70
1
0
VERTEX
8
0
10
67.38394062500001
20
42.808271875
30
0
42
0.818105841543916
0
VERTEX
8
0
10
67.3862
20
43.551121875
30
0
0
VERTEX
8
0
10
67.3862
20
44.3738
30
0
0
VERTEX
8
0
10
74.883509375
20
44.3738
30
0
42
0.36675309512609283
0
VERTEX
8
0
10
75.50715625000001
20
43.7896
30
0
0
VERTEX
8
0
10
76.89284375
20
43.7896
30
0
42
0.9520786018124834
0
VERTEX
8
0
10
76.89284375
20
45.110400000000006
30
0
0
VERTEX
8
0
10
75.50715625000001
20
45.110400000000006
30
0
42
0.36675309512609283
0
VERTEX
8
0
10
74.883509375
20
44.5262
30
0
0
VERTEX
8
0
10
67.31
20
44.5262
30
0
42
0.41421356237309503
0
VERTEX
8
0
10
67.2338
20
44.45
30
0
0
VERTEX
8
0
10
67.2338
20
43.551121875
30
0
0
VERTEX
8
0
10
67.18817187500001
20
43.538896875
30
0
0
VERTEX
8
0
10
67.14236875
20
43.519925
30
0
0
VERTEX
8
0
10
67.09943125000001
20
43.495137500000006
30
0
0
VERTEX
8
0
10
67.0601
20
43.46495625
30
0
0
VERTEX
8
0
10
67.02504375000001
20
43.4299
30
0
0
VERTEX
8
0
10
66.9948625
20
43.39056875
30
0
0
VERTEX
8
0
10
66.97007500000001
20
43.34763125
30
0
0
VERTEX
8
0
10
66.951103125
20
43.301828125
30
0
0
VERTEX
8
0
10
66.938271875
20
43.253940625000006
30
0
0
VERTEX
8
0
10
66.93180000000001
20
43.2047875
30
0
0
VERTEX
8
0
10
66.93180000000001
20
43.155212500000005
30
0
0
VERTEX
8
0
10
66.938271875
20
43.106059375
30
0
0
VERTEX
8
0
10
66.951103125
20
43.058171875
30
0
0
VERTEX
8
0
10
66.97007500000001
20
43.01236875
30
0
0
VERTEX
8
0
10
66.9948625
20
42.96943125
30
0
0
VERTEX
8
0
10
67.02504375000001
20
42.9301
30
0
0
VERTEX
8
0
10
67.0601
20
42.89504375
30
0
0
VERTEX
8
0
10
67.09943125000001
20
42.8648625
30
0
0
VERTEX
8
0
10
67.14236875
20
42.840075
30
0
0
VERTEX
8
0
10
67.18817187500001
20
42.821103125
30
0
0
VERTEX
8
0
10
67.236059375
20
42.808271875
30
0
0
VERTEX
8
0
10
67.2852125
20
42.8018
30
0
0
VERTEX
8
0
10
67.3347875
20
42.8018
30
0
0
SEQEND
0
POLYLINE
66
1
8
1_copper
10
0.0
20
0.0
30
0.0
70
1
0
VERTEX
8
0
10
38.85741875
20
20.935959375
30
0
42
0.9063462356499619
0
VERTEX
8
0
10
38.79284375
20
22.250400000000003
30
0
0
VERTEX
8
0
10
37.40715625
20
22.250400000000003
30
0
42
0.9520786018124834
0
VERTEX
8
0
10
37.40715625
20
20.9296
30
0
0
VERTEX
8
0
10
38.79284375
20
20.9296
30
0
0
SEQEND
0
POLYLINE
66
1
8
1_copper
10
0.0
20
0.0
30
0.0
70
1
0
VERTEX
8
0
10
60.3504
20
21.31645625
30
0
0
VERTEX
8
0
10
60.3504
20
21.86354375
30
0
0
VERTEX
8
0
10
59.96354375
20
22.250400000000003
30
0
0
VERTEX
8
0
10
59.41645625
20
22.250400000000003
30
0
0
VERTEX
8
0
10
59.0296
20
21.86354375
30
0
0
VERTEX
8
0
10
59.0296
20
21.31645625
30
0
0
VERTEX
8
0
10
59.41645625
20
20.9296
30
0
0
VERTEX
8
0
10
59.96354375
20
20.9296
30
0
0
SEQEND
0
POLYLINE
66
1
8
16_copper
10
0.0
20
0.0
30
0.0
70
1
0
VERTEX
8
0
10
38.85741875
20
20.935959375
30
0
42
0.33915074785084687
0
VERTEX
8
0
10
39.416490625
20
21.5138
30
0
0
VERTEX
8
0
10
59.0296
20
21.5138
30
0
0
VERTEX
8
0
10
59.0296
20
21.31645625
30
0
0
VERTEX
8
0
10
59.41645625
20
20.9296
30
0
0
VERTEX
8
0
10
59.96354375
20
20.9296
30
0
0
VERTEX
8
0
10
60.3504
20
21.31645625
30
0
0
VERTEX
8
0
10
60.3504
20
21.86354375
30
0
0
VERTEX
8
0
10
59.96354375
20
22.250400000000003
30
0
0
VERTEX
8
0
10
59.41645625
20
22.250400000000003
30
0
0
VERTEX
8
0
10
59.0296
20
21.86354375
30
0
0
VERTEX
8
0
10
59.0296
20
21.6662
30
0
0
VERTEX
8
0
10
39.416490625
20
21.6662
30
0
42
0.36675309512609283
0
VERTEX
8
0
10
38.79284375
20
22.250400000000003
30
0
0
VERTEX
8
0
10
37.40715625
20
22.250400000000003
30
0
42
0.9520786018124834
0
VERTEX
8
0
10
37.40715625
20
20.9296
30
0
0
VERTEX
8
0
10
38.79284375
20
20.9296
30
0
0
SEQEND
0
POLYLINE
66
1
8
1_copper
10
0.0
20
0.0
30
0.0
70
1
0
VERTEX
8
0
10
38.85741875
20
15.855959375000001
30
0
42
0.9063462356499619
0
VERTEX
8
0
10
38.79284375
20
17.1704
30
0
0
VERTEX
8
0
10
37.40715625
20
17.1704
30
0
42
0.9520786018124834
0
VERTEX
8
0
10
37.40715625
20
15.8496
30
0
0
VERTEX
8
0
10
38.79284375
20
15.8496
30
0
0
SEQEND
0
POLYLINE
66
1
8
1_copper
10
0.0
20
0.0
30
0.0
70
1
0
VERTEX
8
0
10
54.0004
20
16.23645625
30
0
0
VERTEX
8
0
10
54.0004
20
16.78354375
30
0
0
VERTEX
8
0
10
53.613543750000005
20
17.1704
30
0
0
VERTEX
8
0
10
53.06645625
20
17.1704
30
0
0
VERTEX
8
0
10
52.6796
20
16.78354375
30
0
0
VERTEX
8
0
10
52.6796
20
16.23645625
30
0
0
VERTEX
8
0
10
53.06645625
20
15.8496
30
0
0
VERTEX
8
0
10
53.613543750000005
20
15.8496
30
0
0
SEQEND
0
POLYLINE
66
1
8
16_copper
10
0.0
20
0.0
30
0.0
70
1
0
VERTEX
8
0
10
38.85741875
20
15.855959375000001
30
0
42
0.33915074785084687
0
VERTEX
8
0
10
39.416490625
20
16.4338
30
0
0
VERTEX
8
0
10
52.6796
20
16.4338
30
0
0
VERTEX
8
0
10
52.6796
20
16.23645625
30
0
0
VERTEX
8
0
10
53.06645625
20
15.8496
30
0
0
VERTEX
8
0
10
53.613543750000005
20
15.8496
30
0
0
VERTEX
8
0
10
54.0004
20
16.23645625
30
0
0
VERTEX
8
0
10
54.0004
20
16.78354375
30
0
0
VERTEX
8
0
10
53.613543750000005
20
17.1704
30
0
0
VERTEX
8
0
10
53.06645625
20
17.1704
30
0
0
VERTEX
8
0
10
52.6796
20
16.78354375
30
0
0
VERTEX
8
0
10
52.6796
20
16.5862
30
0
0
VERTEX
8
0
10
39.416490625
20
16.5862
30
0
42
0.36675309512609283
0
VERTEX
8
0
10
38.79284375
20
17.1704
30
0
0
VERTEX
8
0
10
37.40715625
20
17.1704
30
0
42
0.9520786018124834
0
VERTEX
8
0
10
37.40715625
20
15.8496
30
0
0
VERTEX
8
0
10
38.79284375
20
15.8496
30
0
0
SEQEND
0
POLYLINE
66
1
8
1_copper
10
0.0
20
0.0
30
0.0
70
1
0
VERTEX
8
0
10
74.3204
20
21.31645625
30
0
0
VERTEX
8
0
10
74.3204
20
21.86354375
30
0
0
VERTEX
8
0
10
73.93354375
20
22.250400000000003
30
0
0
VERTEX
8
0
10
73.38645625000001
20
22.250400000000003
30
0
0
VERTEX
8
0
10
72.9996
20
21.86354375
30
0
0
VERTEX
8
0
10
72.9996
20
21.31645625
30
0
0
VERTEX
8
0
10
73.38645625000001
20
20.9296
30
0
0
VERTEX
8
0
10
73.93354375
20
20.9296
30
0
0
SEQEND
0
POLYLINE
66
1
8
1_copper
10
0.0
20
0.0
30
0.0
70
1
0
VERTEX
8
0
10
38.85741875
20
18.395959375
30
0
42
0.9063462356499619
0
VERTEX
8
0
10
38.79284375
20
19.7104
30
0
0
VERTEX
8
0
10
37.40715625
20
19.7104
30
0
42
0.9520786018124834
0
VERTEX
8
0
10
37.40715625
20
18.3896
30
0
0
VERTEX
8
0
10
38.79284375
20
18.3896
30
0
0
SEQEND
0
POLYLINE
66
1
8
1_copper
10
0.0
20
0.0
30
0.0
70
1
0
VERTEX
8
0
10
74.3204
20
16.23645625
30
0
0
VERTEX
8
0
10
74.3204
20
16.78354375
30
0
0
VERTEX
8
0
10
73.93354375
20
17.1704
30
0
0
VERTEX
8
0
10
73.38645625000001
20
17.1704
30
0
0
VERTEX
8
0
10
72.9996
20
16.78354375
30
0
0
VERTEX
8
0
10
72.9996
20
16.23645625
30
0
0
VERTEX
8
0
10
73.38645625000001
20
15.8496
30
0
0
VERTEX
8
0
10
73.93354375
20
15.8496
30
0
0
SEQEND
0
POLYLINE
66
1
8
16_copper
10
0.0
20
0.0
30
0.0
70
1
0
VERTEX
8
0
10
73.93354375
20
20.9296
30
0
0
VERTEX
8
0
10
74.3204
20
21.31645625
30
0
0
VERTEX
8
0
10
74.3204
20
21.86354375
30
0
0
VERTEX
8
0
10
73.93354375
20
22.250400000000003
30
0
0
VERTEX
8
0
10
73.38645625000001
20
22.250400000000003
30
0
0
VERTEX
8
0
10
72.9996
20
21.86354375
30
0
0
VERTEX
8
0
10
72.9996
20
21.31645625
30
0
0
VERTEX
8
0
10
73.38645625000001
20
20.9296
30
0
0
VERTEX
8
0
10
73.5838
20
20.9296
30
0
0
VERTEX
8
0
10
73.5838
20
19.1262
30
0
0
VERTEX
8
0
10
39.416490625
20
19.1262
30
0
42
0.36675309512609283
0
VERTEX
8
0
10
38.79284375
20
19.7104
30
0
0
VERTEX
8
0
10
37.40715625
20
19.7104
30
0
42
0.9520786018124834
0
VERTEX
8
0
10
37.40715625
20
18.3896
30
0
0
VERTEX
8
0
10
38.79284375
20
18.3896
30
0
42
0.36675309512609283
0
VERTEX
8
0
10
39.416490625
20
18.9738
30
0
0
VERTEX
8
0
10
73.5838
20
18.9738
30
0
0
VERTEX
8
0
10
73.5838
20
17.1704
30
0
0
VERTEX
8
0
10
73.38645625000001
20
17.1704
30
0
0
VERTEX
8
0
10
72.9996
20
16.78354375
30
0
0
VERTEX
8
0
10
72.9996
20
16.23645625
30
0
0
VERTEX
8
0
10
73.38645625000001
20
15.8496
30
0
0
VERTEX
8
0
10
73.93354375
20
15.8496
30
0
0
VERTEX
8
0
10
74.3204
20
16.23645625
30
0
0
VERTEX
8
0
10
74.3204
20
16.78354375
30
0
0
VERTEX
8
0
10
73.93354375
20
17.1704
30
0
0
VERTEX
8
0
10
73.7362
20
17.1704
30
0
0
VERTEX
8
0
10
73.7362
20
20.9296
30
0
0
SEQEND
0
POLYLINE
66
1
8
1_copper
10
0.0
20
0.0
30
0.0
70
1
0
VERTEX
8
0
10
66.113940625
20
44.078271875
30
0
42
0.818105841543916
0
VERTEX
8
0
10
66.1162
20
44.821121875
30
0
0
VERTEX
8
0
10
66.1162
20
45.34
30
0
0
VERTEX
8
0
10
66.64
20
45.34
30
0
0
VERTEX
8
0
10
66.64
20
46.54
30
0
0
VERTEX
8
0
10
65.44
20
46.54
30
0
0
VERTEX
8
0
10
65.44
20
45.34
30
0
0
VERTEX
8
0
10
65.9638
20
45.34
30
0
0
VERTEX
8
0
10
65.9638
20
44.821121875
30
0
0
VERTEX
8
0
10
65.918171875
20
44.808896875
30
0
0
VERTEX
8
0
10
65.87236875
20
44.789925000000004
30
0
0
VERTEX
8
0
10
65.82943125
20
44.7651375
30
0
0
VERTEX
8
0
10
65.79010000000001
20
44.73495625
30
0
0
VERTEX
8
0
10
65.75504375
20
44.6999
30
0
0
VERTEX
8
0
10
65.7248625
20
44.66056875
30
0
0
VERTEX
8
0
10
65.700075
20
44.61763125
30
0
0
VERTEX
8
0
10
65.681103125
20
44.571828125
30
0
0
VERTEX
8
0
10
65.668271875
20
44.523940625
30
0
0
VERTEX
8
0
10
65.6618
20
44.474787500000005
30
0
0
VERTEX
8
0
10
65.6618
20
44.4252125
30
0
0
VERTEX
8
0
10
65.668271875
20
44.376059375000004
30
0
0
VERTEX
8
0
10
65.681103125
20
44.328171875
30
0
0
VERTEX
8
0
10
65.700075
20
44.28236875
30
0
0
VERTEX
8
0
10
65.7248625
20
44.23943125
30
0
0
VERTEX
8
0
10
65.75504375
20
44.2001
30
0
0
VERTEX
8
0
10
65.79010000000001
20
44.16504375
30
0
0
VERTEX
8
0
10
65.82943125
20
44.134862500000004
30
0
0
VERTEX
8
0
10
65.87236875
20
44.110075
30
0
0
VERTEX
8
0
10
65.918171875
20
44.091103125000004
30
0
0
VERTEX
8
0
10
65.966059375
20
44.078271875
30
0
0
VERTEX
8
0
10
66.0152125
20
44.0718
30
0
0
VERTEX
8
0
10
66.06478750000001
20
44.0718
30
0
0
SEQEND
0
POLYLINE
66
1
8
1_copper
10
0.0
20
0.0
30
0.0
70
1
0
VERTEX
8
0
10
66.7004
20
41.63645625
30
0
0
VERTEX
8
0
10
66.7004
20
42.183543750000005
30
0
0
VERTEX
8
0
10
66.31354375000001
20
42.5704
30
0
0
VERTEX
8
0
10
65.76645625
20
42.5704
30
0
0
VERTEX
8
0
10
65.3796
20
42.183543750000005
30
0
0
VERTEX
8
0
10
65.3796
20
41.63645625
30
0
0
VERTEX
8
0
10
65.76645625
20
41.2496
30
0
0
VERTEX
8
0
10
66.31354375000001
20
41.2496
30
0
0
SEQEND
0
POLYLINE
66
1
8
16_copper
10
0.0
20
0.0
30
0.0
70
1
0
VERTEX
8
0
10
66.7004
20
41.63645625
30
0
0
VERTEX
8
0
10
66.7004
20
42.183543750000005
30
0
0
VERTEX
8
0
10
66.31354375000001
20
42.5704
30
0
0
VERTEX
8
0
10
66.1162
20
42.5704
30
0
0
VERTEX
8
0
10
66.1162
20
44.078878125
30
0
42
0.9969241442347151
0
VERTEX
8
0
10
65.966059375
20
44.821728125
30
0
0
VERTEX
8
0
10
65.918171875
20
44.808896875
30
0
42
0.7648843201253167
0
VERTEX
8
0
10
65.9638
20
44.078878125
30
0
0
VERTEX
8
0
10
65.9638
20
42.5704
30
0
0
VERTEX
8
0
10
65.76645625
20
42.5704
30
0
0
VERTEX
8
0
10
65.3796
20
42.183543750000005
30
0
0
VERTEX
8
0
10
65.3796
20
41.63645625
30
0
0
VERTEX
8
0
10
65.76645625
20
41.2496
30
0
0
VERTEX
8
0
10
66.31354375000001
20
41.2496
30
0
0
SEQEND
0
CIRCLE
8
drills_NPTH
10
24.130000000000003
20
12.700000000000001
30
0
40
1
0
CIRCLE
8
drills_NPTH
10
82.55
20
12.700000000000001
30
0
40
1
0
CIRCLE
8
drills_NPTH
10
82.55
20
54.61
30
0
40
1
0
CIRCLE
8
drills_NPTH
10
24.130000000000003
20
54.61
30
0
40
1
0
CIRCLE
8
drills_NPTH
10
54.61
20
33.02
30
0
40
1
0
CIRCLE
8
drills_PTH
10
59.690000000000005
20
48.260000000000005
30
0
40
0.40640000000000004
0
CIRCLE
8
drills_PTH
10
59.690000000000005
20
45.72
30
0
40
0.40640000000000004
0
CIRCLE
8
drills_PTH
10
31.75
20
34.29
30
0
40
0.40640000000000004
0
CIRCLE
8
drills_PTH
10
31.75
20
31.75
30
0
40
0.40640000000000004
0
CIRCLE
8
drills_PTH
10
31.75
20
36.83
30
0
40
0.40640000000000004
0
CIRCLE
8
drills_PTH
10
31.75
20
39.370000000000005
30
0
40
0.40640000000000004
0
CIRCLE
8
drills_PTH
10
31.75
20
41.910000000000004
30
0
40
0.40640000000000004
0
CIRCLE
8
drills_PTH
10
31.75
20
44.45
30
0
40
0.40640000000000004
0
CIRCLE
8
drills_PTH
10
31.75
20
46.99
30
0
40
0.40640000000000004
0
CIRCLE
8
drills_PTH
10
31.75
20
49.53
30
0
40
0.40640000000000004
0
CIRCLE
8
drills_PTH
10
76.2
20
46.99
30
0
40
0.40640000000000004
0
CIRCLE
8
drills_PTH
10
76.2
20
49.53
30
0
40
0.40640000000000004
0
CIRCLE
8
drills_PTH
10
76.2
20
44.45
30
0
40
0.40640000000000004
0
CIRCLE
8
drills_PTH
10
76.2
20
41.910000000000004
30
0
40
0.40640000000000004
0
CIRCLE
8
drills_PTH
10
76.2
20
39.370000000000005
30
0
40
0.40640000000000004
0
CIRCLE
8
drills_PTH
10
76.2
20
36.83
30
0
40
0.40640000000000004
0
CIRCLE
8
drills_PTH
10
76.2
20
34.29
30
0
40
0.40640000000000004
0
CIRCLE
8
drills_PTH
10
76.2
20
31.75
30
0
40
0.40640000000000004
0
CIRCLE
8
drills_PTH
10
38.1
20
19.05
30
0
40
0.40640000000000004
0
CIRCLE
8
drills_PTH
10
38.1
20
16.51
30
0
40
0.40640000000000004
0
CIRCLE
8
drills_PTH
10
38.1
20
21.59
30
0
40
0.40640000000000004
0
CIRCLE
8
drills_PTH
10
59.690000000000005
20
21.59
30
0
40
0.40640000000000004
0
CIRCLE
8
drills_PTH
10
62.230000000000004
20
21.59
30
0
40
0.40640000000000004
0
CIRCLE
8
drills_PTH
10
53.34
20
16.51
30
0
40
0.40640000000000004
0
CIRCLE
8
drills_PTH
10
55.88
20
16.51
30
0
40
0.40640000000000004
0
CIRCLE
8
drills_PTH
10
58.42
20
41.910000000000004
30
0
40
0.40640000000000004
0
CIRCLE
8
drills_PTH
10
66.04
20
41.910000000000004
30
0
40
0.40640000000000004
0
CIRCLE
8
drills_PTH
10
66.04
20
16.51
30
0
40
0.40640000000000004
0
CIRCLE
8
drills_PTH
10
73.66
20
16.51
30
0
40
0.40640000000000004
0
CIRCLE
8
drills_PTH
10
66.04
20
21.59
30
0
40
0.40640000000000004
0
CIRCLE
8
drills_PTH
10
73.66
20
21.59
30
0
40
0.40640000000000004
0
CIRCLE
8
drills_via_1_16
10
46.99
20
48.260000000000005
30
0
40
0.17500000000000002
0
CIRCLE
8
drills_via_1_16
10
66.04
20
49.53
30
0
40
0.17500000000000002
0
CIRCLE
8
drills_via_1_16
10
46.99
20
50.800000000000004
30
0
40
0.17500000000000002
0
CIRCLE
8
drills_via_1_16
10
46.99
20
43.18
30
0
40
0.17500000000000002
0
CIRCLE
8
drills_via_1_16
10
64.77
20
43.18
30
0
40
0.17500000000000002
0
CIRCLE
8
drills_via_1_16
10
67.31
20
43.18
30
0
40
0.17500000000000002
0
CIRCLE
8
drills_via_1_16
10
66.04
20
44.45
30
0
40
0.17500000000000002
0
ENDSEC
0
EOF