0
SECTION
2
HEADER
9
$ANGDIR
70
1
9
$AUNITS
70
0
9
$PROJECTNAME
1
SERVO UNIT
9
$TDCREATE
40
2459116.37663812
9
$INSUNITS
70
4
0
ENDSEC
0
SECTION
2
ENTITIES
0
POLYLINE
66
1
8
outline
10
0.0
20
0.0
30
0.0
70
1
0
VERTEX
8
0
10
41.910000000000004
20
30.48
30
0
0
VERTEX
8
0
10
82.53
20
30.48
30
0
0
VERTEX
8
0
10
82.53
20
60.63
30
0
0
VERTEX
8
0
10
41.910000000000004
20
60.63
30
0
0
VERTEX
8
0
10
41.910000000000004
20
30.48
30
0
0
SEQEND
0
POLYLINE
66
1
8
holes
10
0.0
20
0.0
30
0.0
70
1
0
VERTEX
8
0
10
44.18
20
31.7063375
30
0
0
VERTEX
8
0
10
44.172390625000006
20
31.61935
30
0
0
VERTEX
8
0
10
44.157225000000004
20
31.533353125
30
0
0
VERTEX
8
0
10
44.134625
20
31.44900625
30
0
0
VERTEX
8
0
10
44.104759375
20
31.366953125000002
30
0
0
VERTEX
8
0
10
44.067856250000006
20
31.2878125
30
0
0
VERTEX
8
0
10
44.02419375
20
31.212187500000002
30
0
0
VERTEX
8
0
10
43.974109375000005
20
31.140659375000002
30
0
0
VERTEX
8
0
10
43.917981250000004
20
31.073765625
30
0
0
VERTEX
8
0
10
43.856234375
20
31.012018750000003
30
0
0
VERTEX
8
0
10
43.789340625
20
30.955890625000002
30
0
0
VERTEX
8
0
10
43.7178125
20
30.90580625
30
0
0
VERTEX
8
0
10
43.6421875
20
30.86214375
30
0
0
VERTEX
8
0
10
43.563046875000005
20
30.825240625000003
30
0
0
VERTEX
8
0
10
43.48099375
20
30.795375
30
0
0
VERTEX
8
0
10
43.396646875
20
30.772775000000003
30
0
0
VERTEX
8
0
10
43.31065
20
30.757609375
30
0
0
VERTEX
8
0
10
43.2236625
20
30.75
30
0
0
VERTEX
8
0
10
43.1363375
20
30.75
30
0
0
VERTEX
8
0
10
43.049350000000004
20
30.757609375
30
0
0
VERTEX
8
0
10
42.963353125000005
20
30.772775000000003
30
0
0
VERTEX
8
0
10
42.87900625
20
30.795375
30
0
0
VERTEX
8
0
10
42.796953125
20
30.825240625000003
30
0
0
VERTEX
8
0
10
42.7178125
20
30.86214375
30
0
0
VERTEX
8
0
10
42.6421875
20
30.90580625
30
0
0
VERTEX
8
0
10
42.570659375000005
20
30.955890625000002
30
0
0
VERTEX
8
0
10
42.503765625
20
31.012018750000003
30
0
0
VERTEX
8
0
10
42.44201875
20
31.073765625
30
0
0
VERTEX
8
0
10
42.385890625
20
31.140659375000002
30
0
0
VERTEX
8
0
10
42.335806250000005
20
31.212187500000002
30
0
0
VERTEX
8
0
10
42.29214375
20
31.2878125
30
0
0
VERTEX
8
0
10
42.255240625
20
31.366953125000002
30
0
0
VERTEX
8
0
10
42.225375
20
31.44900625
30
0
0
VERTEX
8
0
10
42.202775
20
31.533353125
30
0
0
VERTEX
8
0
10
42.187609375
20
31.61935
30
0
0
VERTEX
8
0
10
42.18
20
31.7063375
30
0
0
VERTEX
8
0
10
42.18
20
31.7936625
30
0
0
VERTEX
8
0
10
42.187609375
20
31.880650000000003
30
0
0
VERTEX
8
0
10
42.202775
20
31.966646875000002
30
0
0
VERTEX
8
0
10
42.225375
20
32.05099375
30
0
0
VERTEX
8
0
10
42.255240625
20
32.133046875
30
0
0
VERTEX
8
0
10
42.29214375
20
32.2121875
30
0
0
VERTEX
8
0
10
42.335806250000005
20
32.2878125
30
0
0
VERTEX
8
0
10
42.385890625
20
32.359340625
30
0
0
VERTEX
8
0
10
42.44201875
20
32.426234375
30
0
0
VERTEX
8
0
10
42.503765625
20
32.487981250000004
30
0
0
VERTEX
8
0
10
42.570659375000005
20
32.544109375000005
30
0
0
VERTEX
8
0
10
42.6421875
20
32.59419375
30
0
0
VERTEX
8
0
10
42.7178125
20
32.63785625
30
0
0
VERTEX
8
0
10
42.796953125
20
32.674759375
30
0
0
VERTEX
8
0
10
42.87900625
20
32.704625
30
0
0
VERTEX
8
0
10
42.963353125000005
20
32.727225000000004
30
0
0
VERTEX
8
0
10
43.049350000000004
20
32.742390625
30
0
0
VERTEX
8
0
10
43.1363375
20
32.75
30
0
0
VERTEX
8
0
10
43.2236625
20
32.75
30
0
0
VERTEX
8
0
10
43.31065
20
32.742390625
30
0
0
VERTEX
8
0
10
43.396646875
20
32.727225000000004
30
0
0
VERTEX
8
0
10
43.48099375
20
32.704625
30
0
0
VERTEX
8
0
10
43.563046875000005
20
32.674759375
30
0
0
VERTEX
8
0
10
43.6421875
20
32.63785625
30
0
0
VERTEX
8
0
10
43.7178125
20
32.59419375
30
0
0
VERTEX
8
0
10
43.789340625
20
32.544109375000005
30
0
0
VERTEX
8
0
10
43.856234375
20
32.487981250000004
30
0
0
VERTEX
8
0
10
43.917981250000004
20
32.426234375
30
0
0
VERTEX
8
0
10
43.974109375000005
20
32.359340625
30
0
0
VERTEX
8
0
10
44.02419375
20
32.2878125
30
0
0
VERTEX
8
0
10
44.067856250000006
20
32.2121875
30
0
0
VERTEX
8
0
10
44.104759375
20
32.133046875
30
0
0
VERTEX
8
0
10
44.134625
20
32.05099375
30
0
0
VERTEX
8
0
10
44.157225000000004
20
31.966646875000002
30
0
0
VERTEX
8
0
10
44.172390625000006
20
31.880650000000003
30
0
0
VERTEX
8
0
10
44.18
20
31.7936625
30
0
0
VERTEX
8
0
10
44.18
20
31.7063375
30
0
0
SEQEND
0
POLYLINE
66
1
8
holes
10
0.0
20
0.0
30
0.0
70
1
0
VERTEX
8
0
10
82.28
20
31.7063375
30
0
0
VERTEX
8
0
10
82.272390625
20
31.61935
30
0
0
VERTEX
8
0
10
82.257225
20
31.533353125
30
0
0
VERTEX
8
0
10
82.23462500000001
20
31.44900625
30
0
0
VERTEX
8
0
10
82.20475937500001
20
31.366953125000002
30
0
0
VERTEX
8
0
10
82.16785625
20
31.2878125
30
0
0
VERTEX
8
0
10
82.12419375
20
31.212187500000002
30
0
0
VERTEX
8
0
10
82.074109375
20
31.140659375000002
30
0
0
VERTEX
8
0
10
82.01798125
20
31.073765625
30
0
0
VERTEX
8
0
10
81.95623437500001
20
31.012018750000003
30
0
0
VERTEX
8
0
10
81.889340625
20
30.955890625000002
30
0
0
VERTEX
8
0
10
81.8178125
20
30.90580625
30
0
0
VERTEX
8
0
10
81.7421875
20
30.86214375
30
0
0
VERTEX
8
0
10
81.663046875
20
30.825240625000003
30
0
0
VERTEX
8
0
10
81.58099375
20
30.795375
30
0
0
VERTEX
8
0
10
81.49664687500001
20
30.772775000000003
30
0
0
VERTEX
8
0
10
81.41065
20
30.757609375
30
0
0
VERTEX
8
0
10
81.3236625
20
30.75
30
0
0
VERTEX
8
0
10
81.2363375
20
30.75
30
0
0
VERTEX
8
0
10
81.14935
20
30.757609375
30
0
0
VERTEX
8
0
10
81.063353125
20
30.772775000000003
30
0
0
VERTEX
8
0
10
80.97900625
20
30.795375
30
0
0
VERTEX
8
0
10
80.89695312500001
20
30.825240625000003
30
0
0
VERTEX
8
0
10
80.8178125
20
30.86214375
30
0
0
VERTEX
8
0
10
80.7421875
20
30.90580625
30
0
0
VERTEX
8
0
10
80.670659375
20
30.955890625000002
30
0
0
VERTEX
8
0
10
80.60376562500001
20
31.012018750000003
30
0
0
VERTEX
8
0
10
80.54201875
20
31.073765625
30
0
0
VERTEX
8
0
10
80.48589062500001
20
31.140659375000002
30
0
0
VERTEX
8
0
10
80.43580625
20
31.212187500000002
30
0
0
VERTEX
8
0
10
80.39214375
20
31.2878125
30
0
0
VERTEX
8
0
10
80.35524062500001
20
31.366953125000002
30
0
0
VERTEX
8
0
10
80.32537500000001
20
31.44900625
30
0
0
VERTEX
8
0
10
80.302775
20
31.533353125
30
0
0
VERTEX
8
0
10
80.287609375
20
31.61935
30
0
0
VERTEX
8
0
10
80.28
20
31.7063375
30
0
0
VERTEX
8
0
10
80.28
20
31.7936625
30
0
0
VERTEX
8
0
10
80.287609375
20
31.880650000000003
30
0
0
VERTEX
8
0
10
80.302775
20
31.966646875000002
30
0
0
VERTEX
8
0
10
80.32537500000001
20
32.05099375
30
0
0
VERTEX
8
0
10
80.35524062500001
20
32.133046875
30
0
0
VERTEX
8
0
10
80.39214375
20
32.2121875
30
0
0
VERTEX
8
0
10
80.43580625
20
32.2878125
30
0
0
VERTEX
8
0
10
80.48589062500001
20
32.359340625
30
0
0
VERTEX
8
0
10
80.54201875
20
32.426234375
30
0
0
VERTEX
8
0
10
80.60376562500001
20
32.487981250000004
30
0
0
VERTEX
8
0
10
80.670659375
20
32.544109375000005
30
0
0
VERTEX
8
0
10
80.7421875
20
32.59419375
30
0
0
VERTEX
8
0
10
80.8178125
20
32.63785625
30
0
0
VERTEX
8
0
10
80.89695312500001
20
32.674759375
30
0
0
VERTEX
8
0
10
80.97900625
20
32.704625
30
0
0
VERTEX
8
0
10
81.063353125
20
32.727225000000004
30
0
0
VERTEX
8
0
10
81.14935
20
32.742390625
30
0
0
VERTEX
8
0
10
81.2363375
20
32.75
30
0
0
VERTEX
8
0
10
81.3236625
20
32.75
30
0
0
VERTEX
8
0
10
81.41065
20
32.742390625
30
0
0
VERTEX
8
0
10
81.49664687500001
20
32.727225000000004
30
0
0
VERTEX
8
0
10
81.58099375
20
32.704625
30
0
0
VERTEX
8
0
10
81.663046875
20
32.674759375
30
0
0
VERTEX
8
0
10
81.7421875
20
32.63785625
30
0
0
VERTEX
8
0
10
81.8178125
20
32.59419375
30
0
0
VERTEX
8
0
10
81.889340625
20
32.544109375000005
30
0
0
VERTEX
8
0
10
81.95623437500001
20
32.487981250000004
30
0
0
VERTEX
8
0
10
82.01798125
20
32.426234375
30
0
0
VERTEX
8
0
10
82.074109375
20
32.359340625
30
0
0
VERTEX
8
0
10
82.12419375
20
32.2878125
30
0
0
VERTEX
8
0
10
82.16785625
20
32.2121875
30
0
0
VERTEX
8
0
10
82.20475937500001
20
32.133046875
30
0
0
VERTEX
8
0
10
82.23462500000001
20
32.05099375
30
0
0
VERTEX
8
0
10
82.257225
20
31.966646875000002
30
0
0
VERTEX
8
0
10
82.272390625
20
31.880650000000003
30
0
0
VERTEX
8
0
10
82.28
20
31.7936625
30
0
0
VERTEX
8
0
10
82.28
20
31.7063375
30
0
0
SEQEND
0
POLYLINE
66
1
8
holes
10
0.0
20
0.0
30
0.0
70
1
0
VERTEX
8
0
10
44.18
20
58.376337500000005
30
0
0
VERTEX
8
0
10
44.172390625000006
20
58.289350000000006
30
0
0
VERTEX
8
0
10
44.157225000000004
20
58.203353125
30
0
0
VERTEX
8
0
10
44.134625
20
58.119006250000005
30
0
0
VERTEX
8
0
10
44.104759375
20
58.036953125000004
30
0
0
VERTEX
8
0
10
44.067856250000006
20
57.9578125
30
0
0
VERTEX
8
0
10
44.02419375
20
57.8821875
30
0
0
VERTEX
8
0
10
43.974109375000005
20
57.810659375
30
0
0
VERTEX
8
0
10
43.917981250000004
20
57.743765625
30
0
0
VERTEX
8
0
10
43.856234375
20
57.682018750000005
30
0
0
VERTEX
8
0
10
43.789340625
20
57.625890625000004
30
0
0
VERTEX
8
0
10
43.7178125
20
57.57580625
30
0
0
VERTEX
8
0
10
43.6421875
20
57.53214375
30
0
0
VERTEX
8
0
10
43.563046875000005
20
57.495240625
30
0
0
VERTEX
8
0
10
43.48099375
20
57.465375
30
0
0
VERTEX
8
0
10
43.396646875
20
57.442775000000005
30
0
0
VERTEX
8
0
10
43.31065
20
57.427609375
30
0
0
VERTEX
8
0
10
43.2236625
20
57.42
30
0
0
VERTEX
8
0
10
43.1363375
20
57.42
30
0
0
VERTEX
8
0
10
43.049350000000004
20
57.427609375
30
0
0
VERTEX
8
0
10
42.963353125000005
20
57.442775000000005
30
0
0
VERTEX
8
0
10
42.87900625
20
57.465375
30
0
0
VERTEX
8
0
10
42.796953125
20
57.495240625
30
0
0
VERTEX
8
0
10
42.7178125
20
57.53214375
30
0
0
VERTEX
8
0
10
42.6421875
20
57.57580625
30
0
0
VERTEX
8
0
10
42.570659375000005
20
57.625890625000004
30
0
0
VERTEX
8
0
10
42.503765625
20
57.682018750000005
30
0
0
VERTEX
8
0
10
42.44201875
20
57.743765625
30
0
0
VERTEX
8
0
10
42.385890625
20
57.810659375
30
0
0
VERTEX
8
0
10
42.335806250000005
20
57.8821875
30
0
0
VERTEX
8
0
10
42.29214375
20
57.9578125
30
0
0
VERTEX
8
0
10
42.255240625
20
58.036953125000004
30
0
0
VERTEX
8
0
10
42.225375
20
58.119006250000005
30
0
0
VERTEX
8
0
10
42.202775
20
58.203353125
30
0
0
VERTEX
8
0
10
42.187609375
20
58.289350000000006
30
0
0
VERTEX
8
0
10
42.18
20
58.376337500000005
30
0
0
VERTEX
8
0
10
42.18
20
58.463662500000005
30
0
0
VERTEX
8
0
10
42.187609375
20
58.550650000000005
30
0
0
VERTEX
8
0
10
42.202775
20
58.636646875000004
30
0
0
VERTEX
8
0
10
42.225375
20
58.720993750000005
30
0
0
VERTEX
8
0
10
42.255240625
20
58.803046875
30
0
0
VERTEX
8
0
10
42.29214375
20
58.8821875
30
0
0
VERTEX
8
0
10
42.335806250000005
20
58.9578125
30
0
0
VERTEX
8
0
10
42.385890625
20
59.029340625
30
0
0
VERTEX
8
0
10
42.44201875
20
59.096234375
30
0
0
VERTEX
8
0
10
42.503765625
20
59.157981250000006
30
0
0
VERTEX
8
0
10
42.570659375000005
20
59.214109375
30
0
0
VERTEX
8
0
10
42.6421875
20
59.264193750000004
30
0
0
VERTEX
8
0
10
42.7178125
20
59.30785625
30
0
0
VERTEX
8
0
10
42.796953125
20
59.344759375
30
0
0
VERTEX
8
0
10
42.87900625
20
59.374625
30
0
0
VERTEX
8
0
10
42.963353125000005
20
59.397225000000006
30
0
0
VERTEX
8
0
10
43.049350000000004
20
59.412390625
30
0
0
VERTEX
8
0
10
43.1363375
20
59.42
30
0
0
VERTEX
8
0
10
43.2236625
20
59.42
30
0
0
VERTEX
8
0
10
43.31065
20
59.412390625
30
0
0
VERTEX
8
0
10
43.396646875
20
59.397225000000006
30
0
0
VERTEX
8
0
10
43.48099375
20
59.374625
30
0
0
VERTEX
8
0
10
43.563046875000005
20
59.344759375
30
0
0
VERTEX
8
0
10
43.6421875
20
59.30785625
30
0
0
VERTEX
8
0
10
43.7178125
20
59.264193750000004
30
0
0
VERTEX
8
0
10
43.789340625
20
59.214109375
30
0
0
VERTEX
8
0
10
43.856234375
20
59.157981250000006
30
0
0
VERTEX
8
0
10
43.917981250000004
20
59.096234375
30
0
0
VERTEX
8
0
10
43.974109375000005
20
59.029340625
30
0
0
VERTEX
8
0
10
44.02419375
20
58.9578125
30
0
0
VERTEX
8
0
10
44.067856250000006
20
58.8821875
30
0
0
VERTEX
8
0
10
44.104759375
20
58.803046875
30
0
0
VERTEX
8
0
10
44.134625
20
58.720993750000005
30
0
0
VERTEX
8
0
10
44.157225000000004
20
58.636646875000004
30
0
0
VERTEX
8
0
10
44.172390625000006
20
58.550650000000005
30
0
0
VERTEX
8
0
10
44.18
20
58.463662500000005
30
0
0
VERTEX
8
0
10
44.18
20
58.376337500000005
30
0
0
SEQEND
0
POLYLINE
66
1
8
holes
10
0.0
20
0.0
30
0.0
70
1
0
VERTEX
8
0
10
82.28
20
58.376337500000005
30
0
0
VERTEX
8
0
10
82.272390625
20
58.289350000000006
30
0
0
VERTEX
8
0
10
82.257225
20
58.203353125
30
0
0
VERTEX
8
0
10
82.23462500000001
20
58.119006250000005
30
0
0
VERTEX
8
0
10
82.20475937500001
20
58.036953125000004
30
0
0
VERTEX
8
0
10
82.16785625
20
57.9578125
30
0
0
VERTEX
8
0
10
82.12419375
20
57.8821875
30
0
0
VERTEX
8
0
10
82.074109375
20
57.810659375
30
0
0
VERTEX
8
0
10
82.01798125
20
57.743765625
30
0
0
VERTEX
8
0
10
81.95623437500001
20
57.682018750000005
30
0
0
VERTEX
8
0
10
81.889340625
20
57.625890625000004
30
0
0
VERTEX
8
0
10
81.8178125
20
57.57580625
30
0
0
VERTEX
8
0
10
81.7421875
20
57.53214375
30
0
0
VERTEX
8
0
10
81.663046875
20
57.495240625
30
0
0
VERTEX
8
0
10
81.58099375
20
57.465375
30
0
0
VERTEX
8
0
10
81.49664687500001
20
57.442775000000005
30
0
0
VERTEX
8
0
10
81.41065
20
57.427609375
30
0
0
VERTEX
8
0
10
81.3236625
20
57.42
30
0
0
VERTEX
8
0
10
81.2363375
20
57.42
30
0
0
VERTEX
8
0
10
81.14935
20
57.427609375
30
0
0
VERTEX
8
0
10
81.063353125
20
57.442775000000005
30
0
0
VERTEX
8
0
10
80.97900625
20
57.465375
30
0
0
VERTEX
8
0
10
80.89695312500001
20
57.495240625
30
0
0
VERTEX
8
0
10
80.8178125
20
57.53214375
30
0
0
VERTEX
8
0
10
80.7421875
20
57.57580625
30
0
0
VERTEX
8
0
10
80.670659375
20
57.625890625000004
30
0
0
VERTEX
8
0
10
80.60376562500001
20
57.682018750000005
30
0
0
VERTEX
8
0
10
80.54201875
20
57.743765625
30
0
0
VERTEX
8
0
10
80.48589062500001
20
57.810659375
30
0
0
VERTEX
8
0
10
80.43580625
20
57.8821875
30
0
0
VERTEX
8
0
10
80.39214375
20
57.9578125
30
0
0
VERTEX
8
0
10
80.35524062500001
20
58.036953125000004
30
0
0
VERTEX
8
0
10
80.32537500000001
20
58.119006250000005
30
0
0
VERTEX
8
0
10
80.302775
20
58.203353125
30
0
0
VERTEX
8
0
10
80.287609375
20
58.289350000000006
30
0
0
VERTEX
8
0
10
80.28
20
58.376337500000005
30
0
0
VERTEX
8
0
10
80.28
20
58.463662500000005
30
0
0
VERTEX
8
0
10
80.287609375
20
58.550650000000005
30
0
0
VERTEX
8
0
10
80.302775
20
58.636646875000004
30
0
0
VERTEX
8
0
10
80.32537500000001
20
58.720993750000005
30
0
0
VERTEX
8
0
10
80.35524062500001
20
58.803046875
30
0
0
VERTEX
8
0
10
80.39214375
20
58.8821875
30
0
0
VERTEX
8
0
10
80.43580625
20
58.9578125
30
0
0
VERTEX
8
0
10
80.48589062500001
20
59.029340625
30
0
0
VERTEX
8
0
10
80.54201875
20
59.096234375
30
0
0
VERTEX
8
0
10
80.60376562500001
20
59.157981250000006
30
0
0
VERTEX
8
0
10
80.670659375
20
59.214109375
30
0
0
VERTEX
8
0
10
80.7421875
20
59.264193750000004
30
0
0
VERTEX
8
0
10
80.8178125
20
59.30785625
30
0
0
VERTEX
8
0
10
80.89695312500001
20
59.344759375
30
0
0
VERTEX
8
0
10
80.97900625
20
59.374625
30
0
0
VERTEX
8
0
10
81.063353125
20
59.397225000000006
30
0
0
VERTEX
8
0
10
81.14935
20
59.412390625
30
0
0
VERTEX
8
0
10
81.2363375
20
59.42
30
0
0
VERTEX
8
0
10
81.3236625
20
59.42
30
0
0
VERTEX
8
0
10
81.41065
20
59.412390625
30
0
0
VERTEX
8
0
10
81.49664687500001
20
59.397225000000006
30
0
0
VERTEX
8
0
10
81.58099375
20
59.374625
30
0
0
VERTEX
8
0
10
81.663046875
20
59.344759375
30
0
0
VERTEX
8
0
10
81.7421875
20
59.30785625
30
0
0
VERTEX
8
0
10
81.8178125
20
59.264193750000004
30
0
0
VERTEX
8
0
10
81.889340625
20
59.214109375
30
0
0
VERTEX
8
0
10
81.95623437500001
20
59.157981250000006
30
0
0
VERTEX
8
0
10
82.01798125
20
59.096234375
30
0
0
VERTEX
8
0
10
82.074109375
20
59.029340625
30
0
0
VERTEX
8
0
10
82.12419375
20
58.9578125
30
0
0
VERTEX
8
0
10
82.16785625
20
58.8821875
30
0
0
VERTEX
8
0
10
82.20475937500001
20
58.803046875
30
0
0
VERTEX
8
0
10
82.23462500000001
20
58.720993750000005
30
0
0
VERTEX
8
0
10
82.257225
20
58.636646875000004
30
0
0
VERTEX
8
0
10
82.272390625
20
58.550650000000005
30
0
0
VERTEX
8
0
10
82.28
20
58.463662500000005
30
0
0
VERTEX
8
0
10
82.28
20
58.376337500000005
30
0
0
SEQEND
0
POLYLINE
66
1
8
1_copper
10
0.0
20
0.0
30
0.0
70
1
0
VERTEX
8
0
10
55.48394375
20
46.2353375
30
0
42
0.9063472543261978
0
VERTEX
8
0
10
55.409434375000004
20
47.752
30
0
0
VERTEX
8
0
10
53.810565625
20
47.752
30
0
42
0.9520795017710562
0
VERTEX
8
0
10
53.810565625
20
46.228
30
0
0
VERTEX
8
0
10
55.409434375000004
20
46.228
30
0
0
SEQEND
0
POLYLINE
66
1
8
1_copper
10
0.0
20
0.0
30
0.0
70
1
0
VERTEX
8
0
10
54.70701875
20
39.325559375000005
30
0
42
0.3578051432831595
0
VERTEX
8
0
10
55.2704
20
39.94715625
30
0
0
VERTEX
8
0
10
55.2704
20
41.33284375
30
0
42
0.9520786018124834
0
VERTEX
8
0
10
53.949600000000004
20
41.33284375
30
0
0
VERTEX
8
0
10
53.949600000000004
20
39.94715625
30
0
0
VERTEX
8
0
10
53.955959375
20
39.88258125
30
0
0
VERTEX
8
0
10
53.968618750000005
20
39.81894375
30
0
0
VERTEX
8
0
10
53.987453125
20
39.75685
30
0
0
VERTEX
8
0
10
54.012284375
20
39.696903125
30
0
0
VERTEX
8
0
10
54.042871875
20
39.639678125
30
0
0
VERTEX
8
0
10
54.078921875000006
20
39.585725000000004
30
0
0
VERTEX
8
0
10
54.120084375000005
20
39.53556875
30
0
0
VERTEX
8
0
10
54.165968750000005
20
39.489684375
30
0
0
VERTEX
8
0
10
54.216125000000005
20
39.448521875000004
30
0
0
VERTEX
8
0
10
54.270078125000005
20
39.412471875
30
0
0
VERTEX
8
0
10
54.327303125
20
39.381884375
30
0
0
VERTEX
8
0
10
54.38725
20
39.357053125
30
0
0
VERTEX
8
0
10
54.449343750000004
20
39.33821875
30
0
0
VERTEX
8
0
10
54.51298125
20
39.325559375000005
30
0
0
VERTEX
8
0
10
54.57755625
20
39.3192
30
0
0
VERTEX
8
0
10
54.642443750000005
20
39.3192
30
0
0
SEQEND
0
POLYLINE
66
1
8
16_copper
10
0.0
20
0.0
30
0.0
70
1
0
VERTEX
8
0
10
54.70701875
20
39.325559375000005
30
0
42
0.3578051432831595
0
VERTEX
8
0
10
55.2704
20
39.94715625
30
0
0
VERTEX
8
0
10
55.2704
20
41.33284375
30
0
42
0.36675309512609283
0
VERTEX
8
0
10
54.6862
20
41.956490625
30
0
0
VERTEX
8
0
10
54.6862
20
46.228
30
0
0
VERTEX
8
0
10
55.409434375000004
20
46.228
30
0
42
0.9520795017710562
0
VERTEX
8
0
10
55.409434375000004
20
47.752
30
0
0
VERTEX
8
0
10
53.810565625
20
47.752
30
0
42
0.9520795017710562
0
VERTEX
8
0
10
53.810565625
20
46.228
30
0
0
VERTEX
8
0
10
54.5338
20
46.228
30
0
0
VERTEX
8
0
10
54.5338
20
41.956490625
30
0
42
0.36675309512609283
0
VERTEX
8
0
10
53.949600000000004
20
41.33284375
30
0
0
VERTEX
8
0
10
53.949600000000004
20
39.94715625
30
0
0
VERTEX
8
0
10
53.955959375
20
39.88258125
30
0
0
VERTEX
8
0
10
53.968618750000005
20
39.81894375
30
0
0
VERTEX
8
0
10
53.987453125
20
39.75685
30
0
0
VERTEX
8
0
10
54.012284375
20
39.696903125
30
0
0
VERTEX
8
0
10
54.042871875
20
39.639678125
30
0
0
VERTEX
8
0
10
54.078921875000006
20
39.585725000000004
30
0
0
VERTEX
8
0
10
54.120084375000005
20
39.53556875
30
0
0
VERTEX
8
0
10
54.165968750000005
20
39.489684375
30
0
0
VERTEX
8
0
10
54.216125000000005
20
39.448521875000004
30
0
0
VERTEX
8
0
10
54.270078125000005
20
39.412471875
30
0
0
VERTEX
8
0
10
54.327303125
20
39.381884375
30
0
0
VERTEX
8
0
10
54.38725
20
39.357053125
30
0
0
VERTEX
8
0
10
54.449343750000004
20
39.33821875
30
0
0
VERTEX
8
0
10
54.51298125
20
39.325559375000005
30
0
0
VERTEX
8
0
10
54.57755625
20
39.3192
30
0
0
VERTEX
8
0
10
54.642443750000005
20
39.3192
30
0
0
SEQEND
0
POLYLINE
66
1
8
1_copper
10
0.0
20
0.0
30
0.0
70
1
0
VERTEX
8
0
10
71.72
20
52.45
30
0
0
VERTEX
8
0
10
71.1962
20
52.45
30
0
0
VERTEX
8
0
10
71.1962
20
52.968878125
30
0
42
0.9969241442347151
0
VERTEX
8
0
10
71.046059375
20
53.711728125
30
0
0
VERTEX
8
0
10
70.998171875
20
53.698896875
30
0
42
0.7648843201253167
0
VERTEX
8
0
10
71.0438
20
52.968878125
30
0
0
VERTEX
8
0
10
71.0438
20
52.45
30
0
0
VERTEX
8
0
10
70.52000000000001
20
52.45
30
0
0
VERTEX
8
0
10
70.52000000000001
20
51.25
30
0
0
VERTEX
8
0
10
71.72
20
51.25
30
0
0
SEQEND
0
POLYLINE
66
1
8
1_copper
10
0.0
20
0.0
30
0.0
70
1
0
VERTEX
8
0
10
55.48394375
20
51.315337500000005
30
0
42
0.9063472543261978
0
VERTEX
8
0
10
55.409434375000004
20
52.832
30
0
0
VERTEX
8
0
10
53.810565625
20
52.832
30
0
42
0.9520795017710562
0
VERTEX
8
0
10
53.810565625
20
51.308
30
0
0
VERTEX
8
0
10
55.409434375000004
20
51.308
30
0
0
SEQEND
0
POLYLINE
66
1
8
1_copper
10
0.0
20
0.0
30
0.0
70
1
0
VERTEX
8
0
10
65.4304
20
51.796456250000006
30
0
0
VERTEX
8
0
10
65.4304
20
52.34354375
30
0
0
VERTEX
8
0
10
65.04354375
20
52.7304
30
0
0
VERTEX
8
0
10
64.49645625000001
20
52.7304
30
0
0
VERTEX
8
0
10
64.1096
20
52.34354375
30
0
0
VERTEX
8
0
10
64.1096
20
51.796456250000006
30
0
0
VERTEX
8
0
10
64.49645625000001
20
51.409600000000005
30
0
0
VERTEX
8
0
10
65.04354375
20
51.409600000000005
30
0
0
SEQEND
0
POLYLINE
66
1
8
1_copper
10
0.0
20
0.0
30
0.0
70
1
0
VERTEX
8
0
10
77.58194375000001
20
40.3933375
30
0
42
0.3578057741447831
0
VERTEX
8
0
10
78.232
20
41.110565625
30
0
0
VERTEX
8
0
10
78.232
20
42.709434375
30
0
42
0.9520795017710562
0
VERTEX
8
0
10
76.708
20
42.709434375
30
0
0
VERTEX
8
0
10
76.708
20
41.110565625
30
0
0
VERTEX
8
0
10
76.7153375
20
41.03605625
30
0
0
VERTEX
8
0
10
76.72994375
20
40.962625
30
0
0
VERTEX
8
0
10
76.751678125
20
40.89098125
30
0
0
VERTEX
8
0
10
76.780328125
20
40.821809375
30
0
0
VERTEX
8
0
10
76.815621875
20
40.755781250000005
30
0
0
VERTEX
8
0
10
76.85721875
20
40.69353125
30
0
0
VERTEX
8
0
10
76.90471562500001
20
40.635656250000004
30
0
0
VERTEX
8
0
10
76.95765625
20
40.582715625
30
0
0
VERTEX
8
0
10
77.01553125000001
20
40.53521875
30
0
0
VERTEX
8
0
10
77.07778125
20
40.493621875
30
0
0
VERTEX
8
0
10
77.143809375
20
40.458328125
30
0
0
VERTEX
8
0
10
77.21298125
20
40.429678125
30
0
0
VERTEX
8
0
10
77.284625
20
40.40794375
30
0
0
VERTEX
8
0
10
77.35805625
20
40.3933375
30
0
0
VERTEX
8
0
10
77.43256562500001
20
40.386
30
0
0
VERTEX
8
0
10
77.507434375
20
40.386
30
0
0
SEQEND
0
POLYLINE
66
1
8
16_copper
10
0.0
20
0.0
30
0.0
70
1
0
VERTEX
8
0
10
77.58194375000001
20
40.3933375
30
0
42
0.3578057741447831
0
VERTEX
8
0
10
78.232
20
41.110565625
30
0
0
VERTEX
8
0
10
78.232
20
42.709434375
30
0
42
0.3711436710623373
0
VERTEX
8
0
10
77.5462
20
43.430181250000004
30
0
0
VERTEX
8
0
10
77.5462
20
53.34
30
0
42
0.41421356237309503
0
VERTEX
8
0
10
77.47
20
53.4162
30
0
0
VERTEX
8
0
10
71.491121875
20
53.4162
30
0
42
0.8155378645187369
0
VERTEX
8
0
10
70.748878125
20
53.4162
30
0
0
VERTEX
8
0
10
69.85000000000001
20
53.4162
30
0
42
0.41421356237309503
0
VERTEX
8
0
10
69.77380000000001
20
53.34
30
0
0
VERTEX
8
0
10
69.77380000000001
20
52.1462
30
0
0
VERTEX
8
0
10
65.4304
20
52.1462
30
0
0
VERTEX
8
0
10
65.4304
20
52.34354375
30
0
0
VERTEX
8
0
10
65.04354375
20
52.7304
30
0
0
VERTEX
8
0
10
64.49645625000001
20
52.7304
30
0
0
VERTEX
8
0
10
64.1096
20
52.34354375
30
0
0
VERTEX
8
0
10
64.1096
20
52.1462
30
0
0
VERTEX
8
0
10
56.13018125
20
52.1462
30
0
42
0.3711436710623373
0
VERTEX
8
0
10
55.409434375000004
20
52.832
30
0
0
VERTEX
8
0
10
53.810565625
20
52.832
30
0
42
0.9520795017710562
0
VERTEX
8
0
10
53.810565625
20
51.308
30
0
0
VERTEX
8
0
10
55.409434375000004
20
51.308
30
0
42
0.3711436710623373
0
VERTEX
8
0
10
56.13018125
20
51.9938
30
0
0
VERTEX
8
0
10
64.1096
20
51.9938
30
0
0
VERTEX
8
0
10
64.1096
20
51.796456250000006
30
0
0
VERTEX
8
0
10
64.49645625000001
20
51.409600000000005
30
0
0
VERTEX
8
0
10
65.04354375
20
51.409600000000005
30
0
0
VERTEX
8
0
10
65.4304
20
51.796456250000006
30
0
0
VERTEX
8
0
10
65.4304
20
51.9938
30
0
0
VERTEX
8
0
10
69.85000000000001
20
51.9938
30
0
42
0.41421356237309503
0
VERTEX
8
0
10
69.92620000000001
20
52.07
30
0
0
VERTEX
8
0
10
69.92620000000001
20
53.2638
30
0
0
VERTEX
8
0
10
70.748878125
20
53.2638
30
0
42
0.8155378645187369
0
VERTEX
8
0
10
71.491121875
20
53.2638
30
0
0
VERTEX
8
0
10
77.3938
20
53.2638
30
0
0
VERTEX
8
0
10
77.3938
20
43.430181250000004
30
0
42
0.3711436710623373
0
VERTEX
8
0
10
76.708
20
42.709434375
30
0
0
VERTEX
8
0
10
76.708
20
41.110565625
30
0
0
VERTEX
8
0
10
76.7153375
20
41.03605625
30
0
0
VERTEX
8
0
10
76.72994375
20
40.962625
30
0
0
VERTEX
8
0
10
76.751678125
20
40.89098125
30
0
0
VERTEX
8
0
10
76.780328125
20
40.821809375
30
0
0
VERTEX
8
0
10
76.815621875
20
40.755781250000005
30
0
0
VERTEX
8
0
10
76.85721875
20
40.69353125
30
0
0
VERTEX
8
0
10
76.90471562500001
20
40.635656250000004
30
0
0
VERTEX
8
0
10
76.95765625
20
40.582715625
30
0
0
VERTEX
8
0
10
77.01553125000001
20
40.53521875
30
0
0
VERTEX
8
0
10
77.07778125
20
40.493621875
30
0
0
VERTEX
8
0
10
77.143809375
20
40.458328125
30
0
0
VERTEX
8
0
10
77.21298125
20
40.429678125
30
0
0
VERTEX
8
0
10
77.284625
20
40.40794375
30
0
0
VERTEX
8
0
10
77.35805625
20
40.3933375
30
0
0
VERTEX
8
0
10
77.43256562500001
20
40.386
30
0
0
VERTEX
8
0
10
77.507434375
20
40.386
30
0
0
SEQEND
0
POLYLINE
66
1
8
1_copper
10
0.0
20
0.0
30
0.0
70
1
0
VERTEX
8
0
10
71.7804
20
44.17645625
30
0
0
VERTEX
8
0
10
71.7804
20
44.723543750000005
30
0
0
VERTEX
8
0
10
71.39354375
20
45.110400000000006
30
0
0
VERTEX
8
0
10
71.1962
20
45.110400000000006
30
0
0
VERTEX
8
0
10
71.1962
20
47.888878125000005
30
0
42
0.8155378645187369
0
VERTEX
8
0
10
71.1962
20
48.631121875000005
30
0
0
VERTEX
8
0
10
71.1962
20
49.150000000000006
30
0
0
VERTEX
8
0
10
71.72
20
49.150000000000006
30
0
0
VERTEX
8
0
10
71.72
20
50.35
30
0
0
VERTEX
8
0
10
70.52000000000001
20
50.35
30
0
0
VERTEX
8
0
10
70.52000000000001
20
49.150000000000006
30
0
0
VERTEX
8
0
10
71.0438
20
49.150000000000006
30
0
0
VERTEX
8
0
10
71.0438
20
48.631121875000005
30
0
42
0.8155378645187369
0
VERTEX
8
0
10
71.0438
20
47.888878125000005
30
0
0
VERTEX
8
0
10
71.0438
20
45.110400000000006
30
0
0
VERTEX
8
0
10
70.84645625
20
45.110400000000006
30
0
0
VERTEX
8
0
10
70.45960000000001
20
44.723543750000005
30
0
0
VERTEX
8
0
10
70.45960000000001
20
44.17645625
30
0
0
VERTEX
8
0
10
70.84645625
20
43.7896
30
0
0
VERTEX
8
0
10
71.39354375
20
43.7896
30
0
0
SEQEND
0
POLYLINE
66
1
8
16_copper
10
0.0
20
0.0
30
0.0
70
1
0
VERTEX
8
0
10
71.19394062500001
20
47.888271875
30
0
0
VERTEX
8
0
10
71.241828125
20
47.901103125
30
0
0
VERTEX
8
0
10
71.28763125
20
47.920075000000004
30
0
0
VERTEX
8
0
10
71.33056875
20
47.9448625
30
0
0
VERTEX
8
0
10
71.3699
20
47.975043750000005
30
0
0
VERTEX
8
0
10
71.40495625
20
48.0101
30
0
0
VERTEX
8
0
10
71.43513750000001
20
48.049431250000005
30
0
0
VERTEX
8
0
10
71.459925
20
48.092368750000006
30
0
0
VERTEX
8
0
10
71.478896875
20
48.138171875000005
30
0
0
VERTEX
8
0
10
71.49172812500001
20
48.186059375
30
0
0
VERTEX
8
0
10
71.4982
20
48.2352125
30
0
0
VERTEX
8
0
10
71.4982
20
48.2847875
30
0
0
VERTEX
8
0
10
71.49172812500001
20
48.333940625000004
30
0
0
VERTEX
8
0
10
71.478896875
20
48.381828125000006
30
0
0
VERTEX
8
0
10
71.459925
20
48.427631250000005
30
0
0
VERTEX
8
0
10
71.43513750000001
20
48.470568750000005
30
0
0
VERTEX
8
0
10
71.40495625
20
48.5099
30
0
0
VERTEX
8
0
10
71.3699
20
48.544956250000006
30
0
0
VERTEX
8
0
10
71.33056875
20
48.575137500000004
30
0
0
VERTEX
8
0
10
71.28763125
20
48.599925
30
0
0
VERTEX
8
0
10
71.241828125
20
48.618896875000004
30
0
0
VERTEX
8
0
10
71.19394062500001
20
48.631728125
30
0
0
VERTEX
8
0
10
71.1447875
20
48.638200000000005
30
0
0
VERTEX
8
0
10
71.0952125
20
48.638200000000005
30
0
0
VERTEX
8
0
10
71.046059375
20
48.631728125
30
0
0
VERTEX
8
0
10
70.998171875
20
48.618896875000004
30
0
0
VERTEX
8
0
10
70.95236875
20
48.599925
30
0
0
VERTEX
8
0
10
70.90943125
20
48.575137500000004
30
0
0
VERTEX
8
0
10
70.87010000000001
20
48.544956250000006
30
0
0
VERTEX
8
0
10
70.83504375
20
48.5099
30
0
0
VERTEX
8
0
10
70.8048625
20
48.470568750000005
30
0
0
VERTEX
8
0
10
70.780075
20
48.427631250000005
30
0
0
VERTEX
8
0
10
70.761103125
20
48.381828125000006
30
0
0
VERTEX
8
0
10
70.748271875
20
48.333940625000004
30
0
0
VERTEX
8
0
10
70.7418
20
48.2847875
30
0
0
VERTEX
8
0
10
70.7418
20
48.2352125
30
0
0
VERTEX
8
0
10
70.748271875
20
48.186059375
30
0
0
VERTEX
8
0
10
70.761103125
20
48.138171875000005
30
0
0
VERTEX
8
0
10
70.780075
20
48.092368750000006
30
0
0
VERTEX
8
0
10
70.8048625
20
48.049431250000005
30
0
0
VERTEX
8
0
10
70.83504375
20
48.0101
30
0
0
VERTEX
8
0
10
70.87010000000001
20
47.975043750000005
30
0
0
VERTEX
8
0
10
70.90943125
20
47.9448625
30
0
0
VERTEX
8
0
10
70.95236875
20
47.920075000000004
30
0
0
VERTEX
8
0
10
70.998171875
20
47.901103125
30
0
0
VERTEX
8
0
10
71.046059375
20
47.888271875
30
0
0
VERTEX
8
0
10
71.0952125
20
47.881800000000005
30
0
0
VERTEX
8
0
10
71.1447875
20
47.881800000000005
30
0
0
SEQEND
0
POLYLINE
66
1
8
16_copper
10
0.0
20
0.0
30
0.0
70
1
0
VERTEX
8
0
10
71.7804
20
44.17645625
30
0
0
VERTEX
8
0
10
71.7804
20
44.723543750000005
30
0
0
VERTEX
8
0
10
71.39354375
20
45.110400000000006
30
0
0
VERTEX
8
0
10
70.84645625
20
45.110400000000006
30
0
0
VERTEX
8
0
10
70.45960000000001
20
44.723543750000005
30
0
0
VERTEX
8
0
10
70.45960000000001
20
44.17645625
30
0
0
VERTEX
8
0
10
70.84645625
20
43.7896
30
0
0
VERTEX
8
0
10
71.39354375
20
43.7896
30
0
0
SEQEND
0
POLYLINE
66
1
8
1_copper
10
0.0
20
0.0
30
0.0
70
1
0
VERTEX
8
0
10
68.653940625
20
50.428271875
30
0
42
0.818105841543916
0
VERTEX
8
0
10
68.6562
20
51.171121875000004
30
0
0
VERTEX
8
0
10
68.6562
20
52.968878125
30
0
42
0.9969241442347151
0
VERTEX
8
0
10
68.506059375
20
53.711728125
30
0
0
VERTEX
8
0
10
68.458171875
20
53.698896875
30
0
42
0.7648843201253167
0
VERTEX
8
0
10
68.5038
20
52.968878125
30
0
0
VERTEX
8
0
10
68.5038
20
51.171121875000004
30
0
0
VERTEX
8
0
10
68.458171875
20
51.158896875
30
0
0
VERTEX
8
0
10
68.41236875
20
51.139925000000005
30
0
0
VERTEX
8
0
10
68.36943125
20
51.1151375
30
0
0
VERTEX
8
0
10
68.3301
20
51.084956250000005
30
0
0
VERTEX
8
0
10
68.29504375
20
51.0499
30
0
0
VERTEX
8
0
10
68.2648625
20
51.010568750000004
30
0
0
VERTEX
8
0
10
68.240075
20
50.967631250000004
30
0
0
VERTEX
8
0
10
68.221103125
20
50.921828125000005
30
0
0
VERTEX
8
0
10
68.20827187500001
20
50.873940625
30
0
0
VERTEX
8
0
10
68.2018
20
50.8247875
30
0
0
VERTEX
8
0
10
68.2018
20
50.7752125
30
0
0
VERTEX
8
0
10
68.20827187500001
20
50.726059375000006
30
0
0
VERTEX
8
0
10
68.221103125
20
50.678171875000004
30
0
0
VERTEX
8
0
10
68.240075
20
50.632368750000005
30
0
0
VERTEX
8
0
10
68.2648625
20
50.589431250000004
30
0
0
VERTEX
8
0
10
68.29504375
20
50.5501
30
0
0
VERTEX
8
0
10
68.3301
20
50.515043750000004
30
0
0
VERTEX
8
0
10
68.36943125
20
50.484862500000006
30
0
0
VERTEX
8
0
10
68.41236875
20
50.460075
30
0
0
VERTEX
8
0
10
68.458171875
20
50.441103125000005
30
0
0
VERTEX
8
0
10
68.506059375
20
50.428271875
30
0
0
VERTEX
8
0
10
68.55521250000001
20
50.421800000000005
30
0
0
VERTEX
8
0
10
68.6047875
20
50.421800000000005
30
0
0
SEQEND
0
POLYLINE
66
1
8
1_copper
10
0.0
20
0.0
30
0.0
70
1
0
VERTEX
8
0
10
75.04194375
20
40.3933375
30
0
42
0.3578057741447831
0
VERTEX
8
0
10
75.69200000000001
20
41.110565625
30
0
0
VERTEX
8
0
10
75.69200000000001
20
42.709434375
30
0
42
0.9520795017710562
0
VERTEX
8
0
10
74.168
20
42.709434375
30
0
0
VERTEX
8
0
10
74.168
20
41.110565625
30
0
0
VERTEX
8
0
10
74.1753375
20
41.03605625
30
0
0
VERTEX
8
0
10
74.18994375
20
40.962625
30
0
0
VERTEX
8
0
10
74.211678125
20
40.89098125
30
0
0
VERTEX
8
0
10
74.240328125
20
40.821809375
30
0
0
VERTEX
8
0
10
74.275621875
20
40.755781250000005
30
0
0
VERTEX
8
0
10
74.31721875000001
20
40.69353125
30
0
0
VERTEX
8
0
10
74.364715625
20
40.635656250000004
30
0
0
VERTEX
8
0
10
74.41765625000001
20
40.582715625
30
0
0
VERTEX
8
0
10
74.47553125
20
40.53521875
30
0
0
VERTEX
8
0
10
74.53778125000001
20
40.493621875
30
0
0
VERTEX
8
0
10
74.603809375
20
40.458328125
30
0
0
VERTEX
8
0
10
74.67298125
20
40.429678125
30
0
0
VERTEX
8
0
10
74.744625
20
40.40794375
30
0
0
VERTEX
8
0
10
74.81805625
20
40.3933375
30
0
0
VERTEX
8
0
10
74.892565625
20
40.386
30
0
0
VERTEX
8
0
10
74.96743437500001
20
40.386
30
0
0
SEQEND
0
POLYLINE
66
1
8
1_copper
10
0.0
20
0.0
30
0.0
70
1
0
VERTEX
8
0
10
49.627018750000005
20
39.325559375000005
30
0
42
0.3578051432831595
0
VERTEX
8
0
10
50.190400000000004
20
39.94715625
30
0
0
VERTEX
8
0
10
50.190400000000004
20
41.33284375
30
0
42
0.9520786018124834
0
VERTEX
8
0
10
48.869600000000005
20
41.33284375
30
0
0
VERTEX
8
0
10
48.869600000000005
20
39.94715625
30
0
0
VERTEX
8
0
10
48.875959375
20
39.88258125
30
0
0
VERTEX
8
0
10
48.88861875
20
39.81894375
30
0
0
VERTEX
8
0
10
48.907453125
20
39.75685
30
0
0
VERTEX
8
0
10
48.932284375
20
39.696903125
30
0
0
VERTEX
8
0
10
48.962871875000005
20
39.639678125
30
0
0
VERTEX
8
0
10
48.998921875
20
39.585725000000004
30
0
0
VERTEX
8
0
10
49.040084375
20
39.53556875
30
0
0
VERTEX
8
0
10
49.08596875
20
39.489684375
30
0
0
VERTEX
8
0
10
49.136125
20
39.448521875000004
30
0
0
VERTEX
8
0
10
49.190078125
20
39.412471875
30
0
0
VERTEX
8
0
10
49.247303125
20
39.381884375
30
0
0
VERTEX
8
0
10
49.30725
20
39.357053125
30
0
0
VERTEX
8
0
10
49.369343750000006
20
39.33821875
30
0
0
VERTEX
8
0
10
49.432981250000005
20
39.325559375000005
30
0
0
VERTEX
8
0
10
49.49755625
20
39.3192
30
0
0
VERTEX
8
0
10
49.56244375
20
39.3192
30
0
0
SEQEND
0
POLYLINE
66
1
8
16_copper
10
0.0
20
0.0
30
0.0
70
1
0
VERTEX
8
0
10
49.627018750000005
20
39.325559375000005
30
0
42
0.3578051432831595
0
VERTEX
8
0
10
50.190400000000004
20
39.94715625
30
0
0
VERTEX
8
0
10
50.190400000000004
20
41.33284375
30
0
42
0.36675309512609283
0
VERTEX
8
0
10
49.6062
20
41.956490625
30
0
0
VERTEX
8
0
10
49.6062
20
53.2638
30
0
0
VERTEX
8
0
10
68.208878125
20
53.2638
30
0
42
0.9969241442347151
0
VERTEX
8
0
10
68.951728125
20
53.413940625
30
0
0
VERTEX
8
0
10
68.938896875
20
53.461828125000004
30
0
42
0.7648843201253167
0
VERTEX
8
0
10
68.208878125
20
53.4162
30
0
0
VERTEX
8
0
10
49.53
20
53.4162
30
0
42
0.41421356237309503
0
VERTEX
8
0
10
49.4538
20
53.34
30
0
0
VERTEX
8
0
10
49.4538
20
41.956490625
30
0
42
0.36675309512609283
0
VERTEX
8
0
10
48.869600000000005
20
41.33284375
30
0
0
VERTEX
8
0
10
48.869600000000005
20
39.94715625
30
0
0
VERTEX
8
0
10
48.875959375
20
39.88258125
30
0
0
VERTEX
8
0
10
48.88861875
20
39.81894375
30
0
0
VERTEX
8
0
10
48.907453125
20
39.75685
30
0
0
VERTEX
8
0
10
48.932284375
20
39.696903125
30
0
0
VERTEX
8
0
10
48.962871875000005
20
39.639678125
30
0
0
VERTEX
8
0
10
48.998921875
20
39.585725000000004
30
0
0
VERTEX
8
0
10
49.040084375
20
39.53556875
30
0
0
VERTEX
8
0
10
49.08596875
20
39.489684375
30
0
0
VERTEX
8
0
10
49.136125
20
39.448521875000004
30
0
0
VERTEX
8
0
10
49.190078125
20
39.412471875
30
0
0
VERTEX
8
0
10
49.247303125
20
39.381884375
30
0
0
VERTEX
8
0
10
49.30725
20
39.357053125
30
0
0
VERTEX
8
0
10
49.369343750000006
20
39.33821875
30
0
0
VERTEX
8
0
10
49.432981250000005
20
39.325559375000005
30
0
0
VERTEX
8
0
10
49.49755625
20
39.3192
30
0
0
VERTEX
8
0
10
49.56244375
20
39.3192
30
0
0
SEQEND
0
POLYLINE
66
1
8
16_copper
10
0.0
20
0.0
30
0.0
70
1
0
VERTEX
8
0
10
75.04194375
20
40.3933375
30
0
42
0.3578057741447831
0
VERTEX
8
0
10
75.69200000000001
20
41.110565625
30
0
0
VERTEX
8
0
10
75.69200000000001
20
42.709434375
30
0
42
0.3711436710623373
0
VERTEX
8
0
10
75.0062
20
43.430181250000004
30
0
0
VERTEX
8
0
10
75.0062
20
50.800000000000004
30
0
42
0.41421356237309503
0
VERTEX
8
0
10
74.93
20
50.876200000000004
30
0
0
VERTEX
8
0
10
68.951121875
20
50.876200000000004
30
0
42
0.9969241442347151
0
VERTEX
8
0
10
68.20827187500001
20
50.726059375000006
30
0
0
VERTEX
8
0
10
68.221103125
20
50.678171875000004
30
0
42
0.7648843201253167
0
VERTEX
8
0
10
68.951121875
20
50.723800000000004
30
0
0
VERTEX
8
0
10
74.8538
20
50.723800000000004
30
0
0
VERTEX
8
0
10
74.8538
20
43.430181250000004
30
0
42
0.3711436710623373
0
VERTEX
8
0
10
74.168
20
42.709434375
30
0
0
VERTEX
8
0
10
74.168
20
41.110565625
30
0
0
VERTEX
8
0
10
74.1753375
20
41.03605625
30
0
0
VERTEX
8
0
10
74.18994375
20
40.962625
30
0
0
VERTEX
8
0
10
74.211678125
20
40.89098125
30
0
0
VERTEX
8
0
10
74.240328125
20
40.821809375
30
0
0
VERTEX
8
0
10
74.275621875
20
40.755781250000005
30
0
0
VERTEX
8
0
10
74.31721875000001
20
40.69353125
30
0
0
VERTEX
8
0
10
74.364715625
20
40.635656250000004
30
0
0
VERTEX
8
0
10
74.41765625000001
20
40.582715625
30
0
0
VERTEX
8
0
10
74.47553125
20
40.53521875
30
0
0
VERTEX
8
0
10
74.53778125000001
20
40.493621875
30
0
0
VERTEX
8
0
10
74.603809375
20
40.458328125
30
0
0
VERTEX
8
0
10
74.67298125
20
40.429678125
30
0
0
VERTEX
8
0
10
74.744625
20
40.40794375
30
0
0
VERTEX
8
0
10
74.81805625
20
40.3933375
30
0
0
VERTEX
8
0
10
74.892565625
20
40.386
30
0
0
VERTEX
8
0
10
74.96743437500001
20
40.386
30
0
0
SEQEND
0
POLYLINE
66
1
8
1_copper
10
0.0
20
0.0
30
0.0
70
1
0
VERTEX
8
0
10
55.48394375
20
48.7753375
30
0
42
0.9063472543261978
0
VERTEX
8
0
10
55.409434375000004
20
50.292
30
0
0
VERTEX
8
0
10
53.810565625
20
50.292
30
0
42
0.9520795017710562
0
VERTEX
8
0
10
53.810565625
20
48.768
30
0
0
VERTEX
8
0
10
55.409434375000004
20
48.768
30
0
0
SEQEND
0
POLYLINE
66
1
8
1_copper
10
0.0
20
0.0
30
0.0
70
1
0
VERTEX
8
0
10
65.4304
20
49.25645625
30
0
0
VERTEX
8
0
10
65.4304
20
49.80354375
30
0
0
VERTEX
8
0
10
65.04354375
20
50.190400000000004
30
0
0
VERTEX
8
0
10
64.49645625000001
20
50.190400000000004
30
0
0
VERTEX
8
0
10
64.1096
20
49.80354375
30
0
0
VERTEX
8
0
10
64.1096
20
49.25645625
30
0
0
VERTEX
8
0
10
64.49645625000001
20
48.869600000000005
30
0
0
VERTEX
8
0
10
65.04354375
20
48.869600000000005
30
0
0
SEQEND
0
POLYLINE
66
1
8
1_copper
10
0.0
20
0.0
30
0.0
70
1
0
VERTEX
8
0
10
69.923940625
20
46.618271875000005
30
0
42
0.3016664185260731
0
VERTEX
8
0
10
70.22112187500001
20
46.9138
30
0
0
VERTEX
8
0
10
72.018878125
20
46.9138
30
0
42
0.9969241442347151
0
VERTEX
8
0
10
72.761728125
20
47.063940625
30
0
0
VERTEX
8
0
10
72.748896875
20
47.111828125
30
0
42
0.7648843201253167
0
VERTEX
8
0
10
72.018878125
20
47.0662
30
0
0
VERTEX
8
0
10
70.22112187500001
20
47.0662
30
0
0
VERTEX
8
0
10
70.20889687500001
20
47.111828125
30
0
0
VERTEX
8
0
10
70.189925
20
47.15763125
30
0
0
VERTEX
8
0
10
70.1651375
20
47.20056875
30
0
0
VERTEX
8
0
10
70.13495625
20
47.239900000000006
30
0
0
VERTEX
8
0
10
70.0999
20
47.27495625
30
0
0
VERTEX
8
0
10
70.06056875
20
47.3051375
30
0
0
VERTEX
8
0
10
70.01763125000001
20
47.329925
30
0
0
VERTEX
8
0
10
69.971828125
20
47.348896875
30
0
0
VERTEX
8
0
10
69.923940625
20
47.361728125
30
0
0
VERTEX
8
0
10
69.8747875
20
47.3682
30
0
0
VERTEX
8
0
10
69.8252125
20
47.3682
30
0
0
VERTEX
8
0
10
69.776059375
20
47.361728125
30
0
0
VERTEX
8
0
10
69.728171875
20
47.348896875
30
0
0
VERTEX
8
0
10
69.68236875000001
20
47.329925
30
0
0
VERTEX
8
0
10
69.63943125
20
47.3051375
30
0
0
VERTEX
8
0
10
69.6001
20
47.27495625
30
0
0
VERTEX
8
0
10
69.56504375
20
47.239900000000006
30
0
0
VERTEX
8
0
10
69.5348625
20
47.20056875
30
0
0
VERTEX
8
0
10
69.510075
20
47.15763125
30
0
0
VERTEX
8
0
10
69.49110312500001
20
47.111828125
30
0
0
VERTEX
8
0
10
69.478271875
20
47.063940625
30
0
0
VERTEX
8
0
10
69.4718
20
47.014787500000004
30
0
0
VERTEX
8
0
10
69.4718
20
46.9652125
30
0
0
VERTEX
8
0
10
69.478271875
20
46.916059375
30
0
0
VERTEX
8
0
10
69.49110312500001
20
46.868171875
30
0
0
VERTEX
8
0
10
69.510075
20
46.82236875
30
0
0
VERTEX
8
0
10
69.5348625
20
46.77943125
30
0
0
VERTEX
8
0
10
69.56504375
20
46.740100000000005
30
0
0
VERTEX
8
0
10
69.6001
20
46.70504375
30
0
0
VERTEX
8
0
10
69.63943125
20
46.6748625
30
0
0
VERTEX
8
0
10
69.68236875000001
20
46.650075
30
0
0
VERTEX
8
0
10
69.728171875
20
46.631103125
30
0
0
VERTEX
8
0
10
69.776059375
20
46.618271875000005
30
0
0
VERTEX
8
0
10
69.8252125
20
46.6118
30
0
0
VERTEX
8
0
10
69.8747875
20
46.6118
30
0
0
SEQEND
0
POLYLINE
66
1
8
1_copper
10
0.0
20
0.0
30
0.0
70
1
0
VERTEX
8
0
10
64.16040000000001
20
44.17645625
30
0
0
VERTEX
8
0
10
64.16040000000001
20
44.723543750000005
30
0
0
VERTEX
8
0
10
63.77354375
20
45.110400000000006
30
0
0
VERTEX
8
0
10
63.226456250000005
20
45.110400000000006
30
0
0
VERTEX
8
0
10
62.839600000000004
20
44.723543750000005
30
0
0
VERTEX
8
0
10
62.839600000000004
20
44.17645625
30
0
0
VERTEX
8
0
10
63.226456250000005
20
43.7896
30
0
0
VERTEX
8
0
10
63.77354375
20
43.7896
30
0
0
SEQEND
0
POLYLINE
66
1
8
1_copper
10
0.0
20
0.0
30
0.0
70
1
0
VERTEX
8
0
10
72.50194375000001
20
40.3933375
30
0
42
0.3578057741447831
0
VERTEX
8
0
10
73.152
20
41.110565625
30
0
0
VERTEX
8
0
10
73.152
20
42.709434375
30
0
42
0.9520795017710562
0
VERTEX
8
0
10
71.628
20
42.709434375
30
0
0
VERTEX
8
0
10
71.628
20
41.110565625
30
0
0
VERTEX
8
0
10
71.6353375
20
41.03605625
30
0
0
VERTEX
8
0
10
71.64994375
20
40.962625
30
0
0
VERTEX
8
0
10
71.671678125
20
40.89098125
30
0
0
VERTEX
8
0
10
71.700328125
20
40.821809375
30
0
0
VERTEX
8
0
10
71.735621875
20
40.755781250000005
30
0
0
VERTEX
8
0
10
71.77721875
20
40.69353125
30
0
0
VERTEX
8
0
10
71.82471562500001
20
40.635656250000004
30
0
0
VERTEX
8
0
10
71.87765625
20
40.582715625
30
0
0
VERTEX
8
0
10
71.93553125
20
40.53521875
30
0
0
VERTEX
8
0
10
71.99778125
20
40.493621875
30
0
0
VERTEX
8
0
10
72.063809375
20
40.458328125
30
0
0
VERTEX
8
0
10
72.13298125
20
40.429678125
30
0
0
VERTEX
8
0
10
72.20462500000001
20
40.40794375
30
0
0
VERTEX
8
0
10
72.27805625
20
40.3933375
30
0
0
VERTEX
8
0
10
72.352565625
20
40.386
30
0
0
VERTEX
8
0
10
72.427434375
20
40.386
30
0
0
SEQEND
0
POLYLINE
66
1
8
1_copper
10
0.0
20
0.0
30
0.0
70
1
0
VERTEX
8
0
10
52.167018750000004
20
39.325559375000005
30
0
42
0.3578051432831595
0
VERTEX
8
0
10
52.7304
20
39.94715625
30
0
0
VERTEX
8
0
10
52.7304
20
41.33284375
30
0
42
0.9520786018124834
0
VERTEX
8
0
10
51.409600000000005
20
41.33284375
30
0
0
VERTEX
8
0
10
51.409600000000005
20
39.94715625
30
0
0
VERTEX
8
0
10
51.415959375
20
39.88258125
30
0
0
VERTEX
8
0
10
51.428618750000005
20
39.81894375
30
0
0
VERTEX
8
0
10
51.447453125
20
39.75685
30
0
0
VERTEX
8
0
10
51.472284375
20
39.696903125
30
0
0
VERTEX
8
0
10
51.502871875000004
20
39.639678125
30
0
0
VERTEX
8
0
10
51.538921875
20
39.585725000000004
30
0
0
VERTEX
8
0
10
51.580084375000006
20
39.53556875
30
0
0
VERTEX
8
0
10
51.625968750000006
20
39.489684375
30
0
0
VERTEX
8
0
10
51.676125
20
39.448521875000004
30
0
0
VERTEX
8
0
10
51.730078125000006
20
39.412471875
30
0
0
VERTEX
8
0
10
51.787303125
20
39.381884375
30
0
0
VERTEX
8
0
10
51.84725
20
39.357053125
30
0
0
VERTEX
8
0
10
51.909343750000005
20
39.33821875
30
0
0
VERTEX
8
0
10
51.972981250000004
20
39.325559375000005
30
0
0
VERTEX
8
0
10
52.03755625
20
39.3192
30
0
0
VERTEX
8
0
10
52.10244375
20
39.3192
30
0
0
SEQEND
0
POLYLINE
66
1
8
16_copper
10
0.0
20
0.0
30
0.0
70
1
0
VERTEX
8
0
10
62.154612500000006
20
44.44438125
30
0
42
0.39258815634569955
0
VERTEX
8
0
10
62.230000000000004
20
44.3738
30
0
0
VERTEX
8
0
10
62.839600000000004
20
44.3738
30
0
0
VERTEX
8
0
10
62.839600000000004
20
44.17645625
30
0
0
VERTEX
8
0
10
63.226456250000005
20
43.7896
30
0
0
VERTEX
8
0
10
63.77354375
20
43.7896
30
0
0
VERTEX
8
0
10
64.16040000000001
20
44.17645625
30
0
0
VERTEX
8
0
10
64.16040000000001
20
44.723543750000005
30
0
0
VERTEX
8
0
10
63.77354375
20
45.110400000000006
30
0
0
VERTEX
8
0
10
63.226456250000005
20
45.110400000000006
30
0
0
VERTEX
8
0
10
62.839600000000004
20
44.723543750000005
30
0
0
VERTEX
8
0
10
62.839600000000004
20
44.5262
30
0
0
VERTEX
8
0
10
62.306200000000004
20
44.5262
30
0
0
VERTEX
8
0
10
62.306200000000004
20
46.9138
30
0
0
VERTEX
8
0
10
69.47887812500001
20
46.9138
30
0
42
0.9969241442347151
0
VERTEX
8
0
10
70.221728125
20
47.063940625
30
0
0
VERTEX
8
0
10
70.20889687500001
20
47.111828125
30
0
42
0.7648843201253167
0
VERTEX
8
0
10
69.47887812500001
20
47.0662
30
0
0
VERTEX
8
0
10
62.306200000000004
20
47.0662
30
0
0
VERTEX
8
0
10
62.306200000000004
20
49.4538
30
0
0
VERTEX
8
0
10
64.1096
20
49.4538
30
0
0
VERTEX
8
0
10
64.1096
20
49.25645625
30
0
0
VERTEX
8
0
10
64.49645625000001
20
48.869600000000005
30
0
0
VERTEX
8
0
10
65.04354375
20
48.869600000000005
30
0
0
VERTEX
8
0
10
65.4304
20
49.25645625
30
0
0
VERTEX
8
0
10
65.4304
20
49.80354375
30
0
0
VERTEX
8
0
10
65.04354375
20
50.190400000000004
30
0
0
VERTEX
8
0
10
64.49645625000001
20
50.190400000000004
30
0
0
VERTEX
8
0
10
64.1096
20
49.80354375
30
0
0
VERTEX
8
0
10
64.1096
20
49.6062
30
0
0
VERTEX
8
0
10
56.13018125
20
49.6062
30
0
42
0.3711436710623373
0
VERTEX
8
0
10
55.409434375000004
20
50.292
30
0
0
VERTEX
8
0
10
53.810565625
20
50.292
30
0
42
0.3711436710623373
0
VERTEX
8
0
10
53.08981875
20
49.6062
30
0
0
VERTEX
8
0
10
52.07
20
49.6062
30
0
42
0.41421356237309503
0
VERTEX
8
0
10
51.9938
20
49.53
30
0
0
VERTEX
8
0
10
51.9938
20
41.956490625
30
0
42
0.36675309512609283
0
VERTEX
8
0
10
51.409600000000005
20
41.33284375
30
0
0
VERTEX
8
0
10
51.409600000000005
20
39.94715625
30
0
42
0.9520786018124834
0
VERTEX
8
0
10
52.7304
20
39.94715625
30
0
0
VERTEX
8
0
10
52.7304
20
41.33284375
30
0
42
0.36675309512609283
0
VERTEX
8
0
10
52.1462
20
41.956490625
30
0
0
VERTEX
8
0
10
52.1462
20
49.4538
30
0
0
VERTEX
8
0
10
53.08981875
20
49.4538
30
0
42
0.3711436710623373
0
VERTEX
8
0
10
53.810565625
20
48.768
30
0
0
VERTEX
8
0
10
55.409434375000004
20
48.768
30
0
42
0.3711436710623373
0
VERTEX
8
0
10
56.13018125
20
49.4538
30
0
0
VERTEX
8
0
10
62.153800000000004
20
49.4538
30
0
0
VERTEX
8
0
10
62.153800000000004
20
44.45
30
0
0
SEQEND
0
POLYLINE
66
1
8
16_copper
10
0.0
20
0.0
30
0.0
70
1
0
VERTEX
8
0
10
72.50194375000001
20
40.3933375
30
0
42
0.3578057741447831
0
VERTEX
8
0
10
73.152
20
41.110565625
30
0
0
VERTEX
8
0
10
73.152
20
42.709434375
30
0
42
0.3711436710623373
0
VERTEX
8
0
10
72.4662
20
43.430181250000004
30
0
0
VERTEX
8
0
10
72.4662
20
46.618878125
30
0
42
0.9969241442347151
0
VERTEX
8
0
10
72.31605937500001
20
47.361728125
30
0
0
VERTEX
8
0
10
72.26817187500001
20
47.348896875
30
0
42
0.7648843201253167
0
VERTEX
8
0
10
72.3138
20
46.618878125
30
0
0
VERTEX
8
0
10
72.3138
20
43.430181250000004
30
0
42
0.3711436710623373
0
VERTEX
8
0
10
71.628
20
42.709434375
30
0
0
VERTEX
8
0
10
71.628
20
41.110565625
30
0
0
VERTEX
8
0
10
71.6353375
20
41.03605625
30
0
0
VERTEX
8
0
10
71.64994375
20
40.962625
30
0
0
VERTEX
8
0
10
71.671678125
20
40.89098125
30
0
0
VERTEX
8
0
10
71.700328125
20
40.821809375
30
0
0
VERTEX
8
0
10
71.735621875
20
40.755781250000005
30
0
0
VERTEX
8
0
10
71.77721875
20
40.69353125
30
0
0
VERTEX
8
0
10
71.82471562500001
20
40.635656250000004
30
0
0
VERTEX
8
0
10
71.87765625
20
40.582715625
30
0
0
VERTEX
8
0
10
71.93553125
20
40.53521875
30
0
0
VERTEX
8
0
10
71.99778125
20
40.493621875
30
0
0
VERTEX
8
0
10
72.063809375
20
40.458328125
30
0
0
VERTEX
8
0
10
72.13298125
20
40.429678125
30
0
0
VERTEX
8
0
10
72.20462500000001
20
40.40794375
30
0
0
VERTEX
8
0
10
72.27805625
20
40.3933375
30
0
0
VERTEX
8
0
10
72.352565625
20
40.386
30
0
0
VERTEX
8
0
10
72.427434375
20
40.386
30
0
0
SEQEND
0
CIRCLE
8
drills_NPTH
10
43.18
20
31.75
30
0
40
1
0
CIRCLE
8
drills_NPTH
10
81.28
20
31.75
30
0
40
1
0
CIRCLE
8
drills_NPTH
10
43.18
20
58.42
30
0
40
1
0
CIRCLE
8
drills_NPTH
10
81.28
20
58.42
30
0
40
1
0
CIRCLE
8
drills_PTH
10
54.61
20
46.99
30
0
40
0.508
0
CIRCLE
8
drills_PTH
10
54.61
20
49.53
30
0
40
0.508
0
CIRCLE
8
drills_PTH
10
54.61
20
52.07
30
0
40
0.508
0
CIRCLE
8
drills_PTH
10
77.47
20
41.910000000000004
30
0
40
0.508
0
CIRCLE
8
drills_PTH
10
74.93
20
41.910000000000004
30
0
40
0.508
0
CIRCLE
8
drills_PTH
10
72.39
20
41.910000000000004
30
0
40
0.508
0
CIRCLE
8
drills_PTH
10
64.77
20
52.07
30
0
40
0.40640000000000004
0
CIRCLE
8
drills_PTH
10
64.77
20
49.53
30
0
40
0.40640000000000004
0
CIRCLE
8
drills_PTH
10
52.07
20
40.64
30
0
40
0.40640000000000004
0
CIRCLE
8
drills_PTH
10
54.61
20
40.64
30
0
40
0.40640000000000004
0
CIRCLE
8
drills_PTH
10
49.53
20
40.64
30
0
40
0.40640000000000004
0
CIRCLE
8
drills_PTH
10
71.12
20
44.45
30
0
40
0.40640000000000004
0
CIRCLE
8
drills_PTH
10
63.5
20
44.45
30
0
40
0.40640000000000004
0
CIRCLE
8
drills_via_1_16
10
71.12
20
53.34
30
0
40
0.17500000000000002
0
CIRCLE
8
drills_via_1_16
10
71.12
20
48.260000000000005
30
0
40
0.17500000000000002
0
CIRCLE
8
drills_via_1_16
10
68.58
20
53.34
30
0
40
0.17500000000000002
0
CIRCLE
8
drills_via_1_16
10
68.58
20
50.800000000000004
30
0
40
0.17500000000000002
0
CIRCLE
8
drills_via_1_16
10
72.39
20
46.99
30
0
40
0.17500000000000002
0
CIRCLE
8
drills_via_1_16
10
69.85000000000001
20
46.99
30
0
40
0.17500000000000002
0
ENDSEC
0
EOF