0
SECTION
2
HEADER
9
$ANGDIR
70
1
9
$AUNITS
70
0
9
$PROJECTNAME
1
OUTPUT UNIT
9
$TDCREATE
40
2459116.36211068
9
$INSUNITS
70
4
0
ENDSEC
0
SECTION
2
ENTITIES
0
POLYLINE
66
1
8
outline
10
0.0
20
0.0
30
0.0
70
1
0
VERTEX
8
0
10
22.86
20
30.48
30
0
0
VERTEX
8
0
10
85.07000000000001
20
30.48
30
0
0
VERTEX
8
0
10
85.07000000000001
20
66.98
30
0
0
VERTEX
8
0
10
22.86
20
66.98
30
0
0
VERTEX
8
0
10
22.86
20
30.48
30
0
0
SEQEND
0
POLYLINE
66
1
8
holes
10
0.0
20
0.0
30
0.0
70
1
0
VERTEX
8
0
10
26.150000000000002
20
32.98315625
30
0
0
VERTEX
8
0
10
26.142778125
20
32.90981875
30
0
0
VERTEX
8
0
10
26.128400000000003
20
32.83754375
30
0
0
VERTEX
8
0
10
26.107009375
20
32.767028125
30
0
0
VERTEX
8
0
10
26.078809375000002
20
32.698946875000004
30
0
0
VERTEX
8
0
10
26.044071875
20
32.633959375
30
0
0
VERTEX
8
0
10
26.003131250000003
20
32.5726875
30
0
0
VERTEX
8
0
10
25.956384375000003
20
32.515721875000004
30
0
0
VERTEX
8
0
10
25.904278125
20
32.463615625
30
0
0
VERTEX
8
0
10
25.8473125
20
32.41686875
30
0
0
VERTEX
8
0
10
25.786040625000002
20
32.375928125
30
0
0
VERTEX
8
0
10
25.721053125
20
32.341190625
30
0
0
VERTEX
8
0
10
25.652971875000002
20
32.312990625000005
30
0
0
VERTEX
8
0
10
25.58245625
20
32.2916
30
0
0
VERTEX
8
0
10
25.510181250000002
20
32.277221875
30
0
0
VERTEX
8
0
10
25.43684375
20
32.27
30
0
0
VERTEX
8
0
10
25.363156250000003
20
32.27
30
0
0
VERTEX
8
0
10
25.289818750000002
20
32.277221875
30
0
0
VERTEX
8
0
10
25.21754375
20
32.2916
30
0
0
VERTEX
8
0
10
25.147028125000002
20
32.312990625000005
30
0
0
VERTEX
8
0
10
25.078946875
20
32.341190625
30
0
0
VERTEX
8
0
10
25.013959375000002
20
32.375928125
30
0
0
VERTEX
8
0
10
24.9526875
20
32.41686875
30
0
0
VERTEX
8
0
10
24.895721875
20
32.463615625
30
0
0
VERTEX
8
0
10
24.843615625
20
32.515721875000004
30
0
0
VERTEX
8
0
10
24.79686875
20
32.5726875
30
0
0
VERTEX
8
0
10
24.755928125
20
32.633959375
30
0
0
VERTEX
8
0
10
24.721190625000002
20
32.698946875000004
30
0
0
VERTEX
8
0
10
24.692990625
20
32.767028125
30
0
0
VERTEX
8
0
10
24.6716
20
32.83754375
30
0
0
VERTEX
8
0
10
24.657221875
20
32.90981875
30
0
0
VERTEX
8
0
10
24.650000000000002
20
32.98315625
30
0
0
VERTEX
8
0
10
24.650000000000002
20
33.05684375
30
0
0
VERTEX
8
0
10
24.657221875
20
33.13018125
30
0
0
VERTEX
8
0
10
24.6716
20
33.202456250000004
30
0
0
VERTEX
8
0
10
24.692990625
20
33.272971875
30
0
0
VERTEX
8
0
10
24.721190625000002
20
33.341053125
30
0
0
VERTEX
8
0
10
24.755928125
20
33.406040625
30
0
0
VERTEX
8
0
10
24.79686875
20
33.4673125
30
0
0
VERTEX
8
0
10
24.843615625
20
33.524278125
30
0
0
VERTEX
8
0
10
24.895721875
20
33.576384375
30
0
0
VERTEX
8
0
10
24.9526875
20
33.62313125
30
0
0
VERTEX
8
0
10
25.013959375000002
20
33.664071875000005
30
0
0
VERTEX
8
0
10
25.078946875
20
33.698809375
30
0
0
VERTEX
8
0
10
25.147028125000002
20
33.727009375
30
0
0
VERTEX
8
0
10
25.21754375
20
33.748400000000004
30
0
0
VERTEX
8
0
10
25.289818750000002
20
33.762778125000004
30
0
0
VERTEX
8
0
10
25.363156250000003
20
33.77
30
0
0
VERTEX
8
0
10
25.43684375
20
33.77
30
0
0
VERTEX
8
0
10
25.510181250000002
20
33.762778125000004
30
0
0
VERTEX
8
0
10
25.58245625
20
33.748400000000004
30
0
0
VERTEX
8
0
10
25.652971875000002
20
33.727009375
30
0
0
VERTEX
8
0
10
25.721053125
20
33.698809375
30
0
0
VERTEX
8
0
10
25.786040625000002
20
33.664071875000005
30
0
0
VERTEX
8
0
10
25.8473125
20
33.62313125
30
0
0
VERTEX
8
0
10
25.904278125
20
33.576384375
30
0
0
VERTEX
8
0
10
25.956384375000003
20
33.524278125
30
0
0
VERTEX
8
0
10
26.003131250000003
20
33.4673125
30
0
0
VERTEX
8
0
10
26.044071875
20
33.406040625
30
0
0
VERTEX
8
0
10
26.078809375000002
20
33.341053125
30
0
0
VERTEX
8
0
10
26.107009375
20
33.272971875
30
0
0
VERTEX
8
0
10
26.128400000000003
20
33.202456250000004
30
0
0
VERTEX
8
0
10
26.142778125
20
33.13018125
30
0
0
VERTEX
8
0
10
26.150000000000002
20
33.05684375
30
0
0
VERTEX
8
0
10
26.150000000000002
20
32.98315625
30
0
0
SEQEND
0
POLYLINE
66
1
8
holes
10
0.0
20
0.0
30
0.0
70
1
0
VERTEX
8
0
10
26.150000000000002
20
64.73315625000001
30
0
0
VERTEX
8
0
10
26.142778125
20
64.65981875
30
0
0
VERTEX
8
0
10
26.128400000000003
20
64.58754375000001
30
0
0
VERTEX
8
0
10
26.107009375
20
64.51702812500001
30
0
0
VERTEX
8
0
10
26.078809375000002
20
64.448946875
30
0
0
VERTEX
8
0
10
26.044071875
20
64.383959375
30
0
0
VERTEX
8
0
10
26.003131250000003
20
64.3226875
30
0
0
VERTEX
8
0
10
25.956384375000003
20
64.265721875
30
0
0
VERTEX
8
0
10
25.904278125
20
64.213615625
30
0
0
VERTEX
8
0
10
25.8473125
20
64.16686875
30
0
0
VERTEX
8
0
10
25.786040625000002
20
64.125928125
30
0
0
VERTEX
8
0
10
25.721053125
20
64.09119062500001
30
0
0
VERTEX
8
0
10
25.652971875000002
20
64.062990625
30
0
0
VERTEX
8
0
10
25.58245625
20
64.0416
30
0
0
VERTEX
8
0
10
25.510181250000002
20
64.02722187500001
30
0
0
VERTEX
8
0
10
25.43684375
20
64.02
30
0
0
VERTEX
8
0
10
25.363156250000003
20
64.02
30
0
0
VERTEX
8
0
10
25.289818750000002
20
64.02722187500001
30
0
0
VERTEX
8
0
10
25.21754375
20
64.0416
30
0
0
VERTEX
8
0
10
25.147028125000002
20
64.062990625
30
0
0
VERTEX
8
0
10
25.078946875
20
64.09119062500001
30
0
0
VERTEX
8
0
10
25.013959375000002
20
64.125928125
30
0
0
VERTEX
8
0
10
24.9526875
20
64.16686875
30
0
0
VERTEX
8
0
10
24.895721875
20
64.213615625
30
0
0
VERTEX
8
0
10
24.843615625
20
64.265721875
30
0
0
VERTEX
8
0
10
24.79686875
20
64.3226875
30
0
0
VERTEX
8
0
10
24.755928125
20
64.383959375
30
0
0
VERTEX
8
0
10
24.721190625000002
20
64.448946875
30
0
0
VERTEX
8
0
10
24.692990625
20
64.51702812500001
30
0
0
VERTEX
8
0
10
24.6716
20
64.58754375000001
30
0
0
VERTEX
8
0
10
24.657221875
20
64.65981875
30
0
0
VERTEX
8
0
10
24.650000000000002
20
64.73315625000001
30
0
0
VERTEX
8
0
10
24.650000000000002
20
64.80684375
30
0
0
VERTEX
8
0
10
24.657221875
20
64.88018125
30
0
0
VERTEX
8
0
10
24.6716
20
64.95245625
30
0
0
VERTEX
8
0
10
24.692990625
20
65.022971875
30
0
0
VERTEX
8
0
10
24.721190625000002
20
65.091053125
30
0
0
VERTEX
8
0
10
24.755928125
20
65.156040625
30
0
0
VERTEX
8
0
10
24.79686875
20
65.2173125
30
0
0
VERTEX
8
0
10
24.843615625
20
65.27427812500001
30
0
0
VERTEX
8
0
10
24.895721875
20
65.326384375
30
0
0
VERTEX
8
0
10
24.9526875
20
65.37313125
30
0
0
VERTEX
8
0
10
25.013959375000002
20
65.414071875
30
0
0
VERTEX
8
0
10
25.078946875
20
65.448809375
30
0
0
VERTEX
8
0
10
25.147028125000002
20
65.47700937500001
30
0
0
VERTEX
8
0
10
25.21754375
20
65.4984
30
0
0
VERTEX
8
0
10
25.289818750000002
20
65.512778125
30
0
0
VERTEX
8
0
10
25.363156250000003
20
65.52000000000001
30
0
0
VERTEX
8
0
10
25.43684375
20
65.52000000000001
30
0
0
VERTEX
8
0
10
25.510181250000002
20
65.512778125
30
0
0
VERTEX
8
0
10
25.58245625
20
65.4984
30
0
0
VERTEX
8
0
10
25.652971875000002
20
65.47700937500001
30
0
0
VERTEX
8
0
10
25.721053125
20
65.448809375
30
0
0
VERTEX
8
0
10
25.786040625000002
20
65.414071875
30
0
0
VERTEX
8
0
10
25.8473125
20
65.37313125
30
0
0
VERTEX
8
0
10
25.904278125
20
65.326384375
30
0
0
VERTEX
8
0
10
25.956384375000003
20
65.27427812500001
30
0
0
VERTEX
8
0
10
26.003131250000003
20
65.2173125
30
0
0
VERTEX
8
0
10
26.044071875
20
65.156040625
30
0
0
VERTEX
8
0
10
26.078809375000002
20
65.091053125
30
0
0
VERTEX
8
0
10
26.107009375
20
65.022971875
30
0
0
VERTEX
8
0
10
26.128400000000003
20
64.95245625
30
0
0
VERTEX
8
0
10
26.142778125
20
64.88018125
30
0
0
VERTEX
8
0
10
26.150000000000002
20
64.80684375
30
0
0
VERTEX
8
0
10
26.150000000000002
20
64.73315625000001
30
0
0
SEQEND
0
POLYLINE
66
1
8
holes
10
0.0
20
0.0
30
0.0
70
1
0
VERTEX
8
0
10
83.3
20
64.73315625000001
30
0
0
VERTEX
8
0
10
83.292778125
20
64.65981875
30
0
0
VERTEX
8
0
10
83.2784
20
64.58754375000001
30
0
0
VERTEX
8
0
10
83.25700937500001
20
64.51702812500001
30
0
0
VERTEX
8
0
10
83.228809375
20
64.448946875
30
0
0
VERTEX
8
0
10
83.194071875
20
64.383959375
30
0
0
VERTEX
8
0
10
83.15313125
20
64.3226875
30
0
0
VERTEX
8
0
10
83.106384375
20
64.265721875
30
0
0
VERTEX
8
0
10
83.05427812500001
20
64.213615625
30
0
0
VERTEX
8
0
10
82.9973125
20
64.16686875
30
0
0
VERTEX
8
0
10
82.936040625
20
64.125928125
30
0
0
VERTEX
8
0
10
82.871053125
20
64.09119062500001
30
0
0
VERTEX
8
0
10
82.802971875
20
64.062990625
30
0
0
VERTEX
8
0
10
82.73245625
20
64.0416
30
0
0
VERTEX
8
0
10
82.66018125000001
20
64.02722187500001
30
0
0
VERTEX
8
0
10
82.58684375
20
64.02
30
0
0
VERTEX
8
0
10
82.51315625000001
20
64.02
30
0
0
VERTEX
8
0
10
82.43981875
20
64.02722187500001
30
0
0
VERTEX
8
0
10
82.36754375000001
20
64.0416
30
0
0
VERTEX
8
0
10
82.297028125
20
64.062990625
30
0
0
VERTEX
8
0
10
82.228946875
20
64.09119062500001
30
0
0
VERTEX
8
0
10
82.163959375
20
64.125928125
30
0
0
VERTEX
8
0
10
82.1026875
20
64.16686875
30
0
0
VERTEX
8
0
10
82.045721875
20
64.213615625
30
0
0
VERTEX
8
0
10
81.993615625
20
64.265721875
30
0
0
VERTEX
8
0
10
81.94686875000001
20
64.3226875
30
0
0
VERTEX
8
0
10
81.905928125
20
64.383959375
30
0
0
VERTEX
8
0
10
81.871190625
20
64.448946875
30
0
0
VERTEX
8
0
10
81.842990625
20
64.51702812500001
30
0
0
VERTEX
8
0
10
81.8216
20
64.58754375000001
30
0
0
VERTEX
8
0
10
81.80722187500001
20
64.65981875
30
0
0
VERTEX
8
0
10
81.8
20
64.73315625000001
30
0
0
VERTEX
8
0
10
81.8
20
64.80684375
30
0
0
VERTEX
8
0
10
81.80722187500001
20
64.88018125
30
0
0
VERTEX
8
0
10
81.8216
20
64.95245625
30
0
0
VERTEX
8
0
10
81.842990625
20
65.022971875
30
0
0
VERTEX
8
0
10
81.871190625
20
65.091053125
30
0
0
VERTEX
8
0
10
81.905928125
20
65.156040625
30
0
0
VERTEX
8
0
10
81.94686875000001
20
65.2173125
30
0
0
VERTEX
8
0
10
81.993615625
20
65.27427812500001
30
0
0
VERTEX
8
0
10
82.045721875
20
65.326384375
30
0
0
VERTEX
8
0
10
82.1026875
20
65.37313125
30
0
0
VERTEX
8
0
10
82.163959375
20
65.414071875
30
0
0
VERTEX
8
0
10
82.228946875
20
65.448809375
30
0
0
VERTEX
8
0
10
82.297028125
20
65.47700937500001
30
0
0
VERTEX
8
0
10
82.36754375000001
20
65.4984
30
0
0
VERTEX
8
0
10
82.43981875
20
65.512778125
30
0
0
VERTEX
8
0
10
82.51315625000001
20
65.52000000000001
30
0
0
VERTEX
8
0
10
82.58684375
20
65.52000000000001
30
0
0
VERTEX
8
0
10
82.66018125000001
20
65.512778125
30
0
0
VERTEX
8
0
10
82.73245625
20
65.4984
30
0
0
VERTEX
8
0
10
82.802971875
20
65.47700937500001
30
0
0
VERTEX
8
0
10
82.871053125
20
65.448809375
30
0
0
VERTEX
8
0
10
82.936040625
20
65.414071875
30
0
0
VERTEX
8
0
10
82.9973125
20
65.37313125
30
0
0
VERTEX
8
0
10
83.05427812500001
20
65.326384375
30
0
0
VERTEX
8
0
10
83.106384375
20
65.27427812500001
30
0
0
VERTEX
8
0
10
83.15313125
20
65.2173125
30
0
0
VERTEX
8
0
10
83.194071875
20
65.156040625
30
0
0
VERTEX
8
0
10
83.228809375
20
65.091053125
30
0
0
VERTEX
8
0
10
83.25700937500001
20
65.022971875
30
0
0
VERTEX
8
0
10
83.2784
20
64.95245625
30
0
0
VERTEX
8
0
10
83.292778125
20
64.88018125
30
0
0
VERTEX
8
0
10
83.3
20
64.80684375
30
0
0
VERTEX
8
0
10
83.3
20
64.73315625000001
30
0
0
SEQEND
0
POLYLINE
66
1
8
holes
10
0.0
20
0.0
30
0.0
70
1
0
VERTEX
8
0
10
54.09
20
64.73315625000001
30
0
0
VERTEX
8
0
10
54.082778125000004
20
64.65981875
30
0
0
VERTEX
8
0
10
54.068400000000004
20
64.58754375000001
30
0
0
VERTEX
8
0
10
54.047009375
20
64.51702812500001
30
0
0
VERTEX
8
0
10
54.018809375000004
20
64.448946875
30
0
0
VERTEX
8
0
10
53.984071875000005
20
64.383959375
30
0
0
VERTEX
8
0
10
53.94313125
20
64.3226875
30
0
0
VERTEX
8
0
10
53.896384375000004
20
64.265721875
30
0
0
VERTEX
8
0
10
53.844278125
20
64.213615625
30
0
0
VERTEX
8
0
10
53.787312500000006
20
64.16686875
30
0
0
VERTEX
8
0
10
53.726040625
20
64.125928125
30
0
0
VERTEX
8
0
10
53.661053125
20
64.09119062500001
30
0
0
VERTEX
8
0
10
53.592971875
20
64.062990625
30
0
0
VERTEX
8
0
10
53.522456250000005
20
64.0416
30
0
0
VERTEX
8
0
10
53.45018125
20
64.02722187500001
30
0
0
VERTEX
8
0
10
53.37684375
20
64.02
30
0
0
VERTEX
8
0
10
53.30315625
20
64.02
30
0
0
VERTEX
8
0
10
53.22981875
20
64.02722187500001
30
0
0
VERTEX
8
0
10
53.15754375
20
64.0416
30
0
0
VERTEX
8
0
10
53.087028125
20
64.062990625
30
0
0
VERTEX
8
0
10
53.018946875000005
20
64.09119062500001
30
0
0
VERTEX
8
0
10
52.953959375000004
20
64.125928125
30
0
0
VERTEX
8
0
10
52.8926875
20
64.16686875
30
0
0
VERTEX
8
0
10
52.835721875000004
20
64.213615625
30
0
0
VERTEX
8
0
10
52.783615625
20
64.265721875
30
0
0
VERTEX
8
0
10
52.73686875
20
64.3226875
30
0
0
VERTEX
8
0
10
52.695928125
20
64.383959375
30
0
0
VERTEX
8
0
10
52.661190625
20
64.448946875
30
0
0
VERTEX
8
0
10
52.632990625000005
20
64.51702812500001
30
0
0
VERTEX
8
0
10
52.6116
20
64.58754375000001
30
0
0
VERTEX
8
0
10
52.597221875
20
64.65981875
30
0
0
VERTEX
8
0
10
52.59
20
64.73315625000001
30
0
0
VERTEX
8
0
10
52.59
20
64.80684375
30
0
0
VERTEX
8
0
10
52.597221875
20
64.88018125
30
0
0
VERTEX
8
0
10
52.6116
20
64.95245625
30
0
0
VERTEX
8
0
10
52.632990625000005
20
65.022971875
30
0
0
VERTEX
8
0
10
52.661190625
20
65.091053125
30
0
0
VERTEX
8
0
10
52.695928125
20
65.156040625
30
0
0
VERTEX
8
0
10
52.73686875
20
65.2173125
30
0
0
VERTEX
8
0
10
52.783615625
20
65.27427812500001
30
0
0
VERTEX
8
0
10
52.835721875000004
20
65.326384375
30
0
0
VERTEX
8
0
10
52.8926875
20
65.37313125
30
0
0
VERTEX
8
0
10
52.953959375000004
20
65.414071875
30
0
0
VERTEX
8
0
10
53.018946875000005
20
65.448809375
30
0
0
VERTEX
8
0
10
53.087028125
20
65.47700937500001
30
0
0
VERTEX
8
0
10
53.15754375
20
65.4984
30
0
0
VERTEX
8
0
10
53.22981875
20
65.512778125
30
0
0
VERTEX
8
0
10
53.30315625
20
65.52000000000001
30
0
0
VERTEX
8
0
10
53.37684375
20
65.52000000000001
30
0
0
VERTEX
8
0
10
53.45018125
20
65.512778125
30
0
0
VERTEX
8
0
10
53.522456250000005
20
65.4984
30
0
0
VERTEX
8
0
10
53.592971875
20
65.47700937500001
30
0
0
VERTEX
8
0
10
53.661053125
20
65.448809375
30
0
0
VERTEX
8
0
10
53.726040625
20
65.414071875
30
0
0
VERTEX
8
0
10
53.787312500000006
20
65.37313125
30
0
0
VERTEX
8
0
10
53.844278125
20
65.326384375
30
0
0
VERTEX
8
0
10
53.896384375000004
20
65.27427812500001
30
0
0
VERTEX
8
0
10
53.94313125
20
65.2173125
30
0
0
VERTEX
8
0
10
53.984071875000005
20
65.156040625
30
0
0
VERTEX
8
0
10
54.018809375000004
20
65.091053125
30
0
0
VERTEX
8
0
10
54.047009375
20
65.022971875
30
0
0
VERTEX
8
0
10
54.068400000000004
20
64.95245625
30
0
0
VERTEX
8
0
10
54.082778125000004
20
64.88018125
30
0
0
VERTEX
8
0
10
54.09
20
64.80684375
30
0
0
VERTEX
8
0
10
54.09
20
64.73315625000001
30
0
0
SEQEND
0
POLYLINE
66
1
8
holes
10
0.0
20
0.0
30
0.0
70
1
0
VERTEX
8
0
10
54.09
20
32.98315625
30
0
0
VERTEX
8
0
10
54.082778125000004
20
32.90981875
30
0
0
VERTEX
8
0
10
54.068400000000004
20
32.83754375
30
0
0
VERTEX
8
0
10
54.047009375
20
32.767028125
30
0
0
VERTEX
8
0
10
54.018809375000004
20
32.698946875000004
30
0
0
VERTEX
8
0
10
53.984071875000005
20
32.633959375
30
0
0
VERTEX
8
0
10
53.94313125
20
32.5726875
30
0
0
VERTEX
8
0
10
53.896384375000004
20
32.515721875000004
30
0
0
VERTEX
8
0
10
53.844278125
20
32.463615625
30
0
0
VERTEX
8
0
10
53.787312500000006
20
32.41686875
30
0
0
VERTEX
8
0
10
53.726040625
20
32.375928125
30
0
0
VERTEX
8
0
10
53.661053125
20
32.341190625
30
0
0
VERTEX
8
0
10
53.592971875
20
32.312990625000005
30
0
0
VERTEX
8
0
10
53.522456250000005
20
32.2916
30
0
0
VERTEX
8
0
10
53.45018125
20
32.277221875
30
0
0
VERTEX
8
0
10
53.37684375
20
32.27
30
0
0
VERTEX
8
0
10
53.30315625
20
32.27
30
0
0
VERTEX
8
0
10
53.22981875
20
32.277221875
30
0
0
VERTEX
8
0
10
53.15754375
20
32.2916
30
0
0
VERTEX
8
0
10
53.087028125
20
32.312990625000005
30
0
0
VERTEX
8
0
10
53.018946875000005
20
32.341190625
30
0
0
VERTEX
8
0
10
52.953959375000004
20
32.375928125
30
0
0
VERTEX
8
0
10
52.8926875
20
32.41686875
30
0
0
VERTEX
8
0
10
52.835721875000004
20
32.463615625
30
0
0
VERTEX
8
0
10
52.783615625
20
32.515721875000004
30
0
0
VERTEX
8
0
10
52.73686875
20
32.5726875
30
0
0
VERTEX
8
0
10
52.695928125
20
32.633959375
30
0
0
VERTEX
8
0
10
52.661190625
20
32.698946875000004
30
0
0
VERTEX
8
0
10
52.632990625000005
20
32.767028125
30
0
0
VERTEX
8
0
10
52.6116
20
32.83754375
30
0
0
VERTEX
8
0
10
52.597221875
20
32.90981875
30
0
0
VERTEX
8
0
10
52.59
20
32.98315625
30
0
0
VERTEX
8
0
10
52.59
20
33.05684375
30
0
0
VERTEX
8
0
10
52.597221875
20
33.13018125
30
0
0
VERTEX
8
0
10
52.6116
20
33.202456250000004
30
0
0
VERTEX
8
0
10
52.632990625000005
20
33.272971875
30
0
0
VERTEX
8
0
10
52.661190625
20
33.341053125
30
0
0
VERTEX
8
0
10
52.695928125
20
33.406040625
30
0
0
VERTEX
8
0
10
52.73686875
20
33.4673125
30
0
0
VERTEX
8
0
10
52.783615625
20
33.524278125
30
0
0
VERTEX
8
0
10
52.835721875000004
20
33.576384375
30
0
0
VERTEX
8
0
10
52.8926875
20
33.62313125
30
0
0
VERTEX
8
0
10
52.953959375000004
20
33.664071875000005
30
0
0
VERTEX
8
0
10
53.018946875000005
20
33.698809375
30
0
0
VERTEX
8
0
10
53.087028125
20
33.727009375
30
0
0
VERTEX
8
0
10
53.15754375
20
33.748400000000004
30
0
0
VERTEX
8
0
10
53.22981875
20
33.762778125000004
30
0
0
VERTEX
8
0
10
53.30315625
20
33.77
30
0
0
VERTEX
8
0
10
53.37684375
20
33.77
30
0
0
VERTEX
8
0
10
53.45018125
20
33.762778125000004
30
0
0
VERTEX
8
0
10
53.522456250000005
20
33.748400000000004
30
0
0
VERTEX
8
0
10
53.592971875
20
33.727009375
30
0
0
VERTEX
8
0
10
53.661053125
20
33.698809375
30
0
0
VERTEX
8
0
10
53.726040625
20
33.664071875000005
30
0
0
VERTEX
8
0
10
53.787312500000006
20
33.62313125
30
0
0
VERTEX
8
0
10
53.844278125
20
33.576384375
30
0
0
VERTEX
8
0
10
53.896384375000004
20
33.524278125
30
0
0
VERTEX
8
0
10
53.94313125
20
33.4673125
30
0
0
VERTEX
8
0
10
53.984071875000005
20
33.406040625
30
0
0
VERTEX
8
0
10
54.018809375000004
20
33.341053125
30
0
0
VERTEX
8
0
10
54.047009375
20
33.272971875
30
0
0
VERTEX
8
0
10
54.068400000000004
20
33.202456250000004
30
0
0
VERTEX
8
0
10
54.082778125000004
20
33.13018125
30
0
0
VERTEX
8
0
10
54.09
20
33.05684375
30
0
0
VERTEX
8
0
10
54.09
20
32.98315625
30
0
0
SEQEND
0
POLYLINE
66
1
8
holes
10
0.0
20
0.0
30
0.0
70
1
0
VERTEX
8
0
10
83.3
20
32.98315625
30
0
0
VERTEX
8
0
10
83.292778125
20
32.90981875
30
0
0
VERTEX
8
0
10
83.2784
20
32.83754375
30
0
0
VERTEX
8
0
10
83.25700937500001
20
32.767028125
30
0
0
VERTEX
8
0
10
83.228809375
20
32.698946875000004
30
0
0
VERTEX
8
0
10
83.194071875
20
32.633959375
30
0
0
VERTEX
8
0
10
83.15313125
20
32.5726875
30
0
0
VERTEX
8
0
10
83.106384375
20
32.515721875000004
30
0
0
VERTEX
8
0
10
83.05427812500001
20
32.463615625
30
0
0
VERTEX
8
0
10
82.9973125
20
32.41686875
30
0
0
VERTEX
8
0
10
82.936040625
20
32.375928125
30
0
0
VERTEX
8
0
10
82.871053125
20
32.341190625
30
0
0
VERTEX
8
0
10
82.802971875
20
32.312990625000005
30
0
0
VERTEX
8
0
10
82.73245625
20
32.2916
30
0
0
VERTEX
8
0
10
82.66018125000001
20
32.277221875
30
0
0
VERTEX
8
0
10
82.58684375
20
32.27
30
0
0
VERTEX
8
0
10
82.51315625000001
20
32.27
30
0
0
VERTEX
8
0
10
82.43981875
20
32.277221875
30
0
0
VERTEX
8
0
10
82.36754375000001
20
32.2916
30
0
0
VERTEX
8
0
10
82.297028125
20
32.312990625000005
30
0
0
VERTEX
8
0
10
82.228946875
20
32.341190625
30
0
0
VERTEX
8
0
10
82.163959375
20
32.375928125
30
0
0
VERTEX
8
0
10
82.1026875
20
32.41686875
30
0
0
VERTEX
8
0
10
82.045721875
20
32.463615625
30
0
0
VERTEX
8
0
10
81.993615625
20
32.515721875000004
30
0
0
VERTEX
8
0
10
81.94686875000001
20
32.5726875
30
0
0
VERTEX
8
0
10
81.905928125
20
32.633959375
30
0
0
VERTEX
8
0
10
81.871190625
20
32.698946875000004
30
0
0
VERTEX
8
0
10
81.842990625
20
32.767028125
30
0
0
VERTEX
8
0
10
81.8216
20
32.83754375
30
0
0
VERTEX
8
0
10
81.80722187500001
20
32.90981875
30
0
0
VERTEX
8
0
10
81.8
20
32.98315625
30
0
0
VERTEX
8
0
10
81.8
20
33.05684375
30
0
0
VERTEX
8
0
10
81.80722187500001
20
33.13018125
30
0
0
VERTEX
8
0
10
81.8216
20
33.202456250000004
30
0
0
VERTEX
8
0
10
81.842990625
20
33.272971875
30
0
0
VERTEX
8
0
10
81.871190625
20
33.341053125
30
0
0
VERTEX
8
0
10
81.905928125
20
33.406040625
30
0
0
VERTEX
8
0
10
81.94686875000001
20
33.4673125
30
0
0
VERTEX
8
0
10
81.993615625
20
33.524278125
30
0
0
VERTEX
8
0
10
82.045721875
20
33.576384375
30
0
0
VERTEX
8
0
10
82.1026875
20
33.62313125
30
0
0
VERTEX
8
0
10
82.163959375
20
33.664071875000005
30
0
0
VERTEX
8
0
10
82.228946875
20
33.698809375
30
0
0
VERTEX
8
0
10
82.297028125
20
33.727009375
30
0
0
VERTEX
8
0
10
82.36754375000001
20
33.748400000000004
30
0
0
VERTEX
8
0
10
82.43981875
20
33.762778125000004
30
0
0
VERTEX
8
0
10
82.51315625000001
20
33.77
30
0
0
VERTEX
8
0
10
82.58684375
20
33.77
30
0
0
VERTEX
8
0
10
82.66018125000001
20
33.762778125000004
30
0
0
VERTEX
8
0
10
82.73245625
20
33.748400000000004
30
0
0
VERTEX
8
0
10
82.802971875
20
33.727009375
30
0
0
VERTEX
8
0
10
82.871053125
20
33.698809375
30
0
0
VERTEX
8
0
10
82.936040625
20
33.664071875000005
30
0
0
VERTEX
8
0
10
82.9973125
20
33.62313125
30
0
0
VERTEX
8
0
10
83.05427812500001
20
33.576384375
30
0
0
VERTEX
8
0
10
83.106384375
20
33.524278125
30
0
0
VERTEX
8
0
10
83.15313125
20
33.4673125
30
0
0
VERTEX
8
0
10
83.194071875
20
33.406040625
30
0
0
VERTEX
8
0
10
83.228809375
20
33.341053125
30
0
0
VERTEX
8
0
10
83.25700937500001
20
33.272971875
30
0
0
VERTEX
8
0
10
83.2784
20
33.202456250000004
30
0
0
VERTEX
8
0
10
83.292778125
20
33.13018125
30
0
0
VERTEX
8
0
10
83.3
20
33.05684375
30
0
0
VERTEX
8
0
10
83.3
20
32.98315625
30
0
0
SEQEND
0
POLYLINE
66
1
8
holes
10
0.0
20
0.0
30
0.0
70
1
0
VERTEX
8
0
10
26.150000000000002
20
48.22315625
30
0
0
VERTEX
8
0
10
26.142778125
20
48.14981875
30
0
0
VERTEX
8
0
10
26.128400000000003
20
48.077543750000004
30
0
0
VERTEX
8
0
10
26.107009375
20
48.007028125000005
30
0
0
VERTEX
8
0
10
26.078809375000002
20
47.938946875
30
0
0
VERTEX
8
0
10
26.044071875
20
47.873959375000005
30
0
0
VERTEX
8
0
10
26.003131250000003
20
47.8126875
30
0
0
VERTEX
8
0
10
25.956384375000003
20
47.755721875
30
0
0
VERTEX
8
0
10
25.904278125
20
47.703615625000005
30
0
0
VERTEX
8
0
10
25.8473125
20
47.65686875
30
0
0
VERTEX
8
0
10
25.786040625000002
20
47.615928125
30
0
0
VERTEX
8
0
10
25.721053125
20
47.581190625000005
30
0
0
VERTEX
8
0
10
25.652971875000002
20
47.552990625
30
0
0
VERTEX
8
0
10
25.58245625
20
47.531600000000005
30
0
0
VERTEX
8
0
10
25.510181250000002
20
47.517221875000004
30
0
0
VERTEX
8
0
10
25.43684375
20
47.510000000000005
30
0
0
VERTEX
8
0
10
25.363156250000003
20
47.510000000000005
30
0
0
VERTEX
8
0
10
25.289818750000002
20
47.517221875000004
30
0
0
VERTEX
8
0
10
25.21754375
20
47.531600000000005
30
0
0
VERTEX
8
0
10
25.147028125000002
20
47.552990625
30
0
0
VERTEX
8
0
10
25.078946875
20
47.581190625000005
30
0
0
VERTEX
8
0
10
25.013959375000002
20
47.615928125
30
0
0
VERTEX
8
0
10
24.9526875
20
47.65686875
30
0
0
VERTEX
8
0
10
24.895721875
20
47.703615625000005
30
0
0
VERTEX
8
0
10
24.843615625
20
47.755721875
30
0
0
VERTEX
8
0
10
24.79686875
20
47.8126875
30
0
0
VERTEX
8
0
10
24.755928125
20
47.873959375000005
30
0
0
VERTEX
8
0
10
24.721190625000002
20
47.938946875
30
0
0
VERTEX
8
0
10
24.692990625
20
48.007028125000005
30
0
0
VERTEX
8
0
10
24.6716
20
48.077543750000004
30
0
0
VERTEX
8
0
10
24.657221875
20
48.14981875
30
0
0
VERTEX
8
0
10
24.650000000000002
20
48.22315625
30
0
0
VERTEX
8
0
10
24.650000000000002
20
48.29684375
30
0
0
VERTEX
8
0
10
24.657221875
20
48.37018125
30
0
0
VERTEX
8
0
10
24.6716
20
48.44245625
30
0
0
VERTEX
8
0
10
24.692990625
20
48.512971875000005
30
0
0
VERTEX
8
0
10
24.721190625000002
20
48.581053125000004
30
0
0
VERTEX
8
0
10
24.755928125
20
48.646040625000005
30
0
0
VERTEX
8
0
10
24.79686875
20
48.7073125
30
0
0
VERTEX
8
0
10
24.843615625
20
48.764278125000004
30
0
0
VERTEX
8
0
10
24.895721875
20
48.816384375000005
30
0
0
VERTEX
8
0
10
24.9526875
20
48.86313125
30
0
0
VERTEX
8
0
10
25.013959375000002
20
48.904071875
30
0
0
VERTEX
8
0
10
25.078946875
20
48.938809375000005
30
0
0
VERTEX
8
0
10
25.147028125000002
20
48.967009375
30
0
0
VERTEX
8
0
10
25.21754375
20
48.988400000000006
30
0
0
VERTEX
8
0
10
25.289818750000002
20
49.002778125
30
0
0
VERTEX
8
0
10
25.363156250000003
20
49.010000000000005
30
0
0
VERTEX
8
0
10
25.43684375
20
49.010000000000005
30
0
0
VERTEX
8
0
10
25.510181250000002
20
49.002778125
30
0
0
VERTEX
8
0
10
25.58245625
20
48.988400000000006
30
0
0
VERTEX
8
0
10
25.652971875000002
20
48.967009375
30
0
0
VERTEX
8
0
10
25.721053125
20
48.938809375000005
30
0
0
VERTEX
8
0
10
25.786040625000002
20
48.904071875
30
0
0
VERTEX
8
0
10
25.8473125
20
48.86313125
30
0
0
VERTEX
8
0
10
25.904278125
20
48.816384375000005
30
0
0
VERTEX
8
0
10
25.956384375000003
20
48.764278125000004
30
0
0
VERTEX
8
0
10
26.003131250000003
20
48.7073125
30
0
0
VERTEX
8
0
10
26.044071875
20
48.646040625000005
30
0
0
VERTEX
8
0
10
26.078809375000002
20
48.581053125000004
30
0
0
VERTEX
8
0
10
26.107009375
20
48.512971875000005
30
0
0
VERTEX
8
0
10
26.128400000000003
20
48.44245625
30
0
0
VERTEX
8
0
10
26.142778125
20
48.37018125
30
0
0
VERTEX
8
0
10
26.150000000000002
20
48.29684375
30
0
0
VERTEX
8
0
10
26.150000000000002
20
48.22315625
30
0
0
SEQEND
0
POLYLINE
66
1
8
holes
10
0.0
20
0.0
30
0.0
70
1
0
VERTEX
8
0
10
83.3
20
48.22315625
30
0
0
VERTEX
8
0
10
83.292778125
20
48.14981875
30
0
0
VERTEX
8
0
10
83.2784
20
48.077543750000004
30
0
0
VERTEX
8
0
10
83.25700937500001
20
48.007028125000005
30
0
0
VERTEX
8
0
10
83.228809375
20
47.938946875
30
0
0
VERTEX
8
0
10
83.194071875
20
47.873959375000005
30
0
0
VERTEX
8
0
10
83.15313125
20
47.8126875
30
0
0
VERTEX
8
0
10
83.106384375
20
47.755721875
30
0
0
VERTEX
8
0
10
83.05427812500001
20
47.703615625000005
30
0
0
VERTEX
8
0
10
82.9973125
20
47.65686875
30
0
0
VERTEX
8
0
10
82.936040625
20
47.615928125
30
0
0
VERTEX
8
0
10
82.871053125
20
47.581190625000005
30
0
0
VERTEX
8
0
10
82.802971875
20
47.552990625
30
0
0
VERTEX
8
0
10
82.73245625
20
47.531600000000005
30
0
0
VERTEX
8
0
10
82.66018125000001
20
47.517221875000004
30
0
0
VERTEX
8
0
10
82.58684375
20
47.510000000000005
30
0
0
VERTEX
8
0
10
82.51315625000001
20
47.510000000000005
30
0
0
VERTEX
8
0
10
82.43981875
20
47.517221875000004
30
0
0
VERTEX
8
0
10
82.36754375000001
20
47.531600000000005
30
0
0
VERTEX
8
0
10
82.297028125
20
47.552990625
30
0
0
VERTEX
8
0
10
82.228946875
20
47.581190625000005
30
0
0
VERTEX
8
0
10
82.163959375
20
47.615928125
30
0
0
VERTEX
8
0
10
82.1026875
20
47.65686875
30
0
0
VERTEX
8
0
10
82.045721875
20
47.703615625000005
30
0
0
VERTEX
8
0
10
81.993615625
20
47.755721875
30
0
0
VERTEX
8
0
10
81.94686875000001
20
47.8126875
30
0
0
VERTEX
8
0
10
81.905928125
20
47.873959375000005
30
0
0
VERTEX
8
0
10
81.871190625
20
47.938946875
30
0
0
VERTEX
8
0
10
81.842990625
20
48.007028125000005
30
0
0
VERTEX
8
0
10
81.8216
20
48.077543750000004
30
0
0
VERTEX
8
0
10
81.80722187500001
20
48.14981875
30
0
0
VERTEX
8
0
10
81.8
20
48.22315625
30
0
0
VERTEX
8
0
10
81.8
20
48.29684375
30
0
0
VERTEX
8
0
10
81.80722187500001
20
48.37018125
30
0
0
VERTEX
8
0
10
81.8216
20
48.44245625
30
0
0
VERTEX
8
0
10
81.842990625
20
48.512971875000005
30
0
0
VERTEX
8
0
10
81.871190625
20
48.581053125000004
30
0
0
VERTEX
8
0
10
81.905928125
20
48.646040625000005
30
0
0
VERTEX
8
0
10
81.94686875000001
20
48.7073125
30
0
0
VERTEX
8
0
10
81.993615625
20
48.764278125000004
30
0
0
VERTEX
8
0
10
82.045721875
20
48.816384375000005
30
0
0
VERTEX
8
0
10
82.1026875
20
48.86313125
30
0
0
VERTEX
8
0
10
82.163959375
20
48.904071875
30
0
0
VERTEX
8
0
10
82.228946875
20
48.938809375000005
30
0
0
VERTEX
8
0
10
82.297028125
20
48.967009375
30
0
0
VERTEX
8
0
10
82.36754375000001
20
48.988400000000006
30
0
0
VERTEX
8
0
10
82.43981875
20
49.002778125
30
0
0
VERTEX
8
0
10
82.51315625000001
20
49.010000000000005
30
0
0
VERTEX
8
0
10
82.58684375
20
49.010000000000005
30
0
0
VERTEX
8
0
10
82.66018125000001
20
49.002778125
30
0
0
VERTEX
8
0
10
82.73245625
20
48.988400000000006
30
0
0
VERTEX
8
0
10
82.802971875
20
48.967009375
30
0
0
VERTEX
8
0
10
82.871053125
20
48.938809375000005
30
0
0
VERTEX
8
0
10
82.936040625
20
48.904071875
30
0
0
VERTEX
8
0
10
82.9973125
20
48.86313125
30
0
0
VERTEX
8
0
10
83.05427812500001
20
48.816384375000005
30
0
0
VERTEX
8
0
10
83.106384375
20
48.764278125000004
30
0
0
VERTEX
8
0
10
83.15313125
20
48.7073125
30
0
0
VERTEX
8
0
10
83.194071875
20
48.646040625000005
30
0
0
VERTEX
8
0
10
83.228809375
20
48.581053125000004
30
0
0
VERTEX
8
0
10
83.25700937500001
20
48.512971875000005
30
0
0
VERTEX
8
0
10
83.2784
20
48.44245625
30
0
0
VERTEX
8
0
10
83.292778125
20
48.37018125
30
0
0
VERTEX
8
0
10
83.3
20
48.29684375
30
0
0
VERTEX
8
0
10
83.3
20
48.22315625
30
0
0
SEQEND
0
POLYLINE
66
1
8
1_copper
10
0.0
20
0.0
30
0.0
70
1
0
VERTEX
8
0
10
46.59394375
20
55.1253375
30
0
42
0.9063472543261978
0
VERTEX
8
0
10
46.519434375
20
56.642
30
0
0
VERTEX
8
0
10
44.920565625
20
56.642
30
0
42
0.9520795017710562
0
VERTEX
8
0
10
44.920565625
20
55.118
30
0
0
VERTEX
8
0
10
46.519434375
20
55.118
30
0
0
SEQEND
0
POLYLINE
66
1
8
1_copper
10
0.0
20
0.0
30
0.0
70
1
0
VERTEX
8
0
10
32.50741875
20
55.225959375
30
0
42
0.9063462356499619
0
VERTEX
8
0
10
32.44284375
20
56.540400000000005
30
0
0
VERTEX
8
0
10
31.057156250000002
20
56.540400000000005
30
0
42
0.9520786018124834
0
VERTEX
8
0
10
31.057156250000002
20
55.2196
30
0
0
VERTEX
8
0
10
32.44284375
20
55.2196
30
0
0
SEQEND
0
POLYLINE
66
1
8
16_copper
10
0.0
20
0.0
30
0.0
70
1
0
VERTEX
8
0
10
46.59394375
20
55.1253375
30
0
42
0.9063472543261978
0
VERTEX
8
0
10
46.519434375
20
56.642
30
0
0
VERTEX
8
0
10
44.920565625
20
56.642
30
0
42
0.3711436710623373
0
VERTEX
8
0
10
44.19981875
20
55.9562
30
0
0
VERTEX
8
0
10
33.066490625
20
55.9562
30
0
42
0.36675309512609283
0
VERTEX
8
0
10
32.44284375
20
56.540400000000005
30
0
0
VERTEX
8
0
10
31.057156250000002
20
56.540400000000005
30
0
42
0.9520786018124834
0
VERTEX
8
0
10
31.057156250000002
20
55.2196
30
0
0
VERTEX
8
0
10
32.44284375
20
55.2196
30
0
42
0.36675309512609283
0
VERTEX
8
0
10
33.066490625
20
55.8038
30
0
0
VERTEX
8
0
10
44.19981875
20
55.8038
30
0
42
0.3711436710623373
0
VERTEX
8
0
10
44.920565625
20
55.118
30
0
0
VERTEX
8
0
10
46.519434375
20
55.118
30
0
0
SEQEND
0
POLYLINE
66
1
8
1_copper
10
0.0
20
0.0
30
0.0
70
1
0
VERTEX
8
0
10
62.303940625
20
55.508271875000005
30
0
42
0.818105841543916
0
VERTEX
8
0
10
62.306200000000004
20
56.251121875
30
0
0
VERTEX
8
0
10
62.306200000000004
20
57.190000000000005
30
0
0
VERTEX
8
0
10
62.980000000000004
20
57.190000000000005
30
0
0
VERTEX
8
0
10
62.980000000000004
20
58.690000000000005
30
0
0
VERTEX
8
0
10
61.480000000000004
20
58.690000000000005
30
0
0
VERTEX
8
0
10
61.480000000000004
20
57.190000000000005
30
0
0
VERTEX
8
0
10
62.153800000000004
20
57.190000000000005
30
0
0
VERTEX
8
0
10
62.153800000000004
20
56.251121875
30
0
0
VERTEX
8
0
10
62.108171875000004
20
56.238896875
30
0
0
VERTEX
8
0
10
62.062368750000005
20
56.219925
30
0
0
VERTEX
8
0
10
62.019431250000004
20
56.1951375
30
0
0
VERTEX
8
0
10
61.9801
20
56.16495625
30
0
0
VERTEX
8
0
10
61.94504375
20
56.1299
30
0
0
VERTEX
8
0
10
61.914862500000005
20
56.09056875
30
0
0
VERTEX
8
0
10
61.890075
20
56.04763125
30
0
0
VERTEX
8
0
10
61.871103125000005
20
56.001828125
30
0
0
VERTEX
8
0
10
61.858271875
20
55.953940625
30
0
0
VERTEX
8
0
10
61.851800000000004
20
55.904787500000005
30
0
0
VERTEX
8
0
10
61.851800000000004
20
55.8552125
30
0
0
VERTEX
8
0
10
61.858271875
20
55.806059375000004
30
0
0
VERTEX
8
0
10
61.871103125000005
20
55.758171875
30
0
0
VERTEX
8
0
10
61.890075
20
55.71236875
30
0
0
VERTEX
8
0
10
61.914862500000005
20
55.66943125
30
0
0
VERTEX
8
0
10
61.94504375
20
55.630100000000006
30
0
0
VERTEX
8
0
10
61.9801
20
55.59504375
30
0
0
VERTEX
8
0
10
62.019431250000004
20
55.564862500000004
30
0
0
VERTEX
8
0
10
62.062368750000005
20
55.540075
30
0
0
VERTEX
8
0
10
62.108171875000004
20
55.521103125
30
0
0
VERTEX
8
0
10
62.156059375000005
20
55.508271875000005
30
0
0
VERTEX
8
0
10
62.2052125
20
55.5018
30
0
0
VERTEX
8
0
10
62.254787500000006
20
55.5018
30
0
0
SEQEND
0
POLYLINE
66
1
8
1_copper
10
0.0
20
0.0
30
0.0
70
1
0
VERTEX
8
0
10
62.8904
20
53.06645625
30
0
0
VERTEX
8
0
10
62.8904
20
53.613543750000005
30
0
0
VERTEX
8
0
10
62.503543750000006
20
54.0004
30
0
0
VERTEX
8
0
10
61.95645625
20
54.0004
30
0
0
VERTEX
8
0
10
61.5696
20
53.613543750000005
30
0
0
VERTEX
8
0
10
61.5696
20
53.06645625
30
0
0
VERTEX
8
0
10
61.95645625
20
52.6796
30
0
0
VERTEX
8
0
10
62.503543750000006
20
52.6796
30
0
0
SEQEND
0
POLYLINE
66
1
8
16_copper
10
0.0
20
0.0
30
0.0
70
1
0
VERTEX
8
0
10
62.8904
20
53.06645625
30
0
0
VERTEX
8
0
10
62.8904
20
53.613543750000005
30
0
0
VERTEX
8
0
10
62.503543750000006
20
54.0004
30
0
0
VERTEX
8
0
10
62.306200000000004
20
54.0004
30
0
0
VERTEX
8
0
10
62.306200000000004
20
55.508878125
30
0
42
0.9969241442347151
0
VERTEX
8
0
10
62.156059375000005
20
56.251728125
30
0
0
VERTEX
8
0
10
62.108171875000004
20
56.238896875
30
0
42
0.7648843201253167
0
VERTEX
8
0
10
62.153800000000004
20
55.508878125
30
0
0
VERTEX
8
0
10
62.153800000000004
20
54.0004
30
0
0
VERTEX
8
0
10
61.95645625
20
54.0004
30
0
0
VERTEX
8
0
10
61.5696
20
53.613543750000005
30
0
0
VERTEX
8
0
10
61.5696
20
53.06645625
30
0
0
VERTEX
8
0
10
61.95645625
20
52.6796
30
0
0
VERTEX
8
0
10
62.503543750000006
20
52.6796
30
0
0
SEQEND
0
POLYLINE
66
1
8
1_copper
10
0.0
20
0.0
30
0.0
70
1
0
VERTEX
8
0
10
46.59394375
20
57.6653375
30
0
42
0.9063472543261978
0
VERTEX
8
0
10
46.519434375
20
59.182
30
0
0
VERTEX
8
0
10
44.920565625
20
59.182
30
0
42
0.9520795017710562
0
VERTEX
8
0
10
44.920565625
20
57.658
30
0
0
VERTEX
8
0
10
46.519434375
20
57.658
30
0
0
SEQEND
0
POLYLINE
66
1
8
1_copper
10
0.0
20
0.0
30
0.0
70
1
0
VERTEX
8
0
10
54.0004
20
58.14645625
30
0
0
VERTEX
8
0
10
54.0004
20
58.69354375
30
0
0
VERTEX
8
0
10
53.613543750000005
20
59.080400000000004
30
0
0
VERTEX
8
0
10
53.06645625
20
59.080400000000004
30
0
0
VERTEX
8
0
10
52.6796
20
58.69354375
30
0
0
VERTEX
8
0
10
52.6796
20
58.14645625
30
0
0
VERTEX
8
0
10
53.06645625
20
57.759600000000006
30
0
0
VERTEX
8
0
10
53.613543750000005
20
57.759600000000006
30
0
0
SEQEND
0
POLYLINE
66
1
8
1_copper
10
0.0
20
0.0
30
0.0
70
1
0
VERTEX
8
0
10
32.50741875
20
57.765959375
30
0
42
0.9063462356499619
0
VERTEX
8
0
10
32.44284375
20
59.080400000000004
30
0
0
VERTEX
8
0
10
31.057156250000002
20
59.080400000000004
30
0
42
0.9520786018124834
0
VERTEX
8
0
10
31.057156250000002
20
57.759600000000006
30
0
0
VERTEX
8
0
10
32.44284375
20
57.759600000000006
30
0
0
SEQEND
0
POLYLINE
66
1
8
1_copper
10
0.0
20
0.0
30
0.0
70
1
0
VERTEX
8
0
10
55.2704
20
53.06645625
30
0
0
VERTEX
8
0
10
55.2704
20
53.613543750000005
30
0
0
VERTEX
8
0
10
54.88354375
20
54.0004
30
0
0
VERTEX
8
0
10
54.336456250000005
20
54.0004
30
0
0
VERTEX
8
0
10
53.949600000000004
20
53.613543750000005
30
0
0
VERTEX
8
0
10
53.949600000000004
20
53.06645625
30
0
0
VERTEX
8
0
10
54.336456250000005
20
52.6796
30
0
0
VERTEX
8
0
10
54.88354375
20
52.6796
30
0
0
SEQEND
0
POLYLINE
66
1
8
1_copper
10
0.0
20
0.0
30
0.0
70
1
0
VERTEX
8
0
10
59.763940625000004
20
45.348271875
30
0
42
0.818105841543916
0
VERTEX
8
0
10
59.766200000000005
20
46.091121875
30
0
0
VERTEX
8
0
10
59.766200000000005
20
47.888878125000005
30
0
42
0.9969241442347151
0
VERTEX
8
0
10
59.616059375000006
20
48.631728125
30
0
0
VERTEX
8
0
10
59.568171875000004
20
48.618896875000004
30
0
42
0.7648843201253167
0
VERTEX
8
0
10
59.613800000000005
20
47.888878125000005
30
0
0
VERTEX
8
0
10
59.613800000000005
20
46.091121875
30
0
0
VERTEX
8
0
10
59.568171875000004
20
46.078896875000005
30
0
0
VERTEX
8
0
10
59.522368750000005
20
46.059925
30
0
0
VERTEX
8
0
10
59.479431250000005
20
46.035137500000005
30
0
0
VERTEX
8
0
10
59.4401
20
46.00495625
30
0
0
VERTEX
8
0
10
59.405043750000004
20
45.9699
30
0
0
VERTEX
8
0
10
59.374862500000006
20
45.93056875
30
0
0
VERTEX
8
0
10
59.350075000000004
20
45.887631250000005
30
0
0
VERTEX
8
0
10
59.331103125000006
20
45.841828125
30
0
0
VERTEX
8
0
10
59.318271875
20
45.793940625000005
30
0
0
VERTEX
8
0
10
59.311800000000005
20
45.7447875
30
0
0
VERTEX
8
0
10
59.311800000000005
20
45.695212500000004
30
0
0
VERTEX
8
0
10
59.318271875
20
45.646059375
30
0
0
VERTEX
8
0
10
59.331103125000006
20
45.598171875000006
30
0
0
VERTEX
8
0
10
59.350075000000004
20
45.55236875
30
0
0
VERTEX
8
0
10
59.374862500000006
20
45.50943125
30
0
0
VERTEX
8
0
10
59.405043750000004
20
45.4701
30
0
0
VERTEX
8
0
10
59.4401
20
45.435043750000006
30
0
0
VERTEX
8
0
10
59.479431250000005
20
45.4048625
30
0
0
VERTEX
8
0
10
59.522368750000005
20
45.380075000000005
30
0
0
VERTEX
8
0
10
59.568171875000004
20
45.361103125
30
0
0
VERTEX
8
0
10
59.616059375000006
20
45.348271875
30
0
0
VERTEX
8
0
10
59.6652125
20
45.3418
30
0
0
VERTEX
8
0
10
59.7147875
20
45.3418
30
0
0
SEQEND
0
POLYLINE
66
1
8
1_copper
10
0.0
20
0.0
30
0.0
70
1
0
VERTEX
8
0
10
62.8904
20
42.906456250000005
30
0
0
VERTEX
8
0
10
62.8904
20
43.45354375
30
0
0
VERTEX
8
0
10
62.503543750000006
20
43.8404
30
0
0
VERTEX
8
0
10
61.95645625
20
43.8404
30
0
0
VERTEX
8
0
10
61.5696
20
43.45354375
30
0
0
VERTEX
8
0
10
61.5696
20
42.906456250000005
30
0
0
VERTEX
8
0
10
61.95645625
20
42.519600000000004
30
0
0
VERTEX
8
0
10
62.503543750000006
20
42.519600000000004
30
0
0
SEQEND
0
POLYLINE
66
1
8
16_copper
10
0.0
20
0.0
30
0.0
70
1
0
VERTEX
8
0
10
47.2366625
20
58.53194375
30
0
42
0.3578057741447831
0
VERTEX
8
0
10
46.519434375
20
59.182
30
0
0
VERTEX
8
0
10
44.920565625
20
59.182
30
0
42
0.3711436710623373
0
VERTEX
8
0
10
44.19981875
20
58.4962
30
0
0
VERTEX
8
0
10
33.066490625
20
58.4962
30
0
42
0.36675309512609283
0
VERTEX
8
0
10
32.44284375
20
59.080400000000004
30
0
0
VERTEX
8
0
10
31.057156250000002
20
59.080400000000004
30
0
42
0.9520786018124834
0
VERTEX
8
0
10
31.057156250000002
20
57.759600000000006
30
0
0
VERTEX
8
0
10
32.44284375
20
57.759600000000006
30
0
42
0.36675309512609283
0
VERTEX
8
0
10
33.066490625
20
58.3438
30
0
0
VERTEX
8
0
10
44.19981875
20
58.3438
30
0
42
0.3711436710623373
0
VERTEX
8
0
10
44.920565625
20
57.658
30
0
0
VERTEX
8
0
10
46.519434375
20
57.658
30
0
42
0.3711436710623373
0
VERTEX
8
0
10
47.24018125
20
58.3438
30
0
0
VERTEX
8
0
10
50.723800000000004
20
58.3438
30
0
0
VERTEX
8
0
10
50.723800000000004
20
48.260000000000005
30
0
42
0.41421356237309503
0
VERTEX
8
0
10
50.800000000000004
20
48.183800000000005
30
0
0
VERTEX
8
0
10
59.318878125000005
20
48.183800000000005
30
0
42
0.9969241442347151
0
VERTEX
8
0
10
60.061728125
20
48.333940625000004
30
0
0
VERTEX
8
0
10
60.048896875000004
20
48.381828125000006
30
0
42
0.7648843201253167
0
VERTEX
8
0
10
59.318878125000005
20
48.336200000000005
30
0
0
VERTEX
8
0
10
50.876200000000004
20
48.336200000000005
30
0
0
VERTEX
8
0
10
50.876200000000004
20
53.2638
30
0
0
VERTEX
8
0
10
53.949600000000004
20
53.2638
30
0
0
VERTEX
8
0
10
53.949600000000004
20
53.06645625
30
0
0
VERTEX
8
0
10
54.336456250000005
20
52.6796
30
0
0
VERTEX
8
0
10
54.88354375
20
52.6796
30
0
0
VERTEX
8
0
10
55.2704
20
53.06645625
30
0
0
VERTEX
8
0
10
55.2704
20
53.613543750000005
30
0
0
VERTEX
8
0
10
54.88354375
20
54.0004
30
0
0
VERTEX
8
0
10
54.336456250000005
20
54.0004
30
0
0
VERTEX
8
0
10
53.949600000000004
20
53.613543750000005
30
0
0
VERTEX
8
0
10
53.949600000000004
20
53.4162
30
0
0
VERTEX
8
0
10
50.876200000000004
20
53.4162
30
0
0
VERTEX
8
0
10
50.876200000000004
20
58.3438
30
0
0
VERTEX
8
0
10
52.6796
20
58.3438
30
0
0
VERTEX
8
0
10
52.6796
20
58.14645625
30
0
0
VERTEX
8
0
10
53.06645625
20
57.759600000000006
30
0
0
VERTEX
8
0
10
53.613543750000005
20
57.759600000000006
30
0
0
VERTEX
8
0
10
54.0004
20
58.14645625
30
0
0
VERTEX
8
0
10
54.0004
20
58.69354375
30
0
0
VERTEX
8
0
10
53.613543750000005
20
59.080400000000004
30
0
0
VERTEX
8
0
10
53.06645625
20
59.080400000000004
30
0
0
VERTEX
8
0
10
52.6796
20
58.69354375
30
0
0
VERTEX
8
0
10
52.6796
20
58.4962
30
0
0
VERTEX
8
0
10
47.24018125
20
58.4962
30
0
0
SEQEND
0
POLYLINE
66
1
8
16_copper
10
0.0
20
0.0
30
0.0
70
1
0
VERTEX
8
0
10
62.8904
20
42.906456250000005
30
0
0
VERTEX
8
0
10
62.8904
20
43.45354375
30
0
0
VERTEX
8
0
10
62.503543750000006
20
43.8404
30
0
0
VERTEX
8
0
10
61.95645625
20
43.8404
30
0
0
VERTEX
8
0
10
61.5696
20
43.45354375
30
0
0
VERTEX
8
0
10
61.5696
20
43.2562
30
0
0
VERTEX
8
0
10
59.766200000000005
20
43.2562
30
0
0
VERTEX
8
0
10
59.766200000000005
20
45.348878125
30
0
42
0.9969241442347151
0
VERTEX
8
0
10
59.616059375000006
20
46.091728125
30
0
0
VERTEX
8
0
10
59.568171875000004
20
46.078896875000005
30
0
42
0.7648843201253167
0
VERTEX
8
0
10
59.613800000000005
20
45.348878125
30
0
0
VERTEX
8
0
10
59.613800000000005
20
43.18
30
0
42
0.41421356237309503
0
VERTEX
8
0
10
59.690000000000005
20
43.1038
30
0
0
VERTEX
8
0
10
61.5696
20
43.1038
30
0
0
VERTEX
8
0
10
61.5696
20
42.906456250000005
30
0
0
VERTEX
8
0
10
61.95645625
20
42.519600000000004
30
0
0
VERTEX
8
0
10
62.503543750000006
20
42.519600000000004
30
0
0
SEQEND
0
POLYLINE
66
1
8
1_copper
10
0.0
20
0.0
30
0.0
70
1
0
VERTEX
8
0
10
70.5104
20
42.906456250000005
30
0
0
VERTEX
8
0
10
70.5104
20
43.45354375
30
0
0
VERTEX
8
0
10
70.12354375000001
20
43.8404
30
0
0
VERTEX
8
0
10
69.57645625
20
43.8404
30
0
0
VERTEX
8
0
10
69.1896
20
43.45354375
30
0
0
VERTEX
8
0
10
69.1896
20
42.906456250000005
30
0
0
VERTEX
8
0
10
69.57645625
20
42.519600000000004
30
0
0
VERTEX
8
0
10
70.12354375000001
20
42.519600000000004
30
0
0
SEQEND
0
POLYLINE
66
1
8
1_copper
10
0.0
20
0.0
30
0.0
70
1
0
VERTEX
8
0
10
76.8604
20
41.63645625
30
0
0
VERTEX
8
0
10
76.8604
20
42.183543750000005
30
0
0
VERTEX
8
0
10
76.47354375
20
42.5704
30
0
0
VERTEX
8
0
10
75.92645625
20
42.5704
30
0
0
VERTEX
8
0
10
75.53960000000001
20
42.183543750000005
30
0
0
VERTEX
8
0
10
75.53960000000001
20
41.63645625
30
0
0
VERTEX
8
0
10
75.92645625
20
41.2496
30
0
0
VERTEX
8
0
10
76.47354375
20
41.2496
30
0
0
SEQEND
0
POLYLINE
66
1
8
16_copper
10
0.0
20
0.0
30
0.0
70
1
0
VERTEX
8
0
10
76.8604
20
41.63645625
30
0
0
VERTEX
8
0
10
76.8604
20
42.183543750000005
30
0
0
VERTEX
8
0
10
76.47354375
20
42.5704
30
0
0
VERTEX
8
0
10
75.92645625
20
42.5704
30
0
0
VERTEX
8
0
10
75.53960000000001
20
42.183543750000005
30
0
0
VERTEX
8
0
10
75.53960000000001
20
41.986200000000004
30
0
0
VERTEX
8
0
10
72.4662
20
41.986200000000004
30
0
0
VERTEX
8
0
10
72.4662
20
43.18
30
0
42
0.41421356237309503
0
VERTEX
8
0
10
72.39
20
43.2562
30
0
0
VERTEX
8
0
10
70.5104
20
43.2562
30
0
0
VERTEX
8
0
10
70.5104
20
43.45354375
30
0
0
VERTEX
8
0
10
70.12354375000001
20
43.8404
30
0
0
VERTEX
8
0
10
69.57645625
20
43.8404
30
0
0
VERTEX
8
0
10
69.1896
20
43.45354375
30
0
0
VERTEX
8
0
10
69.1896
20
42.906456250000005
30
0
0
VERTEX
8
0
10
69.57645625
20
42.519600000000004
30
0
0
VERTEX
8
0
10
70.12354375000001
20
42.519600000000004
30
0
0
VERTEX
8
0
10
70.5104
20
42.906456250000005
30
0
0
VERTEX
8
0
10
70.5104
20
43.1038
30
0
0
VERTEX
8
0
10
72.3138
20
43.1038
30
0
0
VERTEX
8
0
10
72.3138
20
41.910000000000004
30
0
42
0.41421356237309503
0
VERTEX
8
0
10
72.39
20
41.833800000000004
30
0
0
VERTEX
8
0
10
75.53960000000001
20
41.833800000000004
30
0
0
VERTEX
8
0
10
75.53960000000001
20
41.63645625
30
0
0
VERTEX
8
0
10
75.92645625
20
41.2496
30
0
0
VERTEX
8
0
10
76.47354375
20
41.2496
30
0
0
SEQEND
0
POLYLINE
66
1
8
1_copper
10
0.0
20
0.0
30
0.0
70
1
0
VERTEX
8
0
10
79.4004
20
41.63645625
30
0
0
VERTEX
8
0
10
79.4004
20
42.183543750000005
30
0
0
VERTEX
8
0
10
79.01354375000001
20
42.5704
30
0
0
VERTEX
8
0
10
78.46645625000001
20
42.5704
30
0
0
VERTEX
8
0
10
78.0796
20
42.183543750000005
30
0
0
VERTEX
8
0
10
78.0796
20
41.63645625
30
0
0
VERTEX
8
0
10
78.46645625000001
20
41.2496
30
0
0
VERTEX
8
0
10
79.01354375000001
20
41.2496
30
0
0
SEQEND
0
POLYLINE
66
1
8
16_copper
10
0.0
20
0.0
30
0.0
70
1
0
VERTEX
8
0
10
79.4004
20
41.63645625
30
0
0
VERTEX
8
0
10
79.4004
20
42.183543750000005
30
0
0
VERTEX
8
0
10
79.01354375000001
20
42.5704
30
0
0
VERTEX
8
0
10
78.81620000000001
20
42.5704
30
0
0
VERTEX
8
0
10
78.81620000000001
20
45.6438
30
0
0
VERTEX
8
0
10
80.01
20
45.6438
30
0
42
0.41421356237309503
0
VERTEX
8
0
10
80.0862
20
45.72
30
0
0
VERTEX
8
0
10
80.0862
20
50.230000000000004
30
0
42
0.198912367379658
0
VERTEX
8
0
10
80.06388125000001
20
50.28388125
30
0
0
VERTEX
8
0
10
79.41388125
20
50.933881250000006
30
0
42
0.9999999999999999
0
VERTEX
8
0
10
79.30611875000001
20
50.82611875
30
0
0
VERTEX
8
0
10
79.9338
20
50.198437500000004
30
0
0
VERTEX
8
0
10
79.9338
20
45.7962
30
0
0
VERTEX
8
0
10
78.74000000000001
20
45.7962
30
0
42
0.41421356237309503
0
VERTEX
8
0
10
78.66380000000001
20
45.72
30
0
0
VERTEX
8
0
10
78.66380000000001
20
42.5704
30
0
0
VERTEX
8
0
10
78.46645625000001
20
42.5704
30
0
0
VERTEX
8
0
10
78.0796
20
42.183543750000005
30
0
0
VERTEX
8
0
10
78.0796
20
41.63645625
30
0
0
VERTEX
8
0
10
78.46645625000001
20
41.2496
30
0
0
VERTEX
8
0
10
79.01354375000001
20
41.2496
30
0
0
SEQEND
0
POLYLINE
66
1
8
1_copper
10
0.0
20
0.0
30
0.0
70
1
0
VERTEX
8
0
10
54.0004
20
40.36645625
30
0
0
VERTEX
8
0
10
54.0004
20
40.91354375
30
0
0
VERTEX
8
0
10
53.613543750000005
20
41.3004
30
0
0
VERTEX
8
0
10
53.06645625
20
41.3004
30
0
0
VERTEX
8
0
10
52.6796
20
40.91354375
30
0
0
VERTEX
8
0
10
52.6796
20
40.36645625
30
0
0
VERTEX
8
0
10
53.06645625
20
39.979600000000005
30
0
0
VERTEX
8
0
10
53.613543750000005
20
39.979600000000005
30
0
0
SEQEND
0
POLYLINE
66
1
8
16_copper
10
0.0
20
0.0
30
0.0
70
1
0
VERTEX
8
0
10
54.0004
20
40.36645625
30
0
0
VERTEX
8
0
10
54.0004
20
40.5638
30
0
0
VERTEX
8
0
10
55.88
20
40.5638
30
0
42
0.41421356237309503
0
VERTEX
8
0
10
55.9562
20
40.64
30
0
0
VERTEX
8
0
10
55.9562
20
46.9138
30
0
0
VERTEX
8
0
10
72.39
20
46.9138
30
0
42
0.41421356237309503
0
VERTEX
8
0
10
72.4662
20
46.99
30
0
0
VERTEX
8
0
10
72.4662
20
60.96
30
0
42
0.41421356237309503
0
VERTEX
8
0
10
72.39
20
61.0362
30
0
0
VERTEX
8
0
10
69.24000000000001
20
61.0362
30
0
42
0.198912367379658
0
VERTEX
8
0
10
69.18611875
20
61.013881250000004
30
0
0
VERTEX
8
0
10
69.10611875000001
20
60.933881250000006
30
0
42
0.9999999999999999
0
VERTEX
8
0
10
69.21388125
20
60.826118750000006
30
0
0
VERTEX
8
0
10
69.2715625
20
60.8838
30
0
0
VERTEX
8
0
10
72.3138
20
60.8838
30
0
0
VERTEX
8
0
10
72.3138
20
47.0662
30
0
0
VERTEX
8
0
10
55.88
20
47.0662
30
0
42
0.41421356237309503
0
VERTEX
8
0
10
55.8038
20
46.99
30
0
0
VERTEX
8
0
10
55.8038
20
40.7162
30
0
0
VERTEX
8
0
10
54.0004
20
40.7162
30
0
0
VERTEX
8
0
10
54.0004
20
40.91354375
30
0
0
VERTEX
8
0
10
53.613543750000005
20
41.3004
30
0
0
VERTEX
8
0
10
53.06645625
20
41.3004
30
0
0
VERTEX
8
0
10
52.6796
20
40.91354375
30
0
0
VERTEX
8
0
10
52.6796
20
40.36645625
30
0
0
VERTEX
8
0
10
53.06645625
20
39.979600000000005
30
0
0
VERTEX
8
0
10
53.613543750000005
20
39.979600000000005
30
0
0
SEQEND
0
POLYLINE
66
1
8
1_copper
10
0.0
20
0.0
30
0.0
70
1
0
VERTEX
8
0
10
57.508896875000005
20
62.351828125000004
30
0
42
0.9999999999999999
0
VERTEX
8
0
10
56.791103125
20
62.108171875000004
30
0
0
VERTEX
8
0
10
56.810075000000005
20
62.062368750000005
30
0
42
0.7142629560749683
0
VERTEX
8
0
10
57.521121875000006
20
62.153800000000004
30
0
0
VERTEX
8
0
10
61.480000000000004
20
62.153800000000004
30
0
0
VERTEX
8
0
10
61.480000000000004
20
60.690000000000005
30
0
0
VERTEX
8
0
10
62.980000000000004
20
60.690000000000005
30
0
0
VERTEX
8
0
10
62.980000000000004
20
62.153800000000004
30
0
0
VERTEX
8
0
10
63.4238
20
62.153800000000004
30
0
0
VERTEX
8
0
10
63.4238
20
60.96
30
0
42
0.41421356237309503
0
VERTEX
8
0
10
63.5
20
60.8838
30
0
0
VERTEX
8
0
10
64.39887812500001
20
60.8838
30
0
42
0.9969241442347151
0
VERTEX
8
0
10
65.141728125
20
61.033940625
30
0
0
VERTEX
8
0
10
65.12889687500001
20
61.081828125
30
0
42
0.7648843201253167
0
VERTEX
8
0
10
64.39887812500001
20
61.0362
30
0
0
VERTEX
8
0
10
63.5762
20
61.0362
30
0
0
VERTEX
8
0
10
63.5762
20
62.230000000000004
30
0
42
0.41421356237309503
0
VERTEX
8
0
10
63.5
20
62.306200000000004
30
0
0
VERTEX
8
0
10
57.521121875000006
20
62.306200000000004
30
0
0
SEQEND
0
POLYLINE
66
1
8
1_copper
10
0.0
20
0.0
30
0.0
70
1
0
VERTEX
8
0
10
46.59394375
20
60.205337500000006
30
0
42
0.9063472543261978
0
VERTEX
8
0
10
46.519434375
20
61.722
30
0
0
VERTEX
8
0
10
44.920565625
20
61.722
30
0
42
0.9520795017710562
0
VERTEX
8
0
10
44.920565625
20
60.198
30
0
0
VERTEX
8
0
10
46.519434375
20
60.198
30
0
0
SEQEND
0
POLYLINE
66
1
8
1_copper
10
0.0
20
0.0
30
0.0
70
1
0
VERTEX
8
0
10
54.0004
20
60.686456250000006
30
0
0
VERTEX
8
0
10
54.0004
20
61.23354375
30
0
0
VERTEX
8
0
10
53.613543750000005
20
61.620400000000004
30
0
0
VERTEX
8
0
10
53.06645625
20
61.620400000000004
30
0
0
VERTEX
8
0
10
52.6796
20
61.23354375
30
0
0
VERTEX
8
0
10
52.6796
20
60.686456250000006
30
0
0
VERTEX
8
0
10
53.06645625
20
60.299600000000005
30
0
0
VERTEX
8
0
10
53.613543750000005
20
60.299600000000005
30
0
0
SEQEND
0
POLYLINE
66
1
8
16_copper
10
0.0
20
0.0
30
0.0
70
1
0
VERTEX
8
0
10
46.59394375
20
60.205337500000006
30
0
42
0.34346555443307536
0
VERTEX
8
0
10
47.24018125
20
60.8838
30
0
0
VERTEX
8
0
10
52.6796
20
60.8838
30
0
0
VERTEX
8
0
10
52.6796
20
60.686456250000006
30
0
0
VERTEX
8
0
10
53.06645625
20
60.299600000000005
30
0
0
VERTEX
8
0
10
53.613543750000005
20
60.299600000000005
30
0
0
VERTEX
8
0
10
54.0004
20
60.686456250000006
30
0
0
VERTEX
8
0
10
54.0004
20
60.8838
30
0
0
VERTEX
8
0
10
55.88
20
60.8838
30
0
42
0.41421356237309503
0
VERTEX
8
0
10
55.9562
20
60.96
30
0
0
VERTEX
8
0
10
55.9562
20
62.153800000000004
30
0
0
VERTEX
8
0
10
56.778878125000006
20
62.153800000000004
30
0
42
0.9969241442347151
0
VERTEX
8
0
10
57.521728125
20
62.303940625
30
0
0
VERTEX
8
0
10
57.508896875000005
20
62.351828125000004
30
0
42
0.7648843201253167
0
VERTEX
8
0
10
56.778878125000006
20
62.306200000000004
30
0
0
VERTEX
8
0
10
55.88
20
62.306200000000004
30
0
42
0.41421356237309503
0
VERTEX
8
0
10
55.8038
20
62.230000000000004
30
0
0
VERTEX
8
0
10
55.8038
20
61.0362
30
0
0
VERTEX
8
0
10
54.0004
20
61.0362
30
0
0
VERTEX
8
0
10
54.0004
20
61.23354375
30
0
0
VERTEX
8
0
10
53.613543750000005
20
61.620400000000004
30
0
0
VERTEX
8
0
10
53.06645625
20
61.620400000000004
30
0
0
VERTEX
8
0
10
52.6796
20
61.23354375
30
0
0
VERTEX
8
0
10
52.6796
20
61.0362
30
0
0
VERTEX
8
0
10
47.24018125
20
61.0362
30
0
42
0.3711436710623373
0
VERTEX
8
0
10
46.519434375
20
61.722
30
0
0
VERTEX
8
0
10
44.920565625
20
61.722
30
0
42
0.9520795017710562
0
VERTEX
8
0
10
44.920565625
20
60.198
30
0
0
VERTEX
8
0
10
46.519434375
20
60.198
30
0
0
SEQEND
0
POLYLINE
66
1
8
16_copper
10
0.0
20
0.0
30
0.0
70
1
0
VERTEX
8
0
10
64.6946125
20
50.79438125
30
0
42
0.39258815634569955
0
VERTEX
8
0
10
64.77
20
50.723800000000004
30
0
0
VERTEX
8
0
10
69.08
20
50.723800000000004
30
0
42
0.198912367379658
0
VERTEX
8
0
10
69.13388125
20
50.74611875
30
0
0
VERTEX
8
0
10
69.21388125
20
50.82611875
30
0
42
0.9999999999999999
0
VERTEX
8
0
10
69.10611875000001
20
50.933881250000006
30
0
0
VERTEX
8
0
10
69.0484375
20
50.876200000000004
30
0
0
VERTEX
8
0
10
64.8462
20
50.876200000000004
30
0
0
VERTEX
8
0
10
64.8462
20
55.8038
30
0
0
VERTEX
8
0
10
66.66
20
55.8038
30
0
42
0.9999999999999999
0
VERTEX
8
0
10
66.66
20
55.9562
30
0
0
VERTEX
8
0
10
64.8462
20
55.9562
30
0
0
VERTEX
8
0
10
64.8462
20
60.588878125
30
0
42
0.9969241442347151
0
VERTEX
8
0
10
64.696059375
20
61.331728125000005
30
0
0
VERTEX
8
0
10
64.648171875
20
61.318896875
30
0
42
0.7648843201253167
0
VERTEX
8
0
10
64.69380000000001
20
60.588878125
30
0
0
VERTEX
8
0
10
64.69380000000001
20
50.800000000000004
30
0
0
SEQEND
0
POLYLINE
66
1
8
1_copper
10
0.0
20
0.0
30
0.0
70
1
0
VERTEX
8
0
10
32.50741875
20
42.525959375
30
0
42
0.9063462356499619
0
VERTEX
8
0
10
32.44284375
20
43.8404
30
0
0
VERTEX
8
0
10
31.057156250000002
20
43.8404
30
0
42
0.9520786018124834
0
VERTEX
8
0
10
31.057156250000002
20
42.519600000000004
30
0
0
VERTEX
8
0
10
32.44284375
20
42.519600000000004
30
0
0
SEQEND
0
POLYLINE
66
1
8
1_copper
10
0.0
20
0.0
30
0.0
70
1
0
VERTEX
8
0
10
54.0004
20
42.906456250000005
30
0
0
VERTEX
8
0
10
54.0004
20
43.45354375
30
0
0
VERTEX
8
0
10
53.613543750000005
20
43.8404
30
0
0
VERTEX
8
0
10
53.06645625
20
43.8404
30
0
0
VERTEX
8
0
10
52.6796
20
43.45354375
30
0
0
VERTEX
8
0
10
52.6796
20
42.906456250000005
30
0
0
VERTEX
8
0
10
53.06645625
20
42.519600000000004
30
0
0
VERTEX
8
0
10
53.613543750000005
20
42.519600000000004
30
0
0
SEQEND
0
POLYLINE
66
1
8
16_copper
10
0.0
20
0.0
30
0.0
70
1
0
VERTEX
8
0
10
32.50741875
20
42.525959375
30
0
42
0.33915074785084687
0
VERTEX
8
0
10
33.066490625
20
43.1038
30
0
0
VERTEX
8
0
10
52.6796
20
43.1038
30
0
0
VERTEX
8
0
10
52.6796
20
42.906456250000005
30
0
0
VERTEX
8
0
10
53.06645625
20
42.519600000000004
30
0
0
VERTEX
8
0
10
53.613543750000005
20
42.519600000000004
30
0
0
VERTEX
8
0
10
54.0004
20
42.906456250000005
30
0
0
VERTEX
8
0
10
54.0004
20
43.45354375
30
0
0
VERTEX
8
0
10
53.613543750000005
20
43.8404
30
0
0
VERTEX
8
0
10
53.06645625
20
43.8404
30
0
0
VERTEX
8
0
10
52.6796
20
43.45354375
30
0
0
VERTEX
8
0
10
52.6796
20
43.2562
30
0
0
VERTEX
8
0
10
33.066490625
20
43.2562
30
0
42
0.36675309512609283
0
VERTEX
8
0
10
32.44284375
20
43.8404
30
0
0
VERTEX
8
0
10
31.057156250000002
20
43.8404
30
0
42
0.9520786018124834
0
VERTEX
8
0
10
31.057156250000002
20
42.519600000000004
30
0
0
VERTEX
8
0
10
32.44284375
20
42.519600000000004
30
0
0
SEQEND
0
POLYLINE
66
1
8
1_copper
10
0.0
20
0.0
30
0.0
70
1
0
VERTEX
8
0
10
38.760400000000004
20
41.63645625
30
0
0
VERTEX
8
0
10
38.760400000000004
20
42.183543750000005
30
0
0
VERTEX
8
0
10
38.37354375
20
42.5704
30
0
0
VERTEX
8
0
10
37.82645625
20
42.5704
30
0
0
VERTEX
8
0
10
37.4396
20
42.183543750000005
30
0
0
VERTEX
8
0
10
37.4396
20
41.63645625
30
0
0
VERTEX
8
0
10
37.82645625
20
41.2496
30
0
0
VERTEX
8
0
10
38.37354375
20
41.2496
30
0
0
SEQEND
0
POLYLINE
66
1
8
1_copper
10
0.0
20
0.0
30
0.0
70
1
0
VERTEX
8
0
10
32.50741875
20
39.985959375
30
0
42
0.9063462356499619
0
VERTEX
8
0
10
32.44284375
20
41.3004
30
0
0
VERTEX
8
0
10
31.057156250000002
20
41.3004
30
0
42
0.9520786018124834
0
VERTEX
8
0
10
31.057156250000002
20
39.979600000000005
30
0
0
VERTEX
8
0
10
32.44284375
20
39.979600000000005
30
0
0
SEQEND
0
POLYLINE
66
1
8
16_copper
10
0.0
20
0.0
30
0.0
70
1
0
VERTEX
8
0
10
32.50741875
20
39.985959375
30
0
42
0.33915074785084687
0
VERTEX
8
0
10
33.066490625
20
40.5638
30
0
0
VERTEX
8
0
10
36.83
20
40.5638
30
0
42
0.41421356237309503
0
VERTEX
8
0
10
36.9062
20
40.64
30
0
0
VERTEX
8
0
10
36.9062
20
41.833800000000004
30
0
0
VERTEX
8
0
10
37.4396
20
41.833800000000004
30
0
0
VERTEX
8
0
10
37.4396
20
41.63645625
30
0
0
VERTEX
8
0
10
37.82645625
20
41.2496
30
0
0
VERTEX
8
0
10
38.37354375
20
41.2496
30
0
0
VERTEX
8
0
10
38.760400000000004
20
41.63645625
30
0
0
VERTEX
8
0
10
38.760400000000004
20
42.183543750000005
30
0
0
VERTEX
8
0
10
38.37354375
20
42.5704
30
0
0
VERTEX
8
0
10
37.82645625
20
42.5704
30
0
0
VERTEX
8
0
10
37.4396
20
42.183543750000005
30
0
0
VERTEX
8
0
10
37.4396
20
41.986200000000004
30
0
0
VERTEX
8
0
10
36.83
20
41.986200000000004
30
0
42
0.41421356237309503
0
VERTEX
8
0
10
36.7538
20
41.910000000000004
30
0
0
VERTEX
8
0
10
36.7538
20
40.7162
30
0
0
VERTEX
8
0
10
33.066490625
20
40.7162
30
0
42
0.36675309512609283
0
VERTEX
8
0
10
32.44284375
20
41.3004
30
0
0
VERTEX
8
0
10
31.057156250000002
20
41.3004
30
0
42
0.9520786018124834
0
VERTEX
8
0
10
31.057156250000002
20
39.979600000000005
30
0
0
VERTEX
8
0
10
32.44284375
20
39.979600000000005
30
0
0
SEQEND
0
POLYLINE
66
1
8
1_copper
10
0.0
20
0.0
30
0.0
70
1
0
VERTEX
8
0
10
46.3804
20
41.63645625
30
0
0
VERTEX
8
0
10
46.3804
20
42.183543750000005
30
0
0
VERTEX
8
0
10
45.99354375
20
42.5704
30
0
0
VERTEX
8
0
10
45.446456250000004
20
42.5704
30
0
0
VERTEX
8
0
10
45.0596
20
42.183543750000005
30
0
0
VERTEX
8
0
10
45.0596
20
41.63645625
30
0
0
VERTEX
8
0
10
45.446456250000004
20
41.2496
30
0
0
VERTEX
8
0
10
45.99354375
20
41.2496
30
0
0
SEQEND
0
POLYLINE
66
1
8
1_copper
10
0.0
20
0.0
30
0.0
70
1
0
VERTEX
8
0
10
52.095400000000005
20
41.63645625
30
0
0
VERTEX
8
0
10
52.095400000000005
20
42.183543750000005
30
0
0
VERTEX
8
0
10
51.708543750000004
20
42.5704
30
0
0
VERTEX
8
0
10
51.16145625
20
42.5704
30
0
0
VERTEX
8
0
10
50.7746
20
42.183543750000005
30
0
0
VERTEX
8
0
10
50.7746
20
41.63645625
30
0
0
VERTEX
8
0
10
51.16145625
20
41.2496
30
0
0
VERTEX
8
0
10
51.708543750000004
20
41.2496
30
0
0
SEQEND
0
POLYLINE
66
1
8
16_copper
10
0.0
20
0.0
30
0.0
70
1
0
VERTEX
8
0
10
46.3804
20
41.63645625
30
0
0
VERTEX
8
0
10
46.3804
20
41.833800000000004
30
0
0
VERTEX
8
0
10
50.7746
20
41.833800000000004
30
0
0
VERTEX
8
0
10
50.7746
20
41.63645625
30
0
0
VERTEX
8
0
10
51.16145625
20
41.2496
30
0
0
VERTEX
8
0
10
51.708543750000004
20
41.2496
30
0
0
VERTEX
8
0
10
52.095400000000005
20
41.63645625
30
0
0
VERTEX
8
0
10
52.095400000000005
20
42.183543750000005
30
0
0
VERTEX
8
0
10
51.708543750000004
20
42.5704
30
0
0
VERTEX
8
0
10
51.16145625
20
42.5704
30
0
0
VERTEX
8
0
10
50.7746
20
42.183543750000005
30
0
0
VERTEX
8
0
10
50.7746
20
41.986200000000004
30
0
0
VERTEX
8
0
10
46.3804
20
41.986200000000004
30
0
0
VERTEX
8
0
10
46.3804
20
42.183543750000005
30
0
0
VERTEX
8
0
10
45.99354375
20
42.5704
30
0
0
VERTEX
8
0
10
45.446456250000004
20
42.5704
30
0
0
VERTEX
8
0
10
45.0596
20
42.183543750000005
30
0
0
VERTEX
8
0
10
45.0596
20
41.63645625
30
0
0
VERTEX
8
0
10
45.446456250000004
20
41.2496
30
0
0
VERTEX
8
0
10
45.99354375
20
41.2496
30
0
0
SEQEND
0
CIRCLE
8
drills_NPTH
10
25.400000000000002
20
33.02
30
0
40
0.75
0
CIRCLE
8
drills_NPTH
10
25.400000000000002
20
64.77
30
0
40
0.75
0
CIRCLE
8
drills_NPTH
10
82.55
20
64.77
30
0
40
0.75
0
CIRCLE
8
drills_NPTH
10
53.34
20
64.77
30
0
40
0.75
0
CIRCLE
8
drills_NPTH
10
53.34
20
33.02
30
0
40
0.75
0
CIRCLE
8
drills_NPTH
10
82.55
20
33.02
30
0
40
0.75
0
CIRCLE
8
drills_NPTH
10
25.400000000000002
20
48.260000000000005
30
0
40
0.75
0
CIRCLE
8
drills_NPTH
10
82.55
20
48.260000000000005
30
0
40
0.75
0
CIRCLE
8
drills_PTH
10
79.36
20
60.88
30
0
40
0.75
0
CIRCLE
8
drills_PTH
10
69.16
20
60.88
30
0
40
0.75
0
CIRCLE
8
drills_PTH
10
69.16
20
50.88
30
0
40
0.75
0
CIRCLE
8
drills_PTH
10
66.66
20
55.88
30
0
40
0.75
0
CIRCLE
8
drills_PTH
10
79.36
20
50.88
30
0
40
0.75
0
CIRCLE
8
drills_PTH
10
45.72
20
55.88
30
0
40
0.508
0
CIRCLE
8
drills_PTH
10
45.72
20
58.42
30
0
40
0.508
0
CIRCLE
8
drills_PTH
10
45.72
20
60.96
30
0
40
0.508
0
CIRCLE
8
drills_PTH
10
53.34
20
60.96
30
0
40
0.40640000000000004
0
CIRCLE
8
drills_PTH
10
53.34
20
58.42
30
0
40
0.40640000000000004
0
CIRCLE
8
drills_PTH
10
31.75
20
40.64
30
0
40
0.40640000000000004
0
CIRCLE
8
drills_PTH
10
31.75
20
43.18
30
0
40
0.40640000000000004
0
CIRCLE
8
drills_PTH
10
31.75
20
55.88
30
0
40
0.40640000000000004
0
CIRCLE
8
drills_PTH
10
31.75
20
58.42
30
0
40
0.40640000000000004
0
CIRCLE
8
drills_PTH
10
78.74000000000001
20
41.910000000000004
30
0
40
0.40640000000000004
0
CIRCLE
8
drills_PTH
10
76.2
20
41.910000000000004
30
0
40
0.40640000000000004
0
CIRCLE
8
drills_PTH
10
54.61
20
53.34
30
0
40
0.40640000000000004
0
CIRCLE
8
drills_PTH
10
62.230000000000004
20
53.34
30
0
40
0.40640000000000004
0
CIRCLE
8
drills_PTH
10
62.230000000000004
20
43.18
30
0
40
0.40640000000000004
0
CIRCLE
8
drills_PTH
10
69.85000000000001
20
43.18
30
0
40
0.40640000000000004
0
CIRCLE
8
drills_PTH
10
38.1
20
41.910000000000004
30
0
40
0.40640000000000004
0
CIRCLE
8
drills_PTH
10
45.72
20
41.910000000000004
30
0
40
0.40640000000000004
0
CIRCLE
8
drills_PTH
10
53.34
20
43.18
30
0
40
0.40640000000000004
0
CIRCLE
8
drills_PTH
10
51.435
20
41.910000000000004
30
0
40
0.40640000000000004
0
CIRCLE
8
drills_PTH
10
53.34
20
40.64
30
0
40
0.40640000000000004
0
CIRCLE
8
drills_via_1_16
10
62.230000000000004
20
55.88
30
0
40
0.17500000000000002
0
CIRCLE
8
drills_via_1_16
10
59.690000000000005
20
48.260000000000005
30
0
40
0.17500000000000002
0
CIRCLE
8
drills_via_1_16
10
59.690000000000005
20
45.72
30
0
40
0.17500000000000002
0
CIRCLE
8
drills_via_1_16
10
57.150000000000006
20
62.230000000000004
30
0
40
0.17500000000000002
0
CIRCLE
8
drills_via_1_16
10
64.77
20
60.96
30
0
40
0.17500000000000002
0
ENDSEC
0
EOF