0
SECTION
2
HEADER
9
$ANGDIR
70
1
9
$AUNITS
70
0
9
$PROJECTNAME
1
BLUETOOTH UNIT
9
$TDCREATE
40
2459116.07451774
9
$INSUNITS
70
4
0
ENDSEC
0
SECTION
2
ENTITIES
0
POLYLINE
66
1
8
outline
10
0.0
20
0.0
30
0.0
70
1
0
VERTEX
8
0
10
6.3500000000000005
20
20.32
30
0
0
VERTEX
8
0
10
71.10000000000001
20
20.32
30
0
0
VERTEX
8
0
10
71.10000000000001
20
42.85
30
0
0
VERTEX
8
0
10
6.3500000000000005
20
42.85
30
0
0
VERTEX
8
0
10
6.3500000000000005
20
20.32
30
0
0
SEQEND
0
POLYLINE
66
1
8
1_copper
10
0.0
20
0.0
30
0.0
70
1
0
VERTEX
8
0
10
35.16394375
20
28.455337500000002
30
0
42
0.9063472543261978
0
VERTEX
8
0
10
35.089434375
20
29.972
30
0
0
VERTEX
8
0
10
33.490565625
20
29.972
30
0
42
0.9520795017710562
0
VERTEX
8
0
10
33.490565625
20
28.448
30
0
0
VERTEX
8
0
10
35.089434375
20
28.448
30
0
0
SEQEND
0
POLYLINE
66
1
8
1_copper
10
0.0
20
0.0
30
0.0
70
1
0
VERTEX
8
0
10
19.80741875
20
28.555959375
30
0
42
0.9063462356499619
0
VERTEX
8
0
10
19.742843750000002
20
29.8704
30
0
0
VERTEX
8
0
10
18.35715625
20
29.8704
30
0
42
0.9520786018124834
0
VERTEX
8
0
10
18.35715625
20
28.5496
30
0
0
VERTEX
8
0
10
19.742843750000002
20
28.5496
30
0
0
SEQEND
0
POLYLINE
66
1
8
16_copper
10
0.0
20
0.0
30
0.0
70
1
0
VERTEX
8
0
10
35.16394375
20
28.455337500000002
30
0
42
0.9063472543261978
0
VERTEX
8
0
10
35.089434375
20
29.972
30
0
0
VERTEX
8
0
10
33.490565625
20
29.972
30
0
42
0.3711436710623373
0
VERTEX
8
0
10
32.76981875
20
29.2862
30
0
0
VERTEX
8
0
10
20.366490625
20
29.2862
30
0
42
0.36675309512609283
0
VERTEX
8
0
10
19.742843750000002
20
29.8704
30
0
0
VERTEX
8
0
10
18.35715625
20
29.8704
30
0
42
0.9520786018124834
0
VERTEX
8
0
10
18.35715625
20
28.5496
30
0
0
VERTEX
8
0
10
19.742843750000002
20
28.5496
30
0
42
0.36675309512609283
0
VERTEX
8
0
10
20.366490625
20
29.1338
30
0
0
VERTEX
8
0
10
32.76981875
20
29.1338
30
0
42
0.3711436710623373
0
VERTEX
8
0
10
33.490565625
20
28.448
30
0
0
VERTEX
8
0
10
35.089434375
20
28.448
30
0
0
SEQEND
0
POLYLINE
66
1
8
1_copper
10
0.0
20
0.0
30
0.0
70
1
0
VERTEX
8
0
10
35.16394375
20
30.9953375
30
0
42
0.9063472543261978
0
VERTEX
8
0
10
35.089434375
20
32.512
30
0
0
VERTEX
8
0
10
33.490565625
20
32.512
30
0
42
0.9520795017710562
0
VERTEX
8
0
10
33.490565625
20
30.988000000000003
30
0
0
VERTEX
8
0
10
35.089434375
20
30.988000000000003
30
0
0
SEQEND
0
POLYLINE
66
1
8
1_copper
10
0.0
20
0.0
30
0.0
70
1
0
VERTEX
8
0
10
57.907418750000005
20
31.095959375000003
30
0
42
0.9063462356499619
0
VERTEX
8
0
10
57.84284375
20
32.4104
30
0
0
VERTEX
8
0
10
56.457156250000004
20
32.4104
30
0
42
0.9520786018124834
0
VERTEX
8
0
10
56.457156250000004
20
31.0896
30
0
0
VERTEX
8
0
10
57.84284375
20
31.0896
30
0
0
SEQEND
0
POLYLINE
66
1
8
1_copper
10
0.0
20
0.0
30
0.0
70
1
0
VERTEX
8
0
10
42.5704
20
31.476456250000002
30
0
0
VERTEX
8
0
10
42.5704
20
32.02354375
30
0
0
VERTEX
8
0
10
42.183543750000005
20
32.4104
30
0
0
VERTEX
8
0
10
41.63645625
20
32.4104
30
0
0
VERTEX
8
0
10
41.2496
20
32.02354375
30
0
0
VERTEX
8
0
10
41.2496
20
31.476456250000002
30
0
0
VERTEX
8
0
10
41.63645625
20
31.0896
30
0
0
VERTEX
8
0
10
42.183543750000005
20
31.0896
30
0
0
SEQEND
0
POLYLINE
66
1
8
1_copper
10
0.0
20
0.0
30
0.0
70
1
0
VERTEX
8
0
10
19.80741875
20
31.095959375000003
30
0
42
0.9063462356499619
0
VERTEX
8
0
10
19.742843750000002
20
32.4104
30
0
0
VERTEX
8
0
10
18.35715625
20
32.4104
30
0
42
0.9520786018124834
0
VERTEX
8
0
10
18.35715625
20
31.0896
30
0
0
VERTEX
8
0
10
19.742843750000002
20
31.0896
30
0
0
SEQEND
0
POLYLINE
66
1
8
1_copper
10
0.0
20
0.0
30
0.0
70
1
0
VERTEX
8
0
10
40.0304
20
27.666456250000003
30
0
0
VERTEX
8
0
10
40.0304
20
28.213543750000003
30
0
0
VERTEX
8
0
10
39.64354375
20
28.6004
30
0
0
VERTEX
8
0
10
39.09645625
20
28.6004
30
0
0
VERTEX
8
0
10
38.7096
20
28.213543750000003
30
0
0
VERTEX
8
0
10
38.7096
20
27.666456250000003
30
0
0
VERTEX
8
0
10
39.09645625
20
27.279600000000002
30
0
0
VERTEX
8
0
10
39.64354375
20
27.279600000000002
30
0
0
SEQEND
0
POLYLINE
66
1
8
16_copper
10
0.0
20
0.0
30
0.0
70
1
0
VERTEX
8
0
10
35.8066625
20
31.861943750000002
30
0
42
0.3578057741447831
0
VERTEX
8
0
10
35.089434375
20
32.512
30
0
0
VERTEX
8
0
10
33.490565625
20
32.512
30
0
42
0.3711436710623373
0
VERTEX
8
0
10
32.76981875
20
31.8262
30
0
0
VERTEX
8
0
10
20.366490625
20
31.8262
30
0
42
0.36675309512609283
0
VERTEX
8
0
10
19.742843750000002
20
32.4104
30
0
0
VERTEX
8
0
10
18.35715625
20
32.4104
30
0
42
0.9520786018124834
0
VERTEX
8
0
10
18.35715625
20
31.0896
30
0
0
VERTEX
8
0
10
19.742843750000002
20
31.0896
30
0
42
0.36675309512609283
0
VERTEX
8
0
10
20.366490625
20
31.6738
30
0
0
VERTEX
8
0
10
32.76981875
20
31.6738
30
0
42
0.3711436710623373
0
VERTEX
8
0
10
33.490565625
20
30.988000000000003
30
0
0
VERTEX
8
0
10
35.089434375
20
30.988000000000003
30
0
42
0.3711436710623373
0
VERTEX
8
0
10
35.81018125
20
31.6738
30
0
0
VERTEX
8
0
10
39.293800000000005
20
31.6738
30
0
0
VERTEX
8
0
10
39.293800000000005
20
28.6004
30
0
0
VERTEX
8
0
10
39.09645625
20
28.6004
30
0
0
VERTEX
8
0
10
38.7096
20
28.213543750000003
30
0
0
VERTEX
8
0
10
38.7096
20
27.666456250000003
30
0
0
VERTEX
8
0
10
39.09645625
20
27.279600000000002
30
0
0
VERTEX
8
0
10
39.64354375
20
27.279600000000002
30
0
0
VERTEX
8
0
10
40.0304
20
27.666456250000003
30
0
0
VERTEX
8
0
10
40.0304
20
28.213543750000003
30
0
0
VERTEX
8
0
10
39.64354375
20
28.6004
30
0
0
VERTEX
8
0
10
39.446200000000005
20
28.6004
30
0
0
VERTEX
8
0
10
39.446200000000005
20
30.4038
30
0
0
VERTEX
8
0
10
54.61
20
30.4038
30
0
42
0.41421356237309503
0
VERTEX
8
0
10
54.6862
20
30.48
30
0
0
VERTEX
8
0
10
54.6862
20
31.6738
30
0
0
VERTEX
8
0
10
55.833509375000006
20
31.6738
30
0
42
0.36675309512609283
0
VERTEX
8
0
10
56.457156250000004
20
31.0896
30
0
0
VERTEX
8
0
10
57.84284375
20
31.0896
30
0
42
0.9520786018124834
0
VERTEX
8
0
10
57.84284375
20
32.4104
30
0
0
VERTEX
8
0
10
56.457156250000004
20
32.4104
30
0
42
0.36675309512609283
0
VERTEX
8
0
10
55.833509375000006
20
31.8262
30
0
0
VERTEX
8
0
10
54.61
20
31.8262
30
0
42
0.41421356237309503
0
VERTEX
8
0
10
54.5338
20
31.75
30
0
0
VERTEX
8
0
10
54.5338
20
30.5562
30
0
0
VERTEX
8
0
10
39.446200000000005
20
30.5562
30
0
0
VERTEX
8
0
10
39.446200000000005
20
31.6738
30
0
0
VERTEX
8
0
10
41.2496
20
31.6738
30
0
0
VERTEX
8
0
10
41.2496
20
31.476456250000002
30
0
0
VERTEX
8
0
10
41.63645625
20
31.0896
30
0
0
VERTEX
8
0
10
42.183543750000005
20
31.0896
30
0
0
VERTEX
8
0
10
42.5704
20
31.476456250000002
30
0
0
VERTEX
8
0
10
42.5704
20
32.02354375
30
0
0
VERTEX
8
0
10
42.183543750000005
20
32.4104
30
0
0
VERTEX
8
0
10
41.63645625
20
32.4104
30
0
0
VERTEX
8
0
10
41.2496
20
32.02354375
30
0
0
VERTEX
8
0
10
41.2496
20
31.8262
30
0
0
VERTEX
8
0
10
35.81018125
20
31.8262
30
0
0
SEQEND
0
POLYLINE
66
1
8
1_copper
10
0.0
20
0.0
30
0.0
70
1
0
VERTEX
8
0
10
47.59
20
34.67
30
0
0
VERTEX
8
0
10
47.0662
20
34.67
30
0
0
VERTEX
8
0
10
47.0662
20
35.188878125
30
0
42
0.9969241442347151
0
VERTEX
8
0
10
46.916059375
20
35.931728125
30
0
0
VERTEX
8
0
10
46.868171875
20
35.918896875
30
0
42
0.7648843201253167
0
VERTEX
8
0
10
46.9138
20
35.188878125
30
0
0
VERTEX
8
0
10
46.9138
20
34.67
30
0
0
VERTEX
8
0
10
46.39
20
34.67
30
0
0
VERTEX
8
0
10
46.39
20
33.47
30
0
0
VERTEX
8
0
10
47.59
20
33.47
30
0
0
SEQEND
0
POLYLINE
66
1
8
1_copper
10
0.0
20
0.0
30
0.0
70
1
0
VERTEX
8
0
10
35.16394375
20
33.535337500000004
30
0
42
0.9063472543261978
0
VERTEX
8
0
10
35.089434375
20
35.052
30
0
0
VERTEX
8
0
10
33.490565625
20
35.052
30
0
42
0.9520795017710562
0
VERTEX
8
0
10
33.490565625
20
33.528
30
0
0
VERTEX
8
0
10
35.089434375
20
33.528
30
0
0
SEQEND
0
POLYLINE
66
1
8
1_copper
10
0.0
20
0.0
30
0.0
70
1
0
VERTEX
8
0
10
42.5704
20
34.016456250000005
30
0
0
VERTEX
8
0
10
42.5704
20
34.56354375
30
0
0
VERTEX
8
0
10
42.183543750000005
20
34.9504
30
0
0
VERTEX
8
0
10
41.63645625
20
34.9504
30
0
0
VERTEX
8
0
10
41.2496
20
34.56354375
30
0
0
VERTEX
8
0
10
41.2496
20
34.016456250000005
30
0
0
VERTEX
8
0
10
41.63645625
20
33.6296
30
0
0
VERTEX
8
0
10
42.183543750000005
20
33.6296
30
0
0
SEQEND
0
POLYLINE
66
1
8
1_copper
10
0.0
20
0.0
30
0.0
70
1
0
VERTEX
8
0
10
52.143940625
20
28.838271875
30
0
42
0.818105841543916
0
VERTEX
8
0
10
52.1462
20
29.581121875
30
0
0
VERTEX
8
0
10
52.1462
20
31.378878125
30
0
42
0.9969241442347151
0
VERTEX
8
0
10
51.996059375
20
32.121728125000004
30
0
0
VERTEX
8
0
10
51.948171875
20
32.108896875
30
0
42
0.7648843201253167
0
VERTEX
8
0
10
51.9938
20
31.378878125
30
0
0
VERTEX
8
0
10
51.9938
20
29.581121875
30
0
0
VERTEX
8
0
10
51.948171875
20
29.568896875
30
0
0
VERTEX
8
0
10
51.90236875
20
29.549925
30
0
0
VERTEX
8
0
10
51.85943125
20
29.525137500000003
30
0
0
VERTEX
8
0
10
51.820100000000004
20
29.49495625
30
0
0
VERTEX
8
0
10
51.78504375
20
29.4599
30
0
0
VERTEX
8
0
10
51.7548625
20
29.42056875
30
0
0
VERTEX
8
0
10
51.730075
20
29.37763125
30
0
0
VERTEX
8
0
10
51.711103125
20
29.331828125
30
0
0
VERTEX
8
0
10
51.698271875
20
29.283940625000003
30
0
0
VERTEX
8
0
10
51.6918
20
29.234787500000003
30
0
0
VERTEX
8
0
10
51.6918
20
29.185212500000002
30
0
0
VERTEX
8
0
10
51.698271875
20
29.136059375000002
30
0
0
VERTEX
8
0
10
51.711103125
20
29.088171875
30
0
0
VERTEX
8
0
10
51.730075
20
29.04236875
30
0
0
VERTEX
8
0
10
51.7548625
20
28.99943125
30
0
0
VERTEX
8
0
10
51.78504375
20
28.9601
30
0
0
VERTEX
8
0
10
51.820100000000004
20
28.92504375
30
0
0
VERTEX
8
0
10
51.85943125
20
28.894862500000002
30
0
0
VERTEX
8
0
10
51.90236875
20
28.870075
30
0
0
VERTEX
8
0
10
51.948171875
20
28.851103125
30
0
0
VERTEX
8
0
10
51.996059375
20
28.838271875
30
0
0
VERTEX
8
0
10
52.045212500000005
20
28.8318
30
0
0
VERTEX
8
0
10
52.0947875
20
28.8318
30
0
0
SEQEND
0
POLYLINE
66
1
8
1_copper
10
0.0
20
0.0
30
0.0
70
1
0
VERTEX
8
0
10
57.907418750000005
20
28.555959375
30
0
42
0.9063462356499619
0
VERTEX
8
0
10
57.84284375
20
29.8704
30
0
0
VERTEX
8
0
10
56.457156250000004
20
29.8704
30
0
42
0.9520786018124834
0
VERTEX
8
0
10
56.457156250000004
20
28.5496
30
0
0
VERTEX
8
0
10
57.84284375
20
28.5496
30
0
0
SEQEND
0
POLYLINE
66
1
8
16_copper
10
0.0
20
0.0
30
0.0
70
1
0
VERTEX
8
0
10
52.143940625
20
31.378271875000003
30
0
42
0.818105841543916
0
VERTEX
8
0
10
52.1462
20
32.121121875
30
0
0
VERTEX
8
0
10
52.1462
20
35.56
30
0
42
0.41421356237309503
0
VERTEX
8
0
10
52.07
20
35.6362
30
0
0
VERTEX
8
0
10
47.361121875
20
35.6362
30
0
42
0.8155378645187369
0
VERTEX
8
0
10
46.618878125
20
35.6362
30
0
0
VERTEX
8
0
10
44.45
20
35.6362
30
0
42
0.41421356237309503
0
VERTEX
8
0
10
44.3738
20
35.56
30
0
0
VERTEX
8
0
10
44.3738
20
34.3662
30
0
0
VERTEX
8
0
10
42.5704
20
34.3662
30
0
0
VERTEX
8
0
10
42.5704
20
34.56354375
30
0
0
VERTEX
8
0
10
42.183543750000005
20
34.9504
30
0
0
VERTEX
8
0
10
41.63645625
20
34.9504
30
0
0
VERTEX
8
0
10
41.2496
20
34.56354375
30
0
0
VERTEX
8
0
10
41.2496
20
34.3662
30
0
0
VERTEX
8
0
10
35.81018125
20
34.3662
30
0
42
0.3711436710623373
0
VERTEX
8
0
10
35.089434375
20
35.052
30
0
0
VERTEX
8
0
10
33.490565625
20
35.052
30
0
42
0.9520795017710562
0
VERTEX
8
0
10
33.490565625
20
33.528
30
0
0
VERTEX
8
0
10
35.089434375
20
33.528
30
0
42
0.3711436710623373
0
VERTEX
8
0
10
35.81018125
20
34.2138
30
0
0
VERTEX
8
0
10
41.2496
20
34.2138
30
0
0
VERTEX
8
0
10
41.2496
20
34.016456250000005
30
0
0
VERTEX
8
0
10
41.63645625
20
33.6296
30
0
0
VERTEX
8
0
10
42.183543750000005
20
33.6296
30
0
0
VERTEX
8
0
10
42.5704
20
34.016456250000005
30
0
0
VERTEX
8
0
10
42.5704
20
34.2138
30
0
0
VERTEX
8
0
10
44.45
20
34.2138
30
0
42
0.41421356237309503
0
VERTEX
8
0
10
44.5262
20
34.29
30
0
0
VERTEX
8
0
10
44.5262
20
35.4838
30
0
0
VERTEX
8
0
10
46.618878125
20
35.4838
30
0
42
0.8155378645187369
0
VERTEX
8
0
10
47.361121875
20
35.4838
30
0
0
VERTEX
8
0
10
51.9938
20
35.4838
30
0
0
VERTEX
8
0
10
51.9938
20
32.121121875
30
0
0
VERTEX
8
0
10
51.948171875
20
32.108896875
30
0
0
VERTEX
8
0
10
51.90236875
20
32.089925
30
0
0
VERTEX
8
0
10
51.85943125
20
32.0651375
30
0
0
VERTEX
8
0
10
51.820100000000004
20
32.03495625
30
0
0
VERTEX
8
0
10
51.78504375
20
31.9999
30
0
0
VERTEX
8
0
10
51.7548625
20
31.96056875
30
0
0
VERTEX
8
0
10
51.730075
20
31.917631250000003
30
0
0
VERTEX
8
0
10
51.711103125
20
31.871828125
30
0
0
VERTEX
8
0
10
51.698271875
20
31.823940625000002
30
0
0
VERTEX
8
0
10
51.6918
20
31.774787500000002
30
0
0
VERTEX
8
0
10
51.6918
20
31.7252125
30
0
0
VERTEX
8
0
10
51.698271875
20
31.676059375
30
0
0
VERTEX
8
0
10
51.711103125
20
31.628171875000003
30
0
0
VERTEX
8
0
10
51.730075
20
31.58236875
30
0
0
VERTEX
8
0
10
51.7548625
20
31.53943125
30
0
0
VERTEX
8
0
10
51.78504375
20
31.5001
30
0
0
VERTEX
8
0
10
51.820100000000004
20
31.465043750000003
30
0
0
VERTEX
8
0
10
51.85943125
20
31.4348625
30
0
0
VERTEX
8
0
10
51.90236875
20
31.410075000000003
30
0
0
VERTEX
8
0
10
51.948171875
20
31.391103125
30
0
0
VERTEX
8
0
10
51.996059375
20
31.378271875000003
30
0
0
VERTEX
8
0
10
52.045212500000005
20
31.3718
30
0
0
VERTEX
8
0
10
52.0947875
20
31.3718
30
0
0
SEQEND
0
POLYLINE
66
1
8
16_copper
10
0.0
20
0.0
30
0.0
70
1
0
VERTEX
8
0
10
57.907418750000005
20
28.555959375
30
0
42
0.9063462356499619
0
VERTEX
8
0
10
57.84284375
20
29.8704
30
0
0
VERTEX
8
0
10
56.457156250000004
20
29.8704
30
0
42
0.36675309512609283
0
VERTEX
8
0
10
55.833509375000006
20
29.2862
30
0
0
VERTEX
8
0
10
52.441121875
20
29.2862
30
0
42
0.9969241442347151
0
VERTEX
8
0
10
51.698271875
20
29.136059375000002
30
0
0
VERTEX
8
0
10
51.711103125
20
29.088171875
30
0
42
0.7648843201253167
0
VERTEX
8
0
10
52.441121875
20
29.1338
30
0
0
VERTEX
8
0
10
55.833509375000006
20
29.1338
30
0
42
0.36675309512609283
0
VERTEX
8
0
10
56.457156250000004
20
28.5496
30
0
0
VERTEX
8
0
10
57.84284375
20
28.5496
30
0
0
SEQEND
0
POLYLINE
66
1
8
1_copper
10
0.0
20
0.0
30
0.0
70
1
0
VERTEX
8
0
10
47.063940625
20
28.838271875
30
0
42
0.818105841543916
0
VERTEX
8
0
10
47.0662
20
29.581121875
30
0
0
VERTEX
8
0
10
47.0662
20
31.37
30
0
0
VERTEX
8
0
10
47.59
20
31.37
30
0
0
VERTEX
8
0
10
47.59
20
32.57
30
0
0
VERTEX
8
0
10
46.39
20
32.57
30
0
0
VERTEX
8
0
10
46.39
20
31.37
30
0
0
VERTEX
8
0
10
46.9138
20
31.37
30
0
0
VERTEX
8
0
10
46.9138
20
29.581121875
30
0
0
VERTEX
8
0
10
46.868171875
20
29.568896875
30
0
0
VERTEX
8
0
10
46.82236875
20
29.549925
30
0
0
VERTEX
8
0
10
46.77943125
20
29.525137500000003
30
0
0
VERTEX
8
0
10
46.740100000000005
20
29.49495625
30
0
0
VERTEX
8
0
10
46.70504375
20
29.4599
30
0
0
VERTEX
8
0
10
46.6748625
20
29.42056875
30
0
0
VERTEX
8
0
10
46.650075
20
29.37763125
30
0
0
VERTEX
8
0
10
46.631103125
20
29.331828125
30
0
0
VERTEX
8
0
10
46.618271875000005
20
29.283940625000003
30
0
0
VERTEX
8
0
10
46.6118
20
29.234787500000003
30
0
0
VERTEX
8
0
10
46.6118
20
29.185212500000002
30
0
0
VERTEX
8
0
10
46.618271875000005
20
29.136059375000002
30
0
0
VERTEX
8
0
10
46.631103125
20
29.088171875
30
0
0
VERTEX
8
0
10
46.650075
20
29.04236875
30
0
0
VERTEX
8
0
10
46.6748625
20
28.99943125
30
0
0
VERTEX
8
0
10
46.70504375
20
28.9601
30
0
0
VERTEX
8
0
10
46.740100000000005
20
28.92504375
30
0
0
VERTEX
8
0
10
46.77943125
20
28.894862500000002
30
0
0
VERTEX
8
0
10
46.82236875
20
28.870075
30
0
0
VERTEX
8
0
10
46.868171875
20
28.851103125
30
0
0
VERTEX
8
0
10
46.916059375
20
28.838271875
30
0
0
VERTEX
8
0
10
46.9652125
20
28.8318
30
0
0
VERTEX
8
0
10
47.014787500000004
20
28.8318
30
0
0
SEQEND
0
POLYLINE
66
1
8
1_copper
10
0.0
20
0.0
30
0.0
70
1
0
VERTEX
8
0
10
47.650400000000005
20
27.666456250000003
30
0
0
VERTEX
8
0
10
47.650400000000005
20
28.213543750000003
30
0
0
VERTEX
8
0
10
47.263543750000004
20
28.6004
30
0
0
VERTEX
8
0
10
46.71645625
20
28.6004
30
0
0
VERTEX
8
0
10
46.3296
20
28.213543750000003
30
0
0
VERTEX
8
0
10
46.3296
20
27.666456250000003
30
0
0
VERTEX
8
0
10
46.71645625
20
27.279600000000002
30
0
0
VERTEX
8
0
10
47.263543750000004
20
27.279600000000002
30
0
0
SEQEND
0
POLYLINE
66
1
8
16_copper
10
0.0
20
0.0
30
0.0
70
1
0
VERTEX
8
0
10
47.650400000000005
20
27.666456250000003
30
0
0
VERTEX
8
0
10
47.650400000000005
20
28.213543750000003
30
0
0
VERTEX
8
0
10
47.263543750000004
20
28.6004
30
0
0
VERTEX
8
0
10
47.0662
20
28.6004
30
0
0
VERTEX
8
0
10
47.0662
20
28.838878125
30
0
42
0.9969241442347151
0
VERTEX
8
0
10
46.916059375
20
29.581728125
30
0
0
VERTEX
8
0
10
46.868171875
20
29.568896875
30
0
42
0.7648843201253167
0
VERTEX
8
0
10
46.9138
20
28.838878125
30
0
0
VERTEX
8
0
10
46.9138
20
28.6004
30
0
0
VERTEX
8
0
10
46.71645625
20
28.6004
30
0
0
VERTEX
8
0
10
46.3296
20
28.213543750000003
30
0
0
VERTEX
8
0
10
46.3296
20
27.666456250000003
30
0
0
VERTEX
8
0
10
46.71645625
20
27.279600000000002
30
0
0
VERTEX
8
0
10
47.263543750000004
20
27.279600000000002
30
0
0
SEQEND
0
POLYLINE
66
1
8
1_copper
10
0.0
20
0.0
30
0.0
70
1
0
VERTEX
8
0
10
57.907418750000005
20
26.015959375
30
0
42
0.9063462356499619
0
VERTEX
8
0
10
57.84284375
20
27.3304
30
0
0
VERTEX
8
0
10
56.457156250000004
20
27.3304
30
0
42
0.9520786018124834
0
VERTEX
8
0
10
56.457156250000004
20
26.009600000000002
30
0
0
VERTEX
8
0
10
57.84284375
20
26.009600000000002
30
0
0
SEQEND
0
POLYLINE
66
1
8
1_copper
10
0.0
20
0.0
30
0.0
70
1
0
VERTEX
8
0
10
19.80741875
20
26.015959375
30
0
42
0.9063462356499619
0
VERTEX
8
0
10
19.742843750000002
20
27.3304
30
0
0
VERTEX
8
0
10
18.35715625
20
27.3304
30
0
42
0.9520786018124834
0
VERTEX
8
0
10
18.35715625
20
26.009600000000002
30
0
0
VERTEX
8
0
10
19.742843750000002
20
26.009600000000002
30
0
0
SEQEND
0
POLYLINE
66
1
8
16_copper
10
0.0
20
0.0
30
0.0
70
1
0
VERTEX
8
0
10
19.80741875
20
26.015959375
30
0
42
0.33915074785084687
0
VERTEX
8
0
10
20.366490625
20
26.5938
30
0
0
VERTEX
8
0
10
55.833509375000006
20
26.5938
30
0
42
0.36675309512609283
0
VERTEX
8
0
10
56.457156250000004
20
26.009600000000002
30
0
0
VERTEX
8
0
10
57.84284375
20
26.009600000000002
30
0
42
0.9520786018124834
0
VERTEX
8
0
10
57.84284375
20
27.3304
30
0
0
VERTEX
8
0
10
56.457156250000004
20
27.3304
30
0
42
0.36675309512609283
0
VERTEX
8
0
10
55.833509375000006
20
26.7462
30
0
0
VERTEX
8
0
10
20.366490625
20
26.7462
30
0
42
0.36675309512609283
0
VERTEX
8
0
10
19.742843750000002
20
27.3304
30
0
0
VERTEX
8
0
10
18.35715625
20
27.3304
30
0
42
0.9520786018124834
0
VERTEX
8
0
10
18.35715625
20
26.009600000000002
30
0
0
VERTEX
8
0
10
19.742843750000002
20
26.009600000000002
30
0
0
SEQEND
0
POLYLINE
66
1
8
1_copper
10
0.0
20
0.0
30
0.0
70
1
0
VERTEX
8
0
10
57.907418750000005
20
33.635959375
30
0
42
0.9063462356499619
0
VERTEX
8
0
10
57.84284375
20
34.9504
30
0
0
VERTEX
8
0
10
56.457156250000004
20
34.9504
30
0
42
0.9520786018124834
0
VERTEX
8
0
10
56.457156250000004
20
33.6296
30
0
0
VERTEX
8
0
10
57.84284375
20
33.6296
30
0
0
SEQEND
0
POLYLINE
66
1
8
1_copper
10
0.0
20
0.0
30
0.0
70
1
0
VERTEX
8
0
10
19.80741875
20
33.635959375
30
0
42
0.9063462356499619
0
VERTEX
8
0
10
19.742843750000002
20
34.9504
30
0
0
VERTEX
8
0
10
18.35715625
20
34.9504
30
0
42
0.9520786018124834
0
VERTEX
8
0
10
18.35715625
20
33.6296
30
0
0
VERTEX
8
0
10
19.742843750000002
20
33.6296
30
0
0
SEQEND
0
POLYLINE
66
1
8
16_copper
10
0.0
20
0.0
30
0.0
70
1
0
VERTEX
8
0
10
19.80741875
20
33.635959375
30
0
42
0.33915074785084687
0
VERTEX
8
0
10
20.366490625
20
34.2138
30
0
0
VERTEX
8
0
10
30.48
20
34.2138
30
0
42
0.41421356237309503
0
VERTEX
8
0
10
30.5562
20
34.29
30
0
0
VERTEX
8
0
10
30.5562
20
36.7538
30
0
0
VERTEX
8
0
10
53.2638
20
36.7538
30
0
0
VERTEX
8
0
10
53.2638
20
34.29
30
0
42
0.41421356237309503
0
VERTEX
8
0
10
53.34
20
34.2138
30
0
0
VERTEX
8
0
10
55.833509375000006
20
34.2138
30
0
42
0.36675309512609283
0
VERTEX
8
0
10
56.457156250000004
20
33.6296
30
0
0
VERTEX
8
0
10
57.84284375
20
33.6296
30
0
42
0.9520786018124834
0
VERTEX
8
0
10
57.84284375
20
34.9504
30
0
0
VERTEX
8
0
10
56.457156250000004
20
34.9504
30
0
42
0.36675309512609283
0
VERTEX
8
0
10
55.833509375000006
20
34.3662
30
0
0
VERTEX
8
0
10
53.4162
20
34.3662
30
0
0
VERTEX
8
0
10
53.4162
20
36.83
30
0
42
0.41421356237309503
0
VERTEX
8
0
10
53.34
20
36.9062
30
0
0
VERTEX
8
0
10
30.48
20
36.9062
30
0
42
0.41421356237309503
0
VERTEX
8
0
10
30.4038
20
36.83
30
0
0
VERTEX
8
0
10
30.4038
20
34.3662
30
0
0
VERTEX
8
0
10
20.366490625
20
34.3662
30
0
42
0.36675309512609283
0
VERTEX
8
0
10
19.742843750000002
20
34.9504
30
0
0
VERTEX
8
0
10
18.35715625
20
34.9504
30
0
42
0.9520786018124834
0
VERTEX
8
0
10
18.35715625
20
33.6296
30
0
0
VERTEX
8
0
10
19.742843750000002
20
33.6296
30
0
0
SEQEND
0
POLYLINE
66
1
8
1_copper
10
0.0
20
0.0
30
0.0
70
1
0
VERTEX
8
0
10
57.907418750000005
20
36.175959375000005
30
0
42
0.9063462356499619
0
VERTEX
8
0
10
57.84284375
20
37.4904
30
0
0
VERTEX
8
0
10
56.457156250000004
20
37.4904
30
0
42
0.9520786018124834
0
VERTEX
8
0
10
56.457156250000004
20
36.1696
30
0
0
VERTEX
8
0
10
57.84284375
20
36.1696
30
0
0
SEQEND
0
POLYLINE
66
1
8
1_copper
10
0.0
20
0.0
30
0.0
70
1
0
VERTEX
8
0
10
19.80741875
20
36.175959375000005
30
0
42
0.9063462356499619
0
VERTEX
8
0
10
19.742843750000002
20
37.4904
30
0
0
VERTEX
8
0
10
18.35715625
20
37.4904
30
0
42
0.9520786018124834
0
VERTEX
8
0
10
18.35715625
20
36.1696
30
0
0
VERTEX
8
0
10
19.742843750000002
20
36.1696
30
0
0
SEQEND
0
POLYLINE
66
1
8
16_copper
10
0.0
20
0.0
30
0.0
70
1
0
VERTEX
8
0
10
19.80741875
20
36.175959375000005
30
0
42
0.33915074785084687
0
VERTEX
8
0
10
20.366490625
20
36.7538
30
0
0
VERTEX
8
0
10
29.21
20
36.7538
30
0
42
0.41421356237309503
0
VERTEX
8
0
10
29.2862
20
36.83
30
0
0
VERTEX
8
0
10
29.2862
20
38.0238
30
0
0
VERTEX
8
0
10
54.5338
20
38.0238
30
0
0
VERTEX
8
0
10
54.5338
20
36.83
30
0
42
0.41421356237309503
0
VERTEX
8
0
10
54.61
20
36.7538
30
0
0
VERTEX
8
0
10
55.833509375000006
20
36.7538
30
0
42
0.36675309512609283
0
VERTEX
8
0
10
56.457156250000004
20
36.1696
30
0
0
VERTEX
8
0
10
57.84284375
20
36.1696
30
0
42
0.9520786018124834
0
VERTEX
8
0
10
57.84284375
20
37.4904
30
0
0
VERTEX
8
0
10
56.457156250000004
20
37.4904
30
0
42
0.36675309512609283
0
VERTEX
8
0
10
55.833509375000006
20
36.9062
30
0
0
VERTEX
8
0
10
54.6862
20
36.9062
30
0
0
VERTEX
8
0
10
54.6862
20
38.1
30
0
42
0.41421356237309503
0
VERTEX
8
0
10
54.61
20
38.1762
30
0
0
VERTEX
8
0
10
29.21
20
38.1762
30
0
42
0.41421356237309503
0
VERTEX
8
0
10
29.1338
20
38.1
30
0
0
VERTEX
8
0
10
29.1338
20
36.9062
30
0
0
VERTEX
8
0
10
20.366490625
20
36.9062
30
0
42
0.36675309512609283
0
VERTEX
8
0
10
19.742843750000002
20
37.4904
30
0
0
VERTEX
8
0
10
18.35715625
20
37.4904
30
0
42
0.9520786018124834
0
VERTEX
8
0
10
18.35715625
20
36.1696
30
0
0
VERTEX
8
0
10
19.742843750000002
20
36.1696
30
0
0
SEQEND
0
POLYLINE
66
1
8
1_copper
10
0.0
20
0.0
30
0.0
70
1
0
VERTEX
8
0
10
57.907418750000005
20
38.715959375000004
30
0
42
0.9063462356499619
0
VERTEX
8
0
10
57.84284375
20
40.0304
30
0
0
VERTEX
8
0
10
56.457156250000004
20
40.0304
30
0
42
0.9520786018124834
0
VERTEX
8
0
10
56.457156250000004
20
38.7096
30
0
0
VERTEX
8
0
10
57.84284375
20
38.7096
30
0
0
SEQEND
0
POLYLINE
66
1
8
1_copper
10
0.0
20
0.0
30
0.0
70
1
0
VERTEX
8
0
10
19.80741875
20
38.715959375000004
30
0
42
0.9063462356499619
0
VERTEX
8
0
10
19.742843750000002
20
40.0304
30
0
0
VERTEX
8
0
10
18.35715625
20
40.0304
30
0
42
0.9520786018124834
0
VERTEX
8
0
10
18.35715625
20
38.7096
30
0
0
VERTEX
8
0
10
19.742843750000002
20
38.7096
30
0
0
SEQEND
0
POLYLINE
66
1
8
16_copper
10
0.0
20
0.0
30
0.0
70
1
0
VERTEX
8
0
10
19.80741875
20
38.715959375000004
30
0
42
0.33915074785084687
0
VERTEX
8
0
10
20.366490625
20
39.293800000000005
30
0
0
VERTEX
8
0
10
55.833509375000006
20
39.293800000000005
30
0
42
0.36675309512609283
0
VERTEX
8
0
10
56.457156250000004
20
38.7096
30
0
0
VERTEX
8
0
10
57.84284375
20
38.7096
30
0
42
0.9520786018124834
0
VERTEX
8
0
10
57.84284375
20
40.0304
30
0
0
VERTEX
8
0
10
56.457156250000004
20
40.0304
30
0
42
0.36675309512609283
0
VERTEX
8
0
10
55.833509375000006
20
39.446200000000005
30
0
0
VERTEX
8
0
10
20.366490625
20
39.446200000000005
30
0
42
0.36675309512609283
0
VERTEX
8
0
10
19.742843750000002
20
40.0304
30
0
0
VERTEX
8
0
10
18.35715625
20
40.0304
30
0
42
0.9520786018124834
0
VERTEX
8
0
10
18.35715625
20
38.7096
30
0
0
VERTEX
8
0
10
19.742843750000002
20
38.7096
30
0
0
SEQEND
0
CIRCLE
8
drills_PTH
10
34.29
20
29.21
30
0
40
0.508
0
CIRCLE
8
drills_PTH
10
34.29
20
31.75
30
0
40
0.508
0
CIRCLE
8
drills_PTH
10
34.29
20
34.29
30
0
40
0.508
0
CIRCLE
8
drills_PTH
10
57.150000000000006
20
39.370000000000005
30
0
40
0.40640000000000004
0
CIRCLE
8
drills_PTH
10
57.150000000000006
20
36.83
30
0
40
0.40640000000000004
0
CIRCLE
8
drills_PTH
10
57.150000000000006
20
34.29
30
0
40
0.40640000000000004
0
CIRCLE
8
drills_PTH
10
57.150000000000006
20
31.75
30
0
40
0.40640000000000004
0
CIRCLE
8
drills_PTH
10
57.150000000000006
20
29.21
30
0
40
0.40640000000000004
0
CIRCLE
8
drills_PTH
10
57.150000000000006
20
26.67
30
0
40
0.40640000000000004
0
CIRCLE
8
drills_PTH
10
41.910000000000004
20
34.29
30
0
40
0.40640000000000004
0
CIRCLE
8
drills_PTH
10
41.910000000000004
20
31.75
30
0
40
0.40640000000000004
0
CIRCLE
8
drills_PTH
10
39.370000000000005
20
27.94
30
0
40
0.40640000000000004
0
CIRCLE
8
drills_PTH
10
46.99
20
27.94
30
0
40
0.40640000000000004
0
CIRCLE
8
drills_PTH
10
19.05
20
39.370000000000005
30
0
40
0.40640000000000004
0
CIRCLE
8
drills_PTH
10
19.05
20
36.83
30
0
40
0.40640000000000004
0
CIRCLE
8
drills_PTH
10
19.05
20
34.29
30
0
40
0.40640000000000004
0
CIRCLE
8
drills_PTH
10
19.05
20
31.75
30
0
40
0.40640000000000004
0
CIRCLE
8
drills_PTH
10
19.05
20
29.21
30
0
40
0.40640000000000004
0
CIRCLE
8
drills_PTH
10
19.05
20
26.67
30
0
40
0.40640000000000004
0
CIRCLE
8
drills_via_1_16
10
46.99
20
35.56
30
0
40
0.17500000000000002
0
CIRCLE
8
drills_via_1_16
10
52.07
20
29.21
30
0
40
0.17500000000000002
0
CIRCLE
8
drills_via_1_16
10
52.07
20
31.75
30
0
40
0.17500000000000002
0
CIRCLE
8
drills_via_1_16
10
46.99
20
29.21
30
0
40
0.17500000000000002
0
ENDSEC
0
EOF