0
SECTION
2
HEADER
9
$ANGDIR
70
1
9
$AUNITS
70
0
9
$PROJECTNAME
1
PROCESSING UNIT
9
$TDCREATE
40
2459116.71674910
9
$INSUNITS
70
4
0
ENDSEC
0
SECTION
2
ENTITIES
0
POLYLINE
66
1
8
outline
10
0.0
20
0.0
30
0.0
70
1
0
VERTEX
8
0
10
-34.29
20
-35.56
30
0
0
VERTEX
8
0
10
28.880000000000003
20
-35.56
30
0
0
VERTEX
8
0
10
28.880000000000003
20
38.09
30
0
0
VERTEX
8
0
10
-34.29
20
38.09
30
0
0
VERTEX
8
0
10
-34.29
20
-35.56
30
0
0
SEQEND
0
POLYLINE
66
1
8
holes
10
0.0
20
0.0
30
0.0
70
1
0
VERTEX
8
0
10
-30.75
20
-33.0636625
30
0
0
VERTEX
8
0
10
-30.757609375
20
-33.15065
30
0
0
VERTEX
8
0
10
-30.772775000000003
20
-33.236646875
30
0
0
VERTEX
8
0
10
-30.795375
20
-33.32099375
30
0
0
VERTEX
8
0
10
-30.825240625000003
20
-33.403046875
30
0
0
VERTEX
8
0
10
-30.86214375
20
-33.4821875
30
0
0
VERTEX
8
0
10
-30.90580625
20
-33.557812500000004
30
0
0
VERTEX
8
0
10
-30.955890625000002
20
-33.629340625000005
30
0
0
VERTEX
8
0
10
-31.012018750000003
20
-33.696234375
30
0
0
VERTEX
8
0
10
-31.073765625
20
-33.75798125
30
0
0
VERTEX
8
0
10
-31.140659375000002
20
-33.814109375
30
0
0
VERTEX
8
0
10
-31.212187500000002
20
-33.86419375
30
0
0
VERTEX
8
0
10
-31.2878125
20
-33.90785625
30
0
0
VERTEX
8
0
10
-31.366953125000002
20
-33.944759375000004
30
0
0
VERTEX
8
0
10
-31.44900625
20
-33.974625
30
0
0
VERTEX
8
0
10
-31.533353125
20
-33.997225
30
0
0
VERTEX
8
0
10
-31.61935
20
-34.012390625
30
0
0
VERTEX
8
0
10
-31.7063375
20
-34.02
30
0
0
VERTEX
8
0
10
-31.7936625
20
-34.02
30
0
0
VERTEX
8
0
10
-31.880650000000003
20
-34.012390625
30
0
0
VERTEX
8
0
10
-31.966646875000002
20
-33.997225
30
0
0
VERTEX
8
0
10
-32.05099375
20
-33.974625
30
0
0
VERTEX
8
0
10
-32.133046875
20
-33.944759375000004
30
0
0
VERTEX
8
0
10
-32.2121875
20
-33.90785625
30
0
0
VERTEX
8
0
10
-32.2878125
20
-33.86419375
30
0
0
VERTEX
8
0
10
-32.359340625
20
-33.814109375
30
0
0
VERTEX
8
0
10
-32.426234375
20
-33.75798125
30
0
0
VERTEX
8
0
10
-32.487981250000004
20
-33.696234375
30
0
0
VERTEX
8
0
10
-32.544109375000005
20
-33.629340625000005
30
0
0
VERTEX
8
0
10
-32.59419375
20
-33.557812500000004
30
0
0
VERTEX
8
0
10
-32.63785625
20
-33.4821875
30
0
0
VERTEX
8
0
10
-32.674759375
20
-33.403046875
30
0
0
VERTEX
8
0
10
-32.704625
20
-33.32099375
30
0
0
VERTEX
8
0
10
-32.727225000000004
20
-33.236646875
30
0
0
VERTEX
8
0
10
-32.742390625
20
-33.15065
30
0
0
VERTEX
8
0
10
-32.75
20
-33.0636625
30
0
0
VERTEX
8
0
10
-32.75
20
-32.9763375
30
0
0
VERTEX
8
0
10
-32.742390625
20
-32.88935
30
0
0
VERTEX
8
0
10
-32.727225000000004
20
-32.803353125
30
0
0
VERTEX
8
0
10
-32.704625
20
-32.71900625
30
0
0
VERTEX
8
0
10
-32.674759375
20
-32.636953125000005
30
0
0
VERTEX
8
0
10
-32.63785625
20
-32.557812500000004
30
0
0
VERTEX
8
0
10
-32.59419375
20
-32.4821875
30
0
0
VERTEX
8
0
10
-32.544109375000005
20
-32.410659375
30
0
0
VERTEX
8
0
10
-32.487981250000004
20
-32.343765625
30
0
0
VERTEX
8
0
10
-32.426234375
20
-32.28201875
30
0
0
VERTEX
8
0
10
-32.359340625
20
-32.225890625
30
0
0
VERTEX
8
0
10
-32.2878125
20
-32.17580625
30
0
0
VERTEX
8
0
10
-32.2121875
20
-32.132143750000004
30
0
0
VERTEX
8
0
10
-32.133046875
20
-32.095240625
30
0
0
VERTEX
8
0
10
-32.05099375
20
-32.065375
30
0
0
VERTEX
8
0
10
-31.966646875000002
20
-32.042775
30
0
0
VERTEX
8
0
10
-31.880650000000003
20
-32.027609375000004
30
0
0
VERTEX
8
0
10
-31.7936625
20
-32.02
30
0
0
VERTEX
8
0
10
-31.7063375
20
-32.02
30
0
0
VERTEX
8
0
10
-31.61935
20
-32.027609375000004
30
0
0
VERTEX
8
0
10
-31.533353125
20
-32.042775
30
0
0
VERTEX
8
0
10
-31.44900625
20
-32.065375
30
0
0
VERTEX
8
0
10
-31.366953125000002
20
-32.095240625
30
0
0
VERTEX
8
0
10
-31.2878125
20
-32.132143750000004
30
0
0
VERTEX
8
0
10
-31.212187500000002
20
-32.17580625
30
0
0
VERTEX
8
0
10
-31.140659375000002
20
-32.225890625
30
0
0
VERTEX
8
0
10
-31.073765625
20
-32.28201875
30
0
0
VERTEX
8
0
10
-31.012018750000003
20
-32.343765625
30
0
0
VERTEX
8
0
10
-30.955890625000002
20
-32.410659375
30
0
0
VERTEX
8
0
10
-30.90580625
20
-32.4821875
30
0
0
VERTEX
8
0
10
-30.86214375
20
-32.557812500000004
30
0
0
VERTEX
8
0
10
-30.825240625000003
20
-32.636953125000005
30
0
0
VERTEX
8
0
10
-30.795375
20
-32.71900625
30
0
0
VERTEX
8
0
10
-30.772775000000003
20
-32.803353125
30
0
0
VERTEX
8
0
10
-30.757609375
20
-32.88935
30
0
0
VERTEX
8
0
10
-30.75
20
-32.9763375
30
0
0
VERTEX
8
0
10
-30.75
20
-33.0636625
30
0
0
SEQEND
0
POLYLINE
66
1
8
holes
10
0.0
20
0.0
30
0.0
70
1
0
VERTEX
8
0
10
27.67
20
-33.0636625
30
0
0
VERTEX
8
0
10
27.662390625
20
-33.15065
30
0
0
VERTEX
8
0
10
27.647225000000002
20
-33.236646875
30
0
0
VERTEX
8
0
10
27.624625
20
-33.32099375
30
0
0
VERTEX
8
0
10
27.594759375000002
20
-33.403046875
30
0
0
VERTEX
8
0
10
27.55785625
20
-33.4821875
30
0
0
VERTEX
8
0
10
27.51419375
20
-33.557812500000004
30
0
0
VERTEX
8
0
10
27.464109375
20
-33.629340625000005
30
0
0
VERTEX
8
0
10
27.407981250000002
20
-33.696234375
30
0
0
VERTEX
8
0
10
27.346234375
20
-33.75798125
30
0
0
VERTEX
8
0
10
27.279340625
20
-33.814109375
30
0
0
VERTEX
8
0
10
27.207812500000003
20
-33.86419375
30
0
0
VERTEX
8
0
10
27.1321875
20
-33.90785625
30
0
0
VERTEX
8
0
10
27.053046875
20
-33.944759375000004
30
0
0
VERTEX
8
0
10
26.97099375
20
-33.974625
30
0
0
VERTEX
8
0
10
26.886646875
20
-33.997225
30
0
0
VERTEX
8
0
10
26.80065
20
-34.012390625
30
0
0
VERTEX
8
0
10
26.7136625
20
-34.02
30
0
0
VERTEX
8
0
10
26.6263375
20
-34.02
30
0
0
VERTEX
8
0
10
26.539350000000002
20
-34.012390625
30
0
0
VERTEX
8
0
10
26.453353125
20
-33.997225
30
0
0
VERTEX
8
0
10
26.36900625
20
-33.974625
30
0
0
VERTEX
8
0
10
26.286953125
20
-33.944759375000004
30
0
0
VERTEX
8
0
10
26.207812500000003
20
-33.90785625
30
0
0
VERTEX
8
0
10
26.1321875
20
-33.86419375
30
0
0
VERTEX
8
0
10
26.060659375
20
-33.814109375
30
0
0
VERTEX
8
0
10
25.993765625
20
-33.75798125
30
0
0
VERTEX
8
0
10
25.93201875
20
-33.696234375
30
0
0
VERTEX
8
0
10
25.875890625
20
-33.629340625000005
30
0
0
VERTEX
8
0
10
25.825806250000003
20
-33.557812500000004
30
0
0
VERTEX
8
0
10
25.78214375
20
-33.4821875
30
0
0
VERTEX
8
0
10
25.745240625
20
-33.403046875
30
0
0
VERTEX
8
0
10
25.715375
20
-33.32099375
30
0
0
VERTEX
8
0
10
25.692775
20
-33.236646875
30
0
0
VERTEX
8
0
10
25.677609375000003
20
-33.15065
30
0
0
VERTEX
8
0
10
25.67
20
-33.0636625
30
0
0
VERTEX
8
0
10
25.67
20
-32.9763375
30
0
0
VERTEX
8
0
10
25.677609375000003
20
-32.88935
30
0
0
VERTEX
8
0
10
25.692775
20
-32.803353125
30
0
0
VERTEX
8
0
10
25.715375
20
-32.71900625
30
0
0
VERTEX
8
0
10
25.745240625
20
-32.636953125000005
30
0
0
VERTEX
8
0
10
25.78214375
20
-32.557812500000004
30
0
0
VERTEX
8
0
10
25.825806250000003
20
-32.4821875
30
0
0
VERTEX
8
0
10
25.875890625
20
-32.410659375
30
0
0
VERTEX
8
0
10
25.93201875
20
-32.343765625
30
0
0
VERTEX
8
0
10
25.993765625
20
-32.28201875
30
0
0
VERTEX
8
0
10
26.060659375
20
-32.225890625
30
0
0
VERTEX
8
0
10
26.1321875
20
-32.17580625
30
0
0
VERTEX
8
0
10
26.207812500000003
20
-32.132143750000004
30
0
0
VERTEX
8
0
10
26.286953125
20
-32.095240625
30
0
0
VERTEX
8
0
10
26.36900625
20
-32.065375
30
0
0
VERTEX
8
0
10
26.453353125
20
-32.042775
30
0
0
VERTEX
8
0
10
26.539350000000002
20
-32.027609375000004
30
0
0
VERTEX
8
0
10
26.6263375
20
-32.02
30
0
0
VERTEX
8
0
10
26.7136625
20
-32.02
30
0
0
VERTEX
8
0
10
26.80065
20
-32.027609375000004
30
0
0
VERTEX
8
0
10
26.886646875
20
-32.042775
30
0
0
VERTEX
8
0
10
26.97099375
20
-32.065375
30
0
0
VERTEX
8
0
10
27.053046875
20
-32.095240625
30
0
0
VERTEX
8
0
10
27.1321875
20
-32.132143750000004
30
0
0
VERTEX
8
0
10
27.207812500000003
20
-32.17580625
30
0
0
VERTEX
8
0
10
27.279340625
20
-32.225890625
30
0
0
VERTEX
8
0
10
27.346234375
20
-32.28201875
30
0
0
VERTEX
8
0
10
27.407981250000002
20
-32.343765625
30
0
0
VERTEX
8
0
10
27.464109375
20
-32.410659375
30
0
0
VERTEX
8
0
10
27.51419375
20
-32.4821875
30
0
0
VERTEX
8
0
10
27.55785625
20
-32.557812500000004
30
0
0
VERTEX
8
0
10
27.594759375000002
20
-32.636953125000005
30
0
0
VERTEX
8
0
10
27.624625
20
-32.71900625
30
0
0
VERTEX
8
0
10
27.647225000000002
20
-32.803353125
30
0
0
VERTEX
8
0
10
27.662390625
20
-32.88935
30
0
0
VERTEX
8
0
10
27.67
20
-32.9763375
30
0
0
VERTEX
8
0
10
27.67
20
-33.0636625
30
0
0
SEQEND
0
POLYLINE
66
1
8
holes
10
0.0
20
0.0
30
0.0
70
1
0
VERTEX
8
0
10
27.67
20
35.5163375
30
0
0
VERTEX
8
0
10
27.662390625
20
35.42935
30
0
0
VERTEX
8
0
10
27.647225000000002
20
35.343353125
30
0
0
VERTEX
8
0
10
27.624625
20
35.25900625
30
0
0
VERTEX
8
0
10
27.594759375000002
20
35.176953125000004
30
0
0
VERTEX
8
0
10
27.55785625
20
35.0978125
30
0
0
VERTEX
8
0
10
27.51419375
20
35.0221875
30
0
0
VERTEX
8
0
10
27.464109375
20
34.950659375
30
0
0
VERTEX
8
0
10
27.407981250000002
20
34.883765625
30
0
0
VERTEX
8
0
10
27.346234375
20
34.822018750000005
30
0
0
VERTEX
8
0
10
27.279340625
20
34.765890625000004
30
0
0
VERTEX
8
0
10
27.207812500000003
20
34.71580625
30
0
0
VERTEX
8
0
10
27.1321875
20
34.672143750000004
30
0
0
VERTEX
8
0
10
27.053046875
20
34.635240625
30
0
0
VERTEX
8
0
10
26.97099375
20
34.605375
30
0
0
VERTEX
8
0
10
26.886646875
20
34.582775000000005
30
0
0
VERTEX
8
0
10
26.80065
20
34.567609375
30
0
0
VERTEX
8
0
10
26.7136625
20
34.56
30
0
0
VERTEX
8
0
10
26.6263375
20
34.56
30
0
0
VERTEX
8
0
10
26.539350000000002
20
34.567609375
30
0
0
VERTEX
8
0
10
26.453353125
20
34.582775000000005
30
0
0
VERTEX
8
0
10
26.36900625
20
34.605375
30
0
0
VERTEX
8
0
10
26.286953125
20
34.635240625
30
0
0
VERTEX
8
0
10
26.207812500000003
20
34.672143750000004
30
0
0
VERTEX
8
0
10
26.1321875
20
34.71580625
30
0
0
VERTEX
8
0
10
26.060659375
20
34.765890625000004
30
0
0
VERTEX
8
0
10
25.993765625
20
34.822018750000005
30
0
0
VERTEX
8
0
10
25.93201875
20
34.883765625
30
0
0
VERTEX
8
0
10
25.875890625
20
34.950659375
30
0
0
VERTEX
8
0
10
25.825806250000003
20
35.0221875
30
0
0
VERTEX
8
0
10
25.78214375
20
35.0978125
30
0
0
VERTEX
8
0
10
25.745240625
20
35.176953125000004
30
0
0
VERTEX
8
0
10
25.715375
20
35.25900625
30
0
0
VERTEX
8
0
10
25.692775
20
35.343353125
30
0
0
VERTEX
8
0
10
25.677609375000003
20
35.42935
30
0
0
VERTEX
8
0
10
25.67
20
35.5163375
30
0
0
VERTEX
8
0
10
25.67
20
35.6036625
30
0
0
VERTEX
8
0
10
25.677609375000003
20
35.690650000000005
30
0
0
VERTEX
8
0
10
25.692775
20
35.776646875000004
30
0
0
VERTEX
8
0
10
25.715375
20
35.86099375
30
0
0
VERTEX
8
0
10
25.745240625
20
35.943046875
30
0
0
VERTEX
8
0
10
25.78214375
20
36.0221875
30
0
0
VERTEX
8
0
10
25.825806250000003
20
36.0978125
30
0
0
VERTEX
8
0
10
25.875890625
20
36.169340625000004
30
0
0
VERTEX
8
0
10
25.93201875
20
36.236234375
30
0
0
VERTEX
8
0
10
25.993765625
20
36.29798125
30
0
0
VERTEX
8
0
10
26.060659375
20
36.354109375
30
0
0
VERTEX
8
0
10
26.1321875
20
36.404193750000005
30
0
0
VERTEX
8
0
10
26.207812500000003
20
36.44785625
30
0
0
VERTEX
8
0
10
26.286953125
20
36.484759375
30
0
0
VERTEX
8
0
10
26.36900625
20
36.514625
30
0
0
VERTEX
8
0
10
26.453353125
20
36.537225
30
0
0
VERTEX
8
0
10
26.539350000000002
20
36.552390625
30
0
0
VERTEX
8
0
10
26.6263375
20
36.56
30
0
0
VERTEX
8
0
10
26.7136625
20
36.56
30
0
0
VERTEX
8
0
10
26.80065
20
36.552390625
30
0
0
VERTEX
8
0
10
26.886646875
20
36.537225
30
0
0
VERTEX
8
0
10
26.97099375
20
36.514625
30
0
0
VERTEX
8
0
10
27.053046875
20
36.484759375
30
0
0
VERTEX
8
0
10
27.1321875
20
36.44785625
30
0
0
VERTEX
8
0
10
27.207812500000003
20
36.404193750000005
30
0
0
VERTEX
8
0
10
27.279340625
20
36.354109375
30
0
0
VERTEX
8
0
10
27.346234375
20
36.29798125
30
0
0
VERTEX
8
0
10
27.407981250000002
20
36.236234375
30
0
0
VERTEX
8
0
10
27.464109375
20
36.169340625000004
30
0
0
VERTEX
8
0
10
27.51419375
20
36.0978125
30
0
0
VERTEX
8
0
10
27.55785625
20
36.0221875
30
0
0
VERTEX
8
0
10
27.594759375000002
20
35.943046875
30
0
0
VERTEX
8
0
10
27.624625
20
35.86099375
30
0
0
VERTEX
8
0
10
27.647225000000002
20
35.776646875000004
30
0
0
VERTEX
8
0
10
27.662390625
20
35.690650000000005
30
0
0
VERTEX
8
0
10
27.67
20
35.6036625
30
0
0
VERTEX
8
0
10
27.67
20
35.5163375
30
0
0
SEQEND
0
POLYLINE
66
1
8
holes
10
0.0
20
0.0
30
0.0
70
1
0
VERTEX
8
0
10
-30.75
20
35.5163375
30
0
0
VERTEX
8
0
10
-30.757609375
20
35.42935
30
0
0
VERTEX
8
0
10
-30.772775000000003
20
35.343353125
30
0
0
VERTEX
8
0
10
-30.795375
20
35.25900625
30
0
0
VERTEX
8
0
10
-30.825240625000003
20
35.176953125000004
30
0
0
VERTEX
8
0
10
-30.86214375
20
35.0978125
30
0
0
VERTEX
8
0
10
-30.90580625
20
35.0221875
30
0
0
VERTEX
8
0
10
-30.955890625000002
20
34.950659375
30
0
0
VERTEX
8
0
10
-31.012018750000003
20
34.883765625
30
0
0
VERTEX
8
0
10
-31.073765625
20
34.822018750000005
30
0
0
VERTEX
8
0
10
-31.140659375000002
20
34.765890625000004
30
0
0
VERTEX
8
0
10
-31.212187500000002
20
34.71580625
30
0
0
VERTEX
8
0
10
-31.2878125
20
34.672143750000004
30
0
0
VERTEX
8
0
10
-31.366953125000002
20
34.635240625
30
0
0
VERTEX
8
0
10
-31.44900625
20
34.605375
30
0
0
VERTEX
8
0
10
-31.533353125
20
34.582775000000005
30
0
0
VERTEX
8
0
10
-31.61935
20
34.567609375
30
0
0
VERTEX
8
0
10
-31.7063375
20
34.56
30
0
0
VERTEX
8
0
10
-31.7936625
20
34.56
30
0
0
VERTEX
8
0
10
-31.880650000000003
20
34.567609375
30
0
0
VERTEX
8
0
10
-31.966646875000002
20
34.582775000000005
30
0
0
VERTEX
8
0
10
-32.05099375
20
34.605375
30
0
0
VERTEX
8
0
10
-32.133046875
20
34.635240625
30
0
0
VERTEX
8
0
10
-32.2121875
20
34.672143750000004
30
0
0
VERTEX
8
0
10
-32.2878125
20
34.71580625
30
0
0
VERTEX
8
0
10
-32.359340625
20
34.765890625000004
30
0
0
VERTEX
8
0
10
-32.426234375
20
34.822018750000005
30
0
0
VERTEX
8
0
10
-32.487981250000004
20
34.883765625
30
0
0
VERTEX
8
0
10
-32.544109375000005
20
34.950659375
30
0
0
VERTEX
8
0
10
-32.59419375
20
35.0221875
30
0
0
VERTEX
8
0
10
-32.63785625
20
35.0978125
30
0
0
VERTEX
8
0
10
-32.674759375
20
35.176953125000004
30
0
0
VERTEX
8
0
10
-32.704625
20
35.25900625
30
0
0
VERTEX
8
0
10
-32.727225000000004
20
35.343353125
30
0
0
VERTEX
8
0
10
-32.742390625
20
35.42935
30
0
0
VERTEX
8
0
10
-32.75
20
35.5163375
30
0
0
VERTEX
8
0
10
-32.75
20
35.6036625
30
0
0
VERTEX
8
0
10
-32.742390625
20
35.690650000000005
30
0
0
VERTEX
8
0
10
-32.727225000000004
20
35.776646875000004
30
0
0
VERTEX
8
0
10
-32.704625
20
35.86099375
30
0
0
VERTEX
8
0
10
-32.674759375
20
35.943046875
30
0
0
VERTEX
8
0
10
-32.63785625
20
36.0221875
30
0
0
VERTEX
8
0
10
-32.59419375
20
36.0978125
30
0
0
VERTEX
8
0
10
-32.544109375000005
20
36.169340625000004
30
0
0
VERTEX
8
0
10
-32.487981250000004
20
36.236234375
30
0
0
VERTEX
8
0
10
-32.426234375
20
36.29798125
30
0
0
VERTEX
8
0
10
-32.359340625
20
36.354109375
30
0
0
VERTEX
8
0
10
-32.2878125
20
36.404193750000005
30
0
0
VERTEX
8
0
10
-32.2121875
20
36.44785625
30
0
0
VERTEX
8
0
10
-32.133046875
20
36.484759375
30
0
0
VERTEX
8
0
10
-32.05099375
20
36.514625
30
0
0
VERTEX
8
0
10
-31.966646875000002
20
36.537225
30
0
0
VERTEX
8
0
10
-31.880650000000003
20
36.552390625
30
0
0
VERTEX
8
0
10
-31.7936625
20
36.56
30
0
0
VERTEX
8
0
10
-31.7063375
20
36.56
30
0
0
VERTEX
8
0
10
-31.61935
20
36.552390625
30
0
0
VERTEX
8
0
10
-31.533353125
20
36.537225
30
0
0
VERTEX
8
0
10
-31.44900625
20
36.514625
30
0
0
VERTEX
8
0
10
-31.366953125000002
20
36.484759375
30
0
0
VERTEX
8
0
10
-31.2878125
20
36.44785625
30
0
0
VERTEX
8
0
10
-31.212187500000002
20
36.404193750000005
30
0
0
VERTEX
8
0
10
-31.140659375000002
20
36.354109375
30
0
0
VERTEX
8
0
10
-31.073765625
20
36.29798125
30
0
0
VERTEX
8
0
10
-31.012018750000003
20
36.236234375
30
0
0
VERTEX
8
0
10
-30.955890625000002
20
36.169340625000004
30
0
0
VERTEX
8
0
10
-30.90580625
20
36.0978125
30
0
0
VERTEX
8
0
10
-30.86214375
20
36.0221875
30
0
0
VERTEX
8
0
10
-30.825240625000003
20
35.943046875
30
0
0
VERTEX
8
0
10
-30.795375
20
35.86099375
30
0
0
VERTEX
8
0
10
-30.772775000000003
20
35.776646875000004
30
0
0
VERTEX
8
0
10
-30.757609375
20
35.690650000000005
30
0
0
VERTEX
8
0
10
-30.75
20
35.6036625
30
0
0
VERTEX
8
0
10
-30.75
20
35.5163375
30
0
0
SEQEND
0
POLYLINE
66
1
8
holes
10
0.0
20
0.0
30
0.0
70
1
0
VERTEX
8
0
10
-30.75
20
1.2263375
30
0
0
VERTEX
8
0
10
-30.757609375
20
1.13935
30
0
0
VERTEX
8
0
10
-30.772775000000003
20
1.0533531250000001
30
0
0
VERTEX
8
0
10
-30.795375
20
0.9690062500000001
30
0
0
VERTEX
8
0
10
-30.825240625000003
20
0.886953125
30
0
0
VERTEX
8
0
10
-30.86214375
20
0.8078125
30
0
0
VERTEX
8
0
10
-30.90580625
20
0.7321875
30
0
0
VERTEX
8
0
10
-30.955890625000002
20
0.660659375
30
0
0
VERTEX
8
0
10
-31.012018750000003
20
0.5937656250000001
30
0
0
VERTEX
8
0
10
-31.073765625
20
0.53201875
30
0
0
VERTEX
8
0
10
-31.140659375000002
20
0.475890625
30
0
0
VERTEX
8
0
10
-31.212187500000002
20
0.42580625
30
0
0
VERTEX
8
0
10
-31.2878125
20
0.38214375
30
0
0
VERTEX
8
0
10
-31.366953125000002
20
0.345240625
30
0
0
VERTEX
8
0
10
-31.44900625
20
0.315375
30
0
0
VERTEX
8
0
10
-31.533353125
20
0.292775
30
0
0
VERTEX
8
0
10
-31.61935
20
0.277609375
30
0
0
VERTEX
8
0
10
-31.7063375
20
0.27
30
0
0
VERTEX
8
0
10
-31.7936625
20
0.27
30
0
0
VERTEX
8
0
10
-31.880650000000003
20
0.277609375
30
0
0
VERTEX
8
0
10
-31.966646875000002
20
0.292775
30
0
0
VERTEX
8
0
10
-32.05099375
20
0.315375
30
0
0
VERTEX
8
0
10
-32.133046875
20
0.345240625
30
0
0
VERTEX
8
0
10
-32.2121875
20
0.38214375
30
0
0
VERTEX
8
0
10
-32.2878125
20
0.42580625
30
0
0
VERTEX
8
0
10
-32.359340625
20
0.475890625
30
0
0
VERTEX
8
0
10
-32.426234375
20
0.53201875
30
0
0
VERTEX
8
0
10
-32.487981250000004
20
0.5937656250000001
30
0
0
VERTEX
8
0
10
-32.544109375000005
20
0.660659375
30
0
0
VERTEX
8
0
10
-32.59419375
20
0.7321875
30
0
0
VERTEX
8
0
10
-32.63785625
20
0.8078125
30
0
0
VERTEX
8
0
10
-32.674759375
20
0.886953125
30
0
0
VERTEX
8
0
10
-32.704625
20
0.9690062500000001
30
0
0
VERTEX
8
0
10
-32.727225000000004
20
1.0533531250000001
30
0
0
VERTEX
8
0
10
-32.742390625
20
1.13935
30
0
0
VERTEX
8
0
10
-32.75
20
1.2263375
30
0
0
VERTEX
8
0
10
-32.75
20
1.3136625
30
0
0
VERTEX
8
0
10
-32.742390625
20
1.4006500000000002
30
0
0
VERTEX
8
0
10
-32.727225000000004
20
1.4866468750000001
30
0
0
VERTEX
8
0
10
-32.704625
20
1.57099375
30
0
0
VERTEX
8
0
10
-32.674759375
20
1.653046875
30
0
0
VERTEX
8
0
10
-32.63785625
20
1.7321875
30
0
0
VERTEX
8
0
10
-32.59419375
20
1.8078125
30
0
0
VERTEX
8
0
10
-32.544109375000005
20
1.879340625
30
0
0
VERTEX
8
0
10
-32.487981250000004
20
1.9462343750000002
30
0
0
VERTEX
8
0
10
-32.426234375
20
2.0079812500000003
30
0
0
VERTEX
8
0
10
-32.359340625
20
2.064109375
30
0
0
VERTEX
8
0
10
-32.2878125
20
2.11419375
30
0
0
VERTEX
8
0
10
-32.2121875
20
2.15785625
30
0
0
VERTEX
8
0
10
-32.133046875
20
2.1947593750000003
30
0
0
VERTEX
8
0
10
-32.05099375
20
2.224625
30
0
0
VERTEX
8
0
10
-31.966646875000002
20
2.2472250000000003
30
0
0
VERTEX
8
0
10
-31.880650000000003
20
2.262390625
30
0
0
VERTEX
8
0
10
-31.7936625
20
2.27
30
0
0
VERTEX
8
0
10
-31.7063375
20
2.27
30
0
0
VERTEX
8
0
10
-31.61935
20
2.262390625
30
0
0
VERTEX
8
0
10
-31.533353125
20
2.2472250000000003
30
0
0
VERTEX
8
0
10
-31.44900625
20
2.224625
30
0
0
VERTEX
8
0
10
-31.366953125000002
20
2.1947593750000003
30
0
0
VERTEX
8
0
10
-31.2878125
20
2.15785625
30
0
0
VERTEX
8
0
10
-31.212187500000002
20
2.11419375
30
0
0
VERTEX
8
0
10
-31.140659375000002
20
2.064109375
30
0
0
VERTEX
8
0
10
-31.073765625
20
2.0079812500000003
30
0
0
VERTEX
8
0
10
-31.012018750000003
20
1.9462343750000002
30
0
0
VERTEX
8
0
10
-30.955890625000002
20
1.879340625
30
0
0
VERTEX
8
0
10
-30.90580625
20
1.8078125
30
0
0
VERTEX
8
0
10
-30.86214375
20
1.7321875
30
0
0
VERTEX
8
0
10
-30.825240625000003
20
1.653046875
30
0
0
VERTEX
8
0
10
-30.795375
20
1.57099375
30
0
0
VERTEX
8
0
10
-30.772775000000003
20
1.4866468750000001
30
0
0
VERTEX
8
0
10
-30.757609375
20
1.4006500000000002
30
0
0
VERTEX
8
0
10
-30.75
20
1.3136625
30
0
0
VERTEX
8
0
10
-30.75
20
1.2263375
30
0
0
SEQEND
0
POLYLINE
66
1
8
holes
10
0.0
20
0.0
30
0.0
70
1
0
VERTEX
8
0
10
27.67
20
1.2263375
30
0
0
VERTEX
8
0
10
27.662390625
20
1.13935
30
0
0
VERTEX
8
0
10
27.647225000000002
20
1.0533531250000001
30
0
0
VERTEX
8
0
10
27.624625
20
0.9690062500000001
30
0
0
VERTEX
8
0
10
27.594759375000002
20
0.886953125
30
0
0
VERTEX
8
0
10
27.55785625
20
0.8078125
30
0
0
VERTEX
8
0
10
27.51419375
20
0.7321875
30
0
0
VERTEX
8
0
10
27.464109375
20
0.660659375
30
0
0
VERTEX
8
0
10
27.407981250000002
20
0.5937656250000001
30
0
0
VERTEX
8
0
10
27.346234375
20
0.53201875
30
0
0
VERTEX
8
0
10
27.279340625
20
0.475890625
30
0
0
VERTEX
8
0
10
27.207812500000003
20
0.42580625
30
0
0
VERTEX
8
0
10
27.1321875
20
0.38214375
30
0
0
VERTEX
8
0
10
27.053046875
20
0.345240625
30
0
0
VERTEX
8
0
10
26.97099375
20
0.315375
30
0
0
VERTEX
8
0
10
26.886646875
20
0.292775
30
0
0
VERTEX
8
0
10
26.80065
20
0.277609375
30
0
0
VERTEX
8
0
10
26.7136625
20
0.27
30
0
0
VERTEX
8
0
10
26.6263375
20
0.27
30
0
0
VERTEX
8
0
10
26.539350000000002
20
0.277609375
30
0
0
VERTEX
8
0
10
26.453353125
20
0.292775
30
0
0
VERTEX
8
0
10
26.36900625
20
0.315375
30
0
0
VERTEX
8
0
10
26.286953125
20
0.345240625
30
0
0
VERTEX
8
0
10
26.207812500000003
20
0.38214375
30
0
0
VERTEX
8
0
10
26.1321875
20
0.42580625
30
0
0
VERTEX
8
0
10
26.060659375
20
0.475890625
30
0
0
VERTEX
8
0
10
25.993765625
20
0.53201875
30
0
0
VERTEX
8
0
10
25.93201875
20
0.5937656250000001
30
0
0
VERTEX
8
0
10
25.875890625
20
0.660659375
30
0
0
VERTEX
8
0
10
25.825806250000003
20
0.7321875
30
0
0
VERTEX
8
0
10
25.78214375
20
0.8078125
30
0
0
VERTEX
8
0
10
25.745240625
20
0.886953125
30
0
0
VERTEX
8
0
10
25.715375
20
0.9690062500000001
30
0
0
VERTEX
8
0
10
25.692775
20
1.0533531250000001
30
0
0
VERTEX
8
0
10
25.677609375000003
20
1.13935
30
0
0
VERTEX
8
0
10
25.67
20
1.2263375
30
0
0
VERTEX
8
0
10
25.67
20
1.3136625
30
0
0
VERTEX
8
0
10
25.677609375000003
20
1.4006500000000002
30
0
0
VERTEX
8
0
10
25.692775
20
1.4866468750000001
30
0
0
VERTEX
8
0
10
25.715375
20
1.57099375
30
0
0
VERTEX
8
0
10
25.745240625
20
1.653046875
30
0
0
VERTEX
8
0
10
25.78214375
20
1.7321875
30
0
0
VERTEX
8
0
10
25.825806250000003
20
1.8078125
30
0
0
VERTEX
8
0
10
25.875890625
20
1.879340625
30
0
0
VERTEX
8
0
10
25.93201875
20
1.9462343750000002
30
0
0
VERTEX
8
0
10
25.993765625
20
2.0079812500000003
30
0
0
VERTEX
8
0
10
26.060659375
20
2.064109375
30
0
0
VERTEX
8
0
10
26.1321875
20
2.11419375
30
0
0
VERTEX
8
0
10
26.207812500000003
20
2.15785625
30
0
0
VERTEX
8
0
10
26.286953125
20
2.1947593750000003
30
0
0
VERTEX
8
0
10
26.36900625
20
2.224625
30
0
0
VERTEX
8
0
10
26.453353125
20
2.2472250000000003
30
0
0
VERTEX
8
0
10
26.539350000000002
20
2.262390625
30
0
0
VERTEX
8
0
10
26.6263375
20
2.27
30
0
0
VERTEX
8
0
10
26.7136625
20
2.27
30
0
0
VERTEX
8
0
10
26.80065
20
2.262390625
30
0
0
VERTEX
8
0
10
26.886646875
20
2.2472250000000003
30
0
0
VERTEX
8
0
10
26.97099375
20
2.224625
30
0
0
VERTEX
8
0
10
27.053046875
20
2.1947593750000003
30
0
0
VERTEX
8
0
10
27.1321875
20
2.15785625
30
0
0
VERTEX
8
0
10
27.207812500000003
20
2.11419375
30
0
0
VERTEX
8
0
10
27.279340625
20
2.064109375
30
0
0
VERTEX
8
0
10
27.346234375
20
2.0079812500000003
30
0
0
VERTEX
8
0
10
27.407981250000002
20
1.9462343750000002
30
0
0
VERTEX
8
0
10
27.464109375
20
1.879340625
30
0
0
VERTEX
8
0
10
27.51419375
20
1.8078125
30
0
0
VERTEX
8
0
10
27.55785625
20
1.7321875
30
0
0
VERTEX
8
0
10
27.594759375000002
20
1.653046875
30
0
0
VERTEX
8
0
10
27.624625
20
1.57099375
30
0
0
VERTEX
8
0
10
27.647225000000002
20
1.4866468750000001
30
0
0
VERTEX
8
0
10
27.662390625
20
1.4006500000000002
30
0
0
VERTEX
8
0
10
27.67
20
1.3136625
30
0
0
VERTEX
8
0
10
27.67
20
1.2263375
30
0
0
SEQEND
0
POLYLINE
66
1
8
16_copper
10
0.0
20
0.0
30
0.0
70
1
0
VERTEX
8
0
10
-26.13274375
20
5.432490625000001
30
0
42
0.8660508493283852
0
VERTEX
8
0
10
-26.1112
20
5.2832
30
0
0
VERTEX
8
0
10
-15.5509625
20
5.2832
30
0
0
VERTEX
8
0
10
-15.29388125
20
5.02611875
30
0
42
0.9999999999999999
0
VERTEX
8
0
10
-15.18611875
20
5.13388125
30
0
0
VERTEX
8
0
10
-15.465518750000001
20
5.41328125
30
0
42
0.198912367379658
0
VERTEX
8
0
10
-15.519400000000001
20
5.4356
30
0
0
VERTEX
8
0
10
-26.1112
20
5.4356
30
0
0
SEQEND
0
POLYLINE
66
1
8
1_copper
10
0.0
20
0.0
30
0.0
70
1
0
VERTEX
8
0
10
1.3670187500000002
20
17.735559375
30
0
42
0.3578051432831595
0
VERTEX
8
0
10
1.9304000000000001
20
18.35715625
30
0
0
VERTEX
8
0
10
1.9304000000000001
20
19.742843750000002
30
0
42
0.9520786018124834
0
VERTEX
8
0
10
0.6096
20
19.742843750000002
30
0
0
VERTEX
8
0
10
0.6096
20
18.35715625
30
0
0
VERTEX
8
0
10
0.615959375
20
18.29258125
30
0
0
VERTEX
8
0
10
0.62861875
20
18.22894375
30
0
0
VERTEX
8
0
10
0.6474531250000001
20
18.16685
30
0
0
VERTEX
8
0
10
0.672284375
20
18.106903125000002
30
0
0
VERTEX
8
0
10
0.702871875
20
18.049678125
30
0
0
VERTEX
8
0
10
0.7389218750000001
20
17.995725
30
0
0
VERTEX
8
0
10
0.780084375
20
17.94556875
30
0
0
VERTEX
8
0
10
0.82596875
20
17.899684375
30
0
0
VERTEX
8
0
10
0.876125
20
17.858521875
30
0
0
VERTEX
8
0
10
0.9300781250000001
20
17.822471875
30
0
0
VERTEX
8
0
10
0.9873031250000001
20
17.791884375000002
30
0
0
VERTEX
8
0
10
1.04725
20
17.767053125
30
0
0
VERTEX
8
0
10
1.10934375
20
17.74821875
30
0
0
VERTEX
8
0
10
1.17298125
20
17.735559375
30
0
0
VERTEX
8
0
10
1.2375562500000001
20
17.729200000000002
30
0
0
VERTEX
8
0
10
1.3024437500000001
20
17.729200000000002
30
0
0
SEQEND
0
POLYLINE
66
1
8
1_copper
10
0.0
20
0.0
30
0.0
70
1
0
VERTEX
8
0
10
1.9304000000000001
20
-9.16354375
30
0
0
VERTEX
8
0
10
1.9304000000000001
20
-8.61645625
30
0
0
VERTEX
8
0
10
1.54354375
20
-8.2296
30
0
0
VERTEX
8
0
10
0.99645625
20
-8.2296
30
0
0
VERTEX
8
0
10
0.6096
20
-8.61645625
30
0
0
VERTEX
8
0
10
0.6096
20
-9.16354375
30
0
0
VERTEX
8
0
10
0.99645625
20
-9.5504
30
0
0
VERTEX
8
0
10
1.54354375
20
-9.5504
30
0
0
SEQEND
0
POLYLINE
66
1
8
1_copper
10
0.0
20
0.0
30
0.0
70
1
0
VERTEX
8
0
10
7.010400000000001
20
-15.51354375
30
0
0
VERTEX
8
0
10
7.010400000000001
20
-14.96645625
30
0
0
VERTEX
8
0
10
6.6235437500000005
20
-14.579600000000001
30
0
0
VERTEX
8
0
10
6.076456250000001
20
-14.579600000000001
30
0
0
VERTEX
8
0
10
5.6896
20
-14.96645625
30
0
0
VERTEX
8
0
10
5.6896
20
-15.51354375
30
0
0
VERTEX
8
0
10
6.076456250000001
20
-15.900400000000001
30
0
0
VERTEX
8
0
10
6.6235437500000005
20
-15.900400000000001
30
0
0
SEQEND
0
POLYLINE
66
1
8
1_copper
10
0.0
20
0.0
30
0.0
70
1
0
VERTEX
8
0
10
12.0904
20
-15.51354375
30
0
0
VERTEX
8
0
10
12.0904
20
-14.96645625
30
0
0
VERTEX
8
0
10
11.70354375
20
-14.579600000000001
30
0
0
VERTEX
8
0
10
11.15645625
20
-14.579600000000001
30
0
0
VERTEX
8
0
10
10.7696
20
-14.96645625
30
0
0
VERTEX
8
0
10
10.7696
20
-15.51354375
30
0
0
VERTEX
8
0
10
11.15645625
20
-15.900400000000001
30
0
0
VERTEX
8
0
10
11.70354375
20
-15.900400000000001
30
0
0
SEQEND
0
POLYLINE
66
1
8
1_copper
10
0.0
20
0.0
30
0.0
70
1
0
VERTEX
8
0
10
-0.6096
20
-16.78354375
30
0
0
VERTEX
8
0
10
-0.6096
20
-16.23645625
30
0
0
VERTEX
8
0
10
-0.99645625
20
-15.8496
30
0
0
VERTEX
8
0
10
-1.54354375
20
-15.8496
30
0
0
VERTEX
8
0
10
-1.9304000000000001
20
-16.23645625
30
0
0
VERTEX
8
0
10
-1.9304000000000001
20
-16.78354375
30
0
0
VERTEX
8
0
10
-1.54354375
20
-17.1704
30
0
0
VERTEX
8
0
10
-0.99645625
20
-17.1704
30
0
0
SEQEND
0
POLYLINE
66
1
8
1_copper
10
0.0
20
0.0
30
0.0
70
1
0
VERTEX
8
0
10
-8.01605625
20
-26.1546625
30
0
42
0.9063472543261978
0
VERTEX
8
0
10
-8.090565625
20
-24.638
30
0
0
VERTEX
8
0
10
-9.689434375000001
20
-24.638
30
0
42
0.9520795017710562
0
VERTEX
8
0
10
-9.689434375000001
20
-26.162000000000003
30
0
0
VERTEX
8
0
10
-8.090565625
20
-26.162000000000003
30
0
0
SEQEND
0
POLYLINE
66
1
8
1_copper
10
0.0
20
0.0
30
0.0
70
1
0
VERTEX
8
0
10
-23.37258125
20
-26.054040625000003
30
0
42
0.9063462356499619
0
VERTEX
8
0
10
-23.43715625
20
-24.739600000000003
30
0
0
VERTEX
8
0
10
-24.82284375
20
-24.739600000000003
30
0
42
0.9520786018124834
0
VERTEX
8
0
10
-24.82284375
20
-26.0604
30
0
0
VERTEX
8
0
10
-23.43715625
20
-26.0604
30
0
0
SEQEND
0
POLYLINE
66
1
8
16_copper
10
0.0
20
0.0
30
0.0
70
1
0
VERTEX
8
0
10
7.010400000000001
20
-14.96645625
30
0
0
VERTEX
8
0
10
6.6235437500000005
20
-14.579600000000001
30
0
0
VERTEX
8
0
10
6.076456250000001
20
-14.579600000000001
30
0
0
VERTEX
8
0
10
5.6896
20
-14.96645625
30
0
0
VERTEX
8
0
10
5.6896
20
-15.51354375
30
0
0
VERTEX
8
0
10
6.076456250000001
20
-15.900400000000001
30
0
0
VERTEX
8
0
10
6.6235437500000005
20
-15.900400000000001
30
0
0
VERTEX
8
0
10
7.010400000000001
20
-15.51354375
30
0
0
VERTEX
8
0
10
7.010400000000001
20
-15.3162
30
0
0
VERTEX
8
0
10
8.8138
20
-15.3162
30
0
0
VERTEX
8
0
10
8.8138
20
-17.7038
30
0
0
VERTEX
8
0
10
2.6162
20
-17.7038
30
0
0
VERTEX
8
0
10
2.6162
20
8.89
30
0
42
0.41421356237309503
0
VERTEX
8
0
10
2.54
20
8.9662
30
0
0
VERTEX
8
0
10
0.0762
20
8.9662
30
0
0
VERTEX
8
0
10
0.0762
20
12.668437500000001
30
0
0
VERTEX
8
0
10
1.3238812500000001
20
13.91611875
30
0
42
0.198912367379658
0
VERTEX
8
0
10
1.3462
20
13.97
30
0
0
VERTEX
8
0
10
1.3462
20
17.733509375
30
0
42
0.36675309512609283
0
VERTEX
8
0
10
1.9304000000000001
20
18.35715625
30
0
0
VERTEX
8
0
10
1.9304000000000001
20
19.742843750000002
30
0
42
0.9520786018124834
0
VERTEX
8
0
10
0.6096
20
19.742843750000002
30
0
0
VERTEX
8
0
10
0.6096
20
18.35715625
30
0
42
0.36675309512609283
0
VERTEX
8
0
10
1.1938
20
17.733509375
30
0
0
VERTEX
8
0
10
1.1938
20
14.0015625
30
0
0
VERTEX
8
0
10
-0.053881250000000006
20
12.753881250000001
30
0
42
0.198912367379658
0
VERTEX
8
0
10
-0.0762
20
12.700000000000001
30
0
0
VERTEX
8
0
10
-0.0762
20
10.1915625
30
0
0
VERTEX
8
0
10
-0.31096250000000003
20
9.956800000000001
30
0
0
VERTEX
8
0
10
-26.1112
20
9.956800000000001
30
0
42
0.8710665068920351
0
VERTEX
8
0
10
-26.13190625
20
9.80726875
30
0
0
VERTEX
8
0
10
-26.1112
20
9.804400000000001
30
0
0
VERTEX
8
0
10
-0.27940000000000004
20
9.804400000000001
30
0
42
0.198912367379658
0
VERTEX
8
0
10
-0.22551875000000002
20
9.826718750000001
30
0
0
VERTEX
8
0
10
-0.0762
20
9.9760375
30
0
0
VERTEX
8
0
10
-0.0762
20
8.89
30
0
42
0.41421356237309503
0
VERTEX
8
0
10
0
20
8.8138
30
0
0
VERTEX
8
0
10
2.4638
20
8.8138
30
0
0
VERTEX
8
0
10
2.4638
20
-8.8138
30
0
0
VERTEX
8
0
10
1.9304000000000001
20
-8.8138
30
0
0
VERTEX
8
0
10
1.9304000000000001
20
-8.61645625
30
0
0
VERTEX
8
0
10
1.54354375
20
-8.2296
30
0
0
VERTEX
8
0
10
0.99645625
20
-8.2296
30
0
0
VERTEX
8
0
10
0.6096
20
-8.61645625
30
0
0
VERTEX
8
0
10
0.6096
20
-9.16354375
30
0
0
VERTEX
8
0
10
0.99645625
20
-9.5504
30
0
0
VERTEX
8
0
10
1.54354375
20
-9.5504
30
0
0
VERTEX
8
0
10
1.9304000000000001
20
-9.16354375
30
0
0
VERTEX
8
0
10
1.9304000000000001
20
-8.9662
30
0
0
VERTEX
8
0
10
2.4638
20
-8.9662
30
0
0
VERTEX
8
0
10
2.4638
20
-16.4338
30
0
0
VERTEX
8
0
10
-0.6096
20
-16.4338
30
0
0
VERTEX
8
0
10
-0.6096
20
-16.23645625
30
0
0
VERTEX
8
0
10
-0.99645625
20
-15.8496
30
0
0
VERTEX
8
0
10
-1.54354375
20
-15.8496
30
0
0
VERTEX
8
0
10
-1.9304000000000001
20
-16.23645625
30
0
0
VERTEX
8
0
10
-1.9304000000000001
20
-16.78354375
30
0
0
VERTEX
8
0
10
-1.54354375
20
-17.1704
30
0
0
VERTEX
8
0
10
-0.99645625
20
-17.1704
30
0
0
VERTEX
8
0
10
-0.6096
20
-16.78354375
30
0
0
VERTEX
8
0
10
-0.6096
20
-16.5862
30
0
0
VERTEX
8
0
10
2.4638
20
-16.5862
30
0
0
VERTEX
8
0
10
2.4638
20
-25.323800000000002
30
0
0
VERTEX
8
0
10
-7.36981875
20
-25.323800000000002
30
0
42
0.3711436710623373
0
VERTEX
8
0
10
-8.090565625
20
-24.638
30
0
0
VERTEX
8
0
10
-9.689434375000001
20
-24.638
30
0
42
0.3711436710623373
0
VERTEX
8
0
10
-10.41018125
20
-25.323800000000002
30
0
0
VERTEX
8
0
10
-22.813509375000002
20
-25.323800000000002
30
0
42
0.36675309512609283
0
VERTEX
8
0
10
-23.43715625
20
-24.739600000000003
30
0
0
VERTEX
8
0
10
-24.82284375
20
-24.739600000000003
30
0
42
0.9520786018124834
0
VERTEX
8
0
10
-24.82284375
20
-26.0604
30
0
0
VERTEX
8
0
10
-23.43715625
20
-26.0604
30
0
42
0.36675309512609283
0
VERTEX
8
0
10
-22.813509375000002
20
-25.476200000000002
30
0
0
VERTEX
8
0
10
-10.41018125
20
-25.476200000000002
30
0
42
0.3711436710623373
0
VERTEX
8
0
10
-9.689434375000001
20
-26.162000000000003
30
0
0
VERTEX
8
0
10
-8.090565625
20
-26.162000000000003
30
0
42
0.3711436710623373
0
VERTEX
8
0
10
-7.36981875
20
-25.476200000000002
30
0
0
VERTEX
8
0
10
2.54
20
-25.476200000000002
30
0
42
0.41421356237309503
0
VERTEX
8
0
10
2.6162
20
-25.400000000000002
30
0
0
VERTEX
8
0
10
2.6162
20
-17.8562
30
0
0
VERTEX
8
0
10
8.89
20
-17.8562
30
0
42
0.41421356237309503
0
VERTEX
8
0
10
8.9662
20
-17.78
30
0
0
VERTEX
8
0
10
8.9662
20
-15.3162
30
0
0
VERTEX
8
0
10
10.7696
20
-15.3162
30
0
0
VERTEX
8
0
10
10.7696
20
-15.51354375
30
0
0
VERTEX
8
0
10
11.15645625
20
-15.900400000000001
30
0
0
VERTEX
8
0
10
11.70354375
20
-15.900400000000001
30
0
0
VERTEX
8
0
10
12.0904
20
-15.51354375
30
0
0
VERTEX
8
0
10
12.0904
20
-14.96645625
30
0
0
VERTEX
8
0
10
11.70354375
20
-14.579600000000001
30
0
0
VERTEX
8
0
10
11.15645625
20
-14.579600000000001
30
0
0
VERTEX
8
0
10
10.7696
20
-14.96645625
30
0
0
VERTEX
8
0
10
10.7696
20
-15.1638
30
0
0
VERTEX
8
0
10
7.010400000000001
20
-15.1638
30
0
0
SEQEND
0
POLYLINE
66
1
8
1_copper
10
0.0
20
0.0
30
0.0
70
1
0
VERTEX
8
0
10
0.07394062500000001
20
-6.721728125
30
0
42
0.818105841543916
0
VERTEX
8
0
10
0.0762
20
-5.9788781250000005
30
0
0
VERTEX
8
0
10
0.0762
20
-5.08
30
0
42
0.41421356237309503
0
VERTEX
8
0
10
0
20
-5.0038
30
0
0
VERTEX
8
0
10
-0.12000000000000001
20
-5.0038
30
0
0
VERTEX
8
0
10
-0.12000000000000001
20
-4.680000000000001
30
0
0
VERTEX
8
0
10
-0.92
20
-4.680000000000001
30
0
0
VERTEX
8
0
10
-0.92
20
-5.48
30
0
0
VERTEX
8
0
10
-0.12000000000000001
20
-5.48
30
0
0
VERTEX
8
0
10
-0.12000000000000001
20
-5.1562
30
0
0
VERTEX
8
0
10
-0.0762
20
-5.1562
30
0
0
VERTEX
8
0
10
-0.0762
20
-5.9788781250000005
30
0
0
VERTEX
8
0
10
-0.12182812500000001
20
-5.991103125
30
0
0
VERTEX
8
0
10
-0.16763125
20
-6.0100750000000005
30
0
0
VERTEX
8
0
10
-0.21056875
20
-6.0348625
30
0
0
VERTEX
8
0
10
-0.2499
20
-6.06504375
30
0
0
VERTEX
8
0
10
-0.28495625
20
-6.1001
30
0
0
VERTEX
8
0
10
-0.3151375
20
-6.13943125
30
0
0
VERTEX
8
0
10
-0.33992500000000003
20
-6.18236875
30
0
0
VERTEX
8
0
10
-0.358896875
20
-6.228171875
30
0
0
VERTEX
8
0
10
-0.371728125
20
-6.276059375
30
0
0
VERTEX
8
0
10
-0.37820000000000004
20
-6.3252125
30
0
0
VERTEX
8
0
10
-0.37820000000000004
20
-6.3747875
30
0
0
VERTEX
8
0
10
-0.371728125
20
-6.423940625
30
0
0
VERTEX
8
0
10
-0.358896875
20
-6.471828125
30
0
0
VERTEX
8
0
10
-0.33992500000000003
20
-6.51763125
30
0
0
VERTEX
8
0
10
-0.3151375
20
-6.560568750000001
30
0
0
VERTEX
8
0
10
-0.28495625
20
-6.5999
30
0
0
VERTEX
8
0
10
-0.2499
20
-6.63495625
30
0
0
VERTEX
8
0
10
-0.21056875
20
-6.6651375
30
0
0
VERTEX
8
0
10
-0.16763125
20
-6.689925000000001
30
0
0
VERTEX
8
0
10
-0.12182812500000001
20
-6.708896875000001
30
0
0
VERTEX
8
0
10
-0.07394062500000001
20
-6.721728125
30
0
0
VERTEX
8
0
10
-0.0247875
20
-6.7282
30
0
0
VERTEX
8
0
10
0.0247875
20
-6.7282
30
0
0
SEQEND
0
POLYLINE
66
1
8
1_copper
10
0.0
20
0.0
30
0.0
70
1
0
VERTEX
8
0
10
-5.6896
20
-9.16354375
30
0
0
VERTEX
8
0
10
-5.6896
20
-8.61645625
30
0
0
VERTEX
8
0
10
-6.076456250000001
20
-8.2296
30
0
0
VERTEX
8
0
10
-6.6235437500000005
20
-8.2296
30
0
0
VERTEX
8
0
10
-7.010400000000001
20
-8.61645625
30
0
0
VERTEX
8
0
10
-7.010400000000001
20
-9.16354375
30
0
0
VERTEX
8
0
10
-6.6235437500000005
20
-9.5504
30
0
0
VERTEX
8
0
10
-6.076456250000001
20
-9.5504
30
0
0
SEQEND
0
POLYLINE
66
1
8
16_copper
10
0.0
20
0.0
30
0.0
70
1
0
VERTEX
8
0
10
-5.6896
20
-9.16354375
30
0
0
VERTEX
8
0
10
-5.6896
20
-8.61645625
30
0
0
VERTEX
8
0
10
-6.076456250000001
20
-8.2296
30
0
0
VERTEX
8
0
10
-6.2738000000000005
20
-8.2296
30
0
0
VERTEX
8
0
10
-6.2738000000000005
20
-7.6962
30
0
0
VERTEX
8
0
10
0
20
-7.6962
30
0
42
0.41421356237309503
0
VERTEX
8
0
10
0.0762
20
-7.62
30
0
0
VERTEX
8
0
10
0.0762
20
-6.721121875000001
30
0
42
0.9969241442347151
0
VERTEX
8
0
10
-0.07394062500000001
20
-5.978271875
30
0
0
VERTEX
8
0
10
-0.12182812500000001
20
-5.991103125
30
0
42
0.7648843201253167
0
VERTEX
8
0
10
-0.0762
20
-6.721121875000001
30
0
0
VERTEX
8
0
10
-0.0762
20
-7.5438
30
0
0
VERTEX
8
0
10
-6.3500000000000005
20
-7.5438
30
0
42
0.41421356237309503
0
VERTEX
8
0
10
-6.426200000000001
20
-7.62
30
0
0
VERTEX
8
0
10
-6.426200000000001
20
-8.2296
30
0
0
VERTEX
8
0
10
-6.6235437500000005
20
-8.2296
30
0
0
VERTEX
8
0
10
-7.010400000000001
20
-8.61645625
30
0
0
VERTEX
8
0
10
-7.010400000000001
20
-9.16354375
30
0
0
VERTEX
8
0
10
-6.6235437500000005
20
-9.5504
30
0
0
VERTEX
8
0
10
-6.076456250000001
20
-9.5504
30
0
0
SEQEND
0
POLYLINE
66
1
8
1_copper
10
0.0
20
0.0
30
0.0
70
1
0
VERTEX
8
0
10
-1.62
20
-4.7877625
30
0
0
VERTEX
8
0
10
-1.2161187500000001
20
-4.38388125
30
0
42
0.198912367379658
0
VERTEX
8
0
10
-1.1938
20
-4.33
30
0
0
VERTEX
8
0
10
-1.1938
20
-4.1811218750000005
30
0
42
0.9969241442347151
0
VERTEX
8
0
10
-1.343940625
20
-3.4382718750000003
30
0
0
VERTEX
8
0
10
-1.391828125
20
-3.4511031250000004
30
0
42
0.7648843201253167
0
VERTEX
8
0
10
-1.3462
20
-4.1811218750000005
30
0
0
VERTEX
8
0
10
-1.3462
20
-4.2984375
30
0
0
VERTEX
8
0
10
-1.7277625
20
-4.680000000000001
30
0
0
VERTEX
8
0
10
-2.42
20
-4.680000000000001
30
0
0
VERTEX
8
0
10
-2.42
20
-5.48
30
0
0
VERTEX
8
0
10
-1.62
20
-5.48
30
0
0
SEQEND
0
POLYLINE
66
1
8
1_copper
10
0.0
20
0.0
30
0.0
70
1
0
VERTEX
8
0
10
-3.1496
20
-16.78354375
30
0
0
VERTEX
8
0
10
-3.1496
20
-16.23645625
30
0
0
VERTEX
8
0
10
-3.53645625
20
-15.8496
30
0
0
VERTEX
8
0
10
-4.0835437500000005
20
-15.8496
30
0
0
VERTEX
8
0
10
-4.470400000000001
20
-16.23645625
30
0
0
VERTEX
8
0
10
-4.470400000000001
20
-16.78354375
30
0
0
VERTEX
8
0
10
-4.0835437500000005
20
-17.1704
30
0
0
VERTEX
8
0
10
-3.53645625
20
-17.1704
30
0
0
SEQEND
0
POLYLINE
66
1
8
1_copper
10
0.0
20
0.0
30
0.0
70
1
0
VERTEX
8
0
10
-8.01605625
20
-23.6146625
30
0
42
0.9063472543261978
0
VERTEX
8
0
10
-8.090565625
20
-22.098000000000003
30
0
0
VERTEX
8
0
10
-9.689434375000001
20
-22.098000000000003
30
0
42
0.9520795017710562
0
VERTEX
8
0
10
-9.689434375000001
20
-23.622
30
0
0
VERTEX
8
0
10
-8.090565625
20
-23.622
30
0
0
SEQEND
0
POLYLINE
66
1
8
16_copper
10
0.0
20
0.0
30
0.0
70
1
0
VERTEX
8
0
10
-8.01605625
20
-23.6146625
30
0
42
0.34346555443307536
0
VERTEX
8
0
10
-7.36981875
20
-22.9362
30
0
0
VERTEX
8
0
10
-3.81
20
-22.9362
30
0
42
0.41421356237309503
0
VERTEX
8
0
10
-3.7338
20
-22.86
30
0
0
VERTEX
8
0
10
-3.7338
20
-17.1704
30
0
0
VERTEX
8
0
10
-3.53645625
20
-17.1704
30
0
0
VERTEX
8
0
10
-3.1496
20
-16.78354375
30
0
0
VERTEX
8
0
10
-3.1496
20
-16.23645625
30
0
0
VERTEX
8
0
10
-3.53645625
20
-15.8496
30
0
0
VERTEX
8
0
10
-4.0835437500000005
20
-15.8496
30
0
0
VERTEX
8
0
10
-4.470400000000001
20
-16.23645625
30
0
0
VERTEX
8
0
10
-4.470400000000001
20
-16.4338
30
0
0
VERTEX
8
0
10
-7.5438
20
-16.4338
30
0
0
VERTEX
8
0
10
-7.5438
20
-3.8862
30
0
0
VERTEX
8
0
10
-1.641121875
20
-3.8862
30
0
42
0.8155378645187369
0
VERTEX
8
0
10
-0.8988781250000001
20
-3.8862
30
0
0
VERTEX
8
0
10
0
20
-3.8862
30
0
42
0.41421356237309503
0
VERTEX
8
0
10
0.0762
20
-3.81
30
0
0
VERTEX
8
0
10
0.0762
20
5.08
30
0
42
0.9999999999999999
0
VERTEX
8
0
10
-0.0762
20
5.08
30
0
0
VERTEX
8
0
10
-0.0762
20
-3.7338
30
0
0
VERTEX
8
0
10
-0.8988781250000001
20
-3.7338
30
0
42
0.8155378645187369
0
VERTEX
8
0
10
-1.641121875
20
-3.7338
30
0
0
VERTEX
8
0
10
-7.62
20
-3.7338
30
0
42
0.41421356237309503
0
VERTEX
8
0
10
-7.6962
20
-3.81
30
0
0
VERTEX
8
0
10
-7.6962
20
-16.51
30
0
42
0.41421356237309503
0
VERTEX
8
0
10
-7.62
20
-16.5862
30
0
0
VERTEX
8
0
10
-4.470400000000001
20
-16.5862
30
0
0
VERTEX
8
0
10
-4.470400000000001
20
-16.78354375
30
0
0
VERTEX
8
0
10
-4.0835437500000005
20
-17.1704
30
0
0
VERTEX
8
0
10
-3.8862
20
-17.1704
30
0
0
VERTEX
8
0
10
-3.8862
20
-22.7838
30
0
0
VERTEX
8
0
10
-7.36981875
20
-22.7838
30
0
42
0.3711436710623373
0
VERTEX
8
0
10
-8.090565625
20
-22.098000000000003
30
0
0
VERTEX
8
0
10
-9.689434375000001
20
-22.098000000000003
30
0
42
0.9520795017710562
0
VERTEX
8
0
10
-9.689434375000001
20
-23.622
30
0
0
VERTEX
8
0
10
-8.090565625
20
-23.622
30
0
0
SEQEND
0
POLYLINE
66
1
8
1_copper
10
0.0
20
0.0
30
0.0
70
1
0
VERTEX
8
0
10
6.4437500000000005
20
-8.730571875
30
0
42
0.3499151837576505
0
VERTEX
8
0
10
6.9088
20
-8.21018125
30
0
0
VERTEX
8
0
10
6.9088
20
-7.0298187500000004
30
0
42
0.9454173495962603
0
VERTEX
8
0
10
5.7912
20
-7.0298187500000004
30
0
0
VERTEX
8
0
10
5.7912
20
-8.21018125
30
0
0
VERTEX
8
0
10
5.7982281250000005
20
-8.27255
30
0
0
VERTEX
8
0
10
5.8121937500000005
20
-8.333740625
30
0
0
VERTEX
8
0
10
5.832921875
20
-8.39298125
30
0
0
VERTEX
8
0
10
5.860153125
20
-8.449528125
30
0
0
VERTEX
8
0
10
5.893546875
20
-8.502671875
30
0
0
VERTEX
8
0
10
5.932678125000001
20
-8.551740625
30
0
0
VERTEX
8
0
10
5.9770593750000005
20
-8.596121875
30
0
0
VERTEX
8
0
10
6.0261281250000005
20
-8.635253125
30
0
0
VERTEX
8
0
10
6.079271875
20
-8.668646875
30
0
0
VERTEX
8
0
10
6.13581875
20
-8.695878125
30
0
0
VERTEX
8
0
10
6.1950593750000005
20
-8.71660625
30
0
0
VERTEX
8
0
10
6.2562500000000005
20
-8.730571875
30
0
0
VERTEX
8
0
10
6.318618750000001
20
-8.7376
30
0
0
VERTEX
8
0
10
6.3813812500000004
20
-8.7376
30
0
0
SEQEND
0
POLYLINE
66
1
8
1_copper
10
0.0
20
0.0
30
0.0
70
1
0
VERTEX
8
0
10
7.010400000000001
20
-12.973543750000001
30
0
0
VERTEX
8
0
10
7.010400000000001
20
-12.426456250000001
30
0
0
VERTEX
8
0
10
6.6235437500000005
20
-12.0396
30
0
0
VERTEX
8
0
10
6.076456250000001
20
-12.0396
30
0
0
VERTEX
8
0
10
5.6896
20
-12.426456250000001
30
0
0
VERTEX
8
0
10
5.6896
20
-12.973543750000001
30
0
0
VERTEX
8
0
10
6.076456250000001
20
-13.3604
30
0
0
VERTEX
8
0
10
6.6235437500000005
20
-13.3604
30
0
0
SEQEND
0
POLYLINE
66
1
8
16_copper
10
0.0
20
0.0
30
0.0
70
1
0
VERTEX
8
0
10
7.010400000000001
20
-12.973543750000001
30
0
0
VERTEX
8
0
10
7.010400000000001
20
-12.426456250000001
30
0
0
VERTEX
8
0
10
6.6235437500000005
20
-12.0396
30
0
0
VERTEX
8
0
10
6.426200000000001
20
-12.0396
30
0
0
VERTEX
8
0
10
6.426200000000001
20
-8.73255
30
0
42
0.3587935562976035
0
VERTEX
8
0
10
6.9088
20
-8.21018125
30
0
0
VERTEX
8
0
10
6.9088
20
-7.0298187500000004
30
0
42
0.8889836272588038
0
VERTEX
8
0
10
5.799525
20
-6.961762500000001
30
0
0
VERTEX
8
0
10
5.1562
20
-6.3184375
30
0
0
VERTEX
8
0
10
5.1562
20
5.08
30
0
42
0.9999999999999999
0
VERTEX
8
0
10
5.0038
20
5.08
30
0
0
VERTEX
8
0
10
5.0038
20
-6.3500000000000005
30
0
42
0.198912367379658
0
VERTEX
8
0
10
5.02611875
20
-6.40388125
30
0
0
VERTEX
8
0
10
5.7912
20
-7.1689625
30
0
0
VERTEX
8
0
10
5.7912
20
-8.21018125
30
0
42
0.3587935562976035
0
VERTEX
8
0
10
6.2738000000000005
20
-8.73255
30
0
0
VERTEX
8
0
10
6.2738000000000005
20
-12.0396
30
0
0
VERTEX
8
0
10
6.076456250000001
20
-12.0396
30
0
0
VERTEX
8
0
10
5.6896
20
-12.426456250000001
30
0
0
VERTEX
8
0
10
5.6896
20
-12.973543750000001
30
0
0
VERTEX
8
0
10
6.076456250000001
20
-13.3604
30
0
0
VERTEX
8
0
10
6.6235437500000005
20
-13.3604
30
0
0
SEQEND
0
POLYLINE
66
1
8
1_copper
10
0.0
20
0.0
30
0.0
70
1
0
VERTEX
8
0
10
11.52375
20
-8.730571875
30
0
42
0.3499151837576505
0
VERTEX
8
0
10
11.988800000000001
20
-8.21018125
30
0
0
VERTEX
8
0
10
11.988800000000001
20
-7.0298187500000004
30
0
42
0.9454173495962603
0
VERTEX
8
0
10
10.8712
20
-7.0298187500000004
30
0
0
VERTEX
8
0
10
10.8712
20
-8.21018125
30
0
0
VERTEX
8
0
10
10.878228125
20
-8.27255
30
0
0
VERTEX
8
0
10
10.89219375
20
-8.333740625
30
0
0
VERTEX
8
0
10
10.912921875
20
-8.39298125
30
0
0
VERTEX
8
0
10
10.940153125
20
-8.449528125
30
0
0
VERTEX
8
0
10
10.973546875
20
-8.502671875
30
0
0
VERTEX
8
0
10
11.012678125
20
-8.551740625
30
0
0
VERTEX
8
0
10
11.057059375
20
-8.596121875
30
0
0
VERTEX
8
0
10
11.106128125
20
-8.635253125
30
0
0
VERTEX
8
0
10
11.159271875
20
-8.668646875
30
0
0
VERTEX
8
0
10
11.21581875
20
-8.695878125
30
0
0
VERTEX
8
0
10
11.275059375
20
-8.71660625
30
0
0
VERTEX
8
0
10
11.33625
20
-8.730571875
30
0
0
VERTEX
8
0
10
11.39861875
20
-8.7376
30
0
0
VERTEX
8
0
10
11.46138125
20
-8.7376
30
0
0
SEQEND
0
POLYLINE
66
1
8
1_copper
10
0.0
20
0.0
30
0.0
70
1
0
VERTEX
8
0
10
12.0904
20
-12.973543750000001
30
0
0
VERTEX
8
0
10
12.0904
20
-12.426456250000001
30
0
0
VERTEX
8
0
10
11.70354375
20
-12.0396
30
0
0
VERTEX
8
0
10
11.15645625
20
-12.0396
30
0
0
VERTEX
8
0
10
10.7696
20
-12.426456250000001
30
0
0
VERTEX
8
0
10
10.7696
20
-12.973543750000001
30
0
0
VERTEX
8
0
10
11.15645625
20
-13.3604
30
0
0
VERTEX
8
0
10
11.70354375
20
-13.3604
30
0
0
SEQEND
0
POLYLINE
66
1
8
16_copper
10
0.0
20
0.0
30
0.0
70
1
0
VERTEX
8
0
10
12.0904
20
-12.973543750000001
30
0
0
VERTEX
8
0
10
12.0904
20
-12.426456250000001
30
0
0
VERTEX
8
0
10
11.70354375
20
-12.0396
30
0
0
VERTEX
8
0
10
11.5062
20
-12.0396
30
0
0
VERTEX
8
0
10
11.5062
20
-8.73255
30
0
42
0.3587935562976035
0
VERTEX
8
0
10
11.988800000000001
20
-8.21018125
30
0
0
VERTEX
8
0
10
11.988800000000001
20
-7.0298187500000004
30
0
42
0.3587935562976035
0
VERTEX
8
0
10
11.5062
20
-6.50745
30
0
0
VERTEX
8
0
10
11.5062
20
-3.81
30
0
42
0.41421356237309503
0
VERTEX
8
0
10
11.43
20
-3.7338
30
0
0
VERTEX
8
0
10
7.6962
20
-3.7338
30
0
0
VERTEX
8
0
10
7.6962
20
5.08
30
0
42
0.9999999999999999
0
VERTEX
8
0
10
7.5438
20
5.08
30
0
0
VERTEX
8
0
10
7.5438
20
-3.81
30
0
42
0.41421356237309503
0
VERTEX
8
0
10
7.62
20
-3.8862
30
0
0
VERTEX
8
0
10
11.3538
20
-3.8862
30
0
0
VERTEX
8
0
10
11.3538
20
-6.50745
30
0
42
0.3587935562976035
0
VERTEX
8
0
10
10.8712
20
-7.0298187500000004
30
0
0
VERTEX
8
0
10
10.8712
20
-8.21018125
30
0
42
0.3587935562976035
0
VERTEX
8
0
10
11.3538
20
-8.73255
30
0
0
VERTEX
8
0
10
11.3538
20
-12.0396
30
0
0
VERTEX
8
0
10
11.15645625
20
-12.0396
30
0
0
VERTEX
8
0
10
10.7696
20
-12.426456250000001
30
0
0
VERTEX
8
0
10
10.7696
20
-12.973543750000001
30
0
0
VERTEX
8
0
10
11.15645625
20
-13.3604
30
0
0
VERTEX
8
0
10
11.70354375
20
-13.3604
30
0
0
SEQEND
0
POLYLINE
66
1
8
1_copper
10
0.0
20
0.0
30
0.0
70
1
0
VERTEX
8
0
10
-8.01605625
20
-28.6946625
30
0
42
0.9063472543261978
0
VERTEX
8
0
10
-8.090565625
20
-27.178
30
0
0
VERTEX
8
0
10
-9.689434375000001
20
-27.178
30
0
42
0.9520795017710562
0
VERTEX
8
0
10
-9.689434375000001
20
-28.702
30
0
0
VERTEX
8
0
10
-8.090565625
20
-28.702
30
0
0
SEQEND
0
POLYLINE
66
1
8
1_copper
10
0.0
20
0.0
30
0.0
70
1
0
VERTEX
8
0
10
-23.37258125
20
-28.594040625
30
0
42
0.9063462356499619
0
VERTEX
8
0
10
-23.43715625
20
-27.279600000000002
30
0
0
VERTEX
8
0
10
-24.82284375
20
-27.279600000000002
30
0
42
0.9520786018124834
0
VERTEX
8
0
10
-24.82284375
20
-28.6004
30
0
0
VERTEX
8
0
10
-23.43715625
20
-28.6004
30
0
0
SEQEND
0
POLYLINE
66
1
8
16_copper
10
0.0
20
0.0
30
0.0
70
1
0
VERTEX
8
0
10
-8.01605625
20
-28.6946625
30
0
42
0.9063472543261978
0
VERTEX
8
0
10
-8.090565625
20
-27.178
30
0
0
VERTEX
8
0
10
-9.689434375000001
20
-27.178
30
0
42
0.3711436710623373
0
VERTEX
8
0
10
-10.41018125
20
-27.8638
30
0
0
VERTEX
8
0
10
-22.813509375000002
20
-27.8638
30
0
42
0.36675309512609283
0
VERTEX
8
0
10
-23.43715625
20
-27.279600000000002
30
0
0
VERTEX
8
0
10
-24.82284375
20
-27.279600000000002
30
0
42
0.9520786018124834
0
VERTEX
8
0
10
-24.82284375
20
-28.6004
30
0
0
VERTEX
8
0
10
-23.43715625
20
-28.6004
30
0
42
0.36675309512609283
0
VERTEX
8
0
10
-22.813509375000002
20
-28.0162
30
0
0
VERTEX
8
0
10
-10.41018125
20
-28.0162
30
0
42
0.3711436710623373
0
VERTEX
8
0
10
-9.689434375000001
20
-28.702
30
0
0
VERTEX
8
0
10
-8.090565625
20
-28.702
30
0
0
SEQEND
0
POLYLINE
66
1
8
1_copper
10
0.0
20
0.0
30
0.0
70
1
0
VERTEX
8
0
10
6.447018750000001
20
17.735559375
30
0
42
0.3578051432831595
0
VERTEX
8
0
10
7.010400000000001
20
18.35715625
30
0
0
VERTEX
8
0
10
7.010400000000001
20
19.742843750000002
30
0
42
0.9520786018124834
0
VERTEX
8
0
10
5.6896
20
19.742843750000002
30
0
0
VERTEX
8
0
10
5.6896
20
18.35715625
30
0
0
VERTEX
8
0
10
5.695959375
20
18.29258125
30
0
0
VERTEX
8
0
10
5.70861875
20
18.22894375
30
0
0
VERTEX
8
0
10
5.727453125
20
18.16685
30
0
0
VERTEX
8
0
10
5.752284375
20
18.106903125000002
30
0
0
VERTEX
8
0
10
5.7828718750000005
20
18.049678125
30
0
0
VERTEX
8
0
10
5.818921875
20
17.995725
30
0
0
VERTEX
8
0
10
5.8600843750000005
20
17.94556875
30
0
0
VERTEX
8
0
10
5.90596875
20
17.899684375
30
0
0
VERTEX
8
0
10
5.956125
20
17.858521875
30
0
0
VERTEX
8
0
10
6.010078125000001
20
17.822471875
30
0
0
VERTEX
8
0
10
6.0673031250000005
20
17.791884375000002
30
0
0
VERTEX
8
0
10
6.12725
20
17.767053125
30
0
0
VERTEX
8
0
10
6.18934375
20
17.74821875
30
0
0
VERTEX
8
0
10
6.25298125
20
17.735559375
30
0
0
VERTEX
8
0
10
6.31755625
20
17.729200000000002
30
0
0
VERTEX
8
0
10
6.38244375
20
17.729200000000002
30
0
0
SEQEND
0
POLYLINE
66
1
8
16_copper
10
0.0
20
0.0
30
0.0
70
1
0
VERTEX
8
0
10
5.0968937500000004
20
12.625696875000001
30
0
42
0.14139007296259895
0
VERTEX
8
0
10
5.13388125
20
12.646118750000001
30
0
0
VERTEX
8
0
10
6.40388125
20
13.91611875
30
0
42
0.198912367379658
0
VERTEX
8
0
10
6.426200000000001
20
13.97
30
0
0
VERTEX
8
0
10
6.426200000000001
20
17.733509375
30
0
42
0.36675309512609283
0
VERTEX
8
0
10
7.010400000000001
20
18.35715625
30
0
0
VERTEX
8
0
10
7.010400000000001
20
19.742843750000002
30
0
42
0.9520786018124834
0
VERTEX
8
0
10
5.6896
20
19.742843750000002
30
0
0
VERTEX
8
0
10
5.6896
20
18.35715625
30
0
42
0.36675309512609283
0
VERTEX
8
0
10
6.2738000000000005
20
17.733509375
30
0
0
VERTEX
8
0
10
6.2738000000000005
20
14.0015625
30
0
0
VERTEX
8
0
10
5.02611875
20
12.753881250000001
30
0
0
VERTEX
8
0
10
5.013084375
20
12.736450000000001
30
0
0
VERTEX
8
0
10
5.005509375
20
12.71604375
30
0
0
VERTEX
8
0
10
5.0040125
20
12.694328125
30
0
0
VERTEX
8
0
10
5.008715625000001
20
12.673075
30
0
0
VERTEX
8
0
10
5.0192375
20
12.65401875
30
0
0
VERTEX
8
0
10
5.0347156250000005
20
12.638715625000001
30
0
0
VERTEX
8
0
10
5.053890625
20
12.628412500000001
30
0
0
VERTEX
8
0
10
5.0751968750000005
20
12.623953125
30
0
0
SEQEND
0
POLYLINE
66
1
8
1_copper
10
0.0
20
0.0
30
0.0
70
1
0
VERTEX
8
0
10
3.90701875
20
17.735559375
30
0
42
0.3578051432831595
0
VERTEX
8
0
10
4.470400000000001
20
18.35715625
30
0
0
VERTEX
8
0
10
4.470400000000001
20
19.742843750000002
30
0
42
0.9520786018124834
0
VERTEX
8
0
10
3.1496
20
19.742843750000002
30
0
0
VERTEX
8
0
10
3.1496
20
18.35715625
30
0
0
VERTEX
8
0
10
3.155959375
20
18.29258125
30
0
0
VERTEX
8
0
10
3.1686187500000003
20
18.22894375
30
0
0
VERTEX
8
0
10
3.187453125
20
18.16685
30
0
0
VERTEX
8
0
10
3.2122843750000003
20
18.106903125000002
30
0
0
VERTEX
8
0
10
3.242871875
20
18.049678125
30
0
0
VERTEX
8
0
10
3.278921875
20
17.995725
30
0
0
VERTEX
8
0
10
3.320084375
20
17.94556875
30
0
0
VERTEX
8
0
10
3.36596875
20
17.899684375
30
0
0
VERTEX
8
0
10
3.416125
20
17.858521875
30
0
0
VERTEX
8
0
10
3.470078125
20
17.822471875
30
0
0
VERTEX
8
0
10
3.527303125
20
17.791884375000002
30
0
0
VERTEX
8
0
10
3.58725
20
17.767053125
30
0
0
VERTEX
8
0
10
3.6493437500000003
20
17.74821875
30
0
0
VERTEX
8
0
10
3.7129812500000003
20
17.735559375
30
0
0
VERTEX
8
0
10
3.7775562500000004
20
17.729200000000002
30
0
0
VERTEX
8
0
10
3.84244375
20
17.729200000000002
30
0
0
SEQEND
0
POLYLINE
66
1
8
16_copper
10
0.0
20
0.0
30
0.0
70
1
0
VERTEX
8
0
10
2.55689375
20
12.625696875000001
30
0
42
0.14139007296259895
0
VERTEX
8
0
10
2.59388125
20
12.646118750000001
30
0
0
VERTEX
8
0
10
3.8638812500000004
20
13.91611875
30
0
42
0.198912367379658
0
VERTEX
8
0
10
3.8862
20
13.97
30
0
0
VERTEX
8
0
10
3.8862
20
17.733509375
30
0
42
0.36675309512609283
0
VERTEX
8
0
10
4.470400000000001
20
18.35715625
30
0
0
VERTEX
8
0
10
4.470400000000001
20
19.742843750000002
30
0
42
0.9520786018124834
0
VERTEX
8
0
10
3.1496
20
19.742843750000002
30
0
0
VERTEX
8
0
10
3.1496
20
18.35715625
30
0
42
0.36675309512609283
0
VERTEX
8
0
10
3.7338
20
17.733509375
30
0
0
VERTEX
8
0
10
3.7338
20
14.0015625
30
0
0
VERTEX
8
0
10
2.48611875
20
12.753881250000001
30
0
0
VERTEX
8
0
10
2.473084375
20
12.736450000000001
30
0
0
VERTEX
8
0
10
2.4655093750000003
20
12.71604375
30
0
0
VERTEX
8
0
10
2.4640125
20
12.694328125
30
0
0
VERTEX
8
0
10
2.468715625
20
12.673075
30
0
0
VERTEX
8
0
10
2.4792375
20
12.65401875
30
0
0
VERTEX
8
0
10
2.494715625
20
12.638715625000001
30
0
0
VERTEX
8
0
10
2.513890625
20
12.628412500000001
30
0
0
VERTEX
8
0
10
2.535196875
20
12.623953125
30
0
0
SEQEND
0
POLYLINE
66
1
8
1_copper
10
0.0
20
0.0
30
0.0
70
1
0
VERTEX
8
0
10
-21.49298125
20
-5.124440625
30
0
42
0.3578051432831595
0
VERTEX
8
0
10
-20.9296
20
-4.50284375
30
0
0
VERTEX
8
0
10
-20.9296
20
-3.1171562500000003
30
0
42
0.9520786018124834
0
VERTEX
8
0
10
-22.250400000000003
20
-3.1171562500000003
30
0
0
VERTEX
8
0
10
-22.250400000000003
20
-4.50284375
30
0
0
VERTEX
8
0
10
-22.244040625
20
-4.56741875
30
0
0
VERTEX
8
0
10
-22.231381250000002
20
-4.63105625
30
0
0
VERTEX
8
0
10
-22.212546875
20
-4.69315
30
0
0
VERTEX
8
0
10
-22.187715625000003
20
-4.753096875000001
30
0
0
VERTEX
8
0
10
-22.157128125
20
-4.8103218750000005
30
0
0
VERTEX
8
0
10
-22.121078125
20
-4.864275
30
0
0
VERTEX
8
0
10
-22.079915625
20
-4.91443125
30
0
0
VERTEX
8
0
10
-22.03403125
20
-4.960315625000001
30
0
0
VERTEX
8
0
10
-21.983875
20
-5.001478125
30
0
0
VERTEX
8
0
10
-21.929921875
20
-5.037528125000001
30
0
0
VERTEX
8
0
10
-21.872696875000003
20
-5.068115625
30
0
0
VERTEX
8
0
10
-21.81275
20
-5.092946875
30
0
0
VERTEX
8
0
10
-21.750656250000002
20
-5.11178125
30
0
0
VERTEX
8
0
10
-21.68701875
20
-5.124440625
30
0
0
VERTEX
8
0
10
-21.622443750000002
20
-5.1308
30
0
0
VERTEX
8
0
10
-21.55755625
20
-5.1308
30
0
0
SEQEND
0
POLYLINE
66
1
8
16_copper
10
0.0
20
0.0
30
0.0
70
1
0
VERTEX
8
0
10
-21.49298125
20
-5.124440625
30
0
42
0.3578051432831595
0
VERTEX
8
0
10
-20.9296
20
-4.50284375
30
0
0
VERTEX
8
0
10
-20.9296
20
-3.1171562500000003
30
0
42
0.36675309512609283
0
VERTEX
8
0
10
-21.5138
20
-2.493509375
30
0
0
VERTEX
8
0
10
-21.5138
20
2.4638
30
0
0
VERTEX
8
0
10
-12.700000000000001
20
2.4638
30
0
42
0.41421356237309503
0
VERTEX
8
0
10
-12.623800000000001
20
2.54
30
0
0
VERTEX
8
0
10
-12.623800000000001
20
5.08
30
0
42
0.9999999999999999
0
VERTEX
8
0
10
-12.776200000000001
20
5.08
30
0
0
VERTEX
8
0
10
-12.776200000000001
20
2.6162
30
0
0
VERTEX
8
0
10
-21.59
20
2.6162
30
0
42
0.41421356237309503
0
VERTEX
8
0
10
-21.6662
20
2.54
30
0
0
VERTEX
8
0
10
-21.6662
20
-2.493509375
30
0
42
0.36675309512609283
0
VERTEX
8
0
10
-22.250400000000003
20
-3.1171562500000003
30
0
0
VERTEX
8
0
10
-22.250400000000003
20
-4.50284375
30
0
0
VERTEX
8
0
10
-22.244040625
20
-4.56741875
30
0
0
VERTEX
8
0
10
-22.231381250000002
20
-4.63105625
30
0
0
VERTEX
8
0
10
-22.212546875
20
-4.69315
30
0
0
VERTEX
8
0
10
-22.187715625000003
20
-4.753096875000001
30
0
0
VERTEX
8
0
10
-22.157128125
20
-4.8103218750000005
30
0
0
VERTEX
8
0
10
-22.121078125
20
-4.864275
30
0
0
VERTEX
8
0
10
-22.079915625
20
-4.91443125
30
0
0
VERTEX
8
0
10
-22.03403125
20
-4.960315625000001
30
0
0
VERTEX
8
0
10
-21.983875
20
-5.001478125
30
0
0
VERTEX
8
0
10
-21.929921875
20
-5.037528125000001
30
0
0
VERTEX
8
0
10
-21.872696875000003
20
-5.068115625
30
0
0
VERTEX
8
0
10
-21.81275
20
-5.092946875
30
0
0
VERTEX
8
0
10
-21.750656250000002
20
-5.11178125
30
0
0
VERTEX
8
0
10
-21.68701875
20
-5.124440625
30
0
0
VERTEX
8
0
10
-21.622443750000002
20
-5.1308
30
0
0
VERTEX
8
0
10
-21.55755625
20
-5.1308
30
0
0
SEQEND
0
POLYLINE
66
1
8
1_copper
10
0.0
20
0.0
30
0.0
70
1
0
VERTEX
8
0
10
-18.95298125
20
-5.124440625
30
0
42
0.3578051432831595
0
VERTEX
8
0
10
-18.3896
20
-4.50284375
30
0
0
VERTEX
8
0
10
-18.3896
20
-3.1171562500000003
30
0
42
0.9520786018124834
0
VERTEX
8
0
10
-19.7104
20
-3.1171562500000003
30
0
0
VERTEX
8
0
10
-19.7104
20
-4.50284375
30
0
0
VERTEX
8
0
10
-19.704040625
20
-4.56741875
30
0
0
VERTEX
8
0
10
-19.69138125
20
-4.63105625
30
0
0
VERTEX
8
0
10
-19.672546875000002
20
-4.69315
30
0
0
VERTEX
8
0
10
-19.647715625
20
-4.753096875000001
30
0
0
VERTEX
8
0
10
-19.617128125
20
-4.8103218750000005
30
0
0
VERTEX
8
0
10
-19.581078125
20
-4.864275
30
0
0
VERTEX
8
0
10
-19.539915625000003
20
-4.91443125
30
0
0
VERTEX
8
0
10
-19.494031250000003
20
-4.960315625000001
30
0
0
VERTEX
8
0
10
-19.443875000000002
20
-5.001478125
30
0
0
VERTEX
8
0
10
-19.389921875000002
20
-5.037528125000001
30
0
0
VERTEX
8
0
10
-19.332696875
20
-5.068115625
30
0
0
VERTEX
8
0
10
-19.272750000000002
20
-5.092946875
30
0
0
VERTEX
8
0
10
-19.21065625
20
-5.11178125
30
0
0
VERTEX
8
0
10
-19.14701875
20
-5.124440625
30
0
0
VERTEX
8
0
10
-19.08244375
20
-5.1308
30
0
0
VERTEX
8
0
10
-19.017556250000002
20
-5.1308
30
0
0
SEQEND
0
POLYLINE
66
1
8
16_copper
10
0.0
20
0.0
30
0.0
70
1
0
VERTEX
8
0
10
-18.95298125
20
-5.124440625
30
0
42
0.3578051432831595
0
VERTEX
8
0
10
-18.3896
20
-4.50284375
30
0
0
VERTEX
8
0
10
-18.3896
20
-3.1171562500000003
30
0
42
0.36675309512609283
0
VERTEX
8
0
10
-18.9738
20
-2.493509375
30
0
0
VERTEX
8
0
10
-18.9738
20
1.1938
30
0
0
VERTEX
8
0
10
-10.16
20
1.1938
30
0
42
0.41421356237309503
0
VERTEX
8
0
10
-10.0838
20
1.27
30
0
0
VERTEX
8
0
10
-10.0838
20
5.08
30
0
42
0.9999999999999999
0
VERTEX
8
0
10
-10.2362
20
5.08
30
0
0
VERTEX
8
0
10
-10.2362
20
1.3462
30
0
0
VERTEX
8
0
10
-19.05
20
1.3462
30
0
42
0.41421356237309503
0
VERTEX
8
0
10
-19.1262
20
1.27
30
0
0
VERTEX
8
0
10
-19.1262
20
-2.493509375
30
0
42
0.36675309512609283
0
VERTEX
8
0
10
-19.7104
20
-3.1171562500000003
30
0
0
VERTEX
8
0
10
-19.7104
20
-4.50284375
30
0
0
VERTEX
8
0
10
-19.704040625
20
-4.56741875
30
0
0
VERTEX
8
0
10
-19.69138125
20
-4.63105625
30
0
0
VERTEX
8
0
10
-19.672546875000002
20
-4.69315
30
0
0
VERTEX
8
0
10
-19.647715625
20
-4.753096875000001
30
0
0
VERTEX
8
0
10
-19.617128125
20
-4.8103218750000005
30
0
0
VERTEX
8
0
10
-19.581078125
20
-4.864275
30
0
0
VERTEX
8
0
10
-19.539915625000003
20
-4.91443125
30
0
0
VERTEX
8
0
10
-19.494031250000003
20
-4.960315625000001
30
0
0
VERTEX
8
0
10
-19.443875000000002
20
-5.001478125
30
0
0
VERTEX
8
0
10
-19.389921875000002
20
-5.037528125000001
30
0
0
VERTEX
8
0
10
-19.332696875
20
-5.068115625
30
0
0
VERTEX
8
0
10
-19.272750000000002
20
-5.092946875
30
0
0
VERTEX
8
0
10
-19.21065625
20
-5.11178125
30
0
0
VERTEX
8
0
10
-19.14701875
20
-5.124440625
30
0
0
VERTEX
8
0
10
-19.08244375
20
-5.1308
30
0
0
VERTEX
8
0
10
-19.017556250000002
20
-5.1308
30
0
0
SEQEND
0
POLYLINE
66
1
8
1_copper
10
0.0
20
0.0
30
0.0
70
1
0
VERTEX
8
0
10
-16.41298125
20
-5.124440625
30
0
42
0.3578051432831595
0
VERTEX
8
0
10
-15.8496
20
-4.50284375
30
0
0
VERTEX
8
0
10
-15.8496
20
-3.1171562500000003
30
0
42
0.9520786018124834
0
VERTEX
8
0
10
-17.1704
20
-3.1171562500000003
30
0
0
VERTEX
8
0
10
-17.1704
20
-4.50284375
30
0
0
VERTEX
8
0
10
-17.164040625000002
20
-4.56741875
30
0
0
VERTEX
8
0
10
-17.15138125
20
-4.63105625
30
0
0
VERTEX
8
0
10
-17.132546875
20
-4.69315
30
0
0
VERTEX
8
0
10
-17.107715625
20
-4.753096875000001
30
0
0
VERTEX
8
0
10
-17.077128125
20
-4.8103218750000005
30
0
0
VERTEX
8
0
10
-17.041078125000002
20
-4.864275
30
0
0
VERTEX
8
0
10
-16.999915625
20
-4.91443125
30
0
0
VERTEX
8
0
10
-16.95403125
20
-4.960315625000001
30
0
0
VERTEX
8
0
10
-16.903875
20
-5.001478125
30
0
0
VERTEX
8
0
10
-16.849921875
20
-5.037528125000001
30
0
0
VERTEX
8
0
10
-16.792696875
20
-5.068115625
30
0
0
VERTEX
8
0
10
-16.73275
20
-5.092946875
30
0
0
VERTEX
8
0
10
-16.67065625
20
-5.11178125
30
0
0
VERTEX
8
0
10
-16.60701875
20
-5.124440625
30
0
0
VERTEX
8
0
10
-16.54244375
20
-5.1308
30
0
0
VERTEX
8
0
10
-16.47755625
20
-5.1308
30
0
0
SEQEND
0
POLYLINE
66
1
8
16_copper
10
0.0
20
0.0
30
0.0
70
1
0
VERTEX
8
0
10
-16.41298125
20
-5.124440625
30
0
42
0.3578051432831595
0
VERTEX
8
0
10
-15.8496
20
-4.50284375
30
0
0
VERTEX
8
0
10
-15.8496
20
-3.1171562500000003
30
0
42
0.36675309512609283
0
VERTEX
8
0
10
-16.4338
20
-2.493509375
30
0
0
VERTEX
8
0
10
-16.4338
20
-0.0762
30
0
0
VERTEX
8
0
10
-7.62
20
-0.0762
30
0
42
0.41421356237309503
0
VERTEX
8
0
10
-7.5438
20
0
30
0
0
VERTEX
8
0
10
-7.5438
20
5.08
30
0
42
0.9999999999999999
0
VERTEX
8
0
10
-7.6962
20
5.08
30
0
0
VERTEX
8
0
10
-7.6962
20
0.0762
30
0
0
VERTEX
8
0
10
-16.51
20
0.0762
30
0
42
0.41421356237309503
0
VERTEX
8
0
10
-16.5862
20
0
30
0
0
VERTEX
8
0
10
-16.5862
20
-2.493509375
30
0
42
0.36675309512609283
0
VERTEX
8
0
10
-17.1704
20
-3.1171562500000003
30
0
0
VERTEX
8
0
10
-17.1704
20
-4.50284375
30
0
0
VERTEX
8
0
10
-17.164040625000002
20
-4.56741875
30
0
0
VERTEX
8
0
10
-17.15138125
20
-4.63105625
30
0
0
VERTEX
8
0
10
-17.132546875
20
-4.69315
30
0
0
VERTEX
8
0
10
-17.107715625
20
-4.753096875000001
30
0
0
VERTEX
8
0
10
-17.077128125
20
-4.8103218750000005
30
0
0
VERTEX
8
0
10
-17.041078125000002
20
-4.864275
30
0
0
VERTEX
8
0
10
-16.999915625
20
-4.91443125
30
0
0
VERTEX
8
0
10
-16.95403125
20
-4.960315625000001
30
0
0
VERTEX
8
0
10
-16.903875
20
-5.001478125
30
0
0
VERTEX
8
0
10
-16.849921875
20
-5.037528125000001
30
0
0
VERTEX
8
0
10
-16.792696875
20
-5.068115625
30
0
0
VERTEX
8
0
10
-16.73275
20
-5.092946875
30
0
0
VERTEX
8
0
10
-16.67065625
20
-5.11178125
30
0
0
VERTEX
8
0
10
-16.60701875
20
-5.124440625
30
0
0
VERTEX
8
0
10
-16.54244375
20
-5.1308
30
0
0
VERTEX
8
0
10
-16.47755625
20
-5.1308
30
0
0
SEQEND
0
POLYLINE
66
1
8
1_copper
10
0.0
20
0.0
30
0.0
70
1
0
VERTEX
8
0
10
-13.87298125
20
-5.124440625
30
0
42
0.3578051432831595
0
VERTEX
8
0
10
-13.309600000000001
20
-4.50284375
30
0
0
VERTEX
8
0
10
-13.309600000000001
20
-3.1171562500000003
30
0
42
0.9520786018124834
0
VERTEX
8
0
10
-14.6304
20
-3.1171562500000003
30
0
0
VERTEX
8
0
10
-14.6304
20
-4.50284375
30
0
0
VERTEX
8
0
10
-14.624040625000001
20
-4.56741875
30
0
0
VERTEX
8
0
10
-14.61138125
20
-4.63105625
30
0
0
VERTEX
8
0
10
-14.592546875
20
-4.69315
30
0
0
VERTEX
8
0
10
-14.567715625
20
-4.753096875000001
30
0
0
VERTEX
8
0
10
-14.537128125
20
-4.8103218750000005
30
0
0
VERTEX
8
0
10
-14.501078125000001
20
-4.864275
30
0
0
VERTEX
8
0
10
-14.459915625
20
-4.91443125
30
0
0
VERTEX
8
0
10
-14.41403125
20
-4.960315625000001
30
0
0
VERTEX
8
0
10
-14.363875
20
-5.001478125
30
0
0
VERTEX
8
0
10
-14.309921875
20
-5.037528125000001
30
0
0
VERTEX
8
0
10
-14.252696875
20
-5.068115625
30
0
0
VERTEX
8
0
10
-14.19275
20
-5.092946875
30
0
0
VERTEX
8
0
10
-14.130656250000001
20
-5.11178125
30
0
0
VERTEX
8
0
10
-14.06701875
20
-5.124440625
30
0
0
VERTEX
8
0
10
-14.002443750000001
20
-5.1308
30
0
0
VERTEX
8
0
10
-13.93755625
20
-5.1308
30
0
0
SEQEND
0
POLYLINE
66
1
8
16_copper
10
0.0
20
0.0
30
0.0
70
1
0
VERTEX
8
0
10
-13.87298125
20
-5.124440625
30
0
42
0.3578051432831595
0
VERTEX
8
0
10
-13.309600000000001
20
-4.50284375
30
0
0
VERTEX
8
0
10
-13.309600000000001
20
-3.1171562500000003
30
0
42
0.36675309512609283
0
VERTEX
8
0
10
-13.8938
20
-2.493509375
30
0
0
VERTEX
8
0
10
-13.8938
20
-1.3462
30
0
0
VERTEX
8
0
10
-5.08
20
-1.3462
30
0
42
0.41421356237309503
0
VERTEX
8
0
10
-5.0038
20
-1.27
30
0
0
VERTEX
8
0
10
-5.0038
20
5.08
30
0
42
0.9999999999999999
0
VERTEX
8
0
10
-5.1562
20
5.08
30
0
0
VERTEX
8
0
10
-5.1562
20
-1.1938
30
0
0
VERTEX
8
0
10
-13.97
20
-1.1938
30
0
42
0.41421356237309503
0
VERTEX
8
0
10
-14.0462
20
-1.27
30
0
0
VERTEX
8
0
10
-14.0462
20
-2.493509375
30
0
42
0.36675309512609283
0
VERTEX
8
0
10
-14.6304
20
-3.1171562500000003
30
0
0
VERTEX
8
0
10
-14.6304
20
-4.50284375
30
0
0
VERTEX
8
0
10
-14.624040625000001
20
-4.56741875
30
0
0
VERTEX
8
0
10
-14.61138125
20
-4.63105625
30
0
0
VERTEX
8
0
10
-14.592546875
20
-4.69315
30
0
0
VERTEX
8
0
10
-14.567715625
20
-4.753096875000001
30
0
0
VERTEX
8
0
10
-14.537128125
20
-4.8103218750000005
30
0
0
VERTEX
8
0
10
-14.501078125000001
20
-4.864275
30
0
0
VERTEX
8
0
10
-14.459915625
20
-4.91443125
30
0
0
VERTEX
8
0
10
-14.41403125
20
-4.960315625000001
30
0
0
VERTEX
8
0
10
-14.363875
20
-5.001478125
30
0
0
VERTEX
8
0
10
-14.309921875
20
-5.037528125000001
30
0
0
VERTEX
8
0
10
-14.252696875
20
-5.068115625
30
0
0
VERTEX
8
0
10
-14.19275
20
-5.092946875
30
0
0
VERTEX
8
0
10
-14.130656250000001
20
-5.11178125
30
0
0
VERTEX
8
0
10
-14.06701875
20
-5.124440625
30
0
0
VERTEX
8
0
10
-14.002443750000001
20
-5.1308
30
0
0
VERTEX
8
0
10
-13.93755625
20
-5.1308
30
0
0
SEQEND
0
POLYLINE
66
1
8
1_copper
10
0.0
20
0.0
30
0.0
70
1
0
VERTEX
8
0
10
-11.332981250000001
20
-5.124440625
30
0
42
0.3578051432831595
0
VERTEX
8
0
10
-10.7696
20
-4.50284375
30
0
0
VERTEX
8
0
10
-10.7696
20
-3.1171562500000003
30
0
42
0.9520786018124834
0
VERTEX
8
0
10
-12.0904
20
-3.1171562500000003
30
0
0
VERTEX
8
0
10
-12.0904
20
-4.50284375
30
0
0
VERTEX
8
0
10
-12.084040625
20
-4.56741875
30
0
0
VERTEX
8
0
10
-12.07138125
20
-4.63105625
30
0
0
VERTEX
8
0
10
-12.052546875
20
-4.69315
30
0
0
VERTEX
8
0
10
-12.027715625
20
-4.753096875000001
30
0
0
VERTEX
8
0
10
-11.997128125
20
-4.8103218750000005
30
0
0
VERTEX
8
0
10
-11.961078125
20
-4.864275
30
0
0
VERTEX
8
0
10
-11.919915625
20
-4.91443125
30
0
0
VERTEX
8
0
10
-11.87403125
20
-4.960315625000001
30
0
0
VERTEX
8
0
10
-11.823875000000001
20
-5.001478125
30
0
0
VERTEX
8
0
10
-11.769921875000001
20
-5.037528125000001
30
0
0
VERTEX
8
0
10
-11.712696875
20
-5.068115625
30
0
0
VERTEX
8
0
10
-11.652750000000001
20
-5.092946875
30
0
0
VERTEX
8
0
10
-11.59065625
20
-5.11178125
30
0
0
VERTEX
8
0
10
-11.52701875
20
-5.124440625
30
0
0
VERTEX
8
0
10
-11.46244375
20
-5.1308
30
0
0
VERTEX
8
0
10
-11.397556250000001
20
-5.1308
30
0
0
SEQEND
0
POLYLINE
66
1
8
16_copper
10
0.0
20
0.0
30
0.0
70
1
0
VERTEX
8
0
10
-11.332981250000001
20
-5.124440625
30
0
42
0.3578051432831595
0
VERTEX
8
0
10
-10.7696
20
-4.50284375
30
0
0
VERTEX
8
0
10
-10.7696
20
-3.1171562500000003
30
0
42
0.22621613756570266
0
VERTEX
8
0
10
-11.0396
20
-2.6162
30
0
0
VERTEX
8
0
10
-2.54
20
-2.6162
30
0
42
0.41421356237309503
0
VERTEX
8
0
10
-2.4638
20
-2.54
30
0
0
VERTEX
8
0
10
-2.4638
20
5.08
30
0
42
0.9999999999999999
0
VERTEX
8
0
10
-2.6162
20
5.08
30
0
0
VERTEX
8
0
10
-2.6162
20
-2.4638
30
0
0
VERTEX
8
0
10
-11.43
20
-2.4638
30
0
42
0.22446792329043666
0
VERTEX
8
0
10
-11.48870625
20
-2.4917875
30
0
0
VERTEX
8
0
10
-11.52701875
20
-2.495559375
30
0
42
0.3578051432831595
0
VERTEX
8
0
10
-12.0904
20
-3.1171562500000003
30
0
0
VERTEX
8
0
10
-12.0904
20
-4.50284375
30
0
0
VERTEX
8
0
10
-12.084040625
20
-4.56741875
30
0
0
VERTEX
8
0
10
-12.07138125
20
-4.63105625
30
0
0
VERTEX
8
0
10
-12.052546875
20
-4.69315
30
0
0
VERTEX
8
0
10
-12.027715625
20
-4.753096875000001
30
0
0
VERTEX
8
0
10
-11.997128125
20
-4.8103218750000005
30
0
0
VERTEX
8
0
10
-11.961078125
20
-4.864275
30
0
0
VERTEX
8
0
10
-11.919915625
20
-4.91443125
30
0
0
VERTEX
8
0
10
-11.87403125
20
-4.960315625000001
30
0
0
VERTEX
8
0
10
-11.823875000000001
20
-5.001478125
30
0
0
VERTEX
8
0
10
-11.769921875000001
20
-5.037528125000001
30
0
0
VERTEX
8
0
10
-11.712696875
20
-5.068115625
30
0
0
VERTEX
8
0
10
-11.652750000000001
20
-5.092946875
30
0
0
VERTEX
8
0
10
-11.59065625
20
-5.11178125
30
0
0
VERTEX
8
0
10
-11.52701875
20
-5.124440625
30
0
0
VERTEX
8
0
10
-11.46244375
20
-5.1308
30
0
0
VERTEX
8
0
10
-11.397556250000001
20
-5.1308
30
0
0
SEQEND
0
POLYLINE
66
1
8
1_copper
10
0.0
20
0.0
30
0.0
70
1
0
VERTEX
8
0
10
17.87701875
20
-6.3944406250000005
30
0
42
0.3578051432831595
0
VERTEX
8
0
10
18.4404
20
-5.772843750000001
30
0
0
VERTEX
8
0
10
18.4404
20
-4.38715625
30
0
42
0.9520786018124834
0
VERTEX
8
0
10
17.119600000000002
20
-4.38715625
30
0
0
VERTEX
8
0
10
17.119600000000002
20
-5.772843750000001
30
0
0
VERTEX
8
0
10
17.125959375
20
-5.83741875
30
0
0
VERTEX
8
0
10
17.13861875
20
-5.90105625
30
0
0
VERTEX
8
0
10
17.157453125
20
-5.963150000000001
30
0
0
VERTEX
8
0
10
17.182284375000002
20
-6.023096875
30
0
0
VERTEX
8
0
10
17.212871875
20
-6.080321875
30
0
0
VERTEX
8
0
10
17.248921875
20
-6.134275000000001
30
0
0
VERTEX
8
0
10
17.290084375
20
-6.18443125
30
0
0
VERTEX
8
0
10
17.33596875
20
-6.230315625
30
0
0
VERTEX
8
0
10
17.386125
20
-6.271478125000001
30
0
0
VERTEX
8
0
10
17.440078125
20
-6.307528125
30
0
0
VERTEX
8
0
10
17.497303125000002
20
-6.338115625
30
0
0
VERTEX
8
0
10
17.55725
20
-6.3629468750000004
30
0
0
VERTEX
8
0
10
17.619343750000002
20
-6.38178125
30
0
0
VERTEX
8
0
10
17.68298125
20
-6.3944406250000005
30
0
0
VERTEX
8
0
10
17.747556250000002
20
-6.4008
30
0
0
VERTEX
8
0
10
17.81244375
20
-6.4008
30
0
0
SEQEND
0
POLYLINE
66
1
8
16_copper
10
0.0
20
0.0
30
0.0
70
1
0
VERTEX
8
0
10
17.87701875
20
-6.3944406250000005
30
0
42
0.3578051432831595
0
VERTEX
8
0
10
18.4404
20
-5.772843750000001
30
0
0
VERTEX
8
0
10
18.4404
20
-4.38715625
30
0
42
0.36675309512609283
0
VERTEX
8
0
10
17.8562
20
-3.7635093750000004
30
0
0
VERTEX
8
0
10
17.8562
20
-2.54
30
0
42
0.41421356237309503
0
VERTEX
8
0
10
17.78
20
-2.4638
30
0
0
VERTEX
8
0
10
10.2362
20
-2.4638
30
0
0
VERTEX
8
0
10
10.2362
20
5.08
30
0
42
0.9999999999999999
0
VERTEX
8
0
10
10.0838
20
5.08
30
0
0
VERTEX
8
0
10
10.0838
20
-2.54
30
0
42
0.41421356237309503
0
VERTEX
8
0
10
10.16
20
-2.6162
30
0
0
VERTEX
8
0
10
17.7038
20
-2.6162
30
0
0
VERTEX
8
0
10
17.7038
20
-3.7635093750000004
30
0
42
0.36675309512609283
0
VERTEX
8
0
10
17.119600000000002
20
-4.38715625
30
0
0
VERTEX
8
0
10
17.119600000000002
20
-5.772843750000001
30
0
0
VERTEX
8
0
10
17.125959375
20
-5.83741875
30
0
0
VERTEX
8
0
10
17.13861875
20
-5.90105625
30
0
0
VERTEX
8
0
10
17.157453125
20
-5.963150000000001
30
0
0
VERTEX
8
0
10
17.182284375000002
20
-6.023096875
30
0
0
VERTEX
8
0
10
17.212871875
20
-6.080321875
30
0
0
VERTEX
8
0
10
17.248921875
20
-6.134275000000001
30
0
0
VERTEX
8
0
10
17.290084375
20
-6.18443125
30
0
0
VERTEX
8
0
10
17.33596875
20
-6.230315625
30
0
0
VERTEX
8
0
10
17.386125
20
-6.271478125000001
30
0
0
VERTEX
8
0
10
17.440078125
20
-6.307528125
30
0
0
VERTEX
8
0
10
17.497303125000002
20
-6.338115625
30
0
0
VERTEX
8
0
10
17.55725
20
-6.3629468750000004
30
0
0
VERTEX
8
0
10
17.619343750000002
20
-6.38178125
30
0
0
VERTEX
8
0
10
17.68298125
20
-6.3944406250000005
30
0
0
VERTEX
8
0
10
17.747556250000002
20
-6.4008
30
0
0
VERTEX
8
0
10
17.81244375
20
-6.4008
30
0
0
SEQEND
0
POLYLINE
66
1
8
1_copper
10
0.0
20
0.0
30
0.0
70
1
0
VERTEX
8
0
10
20.41701875
20
-6.3944406250000005
30
0
42
0.3578051432831595
0
VERTEX
8
0
10
20.9804
20
-5.772843750000001
30
0
0
VERTEX
8
0
10
20.9804
20
-4.38715625
30
0
42
0.9520786018124834
0
VERTEX
8
0
10
19.6596
20
-4.38715625
30
0
0
VERTEX
8
0
10
19.6596
20
-5.772843750000001
30
0
0
VERTEX
8
0
10
19.665959375
20
-5.83741875
30
0
0
VERTEX
8
0
10
19.678618750000002
20
-5.90105625
30
0
0
VERTEX
8
0
10
19.697453125000003
20
-5.963150000000001
30
0
0
VERTEX
8
0
10
19.722284375
20
-6.023096875
30
0
0
VERTEX
8
0
10
19.752871875
20
-6.080321875
30
0
0
VERTEX
8
0
10
19.788921875
20
-6.134275000000001
30
0
0
VERTEX
8
0
10
19.830084375000002
20
-6.18443125
30
0
0
VERTEX
8
0
10
19.875968750000002
20
-6.230315625
30
0
0
VERTEX
8
0
10
19.926125000000003
20
-6.271478125000001
30
0
0
VERTEX
8
0
10
19.980078125000002
20
-6.307528125
30
0
0
VERTEX
8
0
10
20.037303125
20
-6.338115625
30
0
0
VERTEX
8
0
10
20.097250000000003
20
-6.3629468750000004
30
0
0
VERTEX
8
0
10
20.15934375
20
-6.38178125
30
0
0
VERTEX
8
0
10
20.22298125
20
-6.3944406250000005
30
0
0
VERTEX
8
0
10
20.28755625
20
-6.4008
30
0
0
VERTEX
8
0
10
20.352443750000003
20
-6.4008
30
0
0
SEQEND
0
POLYLINE
66
1
8
16_copper
10
0.0
20
0.0
30
0.0
70
1
0
VERTEX
8
0
10
20.41701875
20
-6.3944406250000005
30
0
42
0.3578051432831595
0
VERTEX
8
0
10
20.9804
20
-5.772843750000001
30
0
0
VERTEX
8
0
10
20.9804
20
-4.38715625
30
0
42
0.36675309512609283
0
VERTEX
8
0
10
20.3962
20
-3.7635093750000004
30
0
0
VERTEX
8
0
10
20.3962
20
-1.27
30
0
42
0.41421356237309503
0
VERTEX
8
0
10
20.32
20
-1.1938
30
0
0
VERTEX
8
0
10
12.776200000000001
20
-1.1938
30
0
0
VERTEX
8
0
10
12.776200000000001
20
5.08
30
0
42
0.9999999999999999
0
VERTEX
8
0
10
12.623800000000001
20
5.08
30
0
0
VERTEX
8
0
10
12.623800000000001
20
-1.27
30
0
42
0.41421356237309503
0
VERTEX
8
0
10
12.700000000000001
20
-1.3462
30
0
0
VERTEX
8
0
10
20.2438
20
-1.3462
30
0
0
VERTEX
8
0
10
20.2438
20
-3.7635093750000004
30
0
42
0.36675309512609283
0
VERTEX
8
0
10
19.6596
20
-4.38715625
30
0
0
VERTEX
8
0
10
19.6596
20
-5.772843750000001
30
0
0
VERTEX
8
0
10
19.665959375
20
-5.83741875
30
0
0
VERTEX
8
0
10
19.678618750000002
20
-5.90105625
30
0
0
VERTEX
8
0
10
19.697453125000003
20
-5.963150000000001
30
0
0
VERTEX
8
0
10
19.722284375
20
-6.023096875
30
0
0
VERTEX
8
0
10
19.752871875
20
-6.080321875
30
0
0
VERTEX
8
0
10
19.788921875
20
-6.134275000000001
30
0
0
VERTEX
8
0
10
19.830084375000002
20
-6.18443125
30
0
0
VERTEX
8
0
10
19.875968750000002
20
-6.230315625
30
0
0
VERTEX
8
0
10
19.926125000000003
20
-6.271478125000001
30
0
0
VERTEX
8
0
10
19.980078125000002
20
-6.307528125
30
0
0
VERTEX
8
0
10
20.037303125
20
-6.338115625
30
0
0
VERTEX
8
0
10
20.097250000000003
20
-6.3629468750000004
30
0
0
VERTEX
8
0
10
20.15934375
20
-6.38178125
30
0
0
VERTEX
8
0
10
20.22298125
20
-6.3944406250000005
30
0
0
VERTEX
8
0
10
20.28755625
20
-6.4008
30
0
0
VERTEX
8
0
10
20.352443750000003
20
-6.4008
30
0
0
SEQEND
0
POLYLINE
66
1
8
1_copper
10
0.0
20
0.0
30
0.0
70
1
0
VERTEX
8
0
10
22.95701875
20
-6.3944406250000005
30
0
42
0.3578051432831595
0
VERTEX
8
0
10
23.520400000000002
20
-5.772843750000001
30
0
0
VERTEX
8
0
10
23.520400000000002
20
-4.38715625
30
0
42
0.9520786018124834
0
VERTEX
8
0
10
22.1996
20
-4.38715625
30
0
0
VERTEX
8
0
10
22.1996
20
-5.772843750000001
30
0
0
VERTEX
8
0
10
22.205959375000003
20
-5.83741875
30
0
0
VERTEX
8
0
10
22.21861875
20
-5.90105625
30
0
0
VERTEX
8
0
10
22.237453125000002
20
-5.963150000000001
30
0
0
VERTEX
8
0
10
22.262284375
20
-6.023096875
30
0
0
VERTEX
8
0
10
22.292871875
20
-6.080321875
30
0
0
VERTEX
8
0
10
22.328921875000002
20
-6.134275000000001
30
0
0
VERTEX
8
0
10
22.370084375
20
-6.18443125
30
0
0
VERTEX
8
0
10
22.41596875
20
-6.230315625
30
0
0
VERTEX
8
0
10
22.466125
20
-6.271478125000001
30
0
0
VERTEX
8
0
10
22.520078125
20
-6.307528125
30
0
0
VERTEX
8
0
10
22.577303125
20
-6.338115625
30
0
0
VERTEX
8
0
10
22.63725
20
-6.3629468750000004
30
0
0
VERTEX
8
0
10
22.69934375
20
-6.38178125
30
0
0
VERTEX
8
0
10
22.762981250000003
20
-6.3944406250000005
30
0
0
VERTEX
8
0
10
22.82755625
20
-6.4008
30
0
0
VERTEX
8
0
10
22.89244375
20
-6.4008
30
0
0
SEQEND
0
POLYLINE
66
1
8
16_copper
10
0.0
20
0.0
30
0.0
70
1
0
VERTEX
8
0
10
22.95701875
20
-6.3944406250000005
30
0
42
0.3578051432831595
0
VERTEX
8
0
10
23.520400000000002
20
-5.772843750000001
30
0
0
VERTEX
8
0
10
23.520400000000002
20
-4.38715625
30
0
42
0.36675309512609283
0
VERTEX
8
0
10
22.9362
20
-3.7635093750000004
30
0
0
VERTEX
8
0
10
22.9362
20
0
30
0
42
0.41421356237309503
0
VERTEX
8
0
10
22.86
20
0.0762
30
0
0
VERTEX
8
0
10
15.3162
20
0.0762
30
0
0
VERTEX
8
0
10
15.3162
20
5.08
30
0
42
0.9999999999999999
0
VERTEX
8
0
10
15.1638
20
5.08
30
0
0
VERTEX
8
0
10
15.1638
20
0
30
0
42
0.41421356237309503
0
VERTEX
8
0
10
15.24
20
-0.0762
30
0
0
VERTEX
8
0
10
22.7838
20
-0.0762
30
0
0
VERTEX
8
0
10
22.7838
20
-3.7635093750000004
30
0
42
0.36675309512609283
0
VERTEX
8
0
10
22.1996
20
-4.38715625
30
0
0
VERTEX
8
0
10
22.1996
20
-5.772843750000001
30
0
0
VERTEX
8
0
10
22.205959375000003
20
-5.83741875
30
0
0
VERTEX
8
0
10
22.21861875
20
-5.90105625
30
0
0
VERTEX
8
0
10
22.237453125000002
20
-5.963150000000001
30
0
0
VERTEX
8
0
10
22.262284375
20
-6.023096875
30
0
0
VERTEX
8
0
10
22.292871875
20
-6.080321875
30
0
0
VERTEX
8
0
10
22.328921875000002
20
-6.134275000000001
30
0
0
VERTEX
8
0
10
22.370084375
20
-6.18443125
30
0
0
VERTEX
8
0
10
22.41596875
20
-6.230315625
30
0
0
VERTEX
8
0
10
22.466125
20
-6.271478125000001
30
0
0
VERTEX
8
0
10
22.520078125
20
-6.307528125
30
0
0
VERTEX
8
0
10
22.577303125
20
-6.338115625
30
0
0
VERTEX
8
0
10
22.63725
20
-6.3629468750000004
30
0
0
VERTEX
8
0
10
22.69934375
20
-6.38178125
30
0
0
VERTEX
8
0
10
22.762981250000003
20
-6.3944406250000005
30
0
0
VERTEX
8
0
10
22.82755625
20
-6.4008
30
0
0
VERTEX
8
0
10
22.89244375
20
-6.4008
30
0
0
SEQEND
0
POLYLINE
66
1
8
1_copper
10
0.0
20
0.0
30
0.0
70
1
0
VERTEX
8
0
10
25.497018750000002
20
-6.3944406250000005
30
0
42
0.3578051432831595
0
VERTEX
8
0
10
26.0604
20
-5.772843750000001
30
0
0
VERTEX
8
0
10
26.0604
20
-4.38715625
30
0
42
0.9520786018124834
0
VERTEX
8
0
10
24.739600000000003
20
-4.38715625
30
0
0
VERTEX
8
0
10
24.739600000000003
20
-5.772843750000001
30
0
0
VERTEX
8
0
10
24.745959375
20
-5.83741875
30
0
0
VERTEX
8
0
10
24.75861875
20
-5.90105625
30
0
0
VERTEX
8
0
10
24.777453125
20
-5.963150000000001
30
0
0
VERTEX
8
0
10
24.802284375000003
20
-6.023096875
30
0
0
VERTEX
8
0
10
24.832871875000002
20
-6.080321875
30
0
0
VERTEX
8
0
10
24.868921875
20
-6.134275000000001
30
0
0
VERTEX
8
0
10
24.910084375
20
-6.18443125
30
0
0
VERTEX
8
0
10
24.95596875
20
-6.230315625
30
0
0
VERTEX
8
0
10
25.006125
20
-6.271478125000001
30
0
0
VERTEX
8
0
10
25.060078125
20
-6.307528125
30
0
0
VERTEX
8
0
10
25.117303125000003
20
-6.338115625
30
0
0
VERTEX
8
0
10
25.17725
20
-6.3629468750000004
30
0
0
VERTEX
8
0
10
25.23934375
20
-6.38178125
30
0
0
VERTEX
8
0
10
25.302981250000002
20
-6.3944406250000005
30
0
0
VERTEX
8
0
10
25.36755625
20
-6.4008
30
0
0
VERTEX
8
0
10
25.43244375
20
-6.4008
30
0
0
SEQEND
0
POLYLINE
66
1
8
16_copper
10
0.0
20
0.0
30
0.0
70
1
0
VERTEX
8
0
10
25.497018750000002
20
-6.3944406250000005
30
0
42
0.3578051432831595
0
VERTEX
8
0
10
26.0604
20
-5.772843750000001
30
0
0
VERTEX
8
0
10
26.0604
20
-4.38715625
30
0
42
0.36675309512609283
0
VERTEX
8
0
10
25.476200000000002
20
-3.7635093750000004
30
0
0
VERTEX
8
0
10
25.476200000000002
20
-1.27
30
0
42
0.41421356237309503
0
VERTEX
8
0
10
25.400000000000002
20
-1.1938
30
0
0
VERTEX
8
0
10
24.206200000000003
20
-1.1938
30
0
0
VERTEX
8
0
10
24.206200000000003
20
1.27
30
0
42
0.41421356237309503
0
VERTEX
8
0
10
24.130000000000003
20
1.3462
30
0
0
VERTEX
8
0
10
17.8562
20
1.3462
30
0
0
VERTEX
8
0
10
17.8562
20
5.08
30
0
42
0.9999999999999999
0
VERTEX
8
0
10
17.7038
20
5.08
30
0
0
VERTEX
8
0
10
17.7038
20
1.27
30
0
42
0.41421356237309503
0
VERTEX
8
0
10
17.78
20
1.1938
30
0
0
VERTEX
8
0
10
24.053800000000003
20
1.1938
30
0
0
VERTEX
8
0
10
24.053800000000003
20
-1.27
30
0
42
0.41421356237309503
0
VERTEX
8
0
10
24.130000000000003
20
-1.3462
30
0
0
VERTEX
8
0
10
25.323800000000002
20
-1.3462
30
0
0
VERTEX
8
0
10
25.323800000000002
20
-3.7635093750000004
30
0
42
0.36675309512609283
0
VERTEX
8
0
10
24.739600000000003
20
-4.38715625
30
0
0
VERTEX
8
0
10
24.739600000000003
20
-5.772843750000001
30
0
0
VERTEX
8
0
10
24.745959375
20
-5.83741875
30
0
0
VERTEX
8
0
10
24.75861875
20
-5.90105625
30
0
0
VERTEX
8
0
10
24.777453125
20
-5.963150000000001
30
0
0
VERTEX
8
0
10
24.802284375000003
20
-6.023096875
30
0
0
VERTEX
8
0
10
24.832871875000002
20
-6.080321875
30
0
0
VERTEX
8
0
10
24.868921875
20
-6.134275000000001
30
0
0
VERTEX
8
0
10
24.910084375
20
-6.18443125
30
0
0
VERTEX
8
0
10
24.95596875
20
-6.230315625
30
0
0
VERTEX
8
0
10
25.006125
20
-6.271478125000001
30
0
0
VERTEX
8
0
10
25.060078125
20
-6.307528125
30
0
0
VERTEX
8
0
10
25.117303125000003
20
-6.338115625
30
0
0
VERTEX
8
0
10
25.17725
20
-6.3629468750000004
30
0
0
VERTEX
8
0
10
25.23934375
20
-6.38178125
30
0
0
VERTEX
8
0
10
25.302981250000002
20
-6.3944406250000005
30
0
0
VERTEX
8
0
10
25.36755625
20
-6.4008
30
0
0
VERTEX
8
0
10
25.43244375
20
-6.4008
30
0
0
SEQEND
0
POLYLINE
66
1
8
1_copper
10
0.0
20
0.0
30
0.0
70
1
0
VERTEX
8
0
10
19.14701875
20
17.735559375
30
0
42
0.3578051432831595
0
VERTEX
8
0
10
19.7104
20
18.35715625
30
0
0
VERTEX
8
0
10
19.7104
20
19.742843750000002
30
0
42
0.9520786018124834
0
VERTEX
8
0
10
18.3896
20
19.742843750000002
30
0
0
VERTEX
8
0
10
18.3896
20
18.35715625
30
0
0
VERTEX
8
0
10
18.395959375
20
18.29258125
30
0
0
VERTEX
8
0
10
18.408618750000002
20
18.22894375
30
0
0
VERTEX
8
0
10
18.427453125
20
18.16685
30
0
0
VERTEX
8
0
10
18.452284375
20
18.106903125000002
30
0
0
VERTEX
8
0
10
18.482871875
20
18.049678125
30
0
0
VERTEX
8
0
10
18.518921875
20
17.995725
30
0
0
VERTEX
8
0
10
18.560084375000002
20
17.94556875
30
0
0
VERTEX
8
0
10
18.605968750000002
20
17.899684375
30
0
0
VERTEX
8
0
10
18.656125
20
17.858521875
30
0
0
VERTEX
8
0
10
18.710078125000003
20
17.822471875
30
0
0
VERTEX
8
0
10
18.767303125
20
17.791884375000002
30
0
0
VERTEX
8
0
10
18.82725
20
17.767053125
30
0
0
VERTEX
8
0
10
18.889343750000002
20
17.74821875
30
0
0
VERTEX
8
0
10
18.95298125
20
17.735559375
30
0
0
VERTEX
8
0
10
19.017556250000002
20
17.729200000000002
30
0
0
VERTEX
8
0
10
19.08244375
20
17.729200000000002
30
0
0
SEQEND
0
POLYLINE
66
1
8
16_copper
10
0.0
20
0.0
30
0.0
70
1
0
VERTEX
8
0
10
17.796893750000002
20
12.625696875000001
30
0
42
0.14139007296259895
0
VERTEX
8
0
10
17.83388125
20
12.646118750000001
30
0
0
VERTEX
8
0
10
19.10388125
20
13.91611875
30
0
42
0.198912367379658
0
VERTEX
8
0
10
19.1262
20
13.97
30
0
0
VERTEX
8
0
10
19.1262
20
17.733509375
30
0
42
0.36675309512609283
0
VERTEX
8
0
10
19.7104
20
18.35715625
30
0
0
VERTEX
8
0
10
19.7104
20
19.742843750000002
30
0
42
0.9520786018124834
0
VERTEX
8
0
10
18.3896
20
19.742843750000002
30
0
0
VERTEX
8
0
10
18.3896
20
18.35715625
30
0
42
0.36675309512609283
0
VERTEX
8
0
10
18.9738
20
17.733509375
30
0
0
VERTEX
8
0
10
18.9738
20
14.0015625
30
0
0
VERTEX
8
0
10
17.72611875
20
12.753881250000001
30
0
0
VERTEX
8
0
10
17.713084375
20
12.736450000000001
30
0
0
VERTEX
8
0
10
17.705509375000002
20
12.71604375
30
0
0
VERTEX
8
0
10
17.7040125
20
12.694328125
30
0
0
VERTEX
8
0
10
17.708715625
20
12.673075
30
0
0
VERTEX
8
0
10
17.719237500000002
20
12.65401875
30
0
0
VERTEX
8
0
10
17.734715625
20
12.638715625000001
30
0
0
VERTEX
8
0
10
17.753890625
20
12.628412500000001
30
0
0
VERTEX
8
0
10
17.775196875000002
20
12.623953125
30
0
0
SEQEND
0
POLYLINE
66
1
8
1_copper
10
0.0
20
0.0
30
0.0
70
1
0
VERTEX
8
0
10
16.60701875
20
17.735559375
30
0
42
0.3578051432831595
0
VERTEX
8
0
10
17.1704
20
18.35715625
30
0
0
VERTEX
8
0
10
17.1704
20
19.742843750000002
30
0
42
0.9520786018124834
0
VERTEX
8
0
10
15.8496
20
19.742843750000002
30
0
0
VERTEX
8
0
10
15.8496
20
18.35715625
30
0
0
VERTEX
8
0
10
15.855959375000001
20
18.29258125
30
0
0
VERTEX
8
0
10
15.868618750000001
20
18.22894375
30
0
0
VERTEX
8
0
10
15.887453125
20
18.16685
30
0
0
VERTEX
8
0
10
15.912284375
20
18.106903125000002
30
0
0
VERTEX
8
0
10
15.942871875000002
20
18.049678125
30
0
0
VERTEX
8
0
10
15.978921875000001
20
17.995725
30
0
0
VERTEX
8
0
10
16.020084375
20
17.94556875
30
0
0
VERTEX
8
0
10
16.06596875
20
17.899684375
30
0
0
VERTEX
8
0
10
16.116125
20
17.858521875
30
0
0
VERTEX
8
0
10
16.170078125
20
17.822471875
30
0
0
VERTEX
8
0
10
16.227303125000002
20
17.791884375000002
30
0
0
VERTEX
8
0
10
16.28725
20
17.767053125
30
0
0
VERTEX
8
0
10
16.34934375
20
17.74821875
30
0
0
VERTEX
8
0
10
16.41298125
20
17.735559375
30
0
0
VERTEX
8
0
10
16.47755625
20
17.729200000000002
30
0
0
VERTEX
8
0
10
16.54244375
20
17.729200000000002
30
0
0
SEQEND
0
POLYLINE
66
1
8
16_copper
10
0.0
20
0.0
30
0.0
70
1
0
VERTEX
8
0
10
15.256893750000001
20
12.625696875000001
30
0
42
0.14139007296259895
0
VERTEX
8
0
10
15.29388125
20
12.646118750000001
30
0
0
VERTEX
8
0
10
16.56388125
20
13.91611875
30
0
42
0.198912367379658
0
VERTEX
8
0
10
16.5862
20
13.97
30
0
0
VERTEX
8
0
10
16.5862
20
17.733509375
30
0
42
0.36675309512609283
0
VERTEX
8
0
10
17.1704
20
18.35715625
30
0
0
VERTEX
8
0
10
17.1704
20
19.742843750000002
30
0
42
0.9520786018124834
0
VERTEX
8
0
10
15.8496
20
19.742843750000002
30
0
0
VERTEX
8
0
10
15.8496
20
18.35715625
30
0
42
0.36675309512609283
0
VERTEX
8
0
10
16.4338
20
17.733509375
30
0
0
VERTEX
8
0
10
16.4338
20
14.0015625
30
0
0
VERTEX
8
0
10
15.18611875
20
12.753881250000001
30
0
0
VERTEX
8
0
10
15.173084375
20
12.736450000000001
30
0
0
VERTEX
8
0
10
15.165509375000001
20
12.71604375
30
0
0
VERTEX
8
0
10
15.1640125
20
12.694328125
30
0
0
VERTEX
8
0
10
15.168715625
20
12.673075
30
0
0
VERTEX
8
0
10
15.179237500000001
20
12.65401875
30
0
0
VERTEX
8
0
10
15.194715625
20
12.638715625000001
30
0
0
VERTEX
8
0
10
15.213890625000001
20
12.628412500000001
30
0
0
VERTEX
8
0
10
15.235196875000002
20
12.623953125
30
0
0
SEQEND
0
POLYLINE
66
1
8
1_copper
10
0.0
20
0.0
30
0.0
70
1
0
VERTEX
8
0
10
14.06701875
20
17.735559375
30
0
42
0.3578051432831595
0
VERTEX
8
0
10
14.6304
20
18.35715625
30
0
0
VERTEX
8
0
10
14.6304
20
19.742843750000002
30
0
42
0.9520786018124834
0
VERTEX
8
0
10
13.309600000000001
20
19.742843750000002
30
0
0
VERTEX
8
0
10
13.309600000000001
20
18.35715625
30
0
0
VERTEX
8
0
10
13.315959375
20
18.29258125
30
0
0
VERTEX
8
0
10
13.32861875
20
18.22894375
30
0
0
VERTEX
8
0
10
13.347453125000001
20
18.16685
30
0
0
VERTEX
8
0
10
13.372284375000001
20
18.106903125000002
30
0
0
VERTEX
8
0
10
13.402871875
20
18.049678125
30
0
0
VERTEX
8
0
10
13.438921875
20
17.995725
30
0
0
VERTEX
8
0
10
13.480084375
20
17.94556875
30
0
0
VERTEX
8
0
10
13.52596875
20
17.899684375
30
0
0
VERTEX
8
0
10
13.576125000000001
20
17.858521875
30
0
0
VERTEX
8
0
10
13.630078125
20
17.822471875
30
0
0
VERTEX
8
0
10
13.687303125000001
20
17.791884375000002
30
0
0
VERTEX
8
0
10
13.747250000000001
20
17.767053125
30
0
0
VERTEX
8
0
10
13.80934375
20
17.74821875
30
0
0
VERTEX
8
0
10
13.87298125
20
17.735559375
30
0
0
VERTEX
8
0
10
13.93755625
20
17.729200000000002
30
0
0
VERTEX
8
0
10
14.002443750000001
20
17.729200000000002
30
0
0
SEQEND
0
POLYLINE
66
1
8
16_copper
10
0.0
20
0.0
30
0.0
70
1
0
VERTEX
8
0
10
12.71689375
20
12.625696875000001
30
0
42
0.14139007296259895
0
VERTEX
8
0
10
12.753881250000001
20
12.646118750000001
30
0
0
VERTEX
8
0
10
14.02388125
20
13.91611875
30
0
42
0.198912367379658
0
VERTEX
8
0
10
14.0462
20
13.97
30
0
0
VERTEX
8
0
10
14.0462
20
17.733509375
30
0
42
0.36675309512609283
0
VERTEX
8
0
10
14.6304
20
18.35715625
30
0
0
VERTEX
8
0
10
14.6304
20
19.742843750000002
30
0
42
0.9520786018124834
0
VERTEX
8
0
10
13.309600000000001
20
19.742843750000002
30
0
0
VERTEX
8
0
10
13.309600000000001
20
18.35715625
30
0
42
0.36675309512609283
0
VERTEX
8
0
10
13.8938
20
17.733509375
30
0
0
VERTEX
8
0
10
13.8938
20
14.0015625
30
0
0
VERTEX
8
0
10
12.646118750000001
20
12.753881250000001
30
0
0
VERTEX
8
0
10
12.633084375000001
20
12.736450000000001
30
0
0
VERTEX
8
0
10
12.625509375
20
12.71604375
30
0
0
VERTEX
8
0
10
12.624012500000001
20
12.694328125
30
0
0
VERTEX
8
0
10
12.628715625
20
12.673075
30
0
0
VERTEX
8
0
10
12.6392375
20
12.65401875
30
0
0
VERTEX
8
0
10
12.654715625000001
20
12.638715625000001
30
0
0
VERTEX
8
0
10
12.673890625
20
12.628412500000001
30
0
0
VERTEX
8
0
10
12.695196875
20
12.623953125
30
0
0
SEQEND
0
POLYLINE
66
1
8
1_copper
10
0.0
20
0.0
30
0.0
70
1
0
VERTEX
8
0
10
11.52701875
20
17.735559375
30
0
42
0.3578051432831595
0
VERTEX
8
0
10
12.0904
20
18.35715625
30
0
0
VERTEX
8
0
10
12.0904
20
19.742843750000002
30
0
42
0.9520786018124834
0
VERTEX
8
0
10
10.7696
20
19.742843750000002
30
0
0
VERTEX
8
0
10
10.7696
20
18.35715625
30
0
0
VERTEX
8
0
10
10.775959375000001
20
18.29258125
30
0
0
VERTEX
8
0
10
10.788618750000001
20
18.22894375
30
0
0
VERTEX
8
0
10
10.807453125
20
18.16685
30
0
0
VERTEX
8
0
10
10.832284375
20
18.106903125000002
30
0
0
VERTEX
8
0
10
10.862871875
20
18.049678125
30
0
0
VERTEX
8
0
10
10.898921875000001
20
17.995725
30
0
0
VERTEX
8
0
10
10.940084375
20
17.94556875
30
0
0
VERTEX
8
0
10
10.985968750000001
20
17.899684375
30
0
0
VERTEX
8
0
10
11.036125
20
17.858521875
30
0
0
VERTEX
8
0
10
11.090078125
20
17.822471875
30
0
0
VERTEX
8
0
10
11.147303125
20
17.791884375000002
30
0
0
VERTEX
8
0
10
11.20725
20
17.767053125
30
0
0
VERTEX
8
0
10
11.26934375
20
17.74821875
30
0
0
VERTEX
8
0
10
11.332981250000001
20
17.735559375
30
0
0
VERTEX
8
0
10
11.397556250000001
20
17.729200000000002
30
0
0
VERTEX
8
0
10
11.46244375
20
17.729200000000002
30
0
0
SEQEND
0
POLYLINE
66
1
8
16_copper
10
0.0
20
0.0
30
0.0
70
1
0
VERTEX
8
0
10
10.17689375
20
12.625696875000001
30
0
42
0.14139007296259895
0
VERTEX
8
0
10
10.21388125
20
12.646118750000001
30
0
0
VERTEX
8
0
10
11.483881250000001
20
13.91611875
30
0
42
0.198912367379658
0
VERTEX
8
0
10
11.5062
20
13.97
30
0
0
VERTEX
8
0
10
11.5062
20
17.733509375
30
0
42
0.36675309512609283
0
VERTEX
8
0
10
12.0904
20
18.35715625
30
0
0
VERTEX
8
0
10
12.0904
20
19.742843750000002
30
0
42
0.9520786018124834
0
VERTEX
8
0
10
10.7696
20
19.742843750000002
30
0
0
VERTEX
8
0
10
10.7696
20
18.35715625
30
0
42
0.36675309512609283
0
VERTEX
8
0
10
11.3538
20
17.733509375
30
0
0
VERTEX
8
0
10
11.3538
20
14.0015625
30
0
0
VERTEX
8
0
10
10.10611875
20
12.753881250000001
30
0
0
VERTEX
8
0
10
10.093084375
20
12.736450000000001
30
0
0
VERTEX
8
0
10
10.085509375
20
12.71604375
30
0
0
VERTEX
8
0
10
10.0840125
20
12.694328125
30
0
0
VERTEX
8
0
10
10.088715625
20
12.673075
30
0
0
VERTEX
8
0
10
10.099237500000001
20
12.65401875
30
0
0
VERTEX
8
0
10
10.114715625
20
12.638715625000001
30
0
0
VERTEX
8
0
10
10.133890625000001
20
12.628412500000001
30
0
0
VERTEX
8
0
10
10.155196875
20
12.623953125
30
0
0
SEQEND
0
POLYLINE
66
1
8
1_copper
10
0.0
20
0.0
30
0.0
70
1
0
VERTEX
8
0
10
8.98701875
20
17.735559375
30
0
42
0.3578051432831595
0
VERTEX
8
0
10
9.5504
20
18.35715625
30
0
0
VERTEX
8
0
10
9.5504
20
19.742843750000002
30
0
42
0.9520786018124834
0
VERTEX
8
0
10
8.2296
20
19.742843750000002
30
0
0
VERTEX
8
0
10
8.2296
20
18.35715625
30
0
0
VERTEX
8
0
10
8.235959375
20
18.29258125
30
0
0
VERTEX
8
0
10
8.24861875
20
18.22894375
30
0
0
VERTEX
8
0
10
8.267453125000001
20
18.16685
30
0
0
VERTEX
8
0
10
8.292284375000001
20
18.106903125000002
30
0
0
VERTEX
8
0
10
8.322871875
20
18.049678125
30
0
0
VERTEX
8
0
10
8.358921875
20
17.995725
30
0
0
VERTEX
8
0
10
8.400084375
20
17.94556875
30
0
0
VERTEX
8
0
10
8.44596875
20
17.899684375
30
0
0
VERTEX
8
0
10
8.496125000000001
20
17.858521875
30
0
0
VERTEX
8
0
10
8.550078125
20
17.822471875
30
0
0
VERTEX
8
0
10
8.607303125
20
17.791884375000002
30
0
0
VERTEX
8
0
10
8.667250000000001
20
17.767053125
30
0
0
VERTEX
8
0
10
8.72934375
20
17.74821875
30
0
0
VERTEX
8
0
10
8.79298125
20
17.735559375
30
0
0
VERTEX
8
0
10
8.85755625
20
17.729200000000002
30
0
0
VERTEX
8
0
10
8.922443750000001
20
17.729200000000002
30
0
0
SEQEND
0
POLYLINE
66
1
8
16_copper
10
0.0
20
0.0
30
0.0
70
1
0
VERTEX
8
0
10
7.6368937500000005
20
12.625696875000001
30
0
42
0.14139007296259895
0
VERTEX
8
0
10
7.67388125
20
12.646118750000001
30
0
0
VERTEX
8
0
10
8.94388125
20
13.91611875
30
0
42
0.198912367379658
0
VERTEX
8
0
10
8.9662
20
13.97
30
0
0
VERTEX
8
0
10
8.9662
20
17.733509375
30
0
42
0.36675309512609283
0
VERTEX
8
0
10
9.5504
20
18.35715625
30
0
0
VERTEX
8
0
10
9.5504
20
19.742843750000002
30
0
42
0.9520786018124834
0
VERTEX
8
0
10
8.2296
20
19.742843750000002
30
0
0
VERTEX
8
0
10
8.2296
20
18.35715625
30
0
42
0.36675309512609283
0
VERTEX
8
0
10
8.8138
20
17.733509375
30
0
0
VERTEX
8
0
10
8.8138
20
14.0015625
30
0
0
VERTEX
8
0
10
7.56611875
20
12.753881250000001
30
0
0
VERTEX
8
0
10
7.553084375
20
12.736450000000001
30
0
0
VERTEX
8
0
10
7.545509375
20
12.71604375
30
0
0
VERTEX
8
0
10
7.5440125
20
12.694328125
30
0
0
VERTEX
8
0
10
7.548715625000001
20
12.673075
30
0
0
VERTEX
8
0
10
7.5592375
20
12.65401875
30
0
0
VERTEX
8
0
10
7.5747156250000005
20
12.638715625000001
30
0
0
VERTEX
8
0
10
7.593890625
20
12.628412500000001
30
0
0
VERTEX
8
0
10
7.6151968750000005
20
12.623953125
30
0
0
SEQEND
0
POLYLINE
66
1
8
1_copper
10
0.0
20
0.0
30
0.0
70
1
0
VERTEX
8
0
10
-15.14298125
20
17.735559375
30
0
42
0.3578051432831595
0
VERTEX
8
0
10
-14.579600000000001
20
18.35715625
30
0
0
VERTEX
8
0
10
-14.579600000000001
20
19.742843750000002
30
0
42
0.9520786018124834
0
VERTEX
8
0
10
-15.900400000000001
20
19.742843750000002
30
0
0
VERTEX
8
0
10
-15.900400000000001
20
18.35715625
30
0
0
VERTEX
8
0
10
-15.894040625
20
18.29258125
30
0
0
VERTEX
8
0
10
-15.88138125
20
18.22894375
30
0
0
VERTEX
8
0
10
-15.862546875000001
20
18.16685
30
0
0
VERTEX
8
0
10
-15.837715625000001
20
18.106903125000002
30
0
0
VERTEX
8
0
10
-15.807128125
20
18.049678125
30
0
0
VERTEX
8
0
10
-15.771078125
20
17.995725
30
0
0
VERTEX
8
0
10
-15.729915625
20
17.94556875
30
0
0
VERTEX
8
0
10
-15.68403125
20
17.899684375
30
0
0
VERTEX
8
0
10
-15.633875000000002
20
17.858521875
30
0
0
VERTEX
8
0
10
-15.579921875
20
17.822471875
30
0
0
VERTEX
8
0
10
-15.522696875000001
20
17.791884375000002
30
0
0
VERTEX
8
0
10
-15.462750000000002
20
17.767053125
30
0
0
VERTEX
8
0
10
-15.40065625
20
17.74821875
30
0
0
VERTEX
8
0
10
-15.33701875
20
17.735559375
30
0
0
VERTEX
8
0
10
-15.27244375
20
17.729200000000002
30
0
0
VERTEX
8
0
10
-15.207556250000001
20
17.729200000000002
30
0
0
SEQEND
0
POLYLINE
66
1
8
16_copper
10
0.0
20
0.0
30
0.0
70
1
0
VERTEX
8
0
10
-15.228684375
20
12.62464375
30
0
42
0.3712023256762844
0
VERTEX
8
0
10
-15.1638
20
12.700000000000001
30
0
0
VERTEX
8
0
10
-15.1638
20
17.733509375
30
0
42
0.36675309512609283
0
VERTEX
8
0
10
-14.579600000000001
20
18.35715625
30
0
0
VERTEX
8
0
10
-14.579600000000001
20
19.742843750000002
30
0
42
0.9520786018124834
0
VERTEX
8
0
10
-15.900400000000001
20
19.742843750000002
30
0
0
VERTEX
8
0
10
-15.900400000000001
20
18.35715625
30
0
42
0.36675309512609283
0
VERTEX
8
0
10
-15.3162
20
17.733509375
30
0
0
VERTEX
8
0
10
-15.3162
20
12.700000000000001
30
0
0
VERTEX
8
0
10
-15.313090625000001
20
12.67845625
30
0
0
VERTEX
8
0
10
-15.304018750000001
20
12.65866875
30
0
0
VERTEX
8
0
10
-15.289721875000001
20
12.64225625
30
0
0
VERTEX
8
0
10
-15.271365625000001
20
12.630556250000001
30
0
0
VERTEX
8
0
10
-15.250453125
20
12.62451875
30
0
0
SEQEND
0
POLYLINE
66
1
8
1_copper
10
0.0
20
0.0
30
0.0
70
1
0
VERTEX
8
0
10
-12.602981250000001
20
17.735559375
30
0
42
0.3578051432831595
0
VERTEX
8
0
10
-12.0396
20
18.35715625
30
0
0
VERTEX
8
0
10
-12.0396
20
19.742843750000002
30
0
42
0.9520786018124834
0
VERTEX
8
0
10
-13.3604
20
19.742843750000002
30
0
0
VERTEX
8
0
10
-13.3604
20
18.35715625
30
0
0
VERTEX
8
0
10
-13.354040625000001
20
18.29258125
30
0
0
VERTEX
8
0
10
-13.341381250000001
20
18.22894375
30
0
0
VERTEX
8
0
10
-13.322546875
20
18.16685
30
0
0
VERTEX
8
0
10
-13.297715625
20
18.106903125000002
30
0
0
VERTEX
8
0
10
-13.267128125000001
20
18.049678125
30
0
0
VERTEX
8
0
10
-13.231078125
20
17.995725
30
0
0
VERTEX
8
0
10
-13.189915625000001
20
17.94556875
30
0
0
VERTEX
8
0
10
-13.144031250000001
20
17.899684375
30
0
0
VERTEX
8
0
10
-13.093875
20
17.858521875
30
0
0
VERTEX
8
0
10
-13.039921875000001
20
17.822471875
30
0
0
VERTEX
8
0
10
-12.982696875
20
17.791884375000002
30
0
0
VERTEX
8
0
10
-12.92275
20
17.767053125
30
0
0
VERTEX
8
0
10
-12.86065625
20
17.74821875
30
0
0
VERTEX
8
0
10
-12.797018750000001
20
17.735559375
30
0
0
VERTEX
8
0
10
-12.73244375
20
17.729200000000002
30
0
0
VERTEX
8
0
10
-12.66755625
20
17.729200000000002
30
0
0
SEQEND
0
POLYLINE
66
1
8
16_copper
10
0.0
20
0.0
30
0.0
70
1
0
VERTEX
8
0
10
-12.688684375000001
20
12.62464375
30
0
42
0.3712023256762844
0
VERTEX
8
0
10
-12.623800000000001
20
12.700000000000001
30
0
0
VERTEX
8
0
10
-12.623800000000001
20
17.733509375
30
0
42
0.36675309512609283
0
VERTEX
8
0
10
-12.0396
20
18.35715625
30
0
0
VERTEX
8
0
10
-12.0396
20
19.742843750000002
30
0
42
0.9520786018124834
0
VERTEX
8
0
10
-13.3604
20
19.742843750000002
30
0
0
VERTEX
8
0
10
-13.3604
20
18.35715625
30
0
42
0.36675309512609283
0
VERTEX
8
0
10
-12.776200000000001
20
17.733509375
30
0
0
VERTEX
8
0
10
-12.776200000000001
20
12.700000000000001
30
0
0
VERTEX
8
0
10
-12.773090625
20
12.67845625
30
0
0
VERTEX
8
0
10
-12.76401875
20
12.65866875
30
0
0
VERTEX
8
0
10
-12.749721875
20
12.64225625
30
0
0
VERTEX
8
0
10
-12.731365625
20
12.630556250000001
30
0
0
VERTEX
8
0
10
-12.710453125
20
12.62451875
30
0
0
SEQEND
0
POLYLINE
66
1
8
1_copper
10
0.0
20
0.0
30
0.0
70
1
0
VERTEX
8
0
10
-10.06298125
20
17.735559375
30
0
42
0.3578051432831595
0
VERTEX
8
0
10
-9.499600000000001
20
18.35715625
30
0
0
VERTEX
8
0
10
-9.499600000000001
20
19.742843750000002
30
0
42
0.9520786018124834
0
VERTEX
8
0
10
-10.820400000000001
20
19.742843750000002
30
0
0
VERTEX
8
0
10
-10.820400000000001
20
18.35715625
30
0
0
VERTEX
8
0
10
-10.814040625
20
18.29258125
30
0
0
VERTEX
8
0
10
-10.80138125
20
18.22894375
30
0
0
VERTEX
8
0
10
-10.782546875000001
20
18.16685
30
0
0
VERTEX
8
0
10
-10.757715625000001
20
18.106903125000002
30
0
0
VERTEX
8
0
10
-10.727128125
20
18.049678125
30
0
0
VERTEX
8
0
10
-10.691078125
20
17.995725
30
0
0
VERTEX
8
0
10
-10.649915625
20
17.94556875
30
0
0
VERTEX
8
0
10
-10.60403125
20
17.899684375
30
0
0
VERTEX
8
0
10
-10.553875
20
17.858521875
30
0
0
VERTEX
8
0
10
-10.499921875
20
17.822471875
30
0
0
VERTEX
8
0
10
-10.442696875000001
20
17.791884375000002
30
0
0
VERTEX
8
0
10
-10.38275
20
17.767053125
30
0
0
VERTEX
8
0
10
-10.32065625
20
17.74821875
30
0
0
VERTEX
8
0
10
-10.25701875
20
17.735559375
30
0
0
VERTEX
8
0
10
-10.19244375
20
17.729200000000002
30
0
0
VERTEX
8
0
10
-10.127556250000001
20
17.729200000000002
30
0
0
SEQEND
0
POLYLINE
66
1
8
16_copper
10
0.0
20
0.0
30
0.0
70
1
0
VERTEX
8
0
10
-10.148684375
20
12.62464375
30
0
42
0.3712023256762844
0
VERTEX
8
0
10
-10.0838
20
12.700000000000001
30
0
0
VERTEX
8
0
10
-10.0838
20
17.733509375
30
0
42
0.36675309512609283
0
VERTEX
8
0
10
-9.499600000000001
20
18.35715625
30
0
0
VERTEX
8
0
10
-9.499600000000001
20
19.742843750000002
30
0
42
0.9520786018124834
0
VERTEX
8
0
10
-10.820400000000001
20
19.742843750000002
30
0
0
VERTEX
8
0
10
-10.820400000000001
20
18.35715625
30
0
42
0.36675309512609283
0
VERTEX
8
0
10
-10.2362
20
17.733509375
30
0
0
VERTEX
8
0
10
-10.2362
20
12.700000000000001
30
0
0
VERTEX
8
0
10
-10.233090625
20
12.67845625
30
0
0
VERTEX
8
0
10
-10.22401875
20
12.65866875
30
0
0
VERTEX
8
0
10
-10.209721875
20
12.64225625
30
0
0
VERTEX
8
0
10
-10.191365625000001
20
12.630556250000001
30
0
0
VERTEX
8
0
10
-10.170453125
20
12.62451875
30
0
0
SEQEND
0
POLYLINE
66
1
8
1_copper
10
0.0
20
0.0
30
0.0
70
1
0
VERTEX
8
0
10
-7.52298125
20
17.735559375
30
0
42
0.3578051432831595
0
VERTEX
8
0
10
-6.9596
20
18.35715625
30
0
0
VERTEX
8
0
10
-6.9596
20
19.742843750000002
30
0
42
0.9520786018124834
0
VERTEX
8
0
10
-8.2804
20
19.742843750000002
30
0
0
VERTEX
8
0
10
-8.2804
20
18.35715625
30
0
0
VERTEX
8
0
10
-8.274040625
20
18.29258125
30
0
0
VERTEX
8
0
10
-8.261381250000001
20
18.22894375
30
0
0
VERTEX
8
0
10
-8.242546875
20
18.16685
30
0
0
VERTEX
8
0
10
-8.217715625
20
18.106903125000002
30
0
0
VERTEX
8
0
10
-8.187128125000001
20
18.049678125
30
0
0
VERTEX
8
0
10
-8.151078125
20
17.995725
30
0
0
VERTEX
8
0
10
-8.109915625000001
20
17.94556875
30
0
0
VERTEX
8
0
10
-8.064031250000001
20
17.899684375
30
0
0
VERTEX
8
0
10
-8.013875
20
17.858521875
30
0
0
VERTEX
8
0
10
-7.959921875
20
17.822471875
30
0
0
VERTEX
8
0
10
-7.902696875
20
17.791884375000002
30
0
0
VERTEX
8
0
10
-7.8427500000000006
20
17.767053125
30
0
0
VERTEX
8
0
10
-7.780656250000001
20
17.74821875
30
0
0
VERTEX
8
0
10
-7.71701875
20
17.735559375
30
0
0
VERTEX
8
0
10
-7.652443750000001
20
17.729200000000002
30
0
0
VERTEX
8
0
10
-7.5875562500000004
20
17.729200000000002
30
0
0
SEQEND
0
POLYLINE
66
1
8
16_copper
10
0.0
20
0.0
30
0.0
70
1
0
VERTEX
8
0
10
-7.608684375
20
12.62464375
30
0
42
0.3712023256762844
0
VERTEX
8
0
10
-7.5438
20
12.700000000000001
30
0
0
VERTEX
8
0
10
-7.5438
20
17.733509375
30
0
42
0.36675309512609283
0
VERTEX
8
0
10
-6.9596
20
18.35715625
30
0
0
VERTEX
8
0
10
-6.9596
20
19.742843750000002
30
0
42
0.9520786018124834
0
VERTEX
8
0
10
-8.2804
20
19.742843750000002
30
0
0
VERTEX
8
0
10
-8.2804
20
18.35715625
30
0
42
0.36675309512609283
0
VERTEX
8
0
10
-7.6962
20
17.733509375
30
0
0
VERTEX
8
0
10
-7.6962
20
12.700000000000001
30
0
0
VERTEX
8
0
10
-7.693090625
20
12.67845625
30
0
0
VERTEX
8
0
10
-7.684018750000001
20
12.65866875
30
0
0
VERTEX
8
0
10
-7.6697218750000005
20
12.64225625
30
0
0
VERTEX
8
0
10
-7.651365625
20
12.630556250000001
30
0
0
VERTEX
8
0
10
-7.630453125000001
20
12.62451875
30
0
0
SEQEND
0
POLYLINE
66
1
8
1_copper
10
0.0
20
0.0
30
0.0
70
1
0
VERTEX
8
0
10
-4.98298125
20
17.735559375
30
0
42
0.3578051432831595
0
VERTEX
8
0
10
-4.4196
20
18.35715625
30
0
0
VERTEX
8
0
10
-4.4196
20
19.742843750000002
30
0
42
0.9520786018124834
0
VERTEX
8
0
10
-5.7404
20
19.742843750000002
30
0
0
VERTEX
8
0
10
-5.7404
20
18.35715625
30
0
0
VERTEX
8
0
10
-5.7340406250000004
20
18.29258125
30
0
0
VERTEX
8
0
10
-5.72138125
20
18.22894375
30
0
0
VERTEX
8
0
10
-5.702546875
20
18.16685
30
0
0
VERTEX
8
0
10
-5.677715625
20
18.106903125000002
30
0
0
VERTEX
8
0
10
-5.647128125
20
18.049678125
30
0
0
VERTEX
8
0
10
-5.611078125000001
20
17.995725
30
0
0
VERTEX
8
0
10
-5.569915625
20
17.94556875
30
0
0
VERTEX
8
0
10
-5.52403125
20
17.899684375
30
0
0
VERTEX
8
0
10
-5.4738750000000005
20
17.858521875
30
0
0
VERTEX
8
0
10
-5.419921875
20
17.822471875
30
0
0
VERTEX
8
0
10
-5.362696875
20
17.791884375000002
30
0
0
VERTEX
8
0
10
-5.3027500000000005
20
17.767053125
30
0
0
VERTEX
8
0
10
-5.240656250000001
20
17.74821875
30
0
0
VERTEX
8
0
10
-5.17701875
20
17.735559375
30
0
0
VERTEX
8
0
10
-5.112443750000001
20
17.729200000000002
30
0
0
VERTEX
8
0
10
-5.04755625
20
17.729200000000002
30
0
0
SEQEND
0
POLYLINE
66
1
8
16_copper
10
0.0
20
0.0
30
0.0
70
1
0
VERTEX
8
0
10
-5.068684375
20
12.62464375
30
0
42
0.3712023256762844
0
VERTEX
8
0
10
-5.0038
20
12.700000000000001
30
0
0
VERTEX
8
0
10
-5.0038
20
17.733509375
30
0
42
0.36675309512609283
0
VERTEX
8
0
10
-4.4196
20
18.35715625
30
0
0
VERTEX
8
0
10
-4.4196
20
19.742843750000002
30
0
42
0.9520786018124834
0
VERTEX
8
0
10
-5.7404
20
19.742843750000002
30
0
0
VERTEX
8
0
10
-5.7404
20
18.35715625
30
0
42
0.36675309512609283
0
VERTEX
8
0
10
-5.1562
20
17.733509375
30
0
0
VERTEX
8
0
10
-5.1562
20
12.700000000000001
30
0
0
VERTEX
8
0
10
-5.153090625
20
12.67845625
30
0
0
VERTEX
8
0
10
-5.14401875
20
12.65866875
30
0
0
VERTEX
8
0
10
-5.129721875
20
12.64225625
30
0
0
VERTEX
8
0
10
-5.111365625
20
12.630556250000001
30
0
0
VERTEX
8
0
10
-5.090453125
20
12.62451875
30
0
0
SEQEND
0
POLYLINE
66
1
8
1_copper
10
0.0
20
0.0
30
0.0
70
1
0
VERTEX
8
0
10
-2.4429812500000003
20
17.735559375
30
0
42
0.3578051432831595
0
VERTEX
8
0
10
-1.8796000000000002
20
18.35715625
30
0
0
VERTEX
8
0
10
-1.8796000000000002
20
19.742843750000002
30
0
42
0.9520786018124834
0
VERTEX
8
0
10
-3.2004
20
19.742843750000002
30
0
0
VERTEX
8
0
10
-3.2004
20
18.35715625
30
0
0
VERTEX
8
0
10
-3.194040625
20
18.29258125
30
0
0
VERTEX
8
0
10
-3.1813812500000003
20
18.22894375
30
0
0
VERTEX
8
0
10
-3.1625468750000003
20
18.16685
30
0
0
VERTEX
8
0
10
-3.1377156250000002
20
18.106903125000002
30
0
0
VERTEX
8
0
10
-3.107128125
20
18.049678125
30
0
0
VERTEX
8
0
10
-3.071078125
20
17.995725
30
0
0
VERTEX
8
0
10
-3.029915625
20
17.94556875
30
0
0
VERTEX
8
0
10
-2.98403125
20
17.899684375
30
0
0
VERTEX
8
0
10
-2.933875
20
17.858521875
30
0
0
VERTEX
8
0
10
-2.879921875
20
17.822471875
30
0
0
VERTEX
8
0
10
-2.822696875
20
17.791884375000002
30
0
0
VERTEX
8
0
10
-2.76275
20
17.767053125
30
0
0
VERTEX
8
0
10
-2.70065625
20
17.74821875
30
0
0
VERTEX
8
0
10
-2.63701875
20
17.735559375
30
0
0
VERTEX
8
0
10
-2.57244375
20
17.729200000000002
30
0
0
VERTEX
8
0
10
-2.50755625
20
17.729200000000002
30
0
0
SEQEND
0
POLYLINE
66
1
8
16_copper
10
0.0
20
0.0
30
0.0
70
1
0
VERTEX
8
0
10
-2.528684375
20
12.62464375
30
0
42
0.3712023256762844
0
VERTEX
8
0
10
-2.4638
20
12.700000000000001
30
0
0
VERTEX
8
0
10
-2.4638
20
17.733509375
30
0
42
0.36675309512609283
0
VERTEX
8
0
10
-1.8796000000000002
20
18.35715625
30
0
0
VERTEX
8
0
10
-1.8796000000000002
20
19.742843750000002
30
0
42
0.9520786018124834
0
VERTEX
8
0
10
-3.2004
20
19.742843750000002
30
0
0
VERTEX
8
0
10
-3.2004
20
18.35715625
30
0
42
0.36675309512609283
0
VERTEX
8
0
10
-2.6162
20
17.733509375
30
0
0
VERTEX
8
0
10
-2.6162
20
12.700000000000001
30
0
0
VERTEX
8
0
10
-2.6130906250000003
20
12.67845625
30
0
0
VERTEX
8
0
10
-2.6040187500000003
20
12.65866875
30
0
0
VERTEX
8
0
10
-2.589721875
20
12.64225625
30
0
0
VERTEX
8
0
10
-2.5713656250000003
20
12.630556250000001
30
0
0
VERTEX
8
0
10
-2.550453125
20
12.62451875
30
0
0
SEQEND
0
CIRCLE
8
drills_NPTH
10
-31.75
20
-33.02
30
0
40
1
0
CIRCLE
8
drills_NPTH
10
26.67
20
-33.02
30
0
40
1
0
CIRCLE
8
drills_NPTH
10
26.67
20
35.56
30
0
40
1
0
CIRCLE
8
drills_NPTH
10
-31.75
20
35.56
30
0
40
1
0
CIRCLE
8
drills_NPTH
10
-31.75
20
1.27
30
0
40
1
0
CIRCLE
8
drills_NPTH
10
26.67
20
1.27
30
0
40
1
0
CIRCLE
8
drills_PTH
10
-26.1112
20
5.3594
30
0
40
0.508
0
CIRCLE
8
drills_PTH
10
-26.1112
20
9.880600000000001
30
0
40
0.508
0
CIRCLE
8
drills_PTH
10
-19.608800000000002
20
9.880600000000001
30
0
40
0.508
0
CIRCLE
8
drills_PTH
10
-19.608800000000002
20
5.3594
30
0
40
0.508
0
CIRCLE
8
drills_PTH
10
-8.89
20
-27.94
30
0
40
0.508
0
CIRCLE
8
drills_PTH
10
-8.89
20
-25.400000000000002
30
0
40
0.508
0
CIRCLE
8
drills_PTH
10
-8.89
20
-22.86
30
0
40
0.508
0
CIRCLE
8
drills_PTH
10
6.3500000000000005
20
-12.700000000000001
30
0
40
0.40640000000000004
0
CIRCLE
8
drills_PTH
10
11.43
20
-15.24
30
0
40
0.40640000000000004
0
CIRCLE
8
drills_PTH
10
11.43
20
-12.700000000000001
30
0
40
0.40640000000000004
0
CIRCLE
8
drills_PTH
10
-24.130000000000003
20
-25.400000000000002
30
0
40
0.40640000000000004
0
CIRCLE
8
drills_PTH
10
-24.130000000000003
20
-27.94
30
0
40
0.40640000000000004
0
CIRCLE
8
drills_PTH
10
-19.05
20
-3.81
30
0
40
0.40640000000000004
0
CIRCLE
8
drills_PTH
10
-21.59
20
-3.81
30
0
40
0.40640000000000004
0
CIRCLE
8
drills_PTH
10
-16.51
20
-3.81
30
0
40
0.40640000000000004
0
CIRCLE
8
drills_PTH
10
-13.97
20
-3.81
30
0
40
0.40640000000000004
0
CIRCLE
8
drills_PTH
10
-11.43
20
-3.81
30
0
40
0.40640000000000004
0
CIRCLE
8
drills_PTH
10
20.32
20
-5.08
30
0
40
0.40640000000000004
0
CIRCLE
8
drills_PTH
10
17.78
20
-5.08
30
0
40
0.40640000000000004
0
CIRCLE
8
drills_PTH
10
22.86
20
-5.08
30
0
40
0.40640000000000004
0
CIRCLE
8
drills_PTH
10
25.400000000000002
20
-5.08
30
0
40
0.40640000000000004
0
CIRCLE
8
drills_PTH
10
16.51
20
19.05
30
0
40
0.40640000000000004
0
CIRCLE
8
drills_PTH
10
19.05
20
19.05
30
0
40
0.40640000000000004
0
CIRCLE
8
drills_PTH
10
13.97
20
19.05
30
0
40
0.40640000000000004
0
CIRCLE
8
drills_PTH
10
11.43
20
19.05
30
0
40
0.40640000000000004
0
CIRCLE
8
drills_PTH
10
8.89
20
19.05
30
0
40
0.40640000000000004
0
CIRCLE
8
drills_PTH
10
-12.700000000000001
20
19.05
30
0
40
0.40640000000000004
0
CIRCLE
8
drills_PTH
10
-15.24
20
19.05
30
0
40
0.40640000000000004
0
CIRCLE
8
drills_PTH
10
-7.62
20
19.05
30
0
40
0.40640000000000004
0
CIRCLE
8
drills_PTH
10
-5.08
20
19.05
30
0
40
0.40640000000000004
0
CIRCLE
8
drills_PTH
10
-2.54
20
19.05
30
0
40
0.40640000000000004
0
CIRCLE
8
drills_PTH
10
1.27
20
-8.89
30
0
40
0.40640000000000004
0
CIRCLE
8
drills_PTH
10
-6.3500000000000005
20
-8.89
30
0
40
0.40640000000000004
0
CIRCLE
8
drills_PTH
10
-10.16
20
19.05
30
0
40
0.40640000000000004
0
CIRCLE
8
drills_PTH
10
-15.24
20
5.08
30
0
40
0.40640000000000004
0
CIRCLE
8
drills_PTH
10
-12.700000000000001
20
5.08
30
0
40
0.40640000000000004
0
CIRCLE
8
drills_PTH
10
-10.16
20
5.08
30
0
40
0.40640000000000004
0
CIRCLE
8
drills_PTH
10
-7.62
20
5.08
30
0
40
0.40640000000000004
0
CIRCLE
8
drills_PTH
10
-5.08
20
5.08
30
0
40
0.40640000000000004
0
CIRCLE
8
drills_PTH
10
-2.54
20
5.08
30
0
40
0.40640000000000004
0
CIRCLE
8
drills_PTH
10
0
20
5.08
30
0
40
0.40640000000000004
0
CIRCLE
8
drills_PTH
10
2.54
20
5.08
30
0
40
0.40640000000000004
0
CIRCLE
8
drills_PTH
10
5.08
20
5.08
30
0
40
0.40640000000000004
0
CIRCLE
8
drills_PTH
10
7.62
20
5.08
30
0
40
0.40640000000000004
0
CIRCLE
8
drills_PTH
10
10.16
20
5.08
30
0
40
0.40640000000000004
0
CIRCLE
8
drills_PTH
10
12.700000000000001
20
5.08
30
0
40
0.40640000000000004
0
CIRCLE
8
drills_PTH
10
15.24
20
5.08
30
0
40
0.40640000000000004
0
CIRCLE
8
drills_PTH
10
17.78
20
5.08
30
0
40
0.40640000000000004
0
CIRCLE
8
drills_PTH
10
17.78
20
12.700000000000001
30
0
40
0.40640000000000004
0
CIRCLE
8
drills_PTH
10
15.24
20
12.700000000000001
30
0
40
0.40640000000000004
0
CIRCLE
8
drills_PTH
10
12.700000000000001
20
12.700000000000001
30
0
40
0.40640000000000004
0
CIRCLE
8
drills_PTH
10
10.16
20
12.700000000000001
30
0
40
0.40640000000000004
0
CIRCLE
8
drills_PTH
10
7.62
20
12.700000000000001
30
0
40
0.40640000000000004
0
CIRCLE
8
drills_PTH
10
5.08
20
12.700000000000001
30
0
40
0.40640000000000004
0
CIRCLE
8
drills_PTH
10
2.54
20
12.700000000000001
30
0
40
0.40640000000000004
0
CIRCLE
8
drills_PTH
10
0
20
12.700000000000001
30
0
40
0.40640000000000004
0
CIRCLE
8
drills_PTH
10
-2.54
20
12.700000000000001
30
0
40
0.40640000000000004
0
CIRCLE
8
drills_PTH
10
-5.08
20
12.700000000000001
30
0
40
0.40640000000000004
0
CIRCLE
8
drills_PTH
10
-7.62
20
12.700000000000001
30
0
40
0.40640000000000004
0
CIRCLE
8
drills_PTH
10
-10.16
20
12.700000000000001
30
0
40
0.40640000000000004
0
CIRCLE
8
drills_PTH
10
-12.700000000000001
20
12.700000000000001
30
0
40
0.40640000000000004
0
CIRCLE
8
drills_PTH
10
-15.24
20
12.700000000000001
30
0
40
0.40640000000000004
0
CIRCLE
8
drills_PTH
10
3.81
20
19.05
30
0
40
0.40640000000000004
0
CIRCLE
8
drills_PTH
10
6.3500000000000005
20
19.05
30
0
40
0.40640000000000004
0
CIRCLE
8
drills_PTH
10
1.27
20
19.05
30
0
40
0.40640000000000004
0
CIRCLE
8
drills_PTH
10
-3.81
20
-16.51
30
0
40
0.40640000000000004
0
CIRCLE
8
drills_PTH
10
-1.27
20
-16.51
30
0
40
0.40640000000000004
0
CIRCLE
8
drills_PTH
10
6.3500000000000005
20
-15.24
30
0
40
0.40640000000000004
0
CIRCLE
8
drills_PTH
10
6.3500000000000005
20
-7.62
30
0
40
0.3048
0
CIRCLE
8
drills_PTH
10
11.43
20
-7.62
30
0
40
0.3048
0
CIRCLE
8
drills_via_1_16
10
0
20
-6.3500000000000005
30
0
40
0.17500000000000002
0
CIRCLE
8
drills_via_1_16
10
-1.27
20
-3.81
30
0
40
0.17500000000000002
0
ENDSEC
0
EOF